<svg xmlns="http://www.w3.org/2000/svg" xmlns:xlink="http://www.w3.org/1999/xlink" width="874" zoomAndPan="magnify" viewBox="0 0 655.5 301.499996" height="402" preserveAspectRatio="xMidYMid meet" version="1.0"><defs><clipPath id="94bb5b53f7"><path d="M 220.523438 22.574219 L 434.667969 22.574219 L 434.667969 278.648438 L 220.523438 278.648438 Z M 220.523438 22.574219 " clip-rule="nonzero"/></clipPath><clipPath id="6c31facc6d"><path d="M 221 22.574219 L 285 22.574219 L 285 121 L 221 121 Z M 221 22.574219 " clip-rule="nonzero"/></clipPath><clipPath id="08a71c94a8"><path d="M 370 22.574219 L 434 22.574219 L 434 121 L 370 121 Z M 370 22.574219 " clip-rule="nonzero"/></clipPath><clipPath id="8a6a197495"><path d="M 220.523438 98 L 308 98 L 308 164 L 220.523438 164 Z M 220.523438 98 " clip-rule="nonzero"/></clipPath><clipPath id="e0020742f3"><path d="M 289 98 L 434.667969 98 L 434.667969 278.648438 L 289 278.648438 Z M 289 98 " clip-rule="nonzero"/></clipPath></defs><g clip-path="url(#94bb5b53f7)"><path fill="#3e3b3c" d="M 251.902344 116.910156 C 252.039062 117.167969 251.792969 117.28125 251.160156 117.242188 C 242.4375 116.691406 234.835938 113.683594 228.367188 108.214844 C 225.214844 105.550781 222.726562 102.445312 220.898438 98.898438 C 220.851562 98.8125 220.742188 98.777344 220.65625 98.824219 C 220.597656 98.859375 220.5625 98.921875 220.5625 98.988281 C 220.597656 99.523438 220.703125 100.117188 220.882812 100.773438 C 224.398438 113.785156 232.394531 122.957031 244.867188 128.28125 C 248.8125 129.964844 252.820312 131 256.902344 131.386719 C 256.976562 131.390625 257.03125 131.457031 257.027344 131.53125 C 257.027344 131.554688 257.015625 131.578125 257 131.597656 C 256.910156 131.738281 256.742188 131.828125 256.5 131.875 C 247.8125 133.589844 239.773438 132.085938 232.378906 127.351562 C 232.3125 127.308594 232.21875 127.324219 232.171875 127.390625 C 232.136719 127.445312 232.140625 127.515625 232.179688 127.566406 C 239.339844 137.425781 251.835938 141.546875 263.875 140.261719 C 263.976562 140.25 264.066406 140.320312 264.082031 140.421875 C 264.089844 140.484375 264.0625 140.546875 264.015625 140.585938 C 258.226562 145.507812 251.675781 147.238281 244.363281 145.78125 C 244.246094 145.761719 244.132812 145.84375 244.117188 145.964844 C 244.101562 146.054688 244.148438 146.148438 244.230469 146.191406 C 254.332031 150.699219 264.382812 150.65625 274.390625 146.066406 C 275.09375 145.746094 275.503906 145.558594 275.621094 145.515625 C 275.6875 145.480469 275.769531 145.511719 275.800781 145.578125 C 275.824219 145.628906 275.816406 145.6875 275.777344 145.726562 C 271.699219 150.652344 266.574219 153.613281 260.402344 154.601562 C 260.292969 154.621094 260.21875 154.730469 260.238281 154.839844 C 260.253906 154.910156 260.300781 154.96875 260.367188 154.992188 C 269.324219 158.164062 279.878906 155.488281 287.363281 150.019531 C 287.417969 149.980469 287.492188 149.996094 287.53125 150.050781 C 287.558594 150.085938 287.5625 150.136719 287.539062 150.179688 C 284.574219 155.648438 279.445312 158.515625 273.425781 159.542969 C 273.351562 159.5625 273.296875 159.636719 273.3125 159.710938 C 273.320312 159.761719 273.359375 159.804688 273.410156 159.820312 C 280.828125 161.957031 287.824219 161.21875 294.402344 157.601562 C 297.070312 156.136719 299.261719 154.289062 300.984375 152.054688 C 301.027344 152.003906 301.109375 151.996094 301.160156 152.042969 C 301.191406 152.070312 301.207031 152.105469 301.207031 152.148438 C 300.59375 156.664062 296.941406 160.78125 293.023438 162.738281 C 292.316406 163.09375 291.824219 163.367188 291.542969 163.554688 C 291.5 163.585938 291.488281 163.648438 291.519531 163.691406 C 291.539062 163.714844 291.566406 163.730469 291.601562 163.730469 C 295.730469 163.738281 299.449219 162.726562 302.757812 160.707031 C 304.976562 159.351562 306.707031 157.394531 307.953125 154.832031 C 309.332031 158.417969 311.140625 161.667969 313.375 164.582031 C 315.175781 166.9375 317.78125 170.136719 318.023438 173.167969 C 318.917969 184.503906 309.5 194.171875 299.671875 197.972656 C 295.492188 199.589844 290.085938 199.886719 286.21875 197.308594 C 286.195312 197.292969 286.160156 197.300781 286.148438 197.328125 C 286.136719 197.34375 286.140625 197.367188 286.148438 197.382812 C 291.539062 203.933594 301.105469 204.265625 308.316406 200.789062 C 308.386719 200.753906 308.472656 200.777344 308.511719 200.851562 C 308.535156 200.902344 308.53125 200.96875 308.492188 201.011719 C 303.808594 206.519531 302.203125 213.4375 304.851562 220.261719 C 304.882812 220.328125 304.964844 220.359375 305.03125 220.324219 C 305.074219 220.304688 305.105469 220.261719 305.109375 220.214844 C 305.300781 212.03125 311.257812 207.195312 317 202.335938 C 317.574219 205.832031 317.398438 209.066406 316.472656 212.039062 C 315.019531 216.726562 312.195312 220.203125 308.003906 222.46875 C 304.835938 224.179688 300.863281 225.085938 297.183594 226.34375 C 289.882812 228.847656 285.691406 235.121094 286.351562 242.882812 C 286.355469 242.898438 286.371094 242.90625 286.382812 242.902344 C 286.390625 242.898438 286.394531 242.894531 286.398438 242.886719 C 286.535156 242.34375 286.695312 241.679688 286.875 240.898438 C 287.503906 238.1875 288.910156 235.859375 291.101562 233.914062 C 294.707031 230.722656 298.324219 230.125 303.921875 228.625 C 309.824219 227.039062 315.75 224.402344 319.96875 219.96875 C 321.734375 218.121094 323.316406 215.996094 324.71875 213.597656 C 324.421875 224.335938 320.433594 233.71875 311.660156 240.046875 C 309.605469 241.253906 307.511719 242.425781 305.382812 243.558594 C 302.527344 245.078125 300.121094 246.527344 297.96875 248.40625 C 292.109375 253.515625 289.304688 259.8125 289.5625 267.304688 C 289.632812 269.355469 289.960938 271.277344 290.542969 273.070312 C 291.144531 274.910156 291.980469 276.667969 293.050781 278.34375 C 293.089844 278.40625 293.175781 278.421875 293.238281 278.375 C 293.285156 278.34375 293.304688 278.28125 293.289062 278.226562 C 292.082031 274.949219 291.761719 271.554688 292.324219 268.042969 C 292.34375 267.925781 292.382812 267.8125 292.441406 267.707031 C 292.746094 267.175781 292.910156 266.691406 292.929688 266.25 C 292.9375 266.117188 292.960938 265.984375 293.007812 265.859375 C 294.644531 261.550781 297.457031 258.167969 301.445312 255.714844 C 307.597656 251.925781 315.164062 251.257812 321.320312 247.878906 C 326.09375 245.253906 330.410156 240.785156 332.179688 235.449219 C 332.222656 235.320312 332.363281 235.253906 332.496094 235.296875 C 332.570312 235.324219 332.625 235.378906 332.648438 235.453125 C 334.125 240.230469 334.761719 245.847656 333.375 250.667969 C 332.695312 253.027344 331.636719 255.273438 330.191406 257.402344 C 329.398438 258.570312 328.367188 259.675781 327.089844 260.726562 C 323.632812 263.570312 319.683594 265.171875 315.246094 265.53125 C 315.1875 265.539062 315.152344 265.589844 315.15625 265.644531 C 315.164062 265.683594 315.191406 265.71875 315.230469 265.730469 C 321.601562 266.984375 327.738281 266.234375 333.183594 262.386719 C 335.621094 260.664062 337.496094 258.65625 338.816406 256.367188 C 343.363281 248.46875 342.84375 239.742188 340.992188 231.03125 C 340.191406 227.242188 339.492188 224.613281 339.601562 221.277344 C 339.601562 221.152344 339.710938 221.050781 339.835938 221.054688 C 339.90625 221.054688 339.972656 221.089844 340.015625 221.144531 C 342.511719 224.285156 344.296875 227.824219 345.375 231.761719 C 345.394531 231.832031 345.464844 231.871094 345.535156 231.855469 C 345.578125 231.839844 345.617188 231.804688 345.628906 231.757812 C 346.507812 228.171875 346.335938 225.757812 346.085938 221.117188 C 345.988281 219.332031 345.804688 217.894531 345.53125 216.800781 C 344.984375 214.628906 344.304688 212.671875 344.386719 212.105469 C 344.402344 212.003906 344.492188 211.933594 344.59375 211.949219 C 344.628906 211.953125 344.660156 211.964844 344.6875 211.988281 C 349.121094 215.535156 352.574219 220 354.65625 225.488281 C 357.375 232.664062 356.765625 241.789062 351.386719 247.699219 C 351.324219 247.773438 351.335938 247.882812 351.40625 247.945312 C 351.46875 247.996094 351.554688 248.003906 351.621094 247.957031 C 356.007812 244.765625 358.980469 240.769531 360.539062 235.96875 C 361.59375 232.730469 361.921875 229.214844 361.527344 225.429688 C 360.851562 218.953125 358.234375 213.789062 354.410156 208.359375 C 352.988281 206.339844 351.253906 204.296875 349.210938 202.234375 C 349.128906 202.148438 349.128906 202.011719 349.214844 201.929688 C 349.242188 201.90625 349.269531 201.890625 349.304688 201.878906 C 349.363281 201.863281 349.414062 201.859375 349.460938 201.875 C 351.949219 202.726562 354.640625 203.445312 357.40625 203.625 C 360.511719 203.824219 363.25 204.277344 365.53125 205.324219 C 370.34375 207.539062 372.851562 211.269531 373.046875 216.511719 C 373.042969 216.546875 373.066406 216.578125 373.101562 216.582031 C 373.132812 216.585938 373.164062 216.5625 373.167969 216.527344 C 374.648438 210.960938 372.300781 205.164062 367.703125 202.0625 C 366.101562 200.980469 364.578125 200.207031 363.140625 199.738281 C 359.566406 198.574219 356.949219 197.664062 355.289062 197.007812 C 350.300781 195.042969 346.140625 191.820312 342.800781 187.34375 C 341.488281 185.578125 340.375 183.570312 339.464844 181.3125 C 338.496094 178.914062 338.09375 176.667969 338.25 174.582031 C 338.476562 171.53125 339.589844 168.675781 341.59375 166.015625 C 344.234375 162.503906 346.582031 159.589844 347.976562 155.847656 C 348.042969 155.675781 348.234375 155.589844 348.402344 155.652344 C 348.480469 155.679688 348.542969 155.734375 348.582031 155.804688 C 351.621094 161.371094 358.273438 163.804688 364.320312 163.703125 C 364.398438 163.703125 364.460938 163.640625 364.460938 163.558594 C 364.460938 163.5 364.421875 163.445312 364.367188 163.425781 C 359.949219 161.667969 356.851562 158.582031 355.074219 154.164062 C 354.84375 153.585938 354.699219 152.933594 354.640625 152.203125 C 354.628906 152.085938 354.71875 151.984375 354.835938 151.972656 C 354.910156 151.96875 354.980469 152 355.023438 152.058594 C 359.621094 158.351562 367.777344 161.371094 375.339844 160.976562 C 377.582031 160.859375 379.867188 160.484375 382.191406 159.855469 C 382.269531 159.832031 382.3125 159.75 382.289062 159.671875 C 382.269531 159.617188 382.226562 159.578125 382.167969 159.566406 C 375.996094 158.691406 371.3125 155.597656 368.125 150.285156 C 368.070312 150.191406 368.101562 150.070312 368.199219 150.015625 C 368.257812 149.984375 368.335938 149.984375 368.394531 150.019531 C 368.402344 150.019531 368.4375 150.027344 368.503906 150.042969 C 368.511719 150.042969 368.515625 150.046875 368.523438 150.046875 C 376.554688 156.0625 386.066406 158.007812 395.507812 154.996094 C 395.570312 154.976562 395.601562 154.90625 395.582031 154.84375 C 395.566406 154.800781 395.53125 154.769531 395.488281 154.761719 C 389.125 153.742188 383.933594 150.742188 379.917969 145.769531 C 379.871094 145.707031 379.882812 145.621094 379.945312 145.574219 C 379.988281 145.546875 380.039062 145.539062 380.085938 145.5625 C 385.4375 148.207031 390.957031 149.546875 396.640625 149.574219 C 401.378906 149.597656 406.222656 148.335938 410.390625 146.566406 C 410.871094 146.359375 411.207031 146.132812 411.394531 145.894531 C 411.425781 145.855469 411.417969 145.796875 411.378906 145.765625 C 411.359375 145.746094 411.332031 145.742188 411.304688 145.746094 C 408.003906 146.242188 405.652344 146.390625 404.25 146.191406 C 399.394531 145.492188 395.101562 143.609375 391.371094 140.539062 C 391.292969 140.476562 391.277344 140.367188 391.335938 140.289062 C 391.378906 140.238281 391.441406 140.210938 391.503906 140.21875 C 403.585938 141.550781 415.859375 137.515625 423.289062 127.546875 C 423.328125 127.496094 423.316406 127.425781 423.265625 127.386719 C 423.230469 127.359375 423.179688 127.355469 423.140625 127.382812 C 415.761719 131.839844 407.21875 133.722656 398.738281 131.660156 C 398.625 131.636719 398.554688 131.527344 398.578125 131.414062 C 398.597656 131.320312 398.683594 131.25 398.78125 131.253906 C 401.003906 131.164062 403.355469 130.742188 405.84375 129.992188 C 413.339844 127.726562 419.699219 123.871094 424.921875 118.425781 C 429.613281 113.53125 432.804688 106.878906 434.226562 100.359375 C 434.355469 99.773438 434.421875 99.289062 434.425781 98.910156 C 434.429688 98.863281 434.398438 98.820312 434.351562 98.816406 C 434.3125 98.8125 434.273438 98.835938 434.261719 98.875 C 431.546875 104.8125 426.226562 109.632812 420.4375 112.746094 C 415.769531 115.25 410.664062 116.707031 405.117188 117.121094 C 404.355469 117.175781 404.089844 117.066406 404.324219 116.789062 C 414.601562 113.261719 424.441406 106.117188 429.386719 96.644531 C 432.316406 91.035156 433.746094 84.863281 433.671875 78.128906 C 433.671875 78.085938 433.632812 78.046875 433.589844 78.050781 C 433.558594 78.050781 433.53125 78.066406 433.515625 78.097656 C 432.714844 79.691406 432.257812 80.59375 432.140625 80.800781 C 428.238281 88.082031 421.109375 93.640625 413.496094 96.605469 C 413.421875 96.632812 413.335938 96.59375 413.308594 96.519531 C 413.285156 96.464844 413.304688 96.402344 413.351562 96.363281 C 417.679688 92.78125 421.367188 89.09375 424.277344 84.164062 C 430.226562 74.089844 431.464844 63.367188 427.996094 51.992188 C 427.980469 51.945312 427.929688 51.917969 427.882812 51.929688 C 427.847656 51.941406 427.820312 51.96875 427.816406 52.007812 C 426.203125 62.59375 421 71.140625 412.144531 76.945312 C 412.023438 77.023438 411.875 77.09375 411.703125 77.148438 C 411.652344 77.167969 411.597656 77.144531 411.578125 77.089844 C 411.570312 77.058594 411.570312 77.027344 411.589844 77 C 414.558594 72.691406 416.839844 68.046875 418.4375 63.066406 C 421.953125 52.117188 421.386719 41.5 416.746094 31.222656 C 415.195312 27.792969 413.605469 24.945312 411.984375 22.671875 C 411.929688 22.59375 411.828125 22.574219 411.753906 22.625 C 411.691406 22.667969 411.664062 22.742188 411.6875 22.8125 C 412.011719 24.082031 412.238281 25.96875 412.371094 28.472656 C 412.683594 34.421875 412.019531 40.242188 410.378906 45.933594 C 407.84375 54.375 403.667969 61.96875 397.847656 68.71875 C 397.804688 68.765625 397.734375 68.773438 397.6875 68.730469 C 397.660156 68.710938 397.644531 68.675781 397.648438 68.640625 C 397.957031 64.714844 397.5 60.847656 396.285156 57.039062 C 396.265625 56.996094 396.214844 56.972656 396.171875 56.988281 C 396.144531 57 396.125 57.023438 396.117188 57.046875 C 394.378906 65.242188 390.308594 72.898438 384.144531 78.484375 C 384.113281 78.523438 384.058594 78.523438 384.023438 78.488281 C 383.992188 78.457031 383.988281 78.414062 384.003906 78.378906 C 385.957031 74.535156 387.183594 70.289062 387.679688 65.632812 C 387.691406 65.601562 387.671875 65.570312 387.644531 65.5625 C 387.613281 65.550781 387.582031 65.566406 387.570312 65.597656 C 383.964844 72.085938 379.25 77.765625 373.429688 82.652344 C 372.078125 83.78125 369.960938 85.480469 367.078125 87.742188 C 362.171875 91.589844 359.445312 97.058594 356.5 102.496094 C 355.070312 105.128906 353.703125 107.257812 352.402344 108.875 C 350.265625 111.53125 347.621094 113.65625 344.46875 115.246094 C 344.300781 115.332031 344.097656 115.28125 343.984375 115.128906 C 342.738281 113.410156 341.582031 111.566406 340.523438 109.59375 C 340.519531 109.59375 340.515625 109.554688 340.515625 109.476562 C 340.511719 109.425781 340.507812 109.386719 340.496094 109.363281 C 340.484375 109.300781 340.519531 109.242188 340.582031 109.226562 C 340.613281 109.21875 340.652344 109.226562 340.679688 109.25 C 341.945312 110.394531 343.371094 111.222656 344.953125 111.730469 C 345.011719 111.757812 345.082031 111.738281 345.113281 111.679688 C 345.144531 111.621094 345.121094 111.550781 345.0625 111.519531 C 340.476562 108 338.679688 101.730469 338.257812 96.160156 C 338.253906 96.101562 338.300781 96.054688 338.355469 96.050781 C 338.390625 96.046875 338.425781 96.0625 338.445312 96.089844 C 339.75 97.816406 341.453125 99.085938 343.5625 99.898438 C 343.636719 99.933594 343.730469 99.902344 343.765625 99.824219 C 343.792969 99.761719 343.777344 99.6875 343.726562 99.644531 C 342.972656 98.890625 342.414062 98.425781 341.90625 97.601562 C 340.628906 95.527344 339.738281 93.683594 339.226562 92.074219 C 337.824219 87.617188 337.386719 85.25 335.421875 82.644531 C 335.375 82.582031 335.386719 82.492188 335.449219 82.441406 C 335.476562 82.417969 335.515625 82.410156 335.554688 82.414062 C 340.242188 82.929688 345.195312 81.007812 347.730469 76.941406 C 347.777344 76.867188 347.757812 76.769531 347.6875 76.722656 C 347.632812 76.683594 347.566406 76.683594 347.511719 76.722656 C 346.996094 77.042969 346.421875 77.585938 345.785156 77.855469 C 342.910156 79.089844 339.882812 79.453125 336.695312 78.945312 C 336.609375 78.9375 336.542969 78.859375 336.550781 78.769531 C 336.558594 78.699219 336.609375 78.644531 336.679688 78.628906 C 343.117188 77.007812 347.625 72.953125 347.886719 66 C 347.914062 65.265625 347.851562 64.71875 347.699219 64.363281 C 347.671875 64.308594 347.605469 64.28125 347.546875 64.304688 C 347.515625 64.320312 347.492188 64.347656 347.484375 64.382812 C 346.1875 69.621094 342.105469 72.722656 337.03125 73.734375 C 336.976562 73.75 336.921875 73.71875 336.90625 73.664062 C 336.894531 73.621094 336.914062 73.574219 336.953125 73.550781 C 340.003906 71.335938 341.429688 68.277344 341.226562 64.363281 C 341.21875 64.269531 341.140625 64.203125 341.046875 64.207031 C 340.980469 64.214844 340.925781 64.257812 340.902344 64.320312 C 339.5 68.808594 334.757812 71.457031 330.355469 72.621094 C 325.125 74 317.972656 74.488281 315.945312 80.585938 C 315.792969 81.050781 315.726562 81.75 315.554688 82.269531 C 315.507812 82.410156 315.414062 82.53125 315.292969 82.617188 C 311.589844 85.105469 309.386719 88.84375 309.445312 93.320312 C 309.445312 93.398438 309.507812 93.464844 309.585938 93.464844 C 309.628906 93.46875 309.675781 93.445312 309.703125 93.410156 C 311.4375 91.367188 313.605469 90.003906 316.199219 89.324219 C 319.363281 88.496094 322.25 88.945312 321.992188 92.957031 C 321.675781 97.90625 319.339844 102.828125 316.488281 106.664062 C 314.296875 109.621094 312.371094 112.402344 310.71875 115.007812 C 310.664062 115.097656 310.546875 115.128906 310.453125 115.078125 C 306.386719 112.835938 303.15625 109.621094 300.753906 105.433594 C 299.292969 102.886719 297.96875 100.503906 296.773438 98.296875 C 294.757812 94.566406 292.617188 91.578125 289.730469 88.898438 C 288.835938 88.066406 287.378906 86.894531 285.363281 85.375 C 280.207031 81.5 275.566406 76.75 271.777344 71.585938 C 270.265625 69.523438 269.03125 67.484375 268.066406 65.457031 C 268.042969 65.410156 267.988281 65.394531 267.945312 65.414062 C 267.910156 65.429688 267.890625 65.464844 267.898438 65.5 C 268.230469 70.035156 269.402344 74.300781 271.421875 78.296875 C 271.445312 78.347656 271.425781 78.40625 271.375 78.429688 C 271.351562 78.4375 271.332031 78.441406 271.308594 78.4375 C 271.210938 78.410156 271.125 78.359375 271.046875 78.289062 C 265.078125 72.507812 261.1875 65.457031 259.382812 57.128906 C 259.367188 57.046875 259.289062 56.996094 259.207031 57.011719 C 259.152344 57.023438 259.109375 57.0625 259.09375 57.113281 C 258.015625 60.84375 257.578125 64.648438 257.789062 68.527344 C 257.792969 68.628906 257.714844 68.714844 257.617188 68.71875 C 257.558594 68.722656 257.5 68.695312 257.464844 68.648438 C 255.25 65.804688 252.703125 62.601562 250.847656 59.335938 C 248.492188 55.183594 246.597656 50.808594 245.164062 46.210938 C 242.960938 38.464844 242.535156 30.621094 243.878906 22.683594 C 243.886719 22.636719 243.855469 22.59375 243.808594 22.585938 C 243.777344 22.578125 243.746094 22.589844 243.726562 22.621094 C 236.640625 32.941406 233.015625 44.207031 235.265625 56.734375 C 236.570312 64.007812 239.289062 70.695312 243.421875 76.804688 C 243.476562 76.875 243.46875 76.976562 243.398438 77.03125 C 243.335938 77.082031 243.253906 77.082031 243.195312 77.03125 C 234.398438 71.148438 229.230469 62.855469 227.691406 52.144531 C 227.683594 52.089844 227.632812 52.054688 227.582031 52.066406 C 227.5625 52.070312 227.542969 52.078125 227.53125 52.089844 C 227.464844 52.15625 227.425781 52.214844 227.410156 52.261719 C 225.472656 58.339844 224.992188 64.527344 225.964844 70.816406 C 227.507812 80.746094 233.542969 89.75 241.578125 95.980469 C 241.691406 96.0625 241.765625 96.164062 241.808594 96.285156 C 241.828125 96.339844 241.800781 96.402344 241.746094 96.425781 C 241.71875 96.4375 241.691406 96.4375 241.664062 96.425781 C 233.066406 93.136719 225.546875 86.726562 221.890625 78.195312 C 221.847656 78.105469 221.746094 78.070312 221.65625 78.113281 C 221.601562 78.140625 221.5625 78.195312 221.558594 78.257812 C 221.503906 86.71875 223.820312 94.996094 229.195312 101.722656 C 232.105469 105.363281 235.371094 108.394531 238.988281 110.816406 C 243.105469 113.570312 247.410156 115.601562 251.902344 116.910156 Z M 251.902344 116.910156 " fill-opacity="1" fill-rule="nonzero"/></g><g clip-path="url(#6c31facc6d)"><path fill="#a4a8d4" d="M 245.15625 46.230469 C 245 46.191406 244.878906 46.195312 244.792969 46.234375 C 244.710938 46.273438 244.675781 46.378906 244.6875 46.550781 C 244.769531 48.351562 244.796875 50.363281 244.765625 52.585938 C 244.742188 54.375 245.007812 56.753906 245.570312 59.730469 C 246.226562 63.207031 247.171875 67.128906 248.417969 71.5 C 249.644531 75.824219 251.125 78.808594 253.644531 84.246094 C 253.722656 84.417969 254.496094 86.21875 255.957031 89.648438 C 260.046875 99.226562 266.820312 106.445312 276.273438 111.296875 C 276.378906 111.355469 276.414062 111.488281 276.355469 111.59375 C 276.308594 111.679688 276.207031 111.722656 276.113281 111.699219 C 271.457031 110.289062 267.445312 108.105469 264.078125 105.152344 C 264.03125 105.105469 263.953125 105.109375 263.90625 105.160156 C 263.875 105.195312 263.863281 105.25 263.882812 105.296875 C 267.214844 113.1875 275.777344 117.957031 283.90625 119.472656 C 284.179688 119.523438 284.335938 119.628906 284.382812 119.785156 C 284.414062 119.890625 284.359375 120 284.257812 120.03125 C 284.25 120.03125 284.246094 120.035156 284.238281 120.035156 C 277.683594 121.421875 271.488281 120.597656 265.65625 117.566406 C 265.566406 117.519531 265.453125 117.550781 265.40625 117.640625 C 265.398438 117.65625 265.394531 117.671875 265.390625 117.6875 L 265.351562 117.847656 L 264.441406 116.925781 C 264.292969 116.777344 264.089844 116.699219 263.882812 116.714844 C 260.011719 117.011719 256.015625 117.074219 251.902344 116.914062 C 247.40625 115.601562 243.101562 113.574219 238.988281 110.820312 C 235.367188 108.398438 232.105469 105.367188 229.195312 101.726562 C 223.820312 94.996094 221.503906 86.71875 221.558594 78.261719 C 221.5625 78.164062 221.648438 78.089844 221.742188 78.097656 C 221.808594 78.101562 221.863281 78.136719 221.890625 78.195312 C 225.546875 86.726562 233.066406 93.136719 241.65625 96.441406 C 241.710938 96.464844 241.773438 96.441406 241.800781 96.382812 C 241.808594 96.359375 241.8125 96.328125 241.800781 96.304688 C 241.757812 96.183594 241.683594 96.082031 241.570312 96 C 233.535156 89.769531 227.5 80.765625 225.957031 70.835938 C 224.988281 64.546875 225.46875 58.359375 227.402344 52.277344 C 227.417969 52.234375 227.457031 52.175781 227.527344 52.109375 C 227.5625 52.070312 227.625 52.074219 227.660156 52.113281 C 227.675781 52.125 227.683594 52.144531 227.6875 52.160156 C 229.226562 62.871094 234.390625 71.167969 243.1875 77.050781 C 243.257812 77.105469 243.359375 77.09375 243.414062 77.023438 C 243.460938 76.964844 243.460938 76.882812 243.414062 76.824219 C 239.28125 70.714844 236.5625 64.023438 235.257812 56.75 C 233.011719 44.222656 236.632812 32.960938 243.71875 22.636719 C 243.746094 22.597656 243.796875 22.589844 243.835938 22.617188 C 243.863281 22.636719 243.878906 22.671875 243.871094 22.703125 C 242.527344 30.640625 242.953125 38.480469 245.15625 46.230469 Z M 245.15625 46.230469 " fill-opacity="1" fill-rule="nonzero"/></g><g clip-path="url(#08a71c94a8)"><path fill="#a4a8d4" d="M 404.3125 116.796875 C 402.34375 117.027344 400.609375 117.097656 399.117188 117.007812 C 395.714844 116.800781 393.164062 116.683594 391.46875 116.65625 C 391.332031 116.65625 391.199219 116.71875 391.113281 116.824219 C 390.625 117.421875 390.242188 117.792969 389.964844 117.9375 C 388.222656 118.464844 386.535156 118.980469 384.90625 119.480469 C 382.917969 120.089844 381.289062 120.453125 380.015625 120.570312 C 376.769531 120.867188 373.574219 121.089844 370.296875 120.203125 C 370.097656 120.148438 369.980469 119.941406 370.035156 119.742188 C 370.074219 119.597656 370.195312 119.488281 370.339844 119.46875 C 374.824219 118.800781 379.023438 117.335938 382.941406 115.074219 C 386.402344 113.070312 389.042969 110.367188 390.859375 106.957031 C 391.007812 106.671875 391.113281 106.425781 391.171875 106.210938 C 391.203125 106.101562 391.136719 105.992188 391.03125 105.964844 C 390.96875 105.949219 390.902344 105.960938 390.855469 106 C 387.929688 108.34375 384.644531 110.042969 381.007812 111.09375 C 380.507812 111.238281 379.875 111.332031 379.105469 111.375 C 379.042969 111.375 378.984375 111.324219 378.980469 111.261719 C 378.976562 111.21875 379 111.175781 379.042969 111.15625 L 381.105469 110.105469 C 381.171875 110.074219 381.238281 110.035156 381.300781 109.992188 C 385.023438 107.457031 387.410156 105.753906 388.46875 104.890625 C 390.664062 103.097656 392.917969 100.425781 395.242188 97.472656 C 396.269531 96.152344 397.097656 94.363281 396.386719 92.691406 C 396.285156 92.457031 396.390625 92.1875 396.621094 92.082031 C 398.871094 91.050781 400.269531 87.753906 401.203125 85.546875 C 403.289062 80.613281 405.707031 75.542969 407.164062 70.484375 C 409.234375 63.308594 410.792969 56.570312 410.722656 48.769531 C 410.714844 48.128906 410.789062 47.359375 410.941406 46.464844 C 410.96875 46.324219 410.902344 46.179688 410.78125 46.097656 C 410.660156 46.019531 410.523438 45.96875 410.367188 45.941406 C 412.007812 40.246094 412.675781 34.425781 412.363281 28.480469 C 412.230469 25.976562 412.003906 24.089844 411.675781 22.820312 C 411.652344 22.730469 411.699219 22.640625 411.789062 22.613281 C 411.859375 22.59375 411.933594 22.621094 411.972656 22.679688 C 413.597656 24.953125 415.183594 27.800781 416.734375 31.230469 C 421.378906 41.507812 421.941406 52.121094 418.429688 63.074219 C 416.832031 68.054688 414.550781 72.699219 411.582031 77.007812 C 411.550781 77.054688 411.5625 77.117188 411.609375 77.148438 C 411.632812 77.164062 411.664062 77.167969 411.695312 77.15625 C 411.867188 77.101562 412.011719 77.03125 412.136719 76.949219 C 420.992188 71.148438 426.195312 62.601562 427.808594 52.015625 C 427.8125 51.964844 427.859375 51.929688 427.910156 51.933594 C 427.945312 51.941406 427.976562 51.964844 427.988281 52 C 431.457031 63.375 430.214844 74.097656 424.269531 84.167969 C 421.359375 89.101562 417.671875 92.789062 413.339844 96.367188 C 413.28125 96.417969 413.273438 96.511719 413.324219 96.570312 C 413.363281 96.617188 413.429688 96.632812 413.484375 96.613281 C 421.101562 93.648438 428.230469 88.089844 432.132812 80.808594 C 432.246094 80.597656 432.703125 79.695312 433.507812 78.101562 C 433.527344 78.0625 433.578125 78.042969 433.621094 78.066406 C 433.644531 78.078125 433.664062 78.105469 433.664062 78.136719 C 433.738281 84.871094 432.308594 91.039062 429.378906 96.652344 C 424.433594 106.125 414.589844 113.269531 404.3125 116.796875 Z M 404.3125 116.796875 " fill-opacity="1" fill-rule="nonzero"/></g><path fill="#cfdcff" d="M 389.964844 117.9375 C 386.726562 121.816406 383 124.800781 378.792969 126.886719 C 377.050781 127.746094 376.082031 128.21875 375.882812 128.304688 C 373.273438 129.410156 371.230469 130.226562 369.753906 130.757812 C 368.90625 131.058594 367.703125 131.789062 367.023438 132.289062 C 364.046875 134.507812 360.707031 136.257812 357 137.542969 C 356.683594 137.65625 356.378906 137.796875 356.089844 137.972656 C 347.304688 143.332031 340.820312 150.195312 336.640625 158.5625 C 333.957031 163.933594 332.480469 170.28125 332.203125 177.605469 C 332.148438 179.054688 332.382812 180.644531 332.445312 182.378906 C 332.480469 183.269531 332.632812 184.453125 332.90625 185.9375 C 333.371094 188.464844 334.011719 191.292969 334.824219 194.414062 C 335.832031 198.277344 336.425781 201.105469 336.613281 202.90625 C 336.972656 206.363281 337.078125 209.324219 336.933594 211.78125 C 336.59375 217.394531 334.910156 222.445312 331.875 226.9375 C 327.300781 233.710938 320.035156 237.949219 312.363281 240.425781 C 312.179688 240.484375 311.96875 240.46875 311.738281 240.382812 C 311.667969 240.355469 311.640625 240.246094 311.652344 240.050781 C 320.425781 233.722656 324.414062 224.339844 324.710938 213.601562 C 325.117188 207.863281 324.277344 202.070312 322.183594 196.214844 C 322.117188 196.035156 322.023438 195.898438 321.90625 195.808594 C 321.792969 195.722656 321.628906 195.746094 321.542969 195.859375 C 321.535156 195.871094 321.527344 195.882812 321.523438 195.898438 C 320.242188 198.402344 318.734375 200.546875 316.996094 202.339844 C 311.253906 207.195312 305.296875 212.03125 305.105469 220.214844 C 305.097656 220.289062 305.035156 220.34375 304.960938 220.339844 C 304.910156 220.335938 304.867188 220.308594 304.847656 220.261719 C 302.199219 213.4375 303.804688 206.519531 308.488281 201.011719 C 308.539062 200.953125 308.53125 200.859375 308.472656 200.808594 C 308.429688 200.769531 308.367188 200.761719 308.3125 200.789062 C 301.101562 204.269531 291.535156 203.933594 286.148438 197.382812 C 286.132812 197.359375 286.136719 197.328125 286.160156 197.3125 C 286.179688 197.300781 286.199219 197.300781 286.21875 197.308594 C 290.082031 199.886719 295.492188 199.589844 299.667969 197.972656 C 309.496094 194.171875 318.914062 184.507812 318.019531 173.167969 C 317.777344 170.140625 315.171875 166.941406 313.371094 164.582031 C 311.136719 161.671875 309.328125 158.421875 307.953125 154.832031 C 307.675781 153.800781 307.375 152.671875 307.046875 151.441406 C 305.933594 147.300781 305.484375 143.167969 305.699219 139.042969 C 305.710938 138.847656 305.5625 138.679688 305.363281 138.667969 C 298.523438 138.238281 292.996094 135.652344 287.800781 131.269531 C 287.457031 130.976562 287.050781 130.765625 286.609375 130.65625 C 278.449219 128.570312 270.859375 124.214844 265.351562 117.847656 L 265.390625 117.6875 C 265.414062 117.589844 265.507812 117.527344 265.609375 117.550781 C 265.625 117.554688 265.644531 117.558594 265.65625 117.566406 C 271.492188 120.597656 277.6875 121.421875 284.242188 120.039062 C 284.34375 120.015625 284.410156 119.914062 284.390625 119.808594 C 284.386719 119.800781 284.386719 119.792969 284.382812 119.789062 C 284.339844 119.632812 284.179688 119.527344 283.910156 119.472656 C 275.777344 117.960938 267.214844 113.1875 263.886719 105.300781 C 263.859375 105.234375 263.886719 105.160156 263.949219 105.132812 C 263.992188 105.113281 264.046875 105.121094 264.082031 105.15625 C 267.449219 108.109375 271.457031 110.292969 276.113281 111.703125 C 276.230469 111.734375 276.347656 111.664062 276.378906 111.546875 C 276.402344 111.449219 276.363281 111.347656 276.273438 111.300781 C 266.820312 106.449219 260.050781 99.230469 255.960938 89.652344 C 254.496094 86.222656 253.726562 84.421875 253.648438 84.25 C 251.125 78.8125 249.644531 75.828125 248.417969 71.503906 C 247.175781 67.132812 246.226562 63.210938 245.574219 59.734375 C 245.011719 56.757812 244.742188 54.378906 244.765625 52.589844 C 244.796875 50.367188 244.773438 48.355469 244.6875 46.554688 C 244.679688 46.382812 244.714844 46.277344 244.796875 46.238281 C 244.878906 46.195312 245 46.195312 245.15625 46.234375 C 246.589844 50.828125 248.488281 55.203125 250.84375 59.359375 C 252.699219 62.621094 255.246094 65.828125 257.460938 68.671875 C 257.519531 68.75 257.632812 68.765625 257.710938 68.703125 C 257.757812 68.664062 257.785156 68.609375 257.785156 68.550781 C 257.574219 64.671875 258.007812 60.867188 259.089844 57.136719 C 259.113281 57.058594 259.195312 57.011719 259.273438 57.035156 C 259.328125 57.050781 259.367188 57.09375 259.375 57.148438 C 261.183594 65.476562 265.070312 72.53125 271.042969 78.308594 C 271.117188 78.382812 271.207031 78.429688 271.304688 78.457031 C 271.359375 78.46875 271.414062 78.433594 271.425781 78.382812 C 271.429688 78.359375 271.425781 78.335938 271.417969 78.316406 C 269.398438 74.324219 268.222656 70.058594 267.890625 65.519531 C 267.886719 65.472656 267.921875 65.429688 267.972656 65.425781 C 268.011719 65.421875 268.046875 65.445312 268.0625 65.476562 C 269.027344 67.5 270.261719 69.542969 271.773438 71.605469 C 275.558594 76.773438 280.203125 81.519531 285.355469 85.394531 C 287.375 86.910156 288.828125 88.085938 289.726562 88.917969 C 292.609375 91.597656 294.753906 94.585938 296.769531 98.316406 C 297.964844 100.527344 299.289062 102.90625 300.75 105.457031 C 303.152344 109.640625 306.382812 112.855469 310.449219 115.101562 C 310.542969 115.148438 310.660156 115.121094 310.714844 115.03125 C 312.367188 112.421875 314.289062 109.640625 316.484375 106.6875 C 319.332031 102.851562 321.671875 97.925781 321.988281 92.976562 C 322.246094 88.964844 319.359375 88.515625 316.195312 89.347656 C 313.601562 90.023438 311.433594 91.386719 309.695312 93.429688 C 309.648438 93.492188 309.558594 93.503906 309.496094 93.457031 C 309.460938 93.425781 309.4375 93.382812 309.441406 93.339844 C 309.382812 88.863281 311.585938 85.125 315.289062 82.636719 C 315.410156 82.554688 315.5 82.429688 315.550781 82.289062 C 315.71875 81.769531 315.785156 81.070312 315.9375 80.609375 C 317.96875 74.507812 325.121094 74.023438 330.347656 72.644531 C 334.753906 71.476562 339.496094 68.828125 340.898438 64.34375 C 340.925781 64.253906 341.019531 64.207031 341.105469 64.238281 C 341.171875 64.257812 341.214844 64.316406 341.222656 64.382812 C 341.425781 68.296875 340 71.359375 336.949219 73.570312 C 336.898438 73.597656 336.882812 73.65625 336.910156 73.707031 C 336.933594 73.746094 336.980469 73.765625 337.027344 73.753906 C 342.101562 72.738281 346.183594 69.640625 347.480469 64.398438 C 347.496094 64.339844 347.554688 64.304688 347.617188 64.316406 C 347.652344 64.328125 347.679688 64.351562 347.691406 64.382812 C 347.847656 64.738281 347.910156 65.28125 347.878906 66.019531 C 347.617188 72.972656 343.113281 77.027344 336.671875 78.644531 C 336.585938 78.664062 336.53125 78.75 336.546875 78.835938 C 336.5625 78.90625 336.621094 78.957031 336.691406 78.964844 C 339.875 79.472656 342.90625 79.105469 345.78125 77.875 C 346.414062 77.601562 346.992188 77.0625 347.507812 76.738281 C 347.578125 76.691406 347.675781 76.710938 347.726562 76.78125 C 347.761719 76.835938 347.761719 76.902344 347.726562 76.957031 C 345.1875 81.023438 340.234375 82.945312 335.546875 82.429688 C 335.46875 82.421875 335.398438 82.476562 335.386719 82.554688 C 335.382812 82.59375 335.394531 82.632812 335.417969 82.660156 C 337.382812 85.265625 337.820312 87.632812 339.222656 92.09375 C 339.730469 93.703125 340.625 95.542969 341.902344 97.617188 C 342.410156 98.445312 342.96875 98.90625 343.722656 99.660156 C 343.785156 99.714844 343.792969 99.8125 343.738281 99.878906 C 343.691406 99.929688 343.617188 99.945312 343.554688 99.914062 C 341.449219 99.101562 339.746094 97.832031 338.441406 96.109375 C 338.40625 96.0625 338.339844 96.054688 338.292969 96.089844 C 338.265625 96.113281 338.253906 96.144531 338.253906 96.179688 C 338.671875 101.75 340.46875 108.019531 345.058594 111.539062 C 345.117188 111.570312 345.136719 111.640625 345.109375 111.699219 C 345.078125 111.753906 345.007812 111.777344 344.949219 111.746094 C 343.367188 111.242188 341.941406 110.414062 340.675781 109.269531 C 340.625 109.226562 340.554688 109.234375 340.515625 109.285156 C 340.492188 109.3125 340.484375 109.347656 340.492188 109.382812 C 340.5 109.40625 340.507812 109.445312 340.511719 109.496094 C 340.511719 109.574219 340.515625 109.613281 340.519531 109.613281 C 341.578125 111.585938 342.730469 113.429688 343.980469 115.148438 C 344.089844 115.300781 344.296875 115.351562 344.464844 115.265625 C 347.617188 113.675781 350.257812 111.550781 352.398438 108.894531 C 353.699219 107.277344 355.066406 105.148438 356.496094 102.511719 C 359.441406 97.074219 362.164062 91.605469 367.070312 87.761719 C 369.957031 85.5 372.074219 83.800781 373.425781 82.667969 C 379.246094 77.789062 383.957031 72.105469 387.566406 65.617188 C 387.578125 65.585938 387.609375 65.570312 387.636719 65.582031 C 387.667969 65.589844 387.683594 65.621094 387.675781 65.652344 C 387.175781 70.308594 385.953125 74.554688 384 78.394531 C 383.976562 78.441406 383.992188 78.496094 384.035156 78.519531 C 384.070312 78.539062 384.113281 78.535156 384.140625 78.503906 C 390.300781 72.917969 394.375 65.257812 396.109375 57.066406 C 396.125 57.023438 396.171875 56.992188 396.21875 57.007812 C 396.246094 57.015625 396.265625 57.03125 396.277344 57.058594 C 397.492188 60.867188 397.949219 64.734375 397.644531 68.660156 C 397.636719 68.71875 397.683594 68.773438 397.746094 68.777344 C 397.78125 68.78125 397.816406 68.765625 397.839844 68.738281 C 403.660156 61.988281 407.835938 54.394531 410.371094 45.953125 C 410.523438 45.980469 410.664062 46.03125 410.785156 46.113281 C 410.90625 46.191406 410.96875 46.335938 410.941406 46.480469 C 410.789062 47.371094 410.71875 48.140625 410.722656 48.785156 C 410.792969 56.582031 409.234375 63.320312 407.164062 70.496094 C 405.707031 75.554688 403.289062 80.625 401.203125 85.5625 C 400.269531 87.765625 398.875 91.066406 396.621094 92.09375 C 396.390625 92.199219 396.285156 92.46875 396.386719 92.707031 C 397.097656 94.378906 396.273438 96.167969 395.242188 97.484375 C 392.921875 100.4375 390.664062 103.109375 388.46875 104.902344 C 387.414062 105.769531 385.023438 107.46875 381.300781 110.007812 C 381.242188 110.050781 381.175781 110.085938 381.105469 110.121094 L 379.046875 111.167969 C 378.988281 111.195312 378.964844 111.261719 378.992188 111.320312 C 379.015625 111.363281 379.058594 111.386719 379.105469 111.386719 C 379.875 111.34375 380.507812 111.25 381.011719 111.105469 C 384.648438 110.054688 387.929688 108.355469 390.855469 106.015625 C 390.941406 105.945312 391.070312 105.960938 391.136719 106.046875 C 391.179688 106.097656 391.191406 106.160156 391.175781 106.222656 C 391.117188 106.4375 391.011719 106.6875 390.859375 106.96875 C 389.046875 110.378906 386.40625 113.085938 382.945312 115.085938 C 379.027344 117.351562 374.828125 118.816406 370.34375 119.480469 C 370.140625 119.511719 369.996094 119.703125 370.027344 119.90625 C 370.050781 120.054688 370.15625 120.175781 370.300781 120.214844 C 373.578125 121.101562 376.773438 120.878906 380.019531 120.582031 C 381.292969 120.464844 382.921875 120.105469 384.910156 119.496094 C 386.535156 118.980469 388.222656 118.464844 389.964844 117.9375 Z M 389.964844 117.9375 " fill-opacity="1" fill-rule="nonzero"/><g clip-path="url(#8a6a197495)"><path fill="#a4a8d4" d="M 251.902344 116.910156 C 256.019531 117.074219 260.011719 117.007812 263.882812 116.714844 C 264.089844 116.695312 264.296875 116.773438 264.441406 116.921875 L 265.351562 117.84375 C 270.859375 124.210938 278.449219 128.566406 286.609375 130.652344 C 287.050781 130.765625 287.457031 130.976562 287.800781 131.269531 C 292.996094 135.648438 298.523438 138.234375 305.363281 138.667969 C 305.558594 138.675781 305.710938 138.84375 305.699219 139.039062 C 305.484375 143.167969 305.933594 147.300781 307.046875 151.441406 C 307.375 152.667969 307.675781 153.796875 307.953125 154.832031 C 306.707031 157.394531 304.976562 159.351562 302.757812 160.703125 C 299.445312 162.726562 295.726562 163.734375 291.597656 163.730469 C 291.546875 163.730469 291.5 163.6875 291.5 163.636719 C 291.5 163.601562 291.515625 163.574219 291.542969 163.554688 C 291.820312 163.363281 292.3125 163.09375 293.019531 162.738281 C 296.941406 160.777344 300.59375 156.664062 301.203125 152.148438 C 301.210938 152.078125 301.15625 152.015625 301.089844 152.011719 C 301.046875 152.007812 301.007812 152.023438 300.980469 152.054688 C 299.261719 154.289062 297.066406 156.136719 294.398438 157.601562 C 287.824219 161.21875 280.828125 161.957031 273.40625 159.820312 C 273.332031 159.800781 273.292969 159.71875 273.3125 159.644531 C 273.328125 159.59375 273.371094 159.554688 273.425781 159.542969 C 279.441406 158.515625 284.570312 155.648438 287.539062 150.179688 C 287.570312 150.121094 287.550781 150.046875 287.488281 150.011719 C 287.449219 149.992188 287.398438 149.996094 287.359375 150.023438 C 279.878906 155.488281 269.324219 158.164062 260.367188 154.992188 C 260.261719 154.953125 260.207031 154.835938 260.25 154.730469 C 260.273438 154.664062 260.332031 154.617188 260.402344 154.601562 C 266.574219 153.613281 271.699219 150.65625 275.777344 145.730469 C 275.824219 145.675781 275.824219 145.589844 275.765625 145.539062 C 275.726562 145.5 275.667969 145.492188 275.617188 145.515625 C 275.503906 145.5625 275.09375 145.746094 274.386719 146.070312 C 264.382812 150.65625 254.328125 150.699219 244.230469 146.191406 C 244.125 146.136719 244.082031 146.003906 244.136719 145.898438 C 244.179688 145.816406 244.269531 145.765625 244.363281 145.78125 C 251.675781 147.238281 258.222656 145.507812 264.015625 140.585938 C 264.09375 140.523438 264.101562 140.40625 264.039062 140.328125 C 264 140.28125 263.9375 140.257812 263.875 140.261719 C 251.835938 141.546875 239.339844 137.425781 232.175781 127.566406 C 232.128906 127.503906 232.136719 127.410156 232.203125 127.359375 C 232.253906 127.320312 232.324219 127.316406 232.378906 127.355469 C 239.769531 132.085938 247.8125 133.59375 256.5 131.875 C 256.742188 131.828125 256.910156 131.738281 257 131.601562 C 257.042969 131.539062 257.03125 131.453125 256.96875 131.410156 C 256.949219 131.398438 256.925781 131.386719 256.902344 131.386719 C 252.820312 131 248.8125 129.964844 244.867188 128.28125 C 232.394531 122.957031 224.398438 113.785156 220.882812 100.773438 C 220.703125 100.117188 220.597656 99.523438 220.5625 98.988281 C 220.558594 98.890625 220.636719 98.808594 220.738281 98.804688 C 220.804688 98.800781 220.867188 98.835938 220.898438 98.898438 C 222.726562 102.445312 225.21875 105.550781 228.367188 108.214844 C 234.835938 113.683594 242.4375 116.691406 251.160156 117.242188 C 251.792969 117.28125 252.039062 117.167969 251.902344 116.910156 Z M 251.902344 116.910156 " fill-opacity="1" fill-rule="nonzero"/></g><g clip-path="url(#e0020742f3)"><path fill="#a4a8d4" d="M 311.65625 240.046875 C 311.640625 240.242188 311.667969 240.355469 311.738281 240.378906 C 311.972656 240.46875 312.179688 240.484375 312.367188 240.421875 C 320.035156 237.949219 327.300781 233.710938 331.875 226.9375 C 334.910156 222.445312 336.597656 217.390625 336.933594 211.78125 C 337.078125 209.320312 336.972656 206.363281 336.613281 202.902344 C 336.429688 201.105469 335.832031 198.277344 334.824219 194.414062 C 334.011719 191.289062 333.371094 188.464844 332.90625 185.933594 C 332.632812 184.453125 332.480469 183.269531 332.449219 182.378906 C 332.382812 180.644531 332.152344 179.050781 332.203125 177.601562 C 332.480469 170.28125 333.960938 163.933594 336.640625 158.5625 C 340.824219 150.195312 347.304688 143.328125 356.089844 137.96875 C 356.378906 137.796875 356.683594 137.652344 357 137.542969 C 360.707031 136.257812 364.050781 134.503906 367.027344 132.289062 C 367.703125 131.789062 368.90625 131.058594 369.753906 130.757812 C 371.234375 130.226562 373.277344 129.410156 375.882812 128.304688 C 376.082031 128.21875 377.054688 127.746094 378.792969 126.886719 C 383.003906 124.800781 386.726562 121.816406 389.964844 117.933594 C 390.246094 117.789062 390.625 117.417969 391.113281 116.820312 C 391.199219 116.714844 391.332031 116.652344 391.472656 116.65625 C 393.167969 116.679688 395.714844 116.796875 399.117188 117.003906 C 400.613281 117.09375 402.34375 117.023438 404.316406 116.796875 C 404.082031 117.070312 404.347656 117.183594 405.109375 117.125 C 410.65625 116.714844 415.761719 115.253906 420.429688 112.75 C 426.21875 109.636719 431.539062 104.816406 434.253906 98.878906 C 434.269531 98.835938 434.3125 98.8125 434.359375 98.824219 C 434.394531 98.835938 434.421875 98.875 434.414062 98.914062 C 434.414062 99.296875 434.347656 99.777344 434.21875 100.363281 C 432.796875 106.882812 429.605469 113.535156 424.914062 118.433594 C 419.691406 123.875 413.332031 127.730469 405.832031 129.996094 C 403.347656 130.746094 400.996094 131.167969 398.769531 131.257812 C 398.65625 131.257812 398.566406 131.347656 398.5625 131.460938 C 398.5625 131.558594 398.632812 131.644531 398.726562 131.664062 C 407.210938 133.726562 415.75 131.847656 423.132812 127.386719 C 423.183594 127.355469 423.253906 127.371094 423.285156 127.425781 C 423.308594 127.464844 423.308594 127.515625 423.28125 127.550781 C 415.847656 137.519531 403.574219 141.558594 391.496094 140.226562 C 391.398438 140.210938 391.308594 140.277344 391.292969 140.375 C 391.28125 140.441406 391.308594 140.503906 391.359375 140.542969 C 395.09375 143.613281 399.386719 145.496094 404.238281 146.195312 C 405.640625 146.394531 407.992188 146.25 411.296875 145.75 C 411.34375 145.742188 411.394531 145.773438 411.402344 145.824219 C 411.40625 145.851562 411.398438 145.878906 411.382812 145.898438 C 411.195312 146.140625 410.863281 146.363281 410.378906 146.570312 C 406.214844 148.34375 401.371094 149.601562 396.628906 149.582031 C 390.945312 149.550781 385.425781 148.214844 380.074219 145.566406 C 380.003906 145.535156 379.921875 145.566406 379.890625 145.636719 C 379.871094 145.683594 379.875 145.734375 379.90625 145.777344 C 383.925781 150.75 389.113281 153.746094 395.476562 154.765625 C 395.542969 154.777344 395.589844 154.84375 395.574219 154.910156 C 395.566406 154.953125 395.535156 154.988281 395.496094 155 C 386.054688 158.011719 376.542969 156.066406 368.511719 150.054688 C 368.503906 150.050781 368.5 150.050781 368.492188 150.050781 C 368.425781 150.03125 368.386719 150.023438 368.382812 150.023438 C 368.289062 149.96875 368.167969 150 368.113281 150.09375 C 368.078125 150.152344 368.078125 150.226562 368.113281 150.289062 C 371.300781 155.601562 375.984375 158.695312 382.160156 159.574219 C 382.238281 159.585938 382.296875 159.660156 382.28125 159.742188 C 382.273438 159.796875 382.234375 159.84375 382.179688 159.863281 C 379.855469 160.488281 377.570312 160.863281 375.328125 160.980469 C 367.765625 161.378906 359.613281 158.355469 355.011719 152.0625 C 354.941406 151.96875 354.808594 151.953125 354.714844 152.023438 C 354.65625 152.066406 354.625 152.136719 354.628906 152.207031 C 354.691406 152.9375 354.835938 153.589844 355.066406 154.167969 C 356.839844 158.585938 359.9375 161.671875 364.355469 163.429688 C 364.429688 163.453125 364.472656 163.539062 364.441406 163.613281 C 364.421875 163.667969 364.367188 163.707031 364.308594 163.707031 C 358.265625 163.804688 351.613281 161.371094 348.570312 155.808594 C 348.480469 155.644531 348.28125 155.585938 348.121094 155.675781 C 348.050781 155.710938 347.996094 155.777344 347.96875 155.851562 C 346.570312 159.589844 344.222656 162.507812 341.582031 166.019531 C 339.582031 168.679688 338.46875 171.535156 338.238281 174.585938 C 338.082031 176.671875 338.488281 178.914062 339.453125 181.316406 C 340.363281 183.570312 341.476562 185.582031 342.792969 187.347656 C 346.128906 191.824219 350.289062 195.042969 355.277344 197.011719 C 356.9375 197.667969 359.554688 198.578125 363.128906 199.738281 C 364.570312 200.207031 366.089844 200.980469 367.695312 202.066406 C 372.289062 205.164062 374.636719 210.964844 373.15625 216.527344 C 373.152344 216.5625 373.125 216.585938 373.089844 216.582031 C 373.058594 216.578125 373.03125 216.550781 373.035156 216.515625 C 372.839844 211.273438 370.335938 207.542969 365.519531 205.324219 C 363.242188 204.277344 360.5 203.824219 357.398438 203.628906 C 354.632812 203.449219 351.9375 202.730469 349.449219 201.878906 C 349.402344 201.863281 349.351562 201.867188 349.292969 201.882812 C 349.179688 201.917969 349.117188 202.035156 349.148438 202.148438 C 349.160156 202.183594 349.175781 202.210938 349.199219 202.234375 C 351.242188 204.300781 352.976562 206.34375 354.398438 208.363281 C 358.226562 213.792969 360.839844 218.953125 361.515625 225.433594 C 361.910156 229.21875 361.582031 232.730469 360.53125 235.972656 C 358.972656 240.773438 355.996094 244.769531 351.609375 247.960938 C 351.53125 248.015625 351.421875 247.996094 351.367188 247.914062 C 351.320312 247.847656 351.328125 247.761719 351.378906 247.703125 C 356.753906 241.789062 357.367188 232.664062 354.648438 225.488281 C 352.566406 220.003906 349.113281 215.539062 344.679688 211.988281 C 344.597656 211.925781 344.480469 211.9375 344.414062 212.015625 C 344.394531 212.042969 344.382812 212.074219 344.378906 212.105469 C 344.292969 212.675781 344.976562 214.628906 345.519531 216.804688 C 345.792969 217.894531 345.980469 219.332031 346.074219 221.121094 C 346.324219 225.757812 346.5 228.171875 345.617188 231.761719 C 345.601562 231.832031 345.527344 231.871094 345.457031 231.855469 C 345.414062 231.84375 345.375 231.808594 345.363281 231.765625 C 344.285156 227.824219 342.5 224.285156 340.003906 221.144531 C 339.925781 221.042969 339.78125 221.027344 339.679688 221.105469 C 339.625 221.144531 339.589844 221.210938 339.589844 221.28125 C 339.480469 224.617188 340.179688 227.242188 340.980469 231.035156 C 342.832031 239.746094 343.351562 248.472656 338.804688 256.371094 C 337.484375 258.660156 335.609375 260.667969 333.171875 262.386719 C 327.726562 266.238281 321.589844 266.988281 315.21875 265.730469 C 315.164062 265.71875 315.132812 265.660156 315.148438 265.609375 C 315.160156 265.570312 315.191406 265.539062 315.230469 265.535156 C 319.671875 265.175781 323.621094 263.574219 327.078125 260.730469 C 328.355469 259.679688 329.386719 258.570312 330.179688 257.40625 C 331.621094 255.273438 332.683594 253.03125 333.363281 250.671875 C 334.75 245.847656 334.113281 240.230469 332.636719 235.457031 C 332.59375 235.328125 332.453125 235.253906 332.324219 235.296875 C 332.25 235.324219 332.191406 235.378906 332.167969 235.453125 C 330.398438 240.785156 326.082031 245.253906 321.308594 247.882812 C 315.148438 251.261719 307.585938 251.929688 301.433594 255.714844 C 297.445312 258.171875 294.632812 261.554688 292.996094 265.863281 C 292.949219 265.988281 292.925781 266.117188 292.917969 266.25 C 292.898438 266.695312 292.734375 267.179688 292.429688 267.710938 C 292.371094 267.8125 292.328125 267.925781 292.3125 268.046875 C 291.75 271.558594 292.070312 274.953125 293.277344 278.226562 C 293.296875 278.300781 293.257812 278.375 293.1875 278.398438 C 293.132812 278.414062 293.070312 278.394531 293.039062 278.347656 C 291.96875 276.671875 291.132812 274.914062 290.53125 273.074219 C 289.949219 271.28125 289.621094 269.359375 289.550781 267.308594 C 289.292969 259.816406 292.09375 253.515625 297.957031 248.40625 C 300.113281 246.53125 302.515625 245.082031 305.371094 243.5625 C 307.503906 242.425781 309.597656 241.257812 311.65625 240.046875 Z M 311.65625 240.046875 " fill-opacity="1" fill-rule="nonzero"/></g><path fill="#a4a8d4" d="M 324.714844 213.601562 C 323.3125 215.996094 321.730469 218.121094 319.964844 219.972656 C 315.746094 224.40625 309.820312 227.042969 303.917969 228.625 C 298.316406 230.128906 294.699219 230.726562 291.09375 233.917969 C 288.90625 235.859375 287.5 238.1875 286.871094 240.898438 C 286.691406 241.683594 286.53125 242.347656 286.394531 242.890625 C 286.386719 242.902344 286.371094 242.910156 286.359375 242.902344 C 286.351562 242.898438 286.347656 242.890625 286.347656 242.886719 C 285.6875 235.121094 289.878906 228.847656 297.179688 226.34375 C 300.859375 225.085938 304.828125 224.179688 307.996094 222.46875 C 312.191406 220.207031 315.015625 216.730469 316.46875 212.039062 C 317.394531 209.066406 317.570312 205.832031 316.996094 202.339844 C 318.734375 200.546875 320.242188 198.402344 321.523438 195.898438 C 321.585938 195.769531 321.742188 195.71875 321.867188 195.785156 C 321.882812 195.792969 321.894531 195.800781 321.90625 195.808594 C 322.023438 195.898438 322.117188 196.035156 322.183594 196.214844 C 324.277344 202.066406 325.121094 207.863281 324.714844 213.601562 Z M 324.714844 213.601562 " fill-opacity="1" fill-rule="nonzero"/></svg>