<svg xmlns="http://www.w3.org/2000/svg" xmlns:xlink="http://www.w3.org/1999/xlink" width="874" zoomAndPan="magnify" viewBox="0 0 655.5 301.499996" height="402" preserveAspectRatio="xMidYMid meet" version="1.0"><defs><clipPath id="f5be9f39df"><path d="M 238.273438 34.210938 L 390 34.210938 L 390 161 L 238.273438 161 Z M 238.273438 34.210938 " clip-rule="nonzero"/></clipPath><clipPath id="3ee47924c1"><path d="M 276 87 L 416.480469 87 L 416.480469 267 L 276 267 Z M 276 87 " clip-rule="nonzero"/></clipPath></defs><g clip-path="url(#f5be9f39df)"><path fill="#a4a8d4" d="M 327.320312 141.507812 C 329.816406 142.164062 332.195312 142.785156 334.601562 143.417969 C 343.082031 140.179688 352.132812 139.117188 360.832031 136.679688 C 363.714844 135.875 366.550781 134.890625 369.558594 134.621094 C 374.003906 134.226562 378.457031 134.070312 382.859375 134.875 C 385.183594 135.296875 387.410156 136.109375 388.808594 138.304688 C 389.414062 139.261719 389.511719 140.101562 388.996094 141.148438 C 388.015625 143.140625 386.554688 144.699219 384.765625 145.898438 C 381.289062 148.226562 378.03125 150.847656 374.605469 153.242188 C 369.453125 156.847656 363.644531 158.765625 357.519531 159.835938 C 355.726562 160.152344 353.910156 160.3125 352.105469 160.5625 C 346.332031 161.363281 341.085938 159.851562 336.097656 157.042969 C 332.960938 155.28125 330.070312 153.148438 327.054688 151.210938 C 325.097656 149.949219 323.785156 148.007812 323.722656 145.472656 C 323.683594 143.875 324.484375 142.851562 325.804688 142.148438 C 326.269531 141.898438 326.78125 141.734375 327.320312 141.507812 Z M 246.902344 74.460938 C 250.300781 70.539062 251.25 65.878906 251.019531 60.859375 C 250.992188 60.273438 250.863281 59.722656 250.097656 59.304688 C 248.484375 63.183594 247.378906 67.246094 244.667969 70.675781 C 243.304688 65.78125 242.855469 60.921875 241.996094 56.140625 C 241.113281 51.214844 242.382812 46.433594 242.996094 41.636719 C 241.585938 41.246094 241.339844 42.132812 241.027344 42.832031 C 238.867188 47.625 238.292969 52.699219 238.5625 57.878906 C 238.730469 61.132812 239.097656 64.375 239.699219 67.589844 C 242.023438 79.957031 249.09375 88.152344 261.082031 92.070312 C 265.613281 93.546875 270.296875 94.402344 274.917969 95.507812 C 276.652344 95.921875 278.347656 96.46875 280.136719 97.078125 C 280.53125 95.402344 279.089844 95.34375 278.425781 94.75 C 278.484375 94.367188 278.539062 94.023438 278.59375 93.679688 C 278.949219 93.546875 279.492188 93.875 279.628906 93.269531 C 279.769531 92.640625 278.820312 92.707031 278.933594 92.101562 C 279.078125 91.875 279.242188 91.675781 279.460938 91.742188 C 280.0625 92.09375 280.273438 92.824219 280.933594 92.871094 C 281.265625 92.574219 281.210938 92.339844 281.113281 92.066406 C 280.546875 90.527344 279.300781 89.382812 278.726562 87.835938 C 277.460938 84.429688 276.234375 81.015625 275.4375 77.464844 C 275.300781 76.863281 275.210938 76.1875 274.519531 75.90625 C 273.542969 76.441406 273.53125 76.441406 273.5 77.597656 C 273.351562 82.398438 273.902344 87.046875 276.835938 91.441406 C 271.4375 89.703125 266.246094 88.472656 261.214844 86.6875 C 255.011719 84.480469 250.242188 80.566406 246.816406 74.785156 C 246.847656 74.660156 246.84375 74.53125 246.902344 74.460938 Z M 277.242188 65.949219 C 274.296875 63.363281 271.078125 61.15625 267.574219 59.386719 C 267.078125 59.132812 266.546875 58.53125 265.796875 59.148438 C 266.121094 60.230469 266.871094 60.980469 267.667969 61.683594 C 270.363281 64.050781 273.167969 66.308594 275.757812 68.785156 C 279.675781 72.527344 283.296875 76.496094 285.207031 81.769531 C 286.109375 84.261719 287.269531 86.726562 289.207031 88.65625 C 292.613281 92.042969 296.558594 94.695312 300.839844 96.851562 C 301.585938 97.226562 302.390625 97.304688 303.128906 96.664062 C 303.394531 96.433594 303.789062 96.316406 304.144531 96.238281 C 305.316406 95.980469 306.140625 95.238281 306.839844 94.332031 C 308.585938 92.066406 309.179688 89.417969 309.125 86.644531 C 309.105469 85.644531 309.214844 84.46875 308.359375 83.640625 C 307.164062 83.75 307.140625 83.742188 306.796875 84.824219 C 306.300781 86.402344 305.902344 88.007812 305.34375 89.5625 C 304.914062 90.757812 304.4375 91.988281 303.144531 92.609375 C 302.507812 92.609375 301.867188 92.609375 301.273438 92.609375 C 297.492188 90.296875 294.199219 87.496094 291.339844 84.1875 C 290.359375 83.054688 289.507812 81.84375 289.0625 80.363281 C 288.140625 77.273438 288.085938 74.136719 288.507812 70.980469 C 288.929688 67.84375 289.933594 64.84375 290.75 61.800781 C 291.753906 58.066406 292.070312 54.320312 290.886719 50.5625 C 288.9375 44.359375 285.394531 39.121094 281.027344 34.390625 C 280.929688 34.285156 280.757812 34.203125 280.75 34.210938 C 280.148438 34.566406 280.289062 34.925781 280.40625 35.289062 C 280.695312 36.152344 281.078125 36.972656 281.492188 37.78125 C 283.050781 40.828125 284.71875 43.816406 286.152344 46.929688 C 288.230469 51.421875 288.753906 55.980469 287.496094 60.824219 C 286.4375 64.898438 285.0625 68.914062 284.761719 73.554688 C 282.355469 70.503906 279.8125 68.207031 277.242188 65.949219 Z M 277.242188 65.949219 " fill-opacity="1" fill-rule="nonzero"/></g><g clip-path="url(#3ee47924c1)"><path fill="#cfdcff" d="M 313.160156 133.671875 C 319.890625 136.355469 326.503906 138.957031 332.976562 141.890625 C 333.59375 142.171875 334.175781 142.265625 334.832031 142.070312 C 344.148438 139.261719 353.71875 137.472656 363.152344 135.144531 C 367.140625 134.15625 371.144531 133.195312 375.238281 132.703125 C 380.578125 132.058594 385.796875 132.253906 390.738281 134.726562 C 395.851562 137.285156 400.984375 139.816406 405.554688 143.296875 C 409.492188 146.292969 412.515625 150.078125 414.941406 154.375 C 416.484375 157.105469 416.671875 160.0625 416.527344 163.085938 C 416.199219 170.042969 413.195312 176.066406 409.804688 181.925781 C 408.351562 184.433594 406.964844 186.898438 406.40625 189.808594 C 405.433594 194.914062 406.417969 199.589844 409.066406 203.980469 C 409.289062 204.347656 409.488281 204.738281 409.765625 205.058594 C 413.050781 208.84375 413.132812 213.355469 412.726562 217.980469 C 412.261719 223.3125 411.640625 228.625 410.90625 233.925781 C 409.839844 241.605469 409.019531 249.320312 407.386719 256.914062 C 407.011719 258.667969 406.007812 259.898438 404.492188 260.75 C 401.984375 262.15625 399.304688 262.671875 396.445312 262.238281 C 395.390625 262.082031 394.40625 261.785156 393.960938 260.738281 C 393.488281 259.617188 394.234375 258.792969 394.878906 258.003906 C 395.898438 256.757812 397.132812 255.722656 398.324219 254.632812 C 398.539062 250.820312 398.730469 247.027344 398.976562 243.234375 C 399.226562 239.386719 399.503906 235.542969 399.78125 231.699219 C 400.054688 227.980469 399.472656 224.609375 397.15625 221.558594 C 394.339844 217.847656 391.660156 214.03125 388.933594 210.25 C 386.738281 207.207031 384.75 204.035156 382.945312 200.746094 C 382.839844 200.554688 382.773438 200.351562 382.339844 200.257812 C 381.496094 200.65625 380.5 201.121094 379.46875 201.605469 C 379.210938 203 379.523438 204.285156 379.867188 205.578125 C 380.933594 209.59375 382.929688 213.214844 384.644531 216.957031 C 385 217.734375 385.347656 218.519531 385.679688 219.308594 C 386.933594 222.269531 386.902344 225.222656 385.660156 228.191406 C 383.714844 232.832031 381.269531 237.234375 379.046875 241.738281 C 376.066406 247.785156 373.082031 253.824219 370.101562 259.871094 C 369.511719 261.070312 368.878906 262.246094 368.167969 263.386719 C 367.046875 265.183594 365.484375 266.1875 363.347656 266.441406 C 361.628906 266.648438 359.945312 266.78125 358.238281 266.402344 C 357.203125 266.171875 356.480469 265.664062 356.25 264.511719 C 356.550781 262.71875 357.773438 261.519531 359.195312 260.535156 C 360.367188 259.722656 360.976562 258.671875 361.378906 257.320312 C 363.453125 250.355469 365.605469 243.414062 366.953125 236.257812 C 367.484375 233.425781 367.933594 230.574219 368.386719 227.726562 C 368.578125 226.53125 368.328125 225.488281 367.621094 224.414062 C 364.574219 219.800781 362.109375 214.878906 359.953125 209.789062 C 357.285156 203.484375 357.109375 197.132812 359.253906 190.671875 C 359.433594 190.128906 359.761719 189.613281 359.667969 188.773438 C 350.542969 193.414062 341.371094 197.691406 331.265625 199.644531 C 330.242188 202.082031 329.5 204.582031 328.703125 207.058594 C 327.519531 210.710938 326.199219 214.324219 325.777344 218.183594 C 325.625 219.570312 325.734375 220.957031 325.484375 222.34375 C 325.023438 224.878906 323.945312 227.226562 323.339844 229.71875 C 322.707031 232.328125 322.398438 234.980469 322.164062 237.640625 C 321.699219 242.875 321.707031 248.128906 321.679688 253.382812 C 321.664062 256.113281 321.5625 258.847656 321.449219 261.578125 C 321.355469 263.882812 320.523438 264.808594 318.300781 265.402344 C 316.878906 265.777344 315.441406 265.816406 313.996094 265.734375 C 311.8125 265.617188 310.960938 264.230469 311.800781 262.234375 C 311.902344 261.988281 311.988281 261.722656 312.148438 261.515625 C 314.050781 259.097656 314.277344 256.226562 314.367188 253.316406 C 314.605469 245.75 314.128906 238.242188 312.859375 230.773438 C 312 225.734375 312.082031 220.683594 312.957031 215.609375 C 313.628906 211.714844 314.339844 207.832031 315.285156 203.992188 C 315.371094 203.640625 315.375 203.265625 315.433594 202.757812 C 313.292969 203.046875 311.230469 203.046875 309.074219 202.988281 C 308.742188 204.90625 308.675781 206.808594 308.574219 208.710938 C 308.105469 217.496094 308.386719 226.289062 308.21875 235.078125 C 308.136719 239.40625 307.65625 243.714844 307.109375 248.019531 C 306.59375 252.09375 305.992188 256.171875 306.519531 260.328125 C 306.722656 261.917969 306 263.3125 304.378906 264.105469 C 302.480469 265.027344 300.582031 265.835938 298.414062 265.714844 C 295.914062 265.574219 294.945312 263.71875 296.273438 261.589844 C 296.816406 260.71875 297.585938 260.039062 298.324219 259.339844 C 299.394531 258.316406 299.882812 257.085938 299.878906 255.609375 C 299.863281 249.925781 299.957031 244.242188 299.84375 238.5625 C 299.730469 232.988281 298.597656 227.554688 297.257812 222.15625 C 294.773438 212.15625 292.621094 202.089844 291.175781 191.882812 C 290.984375 190.507812 290.722656 189.144531 290.523438 187.769531 C 290.332031 186.457031 289.625 185.410156 288.898438 184.347656 C 286.414062 180.71875 284.191406 176.960938 283.09375 172.632812 C 282.101562 168.722656 282.074219 164.800781 282.65625 160.847656 C 283.527344 154.925781 284.632812 149.046875 285.699219 143.160156 C 285.8125 142.53125 285.796875 141.886719 285.625 141.25 C 284.042969 135.507812 283.429688 129.613281 282.789062 123.714844 C 282.253906 118.773438 281.917969 113.8125 281.488281 108.863281 C 274.09375 103.046875 275.339844 91.515625 280.722656 87.804688 C 282.429688 88.578125 283.640625 90.019531 284.972656 91.3125 C 286.320312 92.625 287.320312 94.214844 288.441406 95.773438 C 289.304688 95.464844 290.164062 95.480469 291.007812 95.539062 C 294.597656 95.789062 298.164062 94.925781 301.753906 95.289062 C 302.273438 95.339844 302.675781 95.042969 303.101562 94.835938 C 306.175781 93.347656 309.242188 91.847656 312.3125 90.347656 C 313.382812 89.824219 314.523438 89.199219 315.644531 89.921875 C 316.839844 90.695312 316.421875 92.035156 316.332031 93.183594 C 316.1875 95.082031 315.414062 96.792969 314.570312 98.464844 C 313.804688 99.980469 312.941406 101.449219 312.101562 102.972656 C 315.433594 107.152344 318.890625 111.148438 323.332031 114.167969 C 324.9375 115.261719 326.339844 116.578125 327.515625 118.132812 C 328.8125 119.84375 328.839844 120.53125 327.703125 122.308594 C 327.53125 122.578125 327.320312 122.851562 327.253906 123.152344 C 326.628906 126.050781 324.457031 126.710938 321.910156 127.078125 C 318.457031 127.574219 315.089844 126.9375 311.6875 126.628906 C 311.53125 126.617188 311.378906 126.566406 311.164062 126.84375 C 311.820312 129.085938 312.5 131.414062 313.160156 133.671875 Z M 369.007812 142.050781 C 367.828125 142.046875 366.40625 142.503906 365.085938 143.214844 C 364.273438 143.648438 363.550781 144.300781 363.734375 145.367188 C 363.929688 146.519531 364.859375 146.855469 365.863281 146.953125 C 367.5 147.113281 369.039062 146.695312 370.476562 145.933594 C 371.84375 145.207031 372.457031 144.230469 372.183594 143.339844 C 371.90625 142.4375 370.933594 141.988281 369.007812 142.050781 Z M 359.011719 141.910156 C 360.480469 141.929688 361.863281 141.585938 363.136719 140.855469 C 363.964844 140.382812 364.597656 139.730469 364.359375 138.664062 C 364.113281 137.566406 363.230469 137.359375 362.28125 137.296875 C 360.867188 137.199219 359.527344 137.550781 358.230469 138.042969 C 356.757812 138.601562 356.0625 139.445312 356.199219 140.382812 C 356.347656 141.390625 357.289062 141.902344 359.011719 141.910156 Z M 352.273438 142.289062 C 350.414062 140.792969 346.441406 141.089844 344.859375 142.816406 C 343.929688 143.832031 344.203125 145.023438 345.585938 145.402344 C 348.007812 146.058594 350.210938 145.4375 352.105469 144.171875 C 352.441406 143.460938 352.511719 142.945312 352.273438 142.289062 Z M 358.941406 154.640625 C 360.339844 155.257812 361.535156 155.117188 362.722656 154.242188 C 363.480469 153.683594 363.90625 153.019531 363.425781 151.964844 C 361.992188 150.78125 360.78125 151.964844 359.554688 152.527344 C 358.722656 152.90625 358.460938 153.652344 358.941406 154.640625 Z M 332.914062 145.660156 C 333.175781 145.015625 333.121094 144.4375 332.5625 143.941406 C 331.722656 143.195312 329.621094 143.101562 328.613281 143.777344 C 328.242188 144.726562 328.558594 145.417969 329.410156 145.917969 C 330.625 146.628906 331.773438 146.550781 332.914062 145.660156 Z M 338.265625 145.0625 C 340.101562 146.160156 342.042969 145.460938 342.601562 143.578125 C 341.808594 142.410156 341.039062 142.175781 339.613281 142.667969 C 338.402344 143.085938 338.171875 143.476562 338.265625 145.0625 Z M 375.394531 136.90625 C 375.015625 135.589844 374.917969 135.410156 374.03125 135.410156 C 372.894531 135.410156 371.648438 135.167969 370.792969 136.253906 C 370.613281 136.742188 370.574219 137.203125 370.855469 137.640625 C 372.597656 138.695312 374.066406 138.476562 375.394531 136.90625 Z M 357.984375 147.148438 C 356.84375 146.300781 355.75 146.308594 354.871094 147.21875 C 354.136719 147.984375 354.234375 148.746094 354.984375 149.4375 C 357.535156 149.917969 358.371094 149.273438 357.984375 147.148438 Z M 344.425781 147.992188 C 344.039062 148.800781 344.113281 149.519531 345.007812 149.828125 C 345.761719 150.089844 346.59375 150.070312 347.363281 149.800781 C 347.953125 149.589844 348.359375 149.148438 348.28125 148.464844 C 348.191406 147.71875 347.703125 147.316406 346.980469 147.304688 C 346.074219 147.289062 345.167969 147.371094 344.425781 147.992188 Z M 383.847656 140.628906 C 383.128906 139.695312 381.832031 139.484375 380.398438 140.003906 C 380 140.304688 379.65625 140.632812 379.71875 141.1875 C 380.882812 142.84375 382.851562 142.609375 383.847656 140.628906 Z M 383.847656 140.628906 " fill-opacity="1" fill-rule="nonzero"/></g><path fill="#a4a8d4" d="M 395.003906 203.140625 C 392.734375 206.160156 392.777344 209.328125 394.082031 212.671875 C 394.785156 214.46875 395.714844 216.152344 396.5625 217.875 C 397.433594 219.652344 398.21875 221.453125 398.523438 223.429688 C 398.554688 223.617188 398.589844 223.808594 398.621094 223.996094 C 398.238281 223.164062 397.757812 222.351562 397.15625 221.558594 C 394.339844 217.847656 391.660156 214.03125 388.933594 210.25 C 386.738281 207.207031 384.75 204.035156 382.945312 200.746094 C 382.867188 200.613281 382.808594 200.472656 382.628906 200.367188 C 382.628906 200.210938 382.636719 200.066406 382.636719 199.90625 C 391.664062 196.214844 400.496094 192.113281 407.828125 185.597656 C 407.285156 186.757812 406.835938 187.960938 406.535156 189.246094 C 403.726562 192.304688 400.914062 195.363281 398.347656 198.636719 C 397.191406 200.105469 396.128906 201.644531 395.003906 203.140625 Z M 375.257812 157.601562 C 366.769531 163.285156 359.78125 170.378906 354.585938 179.226562 C 352.558594 182.675781 350.734375 186.246094 348.414062 189.527344 C 347.082031 191.414062 345.34375 192.066406 343.113281 191.582031 C 341.339844 191.199219 339.601562 190.683594 337.851562 190.203125 C 336.753906 189.902344 335.707031 189.316406 334.425781 189.351562 C 334.320312 190.203125 334.09375 190.957031 333.828125 191.699219 C 333.042969 193.90625 332.265625 196.117188 331.578125 198.359375 C 331.429688 198.847656 331.09375 199.355469 331.167969 199.898438 C 331.203125 199.816406 331.230469 199.730469 331.265625 199.644531 C 341.320312 197.699219 350.453125 193.453125 359.53125 188.84375 C 360.15625 188.101562 360.605469 187.25 361.03125 186.320312 C 365.476562 176.585938 369.828125 166.792969 376.445312 158.25 C 376.726562 157.882812 377.082031 157.46875 376.542969 157.019531 C 375.976562 156.933594 375.644531 157.34375 375.257812 157.601562 Z M 314.949219 202.808594 C 315.042969 202.722656 315.132812 202.632812 315.230469 202.546875 C 314.566406 201.699219 314.074219 200.933594 313.453125 200.292969 C 308.785156 195.472656 305.636719 189.792969 303.609375 183.421875 C 302.480469 179.871094 301.179688 176.371094 299.894531 172.875 C 298.867188 170.082031 297.804688 167.328125 295.933594 164.914062 C 292.664062 160.699219 290.320312 155.96875 288.671875 150.894531 C 287.699219 147.90625 286.710938 144.921875 285.769531 141.925781 C 285.75 141.855469 285.71875 141.796875 285.695312 141.734375 C 285.769531 142.210938 285.78125 142.691406 285.699219 143.160156 C 284.632812 149.046875 283.527344 154.925781 282.65625 160.847656 C 282.394531 162.636719 282.261719 164.417969 282.28125 166.195312 C 282.285156 166.25 282.285156 166.300781 282.292969 166.355469 C 282.351562 167.109375 282.375 167.867188 282.410156 168.621094 C 282.535156 169.960938 282.753906 171.296875 283.09375 172.632812 C 283.507812 174.277344 284.089844 175.839844 284.785156 177.34375 C 285.039062 177.804688 285.296875 178.261719 285.585938 178.710938 C 285.5625 178.769531 285.566406 178.824219 285.546875 178.882812 C 286.535156 180.769531 287.683594 182.574219 288.898438 184.347656 C 289.625 185.410156 290.332031 186.457031 290.523438 187.769531 C 290.722656 189.144531 290.984375 190.507812 291.175781 191.882812 C 291.765625 196.050781 292.5 200.191406 293.296875 204.320312 C 293.996094 204.933594 294.652344 205.597656 295.226562 206.351562 C 297.757812 209.683594 299.285156 213.492188 300.515625 217.425781 C 302.308594 223.171875 303.5 229.089844 305.367188 234.820312 C 306.027344 236.847656 306.691406 238.871094 307.433594 240.871094 C 307.539062 241.148438 307.648438 241.453125 307.824219 241.703125 C 308.03125 239.496094 308.179688 237.289062 308.21875 235.078125 C 308.386719 226.289062 308.105469 217.496094 308.574219 208.710938 C 308.675781 206.808594 308.742188 204.90625 309.074219 202.988281 C 311.066406 203.042969 312.980469 203.035156 314.949219 202.808594 Z M 303.101562 94.835938 C 302.847656 94.960938 302.601562 95.105469 302.332031 95.203125 C 302.402344 95.289062 302.476562 95.375 302.566406 95.445312 C 302.859375 95.667969 303.167969 95.882812 303.496094 96.050781 C 306.621094 97.65625 309.402344 99.683594 311.519531 102.527344 C 311.800781 102.902344 312.125 103.203125 312.492188 103.457031 C 312.363281 103.296875 312.230469 103.136719 312.101562 102.972656 C 312.941406 101.449219 313.804688 99.980469 314.570312 98.464844 C 315.414062 96.792969 316.1875 95.082031 316.332031 93.183594 C 316.40625 92.222656 316.699219 91.128906 316.09375 90.34375 C 315.75 90.066406 315.363281 89.828125 314.933594 89.640625 C 314.042969 89.46875 313.15625 89.933594 312.3125 90.347656 C 309.242188 91.847656 306.175781 93.347656 303.101562 94.835938 Z M 311.164062 126.84375 C 311.214844 126.777344 311.261719 126.734375 311.308594 126.699219 C 311.285156 126.652344 311.257812 126.605469 311.234375 126.558594 C 311.078125 126.519531 310.871094 126.421875 310.671875 126.429688 C 307.941406 126.53125 305.242188 126.03125 302.507812 126.070312 C 298.316406 126.128906 294.695312 124.722656 291.789062 121.609375 C 291.378906 121.167969 291.074219 120.5625 290.402344 120.34375 C 290.453125 121.242188 290.476562 121.226562 290.894531 121.75 C 292.597656 123.863281 294.820312 125.371094 297.105469 126.703125 C 301.292969 129.148438 305.632812 131.335938 310.179688 133.058594 C 311.148438 133.425781 312.136719 133.902344 313.300781 133.761719 C 313.304688 133.75 313.304688 133.742188 313.304688 133.730469 C 313.257812 133.710938 313.207031 133.691406 313.160156 133.671875 C 312.5 131.414062 311.820312 129.085938 311.164062 126.84375 Z M 283.890625 103.855469 C 284.402344 103.773438 284.898438 103.566406 285.734375 103.320312 C 284.234375 101.425781 282.863281 99.765625 282.0625 97.699219 C 281.265625 95.636719 281.449219 93.351562 280.59375 91.269531 C 280.28125 91.394531 280.097656 91.414062 280.003906 91.515625 C 279.867188 91.667969 279.730469 91.867188 279.695312 92.0625 C 279.214844 94.632812 278.753906 97.21875 279.035156 99.839844 C 279.34375 102.761719 281.253906 104.292969 283.890625 103.855469 Z M 283.890625 103.855469 " fill-opacity="1" fill-rule="nonzero"/><path fill="#5e6396" d="M 292.816406 109.5 C 295.546875 106.609375 301.6875 108.523438 303.382812 112.699219 C 302.179688 114.441406 300.511719 114.484375 298.691406 113.816406 C 297.125 113.242188 296.6875 112.261719 296.65625 109.578125 C 295.429688 108.871094 294.121094 109.984375 292.816406 109.5 Z M 324.808594 115.421875 C 324 115.660156 323.25 116.046875 322.628906 116.660156 C 321.375 117.898438 321.480469 119.328125 322.996094 120.257812 C 324.664062 121.277344 326.488281 121.789062 328.539062 121.539062 C 329.171875 119.65625 327.414062 116.882812 324.808594 115.421875 Z M 291.71875 188.152344 C 291.421875 188.8125 291.867188 188.992188 292.101562 189.21875 C 296.085938 193.097656 300.0625 196.984375 304.089844 200.820312 C 305.050781 201.730469 306.136719 202.523438 307.394531 203.042969 C 307.957031 203.277344 308.460938 203.464844 309.210938 202.917969 C 302.871094 198.453125 297.761719 192.792969 291.71875 188.152344 Z M 316.839844 185.90625 C 316.542969 187.707031 316.371094 189.519531 316.25 191.359375 C 316.121094 193.269531 315.851562 195.167969 315.65625 197.074219 C 315.472656 198.914062 314.984375 200.738281 315.121094 202.648438 C 315.800781 202.542969 315.894531 202.199219 315.980469 201.820312 C 317.144531 196.609375 317.246094 191.308594 317.582031 186.027344 C 317.332031 185.988281 317.085938 185.949219 316.839844 185.90625 Z M 314.269531 121.941406 C 318.367188 123.285156 322.539062 123.902344 326.835938 123.164062 C 327.230469 123.09375 327.539062 122.902344 327.476562 122.226562 C 323.171875 122.398438 318.90625 121.847656 314.640625 121.296875 C 314.417969 121.269531 314.257812 121.460938 314.136719 121.726562 C 314.210938 121.851562 314.230469 121.925781 314.269531 121.941406 Z M 316.875 145.242188 C 316.015625 141.347656 315.308594 137.382812 313.28125 133.851562 C 314.089844 138.46875 315.207031 142.996094 316.585938 147.71875 C 317.839844 146.820312 317.019531 145.902344 316.875 145.242188 Z M 298.917969 104.941406 C 301.117188 105.574219 302.671875 107.246094 304.535156 108.441406 C 303.046875 105.679688 300.757812 104.035156 297.738281 103.363281 C 295.511719 102.867188 292.996094 103.125 292.019531 104.21875 C 294.496094 104.105469 296.734375 104.3125 298.917969 104.941406 Z M 297.539062 125.65625 C 294.804688 123.835938 292.632812 121.652344 290.113281 119.894531 C 289.839844 119.703125 289.613281 119.835938 289.34375 120.175781 C 291.226562 123.488281 295.292969 126.382812 297.539062 125.65625 Z M 375.535156 158.765625 C 378.269531 156.3125 381.160156 154.355469 383.992188 151.996094 C 382.023438 151.277344 375.484375 156.472656 375.535156 158.765625 Z M 375.535156 158.765625 " fill-opacity="1" fill-rule="nonzero"/></svg>