<svg xmlns="http://www.w3.org/2000/svg" xmlns:xlink="http://www.w3.org/1999/xlink" width="874" zoomAndPan="magnify" viewBox="0 0 655.5 301.499996" height="402" preserveAspectRatio="xMidYMid meet" version="1.0"><defs><filter x="0%" y="0%" width="100%" height="100%" id="24136baf09"><feColorMatrix values="0 0 0 0 1 0 0 0 0 1 0 0 0 0 1 0 0 0 1 0" color-interpolation-filters="sRGB"/></filter><mask id="2f4fef0eae"><g filter="url(#24136baf09)"><rect x="-65.55" width="786.6" fill="#000000" y="-30.15" height="361.799995" fill-opacity="0.1"/></g></mask><clipPath id="5f830b64b1"><path d="M 1 0.0703125 L 105.597656 0.0703125 L 105.597656 51 L 1 51 Z M 1 0.0703125 " clip-rule="nonzero"/></clipPath><clipPath id="06f5c7afbd"><rect x="0" width="106" y="0" height="52"/></clipPath><clipPath id="de19a48e44"><path d="M 161.449219 86 L 265 86 L 265 136 L 161.449219 136 Z M 161.449219 86 " clip-rule="nonzero"/></clipPath><mask id="e8f99ce60b"><g filter="url(#24136baf09)"><rect x="-65.55" width="786.6" fill="#000000" y="-30.15" height="361.799995" fill-opacity="0.2"/></g></mask><clipPath id="537f39fcc0"><path d="M 1 0.605469 L 76.730469 0.605469 L 76.730469 32 L 1 32 Z M 1 0.605469 " clip-rule="nonzero"/></clipPath><clipPath id="6a2500a923"><rect x="0" width="77" y="0" height="33"/></clipPath><mask id="baf11e81cb"><g filter="url(#24136baf09)"><rect x="-65.55" width="786.6" fill="#000000" y="-30.15" height="361.799995" fill-opacity="0.2"/></g></mask><clipPath id="640191a70f"><path d="M 0.777344 1 L 17.308594 1 L 17.308594 31 L 0.777344 31 Z M 0.777344 1 " clip-rule="nonzero"/></clipPath><clipPath id="37458d9b45"><rect x="0" width="18" y="0" height="32"/></clipPath><clipPath id="36f49a43bf"><path d="M 431 79 L 493.894531 79 L 493.894531 125 L 431 125 Z M 431 79 " clip-rule="nonzero"/></clipPath></defs><path fill="#a4a8d4" d="M 450.800781 81.53125 C 446.972656 74.691406 435.894531 67.921875 435.003906 67.921875 C 434.183594 67.921875 438.96875 73.460938 440.953125 81.394531 C 444.988281 82.554688 450.800781 81.53125 450.800781 81.53125 Z M 450.800781 81.53125 " fill-opacity="1" fill-rule="nonzero"/><path fill="#cfdcff" d="M 288.035156 176.386719 C 288.378906 176.589844 288.789062 176.863281 289.128906 177.070312 C 315.1875 192.867188 343.976562 198.269531 362.921875 194.988281 C 369.351562 193.824219 374.683594 191.703125 378.308594 188.558594 C 392.738281 176.179688 402.382812 148.6875 405.664062 141.507812 C 408.675781 134.941406 421.394531 120.648438 438.148438 111.894531 C 438.21875 111.894531 438.285156 111.824219 438.355469 111.757812 C 439.792969 111.003906 441.296875 110.253906 442.800781 109.636719 C 442.800781 109.636719 446.765625 103.003906 448.75 95.960938 C 450.460938 89.875 450.597656 83.582031 445.332031 81.121094 C 444.648438 80.777344 443.824219 80.503906 442.9375 80.367188 C 442.730469 80.296875 442.527344 80.296875 442.320312 80.230469 C 426.59375 77.496094 395.269531 88.300781 384.941406 97.054688 C 377.421875 103.414062 358.40625 114.152344 338.300781 119.691406 C 330.4375 121.878906 322.367188 123.246094 314.707031 123.246094 C 287.695312 123.246094 279.488281 113.808594 267.859375 114.355469 C 256.167969 114.835938 252.816406 154.570312 288.035156 176.386719 Z M 288.035156 176.386719 " fill-opacity="1" fill-rule="nonzero"/><g mask="url(#2f4fef0eae)"><g transform="matrix(1, 0, 0, 1, 337, 79)"><g clip-path="url(#06f5c7afbd)"><g clip-path="url(#5f830b64b1)"><path fill="#5e6396" d="M 1.300781 40.691406 C 3.625 43.289062 10.601562 49.785156 23.253906 50.878906 C 39.121094 52.25 53.960938 41.304688 61.074219 33.988281 C 61.960938 36.246094 61.757812 40.621094 61.757812 40.621094 C 61.757812 40.621094 68.9375 37.820312 75.503906 32.277344 C 82.136719 26.671875 84.257812 19.628906 88.703125 12.105469 C 92.738281 5.332031 100.125 2.1875 105.320312 1.296875 C 89.59375 -1.4375 58.269531 9.367188 47.941406 18.121094 C 40.421875 24.484375 21.40625 35.152344 1.300781 40.691406 Z M 1.300781 40.691406 " fill-opacity="1" fill-rule="nonzero"/></g></g></g></g><path fill="#cfdcff" d="M 449.023438 80.640625 C 444.921875 80.023438 432.679688 79 427.277344 88.09375 C 422.832031 95.550781 420.710938 102.660156 414.078125 108.269531 C 407.441406 113.878906 400.332031 116.613281 400.332031 116.613281 C 400.332031 116.613281 400.535156 112.238281 399.648438 109.980469 C 392.535156 117.296875 377.695312 128.308594 361.828125 126.871094 C 345.960938 125.503906 340.902344 118.1875 340.902344 118.1875 C 340.902344 118.1875 351.023438 112.441406 353.277344 106.355469 C 346.097656 103.550781 344.660156 94.320312 344.660156 94.320312 C 344.660156 94.320312 355.125 96.234375 371.332031 92.746094 C 387.199219 89.394531 407.03125 69.425781 416.46875 66.621094 C 425.90625 63.816406 449.023438 80.640625 449.023438 80.640625 Z M 449.023438 80.640625 " fill-opacity="1" fill-rule="nonzero"/><path fill="#a4a8d4" d="M 240.503906 177.070312 L 226.964844 187.667969 C 224.707031 189.449219 223.613281 192.320312 224.09375 195.191406 C 224.296875 196.421875 224.84375 197.65625 225.664062 198.613281 C 230.65625 204.902344 249.738281 229.25 252.816406 236.566406 C 245.496094 236.773438 248.984375 241.285156 250.421875 242.996094 C 249.121094 244.226562 246.730469 245.9375 244.882812 247.167969 C 243.378906 248.195312 242.148438 248.945312 242.148438 248.945312 L 253.566406 261.1875 C 253.566406 261.1875 254.660156 258.246094 256.097656 254.417969 C 258.21875 248.535156 260.953125 240.601562 261.296875 238.003906 C 261.84375 233.765625 237.703125 196.148438 237.703125 196.148438 C 237.703125 196.148438 260.816406 189.039062 267.996094 184.183594 C 275.246094 179.257812 284.683594 168.726562 288.515625 162.914062 C 292.34375 157.101562 269.777344 122.632812 269.777344 122.632812 C 255.070312 122.289062 242.214844 133.914062 236.605469 142.875 C 230.929688 151.695312 240.503906 177.070312 240.503906 177.070312 Z M 240.503906 177.070312 " fill-opacity="1" fill-rule="nonzero"/><path fill="#5e6396" d="M 242.148438 248.945312 L 253.566406 261.1875 C 253.566406 261.1875 254.660156 258.246094 256.097656 254.417969 L 244.882812 247.167969 C 243.378906 248.195312 242.148438 248.945312 242.148438 248.945312 Z M 242.148438 248.945312 " fill-opacity="1" fill-rule="nonzero"/><g clip-path="url(#de19a48e44)"><path fill="#cfdcff" d="M 264.03125 118.117188 C 264.03125 118.117188 239.890625 86.179688 228.332031 86.933594 C 216.773438 87.683594 206.175781 102.25 201.179688 103.277344 C 196.121094 104.304688 183.058594 96.984375 183.058594 96.984375 L 183.058594 102.046875 C 183.058594 102.046875 166.988281 99.039062 161.449219 96.027344 C 163.976562 105.054688 183.058594 134.050781 193.386719 135.011719 C 203.710938 136.035156 218.824219 124.683594 218.824219 124.683594 L 218.347656 129.742188 C 218.347656 129.742188 229.152344 114.152344 231.203125 112.851562 C 233.1875 111.621094 260.886719 119.894531 260.886719 119.894531 Z M 264.03125 118.117188 " fill-opacity="1" fill-rule="nonzero"/></g><path fill="#a4a8d4" d="M 368.460938 238.414062 C 368.460938 238.414062 371.878906 239.167969 376.324219 240.054688 C 383.847656 241.628906 394.378906 243.679688 396.433594 243.679688 C 398.960938 243.679688 416.949219 238.550781 425.359375 236.089844 C 428.027344 235.335938 430.148438 233.21875 430.902344 230.550781 C 431.652344 227.882812 431.039062 225.011719 429.257812 222.890625 C 422.625 215.230469 406.964844 196.96875 405.734375 194.03125 C 404.230469 190.269531 390.621094 167.632812 390.621094 167.632812 C 390.621094 167.632812 370.238281 187.53125 372.769531 190.542969 C 375.300781 193.550781 390.414062 203.878906 394.929688 206.410156 C 399.441406 208.9375 418.316406 226.035156 418.316406 226.035156 L 396.910156 235.882812 C 396.910156 235.882812 393.148438 227.8125 392.125 227.8125 C 391.097656 227.8125 388.089844 234.378906 388.089844 234.378906 L 380.769531 226.71875 L 377.96875 223.777344 Z M 368.460938 238.414062 " fill-opacity="1" fill-rule="nonzero"/><path fill="#5e6396" d="M 368.460938 238.414062 C 368.460938 238.414062 371.878906 239.167969 376.324219 240.054688 C 377.695312 236.019531 379.746094 230.207031 380.839844 226.71875 L 378.035156 223.777344 Z M 368.460938 238.414062 " fill-opacity="1" fill-rule="nonzero"/><g mask="url(#e8f99ce60b)"><g transform="matrix(1, 0, 0, 1, 288, 164)"><g clip-path="url(#6a2500a923)"><g clip-path="url(#537f39fcc0)"><path fill="#5e6396" d="M 1.128906 13.070312 C 27.1875 28.867188 55.976562 34.269531 74.921875 30.988281 C 76.769531 20.933594 75.742188 8.761719 75.742188 8.761719 C 48.59375 30.441406 8.3125 5.339844 6.257812 1.304688 C 5.164062 -0.882812 2.976562 6.023438 1.128906 13.070312 Z M 1.128906 13.070312 " fill-opacity="1" fill-rule="nonzero"/></g></g></g></g><path fill="#cfdcff" d="M 252.472656 192.59375 L 242.011719 206.203125 C 240.230469 208.460938 239.890625 211.539062 241.121094 214.203125 C 241.667969 215.367188 242.488281 216.394531 243.445312 217.144531 C 249.875 222 274.359375 240.875 279.144531 247.167969 C 272.101562 249.21875 276.613281 252.707031 278.394531 253.9375 C 277.433594 255.441406 275.519531 257.699219 274.015625 259.339844 C 272.785156 260.710938 271.828125 261.734375 271.828125 261.734375 L 285.914062 270.761719 C 285.914062 270.761719 286.257812 267.617188 286.667969 263.582031 C 287.285156 257.359375 287.96875 248.945312 287.695312 246.414062 C 287.214844 242.109375 254.457031 211.675781 254.457031 211.675781 C 254.457031 211.675781 275.109375 199.089844 280.855469 192.523438 C 286.667969 185.960938 293.164062 173.375 295.488281 166.878906 C 297.746094 160.3125 267.792969 114.289062 267.792969 114.289062 C 253.429688 117.570312 235.582031 137.675781 232.296875 147.796875 C 229.085938 157.921875 252.472656 192.59375 252.472656 192.59375 Z M 252.472656 192.59375 " fill-opacity="1" fill-rule="nonzero"/><path fill="#5e6396" d="M 271.828125 261.804688 L 285.914062 270.832031 C 285.914062 270.832031 286.257812 267.683594 286.667969 263.648438 L 274.015625 259.410156 C 272.785156 260.777344 271.828125 261.804688 271.828125 261.804688 Z M 271.828125 261.804688 " fill-opacity="1" fill-rule="nonzero"/><path fill="#cfdcff" d="M 324.417969 266.660156 C 324.417969 266.660156 326.949219 265.90625 330.230469 264.882812 C 336.320312 262.964844 345.070312 260.300781 345.550781 260.09375 C 346.304688 259.820312 355.058594 227.265625 357.039062 225.761719 C 359.023438 224.257812 360.050781 219.746094 360.597656 217.691406 C 361.074219 215.640625 366.476562 204.902344 375.574219 197.585938 C 384.601562 190.269531 397.730469 174.46875 403.75 141.507812 C 403.75 141.507812 368.53125 151.558594 364.015625 162.640625 C 359.503906 173.71875 358.75 188.832031 357.449219 195.601562 C 356.21875 202.375 357.585938 205.859375 352.527344 214.957031 C 349.722656 215.984375 349.996094 222.753906 349.996094 222.753906 C 349.996094 222.753906 341.996094 253.050781 341.996094 253.800781 C 341.996094 254.554688 338.984375 247.785156 337.480469 248.742188 C 335.976562 249.765625 334.199219 255.304688 334.199219 255.304688 L 329 252.023438 L 324.625 249.289062 Z M 324.417969 266.660156 " fill-opacity="1" fill-rule="nonzero"/><path fill="#5e6396" d="M 324.417969 266.660156 C 324.417969 266.660156 326.949219 265.90625 330.230469 264.882812 C 329.957031 261.734375 329.34375 255.992188 329 252.09375 L 324.625 249.355469 Z M 324.417969 266.660156 " fill-opacity="1" fill-rule="nonzero"/><g mask="url(#baf11e81cb)"><g transform="matrix(1, 0, 0, 1, 432, 81)"><g clip-path="url(#37458d9b45)"><g clip-path="url(#640191a70f)"><path fill="#5e6396" d="M 6.148438 30.894531 C 6.21875 30.894531 6.285156 30.824219 6.355469 30.757812 C 7.792969 30.003906 9.296875 29.253906 10.800781 28.636719 C 10.800781 28.636719 14.765625 22.003906 16.75 14.960938 C 17.707031 9.214844 17.160156 3.539062 12.101562 1.625 C 9.570312 1.351562 7.3125 1.554688 5.671875 2.375 C -2.742188 6.410156 1.636719 23.03125 6.148438 30.894531 Z M 6.148438 30.894531 " fill-opacity="1" fill-rule="nonzero"/></g></g></g></g><g clip-path="url(#36f49a43bf)"><path fill="#cfdcff" d="M 456.75 83.171875 C 462.566406 98.628906 493.546875 117.023438 493.546875 117.023438 C 493.546875 117.023438 488.894531 125.09375 482.191406 124.339844 C 475.492188 123.589844 476.449219 116.75 476.449219 116.75 C 476.449219 116.75 468.925781 113.945312 460.71875 114.902344 C 452.511719 115.859375 447.449219 116.613281 441.910156 112.785156 C 436.371094 108.953125 425.359375 87.820312 434.523438 81.597656 C 439.378906 78.246094 451.757812 80.503906 456.75 83.171875 Z M 456.75 83.171875 " fill-opacity="1" fill-rule="nonzero"/></g><path fill="#a4a8d4" d="M 452.578125 93.085938 C 452.578125 94.046875 453.402344 94.796875 454.289062 94.796875 C 455.246094 94.796875 456 93.976562 456 93.085938 C 456 92.128906 455.179688 91.378906 454.289062 91.378906 C 453.332031 91.378906 452.578125 92.128906 452.578125 93.085938 Z M 452.578125 93.085938 " fill-opacity="1" fill-rule="nonzero"/><path fill="#a4a8d4" d="M 432.0625 86.386719 C 432.679688 86.589844 435.074219 85.632812 437.054688 84.742188 C 438.695312 83.992188 440.132812 83.238281 440.132812 83.238281 C 440.132812 83.238281 423.105469 68.742188 421.394531 70.3125 C 419.683594 71.886719 430.902344 85.976562 432.0625 86.386719 Z M 432.0625 86.386719 " fill-opacity="1" fill-rule="nonzero"/><path fill="#cfdcff" d="M 421.394531 70.3125 C 423.035156 70.175781 430.96875 76.605469 437.054688 84.742188 C 438.695312 83.992188 440.132812 83.238281 440.132812 83.238281 C 440.132812 83.238281 423.105469 68.742188 421.394531 70.3125 Z M 421.394531 70.3125 " fill-opacity="1" fill-rule="nonzero"/><path fill="#a4a8d4" d="M 485.679688 113.261719 C 485.816406 115.109375 488.074219 117.433594 488.074219 117.433594 C 488.074219 117.433594 488.074219 118.1875 486.089844 117.777344 C 484.175781 117.367188 485.679688 113.261719 485.679688 113.261719 Z M 485.679688 113.261719 " fill-opacity="1" fill-rule="nonzero"/></svg>