<svg width="272" height="342" viewBox="0 0 272 342" fill="none" xmlns="http://www.w3.org/2000/svg">
<g clip-path="url(#clip0_52_1332)">
<path d="M230.542 65.7065C234.628 59.9703 239.59 53.0045 226.518 43.6931C213.447 34.3818 208.484 41.3468 204.398 47.083C200.186 52.9959 117.946 189.077 104.108 203.346C90.2695 217.616 70.8315 207.397 53.2439 231.618C50.5824 235.283 48.0242 240.134 45.7637 245.465C44.9185 245.967 44.0959 246.506 43.3062 247.092C43.7737 247.397 44.2655 247.658 44.7738 247.881C40.1905 259.433 37.0849 272.687 37.3484 281.085C37.1787 281.417 37.0196 281.756 36.8761 282.103C37.0485 282.032 37.2177 281.954 37.3888 281.88C37.508 283.867 37.8273 285.557 38.3899 286.831C44.1041 299.771 47.1332 302.735 58.2011 300.943C61.4368 300.419 66.39 298.429 71.9598 295.503C71.817 296.451 71.7786 297.395 71.9629 298.324C74.2581 297.042 76.0325 294.988 77.139 292.612C81.7013 289.922 86.435 286.758 90.8268 283.365C91.0498 283.654 91.2753 283.942 91.5192 284.215C91.8231 283.594 92.0506 282.944 92.2131 282.279C97.6294 277.96 102.413 273.323 105.53 268.863C122.674 244.326 106.664 229.294 115.629 211.553C124.593 193.812 226.33 71.6194 230.542 65.7065Z" fill="#97675C"/>
<path d="M106.039 255.908C107.393 256.302 109.341 256.339 109.687 254.972C109.797 254.538 109.684 254.078 109.516 253.662C108.671 251.57 106.675 250.41 104.46 249.672C104.494 245.992 104.047 242.529 103.737 239.153C105.359 238.482 106.833 237.433 107.75 235.951C108.036 235.488 108.211 234.774 107.749 234.488C107.563 234.372 107.33 234.375 107.111 234.384C105.886 234.434 104.665 234.575 103.461 234.805C103.449 234.242 103.451 233.68 103.465 233.118C105.135 231.347 107 229.72 108.617 227.902C111.231 224.966 113.254 221.189 112.325 216.845C111.395 212.501 106.465 207.849 101.999 208.242C100.183 208.403 98.7398 209.326 97.4772 210.342C95.6332 211.825 93.725 213.435 91.8369 215.111C91.7068 214.248 91.5166 213.433 91.2597 212.684C89.6808 214.634 88.4179 216.828 87.4796 219.154C86.1052 220.489 84.7902 221.836 83.5559 223.177C79.3742 224.289 74.9638 225.061 70.4853 226.827C70.0441 224.885 69.5437 222.957 68.972 221.05C67.5353 222.575 67.0463 224.755 66.8568 226.841C66.8098 227.358 66.8357 227.909 66.8974 228.474C64.7277 229.63 62.554 231.107 60.3955 233.049C59.9134 232.465 59.3995 231.954 58.8526 231.562C58.6779 232.581 58.6286 233.617 58.6822 234.648C57.5648 234.963 56.4373 235.317 55.3012 235.727C54.4134 235.31 53.5266 235.043 52.7043 234.991C52.9116 235.497 53.1716 235.978 53.4544 236.445C52.0132 237.048 50.5598 237.756 49.0963 238.618C49.0415 238.65 48.9872 238.688 48.9323 238.72C47.83 240.831 46.7713 243.101 45.7694 245.462C44.9222 245.965 44.0978 246.505 43.3065 247.092C43.7747 247.398 44.2673 247.659 44.7763 247.882C40.1922 259.433 37.088 272.684 37.3506 281.082C37.1802 281.415 37.0203 281.755 36.8764 282.103C37.0467 282.033 37.2141 281.956 37.383 281.883C37.5017 283.873 37.8271 285.556 38.3903 286.832C44.1043 299.772 47.1335 302.736 58.2014 300.944C61.4371 300.42 66.3903 298.429 71.9601 295.503C71.8173 296.452 71.7789 297.396 71.9632 298.324C74.2584 297.043 76.0328 294.988 77.1393 292.612C81.7015 289.923 86.4353 286.759 90.8271 283.365C91.0501 283.655 91.2756 283.943 91.5195 284.215C91.8232 283.595 92.0509 282.945 92.2134 282.28C97.6297 277.96 102.413 273.324 105.53 268.863C105.629 268.722 105.721 268.582 105.818 268.441C105.564 266.755 105.137 265.046 104.513 263.322C104.062 262.076 103.511 260.843 102.933 259.613C103.404 258.123 103.743 256.676 103.981 255.264C104.664 255.488 105.349 255.707 106.039 255.908Z" fill="#9B6D62"/>
<path d="M109.516 253.663C108.671 251.57 106.675 250.41 104.46 249.672C104.494 245.992 104.047 242.529 103.737 239.153C105.359 238.482 106.833 237.433 107.75 235.951C108.036 235.488 108.212 234.774 107.749 234.488C107.563 234.372 107.33 234.375 107.111 234.384C105.886 234.434 104.665 234.575 103.461 234.805C103.41 232.437 103.566 230.083 104.156 227.698C104.891 224.728 103.816 221.607 101.324 219.831L100.959 219.572C98.4673 217.797 95.166 217.8 92.5992 219.465C92.403 219.592 92.2038 219.708 92.0056 219.828C92.163 217.188 91.951 214.7 91.2599 212.684C88.9754 215.506 87.3353 218.83 86.4153 222.341C81.4122 223.995 75.9971 224.654 70.4854 226.827C70.0443 224.885 69.5438 222.957 68.9721 221.05C67.5354 222.575 67.0465 224.755 66.857 226.841C66.81 227.358 66.8358 227.909 66.8976 228.474C64.7278 229.63 62.5541 231.107 60.3957 233.049C59.9135 232.465 59.3997 231.954 58.8527 231.562C58.6755 232.596 58.6263 233.647 58.6835 234.694C58.0888 235.303 57.4955 235.947 56.9043 236.637C55.5137 235.713 54.0257 235.075 52.7044 234.991C53.2767 236.389 54.1562 237.652 55.2399 238.704C55.0248 238.987 54.8099 239.273 54.5955 239.568C53.9505 240.457 53.3142 241.438 52.6878 242.48C49.3186 243.441 46.1212 245.006 43.3067 247.092C45.0904 248.258 47.2111 248.799 49.352 248.883C45.5604 257.202 42.6229 267.403 41.7699 275.186C39.8491 277.29 37.9616 279.479 36.8765 282.103C38.4813 281.443 40.0342 280.659 41.5214 279.765C41.5501 281.892 41.8204 283.675 42.3851 284.955C47.0071 295.422 49.4968 297.946 58.2442 296.62C58.7893 297.633 59.5216 298.485 60.576 298.929C60.8775 299.056 61.2024 299.144 61.5286 299.122C62.4411 299.06 63.084 298.171 63.3394 297.292C63.5495 296.569 63.5728 295.837 63.4925 295.105C66.3187 293.992 69.6751 292.334 73.1949 290.313C72.6535 292.951 71.4418 295.697 71.9632 298.324C75.9227 296.113 78.3466 291.609 78.4303 287.107C81.9692 284.803 85.4913 282.226 88.6589 279.539C89.3299 281.25 90.2936 282.846 91.5195 284.216C92.6838 281.837 92.7834 279.042 92.0184 276.512C94.2082 274.406 96.1166 272.272 97.5752 270.185C101.407 264.7 103.218 259.796 103.981 255.265C104.664 255.489 105.349 255.708 106.039 255.909C107.393 256.302 109.341 256.339 109.687 254.973C109.797 254.538 109.684 254.078 109.516 253.663Z" fill="#9B6D62"/>
<path d="M228.007 62.7383C217.459 73.5229 207.63 84.8925 198.368 96.7996C189.065 108.758 180.264 121.094 171.468 133.427C171.31 133.648 170.695 133.352 170.884 133.087C175.742 126.275 180.601 119.464 185.545 112.715C194.323 100.735 203.376 88.94 213.143 77.7445C218.002 72.175 223.127 66.8892 228.239 61.5568C228.568 61.2138 228.897 60.8595 229.225 60.4985C227.78 60.0282 226.253 60.1098 224.933 61.0275C223.331 59.6964 224.794 57.1862 224.894 55.063C218.975 65.3017 209.792 73.3069 203.519 83.3407C203.364 83.5887 202.755 83.2855 202.939 82.9914C204.972 79.7382 207.303 76.6908 209.735 73.7278C214.903 67.4308 220.769 61.1116 224.767 53.9049C224.701 53.6866 224.617 53.4739 224.487 53.2758C223.918 52.4095 222.828 52.057 221.804 51.8968C216.62 51.0856 211.391 53.7401 207.734 57.5029C204.076 61.2657 201.682 66.0416 199.214 70.6727C182.087 102.821 133.611 167.054 113.524 197.442C113.27 197.826 113.017 198.238 112.785 198.666C114.771 196.67 116.473 194.427 117.682 191.828C117.775 191.628 118.414 191.888 118.329 192.07C116.854 195.242 114.652 197.91 112.077 200.24C111.615 201.577 111.544 202.933 112.395 204.011C112.755 204.466 113.22 204.783 113.738 205.027C114.997 202.537 116.553 200.208 118.331 198.033C124.092 190.986 131.598 185.506 136.703 177.901C136.817 177.731 137.426 178.031 137.35 178.142C131.632 186.661 122.866 192.517 116.984 200.896C115.981 202.325 115.131 203.793 114.397 205.292C115.072 205.53 115.793 205.701 116.468 205.916C117.175 206.141 117.847 206.451 118.486 206.819C135.01 181.998 226.628 71.2021 230.542 65.7067C231.22 64.7556 231.92 63.7698 232.559 62.746C231.796 61.8887 230.869 61.1915 229.878 60.7469C229.259 61.4375 228.629 62.1022 228.007 62.7383ZM122.847 188.047C122.684 188.246 122.067 187.949 122.26 187.714C125.754 183.466 128.336 178.386 131.814 174.126C144.204 158.948 182.824 108.826 195.019 93.4911C195.179 93.2903 195.796 93.5844 195.606 93.8237C192.183 98.1283 188.752 102.427 185.314 106.719C173.064 122.011 135.292 172.913 122.847 188.047Z" fill="#9B6D62"/>
<path d="M189.219 100.854C191.505 97.9366 193.475 95.4338 195.02 93.4912C195.18 93.2904 195.797 93.5845 195.607 93.8238C192.639 97.5565 189.662 101.283 186.682 105.006C184.279 108.986 181.923 112.993 179.639 117.042C178.81 118.513 177.99 120.373 178.906 121.792C178.916 121.808 178.929 121.819 178.939 121.834C181.131 118.787 183.328 115.743 185.546 112.715C194.324 100.735 203.378 88.9401 213.144 77.7446C216.645 73.7323 220.285 69.8687 223.957 66.0274C223.815 65.8389 223.668 65.6528 223.505 65.4765C222.39 64.271 220.827 63.5522 219.201 63.3547C213.991 70.0184 208.01 76.1597 203.521 83.3408C203.366 83.5887 202.756 83.2855 202.94 82.9915C204.974 79.7383 207.304 76.6908 209.736 73.7278C212.546 70.3045 215.562 66.8738 218.374 63.2996C216.945 63.2827 215.515 63.6673 214.34 64.4878C214.34 64.4877 197.349 87.6967 189.219 100.854Z" fill="#A3786D"/>
<path d="M198.368 96.7997C191.856 105.171 185.591 113.729 179.4 122.34C180.13 122.946 181.133 123.014 182.185 122.768C199.339 102.297 217.12 81.7345 225.611 71.6996C225.628 69.8612 225.251 68.0668 224.32 66.5665C215.159 76.2045 206.542 86.292 198.368 96.7997Z" fill="#A3786D"/>
<path d="M172.037 122.379C172.042 122.39 172.041 122.403 172.035 122.413C171.425 123.342 170.654 124.493 169.748 125.829C170.918 124.325 172.078 122.835 173.224 121.363C172.626 121.157 172.02 120.98 171.408 120.863C171.38 120.858 171.357 120.887 171.369 120.913L172.037 122.379Z" fill="#A3786D"/>
<path d="M178.072 124.188C175.866 127.264 173.668 130.346 171.47 133.427C171.312 133.649 170.697 133.352 170.886 133.087C173.105 129.975 175.327 126.864 177.555 123.758C176.428 122.85 175.155 122.098 173.804 121.565C170.128 126.378 166.025 131.783 161.761 137.407C148.656 156.207 128.585 184.374 122.312 192.755C121.855 193.365 121.484 194.037 121.227 194.75C126.444 189.176 132.419 184.286 136.705 177.901C136.819 177.731 137.428 178.031 137.352 178.143C132.806 184.916 126.337 190.009 120.919 196.021C120.612 198.238 121.587 199.64 123.02 200.357C123.035 200.364 123.054 200.36 123.064 200.346C130.49 190.275 167.476 140.376 179.611 125.845C179.622 125.833 179.622 125.814 179.612 125.801C179.154 125.225 178.633 124.688 178.072 124.188Z" fill="#A3786D"/>
<path d="M78.4301 287.107C78.4213 287.582 78.3806 288.056 78.3207 288.529C78.8204 287.703 79.3422 286.897 79.8975 286.121C79.4085 286.451 78.9208 286.787 78.4301 287.107Z" fill="#A3786D"/>
<path d="M73.1943 290.312C69.6745 292.334 66.3183 293.992 63.4919 295.105C63.5723 295.836 63.549 296.569 63.3388 297.292C63.0834 298.17 62.4406 299.059 61.528 299.121C61.2019 299.144 60.8768 299.056 60.5755 298.929C59.521 298.485 58.7886 297.633 58.2436 296.619C49.4964 297.945 47.0067 295.422 42.3846 284.954C41.8197 283.675 41.5495 281.891 41.5208 279.764C40.1922 280.563 38.8089 281.269 37.3852 281.882C37.5038 283.87 37.8268 285.556 38.3898 286.831C44.1038 299.772 47.133 302.736 58.2009 300.944C61.4364 300.42 66.3901 298.427 71.96 295.5C72.221 293.766 72.8443 292.017 73.1943 290.312Z" fill="#A3786D"/>
<path d="M41.7696 275.185C42.6166 267.455 45.5208 257.343 49.2746 249.056C49.2403 249.057 49.2061 249.055 49.1716 249.057C47.2604 249.133 45.4577 249.65 43.7806 250.479C39.7495 261.374 37.1069 273.31 37.3492 281.083C38.4633 278.901 40.1029 277.011 41.7696 275.185Z" fill="#A3786D"/>
<path d="M228.987 45.6067C228.462 47.4824 227.784 49.3145 226.967 51.0913C226.899 51.2386 226.822 51.3792 226.753 51.5255C227.136 51.8757 227.518 52.2247 227.902 52.5664C229.362 53.8656 231.005 55.1103 232.772 55.9344C233.421 54.92 234.003 53.8698 234.463 52.7832C233.67 50.4449 231.851 47.9305 228.505 45.2102C228.668 45.3427 228.831 45.4751 228.987 45.6067Z" fill="#825A50"/>
<path d="M233.4 56.2033C233.898 56.4027 234.403 56.5762 234.919 56.6945C235.047 55.4473 234.924 54.1453 234.463 52.785C234.58 53.1276 234.676 53.4667 234.75 53.8019C234.357 54.6228 233.9 55.4235 233.4 56.2033Z" fill="#825A50"/>
<path d="M193.33 71.029C194.567 69.0232 195.787 67.0078 196.951 64.9628C199.148 61.104 200.353 56.7004 202.983 53.0971C206.883 47.7552 212.795 44.2134 217.119 39.292C210.68 38.2733 207.315 42.989 204.398 47.0832C201.853 50.6563 180.099 88.7283 160.227 121.449C164.565 117.189 172.101 107.078 174.959 101.713C180.425 91.4561 186.781 81.0391 193.33 71.029Z" fill="#825A50"/>
<path d="M217.866 39.4358C216.04 41.5442 213.923 43.4134 211.806 45.2395C208.658 47.9557 205.406 50.6772 203.063 54.1556C201.727 56.1387 200.868 58.3537 199.931 60.539C199.648 61.1967 199.343 61.8423 199.029 62.4826C199.842 61.2862 200.655 60.0868 201.467 58.9091C203.857 55.4405 208.535 52.3328 211.92 49.8253C215.305 47.3174 214.993 45.0599 219.026 46.2775C221.815 47.1194 224.056 49.0652 226.233 51.0507C227.118 49.1495 227.861 47.1839 228.414 45.1372C227.825 44.6616 227.203 44.1816 226.518 43.6932C222.776 41.0278 219.701 39.7006 217.119 39.2919C217.363 39.3307 217.613 39.3803 217.866 39.4358Z" fill="#825A50"/>
<path d="M86.8935 215.151C87.0453 215.094 87.1973 215.037 87.3491 214.981C88.3615 214.603 89.3752 214.222 90.3863 213.833C90.6665 213.442 90.9562 213.058 91.2591 212.684C91.0953 212.886 90.942 213.097 90.7849 213.304C89.4956 213.935 88.1966 214.548 86.8935 215.151Z" fill="#825A50"/>
<path d="M68.972 221.05C69.0427 221.286 69.1026 221.525 69.1712 221.761C72.2424 220.615 75.3138 219.47 78.3852 218.324C78.4887 218.281 78.5937 218.241 78.6972 218.197C86.0292 215.107 93.2458 211.71 100.126 207.704C103.188 205.92 106.364 204.009 109.246 201.773C109.829 201.16 110.403 200.54 110.965 199.909C117.884 192.149 123.988 183.554 125.612 173.289C116.448 187.947 108.21 199.117 104.108 203.347C91.5005 216.347 74.2451 209.025 57.9754 225.937C61.3736 224.669 64.7719 223.402 68.1702 222.134C68.3996 221.749 68.6597 221.381 68.972 221.05Z" fill="#825A50"/>
<path d="M98.7862 209.118C96.3476 210.487 93.8693 211.782 91.363 213.02C91.3283 212.908 91.2979 212.793 91.2604 212.684C91.3408 212.918 91.4134 213.161 91.481 213.408C95.0481 212.002 98.5466 210.433 101.721 208.3C103.384 207.183 104.938 205.919 106.415 204.566C103.906 206.223 101.294 207.711 98.7862 209.118Z" fill="#825A50"/>
<path d="M108.768 231.03C108.857 233.607 109.227 236.167 109.516 238.73C109.513 232.967 109.297 227.197 109.706 221.447C109.002 224.588 108.657 227.797 108.768 231.03Z" fill="#825A50"/>
<path d="M134.62 184.759C128.426 190.343 122.912 196.267 118.13 203.078C115.069 207.44 112.523 212.254 110.857 217.31C109.495 226.781 110.561 236.842 109.977 246.35C109.851 248.411 109.62 250.459 109.297 252.49C109.281 252.702 109.263 252.913 109.249 253.125C109.344 253.3 109.44 253.473 109.516 253.663C109.684 254.078 109.797 254.538 109.687 254.973C109.599 255.32 109.407 255.576 109.148 255.759C109.146 256.012 109.138 256.265 109.142 256.519C109.153 257.226 109.203 257.973 109.599 258.56C109.917 259.031 110.339 259.287 110.815 259.381C118.789 240.204 107.88 226.891 115.629 211.554C118.066 206.729 125.026 196.749 134.62 184.759Z" fill="#825A50"/>
<path d="M201.603 71.2C204.478 67.2527 207.213 63.203 209.8 59.0613C211.502 56.3357 213.177 53.4701 213.599 50.2842C213.095 50.4993 212.679 50.914 212.463 51.4175L209.912 53.6415C206.06 59.5594 202.621 65.7461 199.628 72.1415C200.307 72.58 201.127 71.8537 201.603 71.2Z" fill="#825A50"/>
<path d="M139.142 160.605C143.982 153.901 148.682 147.092 153.23 140.198C156.223 135.661 159.227 130.929 160.791 126.14C160.099 126.619 159.45 127.36 159.018 128.167L155.143 132.249C148.453 142.151 142.185 152.309 136.398 162.627C137.092 163.044 138.341 161.716 139.142 160.605Z" fill="#825A50"/>
<path d="M190.034 90.5636C191.549 88.2786 193.083 85.9549 193.905 83.3396C193.534 83.0195 192.856 83.2212 192.72 83.6919L191.167 84.6344C183.861 95.9234 176.556 107.212 169.25 118.502C170.33 119.367 171.793 118.076 172.558 116.923C178.383 108.136 184.208 99.3499 190.034 90.5636Z" fill="#825A50"/>
<path d="M74.3416 225.52C75.4518 224.03 76.5409 222.525 77.6001 220.998C77.9363 220.513 78.2637 219.826 77.8683 219.387L75.4185 222.081C74.1562 223.524 72.8938 224.967 71.6314 226.41C72.5383 226.084 73.4424 225.785 74.3416 225.52Z" fill="#825A50"/>
<path d="M103.09 221.635C103.408 222.1 103.67 222.598 103.873 223.12C106.34 220.626 108.368 217.697 109.818 214.502C109.905 214.311 109.979 214.057 109.823 213.916C109.668 213.775 109.404 214.129 109.612 214.158L107.952 214.628C106.217 216.877 104.473 219.166 103.09 221.635Z" fill="#825A50"/>
<path d="M234.463 52.783C233.073 56.0705 230.633 59.0587 228.239 61.5567C223.127 66.8891 218.001 72.1749 213.143 77.7444C203.376 88.9399 194.322 100.735 185.545 112.715C180.6 119.464 175.741 126.275 170.883 133.087C170.694 133.352 171.31 133.648 171.468 133.427C180.263 121.094 189.065 108.758 198.367 96.7995C207.63 84.8924 217.459 73.5229 228.007 62.7382C230.515 60.1735 233.144 57.1502 234.751 53.802C234.676 53.4662 234.579 53.1263 234.463 52.783Z" fill="#704D44"/>
<path d="M202.938 82.9914C202.754 83.2854 203.364 83.5885 203.519 83.3407C210.58 72.0452 221.341 63.3278 226.967 51.0914C227.784 49.3147 228.462 47.4824 228.987 45.6068C228.803 45.4506 228.61 45.2935 228.415 45.1359C225.409 56.2501 216.894 65.0054 209.735 73.7276C207.302 76.6907 204.972 79.7382 202.938 82.9914Z" fill="#704D44"/>
<path d="M122.847 188.047C135.291 172.913 173.063 122.01 185.313 106.719C188.752 102.427 192.182 98.1281 195.606 93.8235C195.796 93.5842 195.178 93.2901 195.018 93.4909C182.823 108.826 144.203 158.947 131.813 174.125C128.335 178.386 125.753 183.466 122.26 187.714C122.066 187.949 122.683 188.246 122.847 188.047Z" fill="#704D44"/>
<path d="M181.427 91.7029C186.543 83.347 191.758 75.0427 196.77 66.6242C197.943 64.6552 199.027 62.6462 199.931 60.5391C200.869 58.3538 201.728 56.1387 203.064 54.1557C205.407 50.6774 208.658 47.9558 211.807 45.2396C213.924 43.4136 216.041 41.5444 217.867 39.4359C217.613 39.3805 217.363 39.3308 217.119 39.292C212.795 44.2135 206.883 47.7553 202.983 53.0971C200.353 56.7004 199.148 61.104 196.951 64.9629C194.579 69.1304 191.976 73.1762 189.472 77.2656C186.575 81.9975 183.677 86.7294 180.78 91.4614C180.633 91.7012 181.267 91.9642 181.427 91.7029Z" fill="#704D44"/>
<path d="M104.497 267.095C103.449 269.618 102.24 272.07 100.888 274.44C101.546 273.751 102.168 273.062 102.765 272.374C105.432 267.212 107.414 261.698 108.641 256.003C108.411 256.077 108.158 256.12 107.893 256.136C107.088 259.865 105.977 263.528 104.497 267.095Z" fill="#704D44"/>
<path d="M137.351 178.142C137.426 178.031 136.817 177.731 136.704 177.901C131.598 185.506 124.092 190.986 118.331 198.033C115.709 201.241 113.555 204.773 112.153 208.682C110.874 212.245 110.189 215.993 109.832 219.754C109.101 227.48 109.688 235.249 109.467 242.991C109.378 246.094 109.106 249.172 108.635 252.211C108.852 252.469 109.042 252.749 109.21 253.048C109.581 250.835 109.839 248.599 109.977 246.35C110.916 231.041 107.576 214.299 116.984 200.896C122.866 192.517 131.632 186.661 137.351 178.142Z" fill="#704D44"/>
<path d="M77.7285 219.164C82.1332 217.335 86.4999 215.402 90.7847 213.304C90.9418 213.097 91.095 212.886 91.2588 212.684C91.2963 212.793 91.3268 212.908 91.3614 213.02C93.8676 211.781 96.346 210.487 98.7846 209.118C106.213 204.949 114.589 200.112 118.329 192.07C118.413 191.889 117.775 191.628 117.681 191.828C114.253 199.201 106.901 203.757 100.125 207.704C93.2449 211.711 86.0282 215.107 78.6962 218.197C75.5655 219.517 72.3988 220.749 69.23 221.975C69.2774 222.14 69.3228 222.306 69.3693 222.472C72.1668 221.394 74.9623 220.313 77.7285 219.164Z" fill="#704D44"/>
<path d="M57.1512 226.814C56.8715 227.12 56.592 227.433 56.3126 227.754C60.0458 226.086 63.8566 224.597 67.6745 223.125C67.7681 222.896 67.8731 222.673 67.9873 222.456C64.3554 223.861 60.7264 225.273 57.1512 226.814Z" fill="#704D44"/>
<path d="M41.1643 279.97C40.839 281.797 40.2791 283.582 39.4814 285.286C39.3506 285.565 39.9941 285.815 40.1289 285.527C40.762 284.175 41.2504 282.769 41.5919 281.331C41.5519 280.833 41.5278 280.311 41.5205 279.765C41.403 279.835 41.2825 279.9 41.1643 279.97Z" fill="#704D44"/>
<path d="M41.9344 273.847C41.7941 273.738 41.5725 273.711 41.4374 273.816C39.8248 275.069 38.4606 276.606 37.3754 278.32C37.3541 278.8 37.3397 279.271 37.3355 279.729C37.8718 278.732 38.4843 277.794 39.1646 276.952C39.8487 276.106 40.6147 275.338 41.4438 274.637C41.4645 274.927 41.4694 275.217 41.4787 275.506C41.5755 275.399 41.6717 275.292 41.7687 275.185C41.8167 274.747 41.8734 274.299 41.9344 273.847Z" fill="#704D44"/>
<path d="M42.2511 258.123C41.7235 258.664 41.22 259.228 40.7387 259.809C40.5779 260.378 40.4208 260.946 40.2695 261.512C42.1394 258.986 44.4162 256.902 46.8466 254.982C47.0036 254.558 47.1606 254.135 47.3227 253.716C45.5422 255.078 43.822 256.512 42.2511 258.123Z" fill="#704D44"/>
<path d="M44.9786 292.737C44.3967 293.703 43.7037 294.746 42.8512 295.556C42.9704 295.737 43.0898 295.913 43.2095 296.085C44.3877 295.026 45.3419 293.662 46.1023 292.197C45.9529 291.972 45.804 291.739 45.6549 291.496C45.4435 291.917 45.222 292.334 44.9786 292.737Z" fill="#704D44"/>
<path d="M62.1289 298.946C62.0923 299.123 62.0525 299.299 62.0219 299.477C61.9949 299.632 61.988 299.791 61.9657 299.947C62.2093 299.864 62.4498 299.785 62.7023 299.694C62.8161 299.03 62.9772 298.375 63.1738 297.731C62.9466 298.241 62.5916 298.704 62.1289 298.946Z" fill="#704D44"/>
<path d="M63.3873 297.079C63.6738 296.265 64.0255 295.476 64.4377 294.719C64.1173 294.853 63.8001 294.984 63.4918 295.105C63.5643 295.765 63.5446 296.425 63.3873 297.079Z" fill="#704D44"/>
<path d="M68.0427 293.152C67.9462 293.405 68.5926 293.649 68.6901 293.394C68.7928 293.125 68.8955 292.856 68.9983 292.587C68.6911 292.744 68.3835 292.901 68.0819 293.05L68.0427 293.152Z" fill="#704D44"/>
<path d="M57.6213 296.707C57.1822 297.488 56.7492 298.271 56.3194 299.053C55.9014 299.813 55.4837 300.574 55.0658 301.334C55.3341 301.313 55.6089 301.286 55.8886 301.256C55.9466 301.151 56.0048 301.045 56.0629 300.939C56.8194 299.562 57.5695 298.172 58.3451 296.796C58.3112 296.737 58.2761 296.679 58.2437 296.619C58.0316 296.652 57.8262 296.679 57.6213 296.707Z" fill="#704D44"/>
<path d="M91.5197 284.215C92.6839 281.837 92.7836 279.041 92.0185 276.512C94.2084 274.406 96.1167 272.272 97.5754 270.184C101.408 264.7 103.218 259.795 103.981 255.264C104.664 255.488 105.349 255.708 106.04 255.908C107.393 256.302 109.341 256.339 109.687 254.972C109.797 254.538 109.684 254.078 109.516 253.662C108.671 251.57 106.675 250.41 104.46 249.672C104.494 245.992 104.047 242.529 103.737 239.153C105.359 238.482 106.833 237.433 107.75 235.951C108.036 235.488 108.212 234.774 107.749 234.488C107.563 234.372 107.33 234.375 107.111 234.384C105.886 234.434 104.666 234.575 103.462 234.805C103.41 232.437 103.566 230.083 104.156 227.698C104.891 224.728 103.816 221.607 101.324 219.831L100.959 219.571C98.4672 217.796 95.1661 217.8 92.5992 219.465C92.4029 219.592 92.2038 219.708 92.0057 219.827C92.1631 217.188 91.9511 214.7 91.2599 212.684C88.9753 215.506 87.3353 218.829 86.4153 222.341C81.4122 223.995 75.9971 224.654 70.4856 226.827C70.0443 224.885 69.5438 222.957 68.9721 221.05C67.5356 222.574 67.0466 224.755 66.8571 226.841C66.8101 227.358 66.836 227.909 66.8978 228.474C64.728 229.63 62.5544 231.107 60.3959 233.049C59.9138 232.465 59.3999 231.953 58.8528 231.561C58.6756 232.596 58.6264 233.647 58.6838 234.694C58.0891 235.303 57.4956 235.947 56.9044 236.637C55.5139 235.713 54.0258 235.075 52.7045 234.991C53.2768 236.389 54.1564 237.652 55.24 238.704C55.025 238.987 54.81 239.273 54.5956 239.568C53.9506 240.457 53.3142 241.438 52.6878 242.48C49.3186 243.441 46.1212 245.006 43.3067 247.092C45.0904 248.258 47.2111 248.799 49.352 248.883C45.5603 257.202 42.6228 267.402 41.7699 275.185C39.8491 277.29 37.9615 279.478 36.8765 282.103C38.4813 281.443 40.0342 280.658 41.5214 279.765C41.5501 281.891 41.8204 283.675 42.3853 284.955C47.0073 295.422 49.4969 297.945 58.2443 296.62C58.7893 297.633 59.5217 298.485 60.5762 298.929C60.8776 299.056 61.2025 299.144 61.5287 299.122C62.4414 299.06 63.0841 298.171 63.3395 297.292C63.5497 296.569 63.5731 295.837 63.4926 295.105C66.319 293.992 69.6752 292.334 73.195 290.312C72.6536 292.95 71.4419 295.697 71.9633 298.324C75.9228 296.114 78.3467 291.609 78.4305 287.107C81.9694 284.803 85.4915 282.226 88.6592 279.539C89.33 281.25 90.2937 282.846 91.5197 284.215Z" fill="#BAA769"/>
<path d="M91.5189 284.215C92.6831 281.836 92.7829 279.041 92.0178 276.512C94.2077 274.405 96.116 272.272 97.5747 270.184C101.407 264.7 103.217 259.795 103.98 255.264C104.663 255.488 105.348 255.707 106.039 255.908C107.392 256.302 109.34 256.339 109.686 254.972C109.796 254.538 109.684 254.078 109.516 253.662C108.694 251.629 106.784 250.48 104.644 249.739C101.399 251.292 99.5725 255.691 95.9702 255.813C93.8755 255.885 91.8909 254.367 89.8295 254.745C88.7071 254.951 87.7931 255.696 87.0945 256.622C85.7352 257.469 84.4976 258.512 83.4385 259.715C84.3701 256.774 84.5458 253.25 83.4831 251.019C81.2982 253.754 80.3678 257.452 80.9979 260.895L81.3971 262.618C81.089 263.18 80.8114 263.758 80.5749 264.355L79.4859 267.53C81.2076 266.944 83.0746 265.71 84.761 264.146C84.5113 266.475 84.4005 268.855 83.8316 271.115C83.5161 272.369 82.818 273.788 81.533 273.933C80.0518 274.1 79.0356 272.459 78.6935 271.008C78.3517 269.557 78.1806 267.873 76.976 266.995C75.284 265.761 72.8367 267.09 71.671 268.829C70.5051 270.569 69.9466 272.725 68.4617 274.201C68.5224 272.992 68.5829 271.783 68.6435 270.574C65.541 271.058 63.5799 274.072 62.0201 276.797L57.9413 283.924C57.9822 280.517 58.7199 277.121 60.096 274.005C60.3067 273.528 60.5354 272.989 60.3434 272.504C60.1971 272.135 59.8393 271.896 59.4861 271.715C56.0616 269.952 51.8715 271.458 48.0808 270.777C47.5541 270.682 46.9889 270.514 46.686 270.073C45.6494 268.564 48.8067 267.01 48.4357 265.217C48.2041 264.098 46.6904 263.61 46.458 262.491C46.3579 262.01 46.5239 261.518 46.6876 261.055C48.3388 256.38 49.9901 251.705 51.6415 247.03C52.0717 245.811 52.508 244.554 52.4404 243.264C52.4285 243.038 52.3903 242.811 52.3403 242.587C49.0992 243.554 46.0236 245.077 43.306 247.092C45.0897 248.258 47.2105 248.798 49.3513 248.883C45.5596 257.202 42.6221 267.402 41.7692 275.185C39.8484 277.289 37.9609 279.478 36.8758 282.102C38.4807 281.442 40.0335 280.658 41.5207 279.764C41.5494 281.891 41.8197 283.675 42.3846 284.954C47.0066 295.421 49.4963 297.945 58.2437 296.619C58.7886 297.633 59.5211 298.484 60.5755 298.928C60.8769 299.055 61.2019 299.143 61.5281 299.121C62.4407 299.059 63.0834 298.17 63.3388 297.292C63.549 296.569 63.5724 295.836 63.492 295.105C66.3183 293.992 69.6745 292.333 73.1943 290.312C72.6529 292.95 71.4412 295.697 71.9626 298.324C75.9222 296.113 78.3461 291.608 78.4299 287.106C81.9687 284.803 85.4909 282.225 88.6585 279.539C89.3292 281.25 90.293 282.846 91.5189 284.215Z" fill="#AB9544"/>
<path d="M102.038 224.285C97.4682 224.354 92.9565 226.33 89.8061 229.641L87.8461 232.019C92.4888 231.782 99.6288 228.261 102.038 224.285Z" fill="#BAA769"/>
<path d="M77.3123 289.648C76.7982 283.595 75.6567 277.596 73.912 271.777C72.4754 273.301 71.9864 275.482 71.797 277.568C71.3303 282.705 77.3123 289.648 77.3123 289.648Z" fill="#9A873C"/>
<path d="M63.6447 278.063C61.6192 280.275 61.4865 283.573 61.4649 286.572C61.4429 289.664 61.4329 292.831 62.4744 295.743C64.5045 291.487 65.6508 286.812 65.8208 282.1L63.6447 278.063Z" fill="#9A873C"/>
<path d="M64.3145 263.007C62.0412 262.249 59.7681 261.49 57.495 260.731C55.363 260.019 52.8756 259.346 50.9944 260.576C50.7207 260.755 50.4661 260.975 50.3022 261.258C49.8438 262.049 50.2218 263.079 50.8075 263.782C52.3785 265.666 55.0567 266.093 57.4917 266.392C58.814 266.555 59.9383 264.246 61.2605 264.408L64.3145 263.007Z" fill="#A18C3F"/>
<path d="M56.5323 274.845L52.8268 275.129C49.3666 275.922 46.2026 277.949 44.0354 280.76C48.8757 282.106 54.5046 279.442 56.5323 274.845Z" fill="#9A873C"/>
<path d="M94.3758 271.011C94.8035 270.878 95.1368 270.541 95.4031 270.18C100.18 262.955 89.7444 258.234 89.7444 258.234C90.1148 261.664 90.7596 265.064 91.6706 268.391C92.0428 269.751 93.03 271.43 94.3758 271.011Z" fill="#9A873C"/>
<path d="M78.7607 233.244C79.0468 232.781 79.2221 232.068 78.7596 231.781C78.5735 231.666 78.3402 231.668 78.1214 231.677C74.8697 231.81 71.6455 232.586 68.69 233.949L67.2785 237.667C69.415 237.566 71.5761 237.461 73.6259 236.851C75.6757 236.24 77.6354 235.063 78.7607 233.244Z" fill="#BAA769"/>
<path d="M70.0377 258.947C68.4572 259.424 67.0164 260.329 65.8707 261.516C66.5124 259.771 66.7149 257.654 66.1362 256.282C64.7456 257.868 64.0839 260.07 64.3689 262.16L64.5621 263.208C64.3612 263.538 64.178 263.879 64.0194 264.232L63.2766 266.114C66.0583 265.307 69.5786 261.807 70.0377 258.947Z" fill="#C8B988"/>
<path d="M60.2634 256.406C58.9974 255.364 57.4552 254.674 55.8423 254.384C57.6376 253.95 59.4973 252.949 60.311 251.714C58.2334 251.441 56.0506 252.11 54.4818 253.499L53.7229 254.237C53.3397 254.253 52.9573 254.29 52.5787 254.354L50.6149 254.779C52.8163 256.63 57.6487 257.606 60.2634 256.406Z" fill="#AB9544"/>
<path d="M92.0185 276.512C94.2083 274.406 96.1167 272.272 97.5753 270.184C101.407 264.7 103.218 259.795 103.981 255.265C104.664 255.488 105.349 255.708 106.039 255.908C107.393 256.302 109.341 256.339 109.687 254.973C109.735 254.782 109.735 254.586 109.712 254.391C108.134 253.601 106.393 253.311 104.789 253.981C102.275 255.031 101.174 257.922 100.336 260.515C99.677 262.556 99.018 264.596 98.359 266.636C97.4193 269.545 95.7527 273.021 92.6956 273.038C91.9912 273.042 91.2648 272.845 90.5957 273.065C88.9811 273.596 88.9974 275.83 88.3915 277.418C87.2463 280.419 83.4586 281.355 81.2837 283.719C80.5878 284.476 80.0712 285.369 79.6195 286.308C82.7537 284.211 85.8473 281.924 88.6591 279.539C89.3301 281.25 90.2939 282.846 91.5198 284.215C92.6839 281.837 92.7835 279.041 92.0185 276.512Z" fill="#9A873C"/>
<path d="M58.2433 296.619C58.7883 297.633 59.5207 298.484 60.5751 298.928C60.8765 299.056 61.2015 299.143 61.5277 299.121C61.9139 299.095 62.2481 298.915 62.5288 298.656C61.7369 297.602 60.9662 296.457 59.942 295.715C57.2443 293.761 53.1377 294.894 50.4849 292.879C48.7772 291.583 48.1319 289.31 46.6729 287.738C46.0957 287.117 45.4001 286.616 44.803 286.012C42.4065 283.592 41.8966 279.835 42.3606 276.46C42.8244 273.086 44.1114 269.881 44.8111 266.547C44.9435 265.917 45.0285 265.181 44.5991 264.702C44.4051 264.485 44.1519 264.379 43.8777 264.345C42.8655 268.173 42.1294 271.896 41.7689 275.185C39.848 277.289 37.9605 279.478 36.8755 282.102C38.4803 281.442 40.0331 280.658 41.5203 279.764C41.549 281.891 41.8194 283.675 42.3842 284.954C47.0062 295.421 49.4959 297.945 58.2433 296.619Z" fill="#9A873C"/>
<path d="M86.646 273.126C86.9287 273.169 87.3542 273.125 87.5748 272.924C87.8048 272.714 87.4499 272.602 87.2868 272.578C87.0041 272.535 86.5786 272.579 86.3582 272.78C86.128 272.99 86.4827 273.101 86.646 273.126Z" fill="#9A873C"/>
</g>
<defs>
<clipPath id="clip0_52_1332">
<rect width="227" height="310.467" fill="white" transform="translate(46.6594) rotate(8.64361)"/>
</clipPath>
</defs>
</svg>
