<svg width="219" height="345" viewBox="0 0 219 345" fill="none" xmlns="http://www.w3.org/2000/svg">
<path fill-rule="evenodd" clip-rule="evenodd" d="M150.826 279.31C152.693 295.217 153.074 322.481 161.228 337.103C164.948 343.772 173.597 344.449 184.709 343.101C191.637 342.259 196.27 340.901 197.073 336.661C199.458 324.078 193.098 323.604 191.257 317.352C188.554 308.196 185.205 294.213 189.206 286.447" fill="#A4A8D4"/>
<path fill-rule="evenodd" clip-rule="evenodd" d="M86.6004 254.319C99.9087 266.742 118.236 284.964 118.184 304.856C118.184 306.193 115.893 312.763 115.893 312.763C115.893 312.763 129.165 316.904 133.892 331.116C138.029 343.554 103.576 339.652 88.1603 338.789C54.0209 336.869 50.3639 329.878 47.6615 316.582C46.0808 308.794 48.6162 293.573 47.4842 285.401" fill="#A4A8D4"/>
<mask id="mask0_66_31" style="mask-type:luminance" maskUnits="userSpaceOnUse" x="0" y="183" width="199" height="162">
<path d="M0 183.094H198.331V345H0V183.094Z" fill="white"/>
</mask>
<g mask="url(#mask0_66_31)">
<path fill-rule="evenodd" clip-rule="evenodd" d="M10.9085 308.539C10.6633 308.341 10.4181 308.139 10.1677 307.931C-13.35 288.147 7.43928 230.25 36.7895 206.263C57.7771 189.118 87.962 181.996 116.53 185.05L186.807 206.726C194.048 229.776 205.723 267.246 187.787 288.777C179.049 299.269 162.595 307.951 147.189 313.054C147.722 315.203 148.295 317.252 148.838 319.099C150.685 325.347 157.044 325.825 154.66 338.409C153.857 342.648 149.219 344.006 142.291 344.849C131.179 346.196 122.534 345.52 118.815 338.846C115.721 333.301 113.749 325.94 112.388 318.069C101.036 317.845 89.5688 316.566 78.3995 316.555C75.5145 316.555 72.5931 316.67 69.656 316.842C68.6126 318.204 67.8457 319.006 67.8457 319.006C67.8457 319.006 92.772 322.257 97.4985 336.469C101.636 348.906 67.1832 345.005 51.7672 344.141C17.6279 342.222 13.9708 335.23 11.2685 321.934C10.5694 318.501 10.6738 313.621 10.9085 308.539Z" fill="#CFDCFF"/>
</g>
<mask id="mask1_66_31" style="mask-type:luminance" maskUnits="userSpaceOnUse" x="99" y="184" width="99" height="72">
<path d="M99.5018 184.28H197.287V255.006H99.5018V184.28Z" fill="white"/>
</mask>
<g mask="url(#mask1_66_31)">
<mask id="mask2_66_31" style="mask-type:luminance" maskUnits="userSpaceOnUse" x="-1" y="184" width="199" height="162">
<path fill-rule="evenodd" clip-rule="evenodd" d="M10.9085 308.539C10.6633 308.341 10.4181 308.139 10.1677 307.931C-13.35 288.147 7.43928 230.25 36.7895 206.263C57.7771 189.118 87.962 181.996 116.53 185.05L186.807 206.726C194.048 229.776 205.723 267.246 187.787 288.777C179.049 299.269 162.595 307.951 147.189 313.054C147.722 315.203 148.295 317.252 148.838 319.099C150.685 325.347 157.044 325.825 154.66 338.409C153.857 342.648 149.219 344.006 142.291 344.849C131.179 346.196 122.534 345.52 118.815 338.846C115.721 333.301 113.749 325.94 112.388 318.069C101.036 317.845 89.5688 316.566 78.3995 316.555C75.5145 316.555 72.5931 316.67 69.656 316.842C68.6126 318.204 67.8457 319.006 67.8457 319.006C67.8457 319.006 92.772 322.257 97.4985 336.469C101.636 348.906 67.1832 345.005 51.7672 344.141C17.6279 342.222 13.9708 335.23 11.2685 321.934C10.5694 318.501 10.6738 313.621 10.9085 308.539Z" fill="white"/>
</mask>
<g mask="url(#mask2_66_31)">
<path fill-rule="evenodd" clip-rule="evenodd" d="M101.416 176.253C95.1092 184.618 117.422 225.536 152.052 228.548C194.001 232.2 190.177 265.971 197.037 250.449C201.294 240.815 193.568 208.568 185.461 198.752C167.916 177.517 107.718 167.888 101.416 176.253Z" fill="#A4A8D4"/>
</g>
</g>
<mask id="mask3_66_31" style="mask-type:luminance" maskUnits="userSpaceOnUse" x="0" y="184" width="121" height="122">
<path d="M0 184.28H120.87V305.611H0V184.28Z" fill="white"/>
</mask>
<g mask="url(#mask3_66_31)">
<mask id="mask4_66_31" style="mask-type:luminance" maskUnits="userSpaceOnUse" x="-1" y="184" width="199" height="162">
<path fill-rule="evenodd" clip-rule="evenodd" d="M10.9085 308.539C10.6633 308.341 10.4181 308.139 10.1677 307.931C-13.35 288.147 7.43928 230.25 36.7895 206.263C57.7771 189.118 87.962 181.996 116.53 185.05L186.807 206.726C194.048 229.776 205.723 267.246 187.787 288.777C179.049 299.269 162.595 307.951 147.189 313.054C147.722 315.203 148.295 317.252 148.838 319.099C150.685 325.347 157.044 325.825 154.66 338.409C153.857 342.648 149.219 344.006 142.291 344.849C131.179 346.196 122.534 345.52 118.815 338.846C115.721 333.301 113.749 325.94 112.388 318.069C101.036 317.845 89.5688 316.566 78.3995 316.555C75.5145 316.555 72.5931 316.67 69.656 316.842C68.6126 318.204 67.8457 319.006 67.8457 319.006C67.8457 319.006 92.772 322.257 97.4985 336.469C101.636 348.906 67.1832 345.005 51.7672 344.141C17.6279 342.222 13.9708 335.23 11.2685 321.934C10.5694 318.501 10.6738 313.621 10.9085 308.539Z" fill="white"/>
</mask>
<g mask="url(#mask4_66_31)">
<path fill-rule="evenodd" clip-rule="evenodd" d="M16.4645 210.503C7.3767 219.59 1.03296 231.399 -2.57191 243.998C-6.74021 258.543 -11.0911 302.369 15.4733 304.044C41.5526 305.688 72.3583 301.079 84.6128 266.741C100.451 222.384 105.804 216.037 115.434 202.486C139.917 168.039 77.2413 149.707 16.4645 210.503Z" fill="#CFDCFF"/>
</g>
</g>
<mask id="mask5_66_31" style="mask-type:luminance" maskUnits="userSpaceOnUse" x="40" y="0" width="179" height="225">
<path d="M40.7387 0H219V224.377H40.7387V0Z" fill="white"/>
</mask>
<g mask="url(#mask5_66_31)">
<path fill-rule="evenodd" clip-rule="evenodd" d="M140.261 118.199C143.913 116.67 147.696 115.525 151.54 114.813C144.185 84.4072 140.637 41.2673 148.155 14.8101C150.132 7.83945 149.636 -7.49076 158.849 4.34892C163.957 10.9138 178.277 29.6149 181.939 47.6189C186.384 69.488 183.103 92.8344 180.207 114.969C199.995 125.237 201.017 143.824 206.526 155.539C211.357 165.813 220.414 168.679 218.849 183.796C217.08 200.942 208.42 215.252 184.96 221.443C169.33 225.563 147.492 226.374 132.671 216.09C118.319 206.128 109.93 197.306 107.922 178.287C106.279 162.723 107.619 149.962 115.194 139.012C84.2998 108.888 65.2321 106.703 46.4669 61.685C44.088 55.9733 37.9373 39.8992 43.6602 34.0678C45.6844 32.0078 60.2291 43.3689 61.6741 44.17C73.0835 50.506 77.4448 50.5892 88.7289 56.7536C111.751 69.3267 127.73 93.5627 140.261 118.199Z" fill="#CFDCFF"/>
</g>
<mask id="mask6_66_31" style="mask-type:luminance" maskUnits="userSpaceOnUse" x="75" y="0" width="132" height="212">
<path d="M75.4624 0H206.344V211.06H75.4624V0Z" fill="white"/>
</mask>
<g mask="url(#mask6_66_31)">
<mask id="mask7_66_31" style="mask-type:luminance" maskUnits="userSpaceOnUse" x="41" y="-1" width="179" height="226">
<path fill-rule="evenodd" clip-rule="evenodd" d="M140.261 118.199C143.913 116.67 147.696 115.525 151.54 114.813C144.185 84.4072 140.637 41.2673 148.155 14.8101C150.132 7.83945 149.636 -7.49076 158.849 4.34892C163.957 10.9138 178.277 29.6149 181.939 47.6189C186.384 69.488 183.103 92.8344 180.207 114.969C199.995 125.237 201.017 143.824 206.526 155.539C211.357 165.813 220.414 168.679 218.849 183.796C217.08 200.942 208.42 215.252 184.96 221.443C169.33 225.563 147.492 226.374 132.671 216.09C118.319 206.128 109.93 197.306 107.922 178.287C106.279 162.723 107.619 149.962 115.194 139.012C84.2998 108.888 65.2321 106.703 46.4669 61.685C44.088 55.9733 37.9373 39.8992 43.6602 34.0678C45.6844 32.0078 60.2291 43.3689 61.6741 44.17C73.0835 50.506 77.4448 50.5892 88.7289 56.7536C111.751 69.3267 127.73 93.5627 140.261 118.199Z" fill="white"/>
</mask>
<g mask="url(#mask7_66_31)">
<path fill-rule="evenodd" clip-rule="evenodd" d="M148.311 114.048C141.034 99.4564 118.257 75.132 107.885 70.2473C96.5282 64.8945 78.5038 93.1672 76.4901 114.36C74.972 130.377 103.096 128.291 102.387 145.478C101.249 173.179 107.802 213.099 123.583 210.321C158.5 204.177 162.616 156.08 169.559 128.494C174.312 109.595 205.827 154.311 205.827 154.311C205.238 124.4 180.958 118.246 182.67 113.086C193.568 80.1883 183.989 31.3522 172.257 15.9127C164.238 5.36315 154.206 -9.53009 147.038 2.17434C128.779 31.966 148.311 114.048 148.311 114.048Z" fill="#CFDCFF"/>
</g>
</g>
<path fill-rule="evenodd" clip-rule="evenodd" d="M201.805 178.48C198.873 179.255 190.724 176.425 195.43 172.128C199.228 168.664 203.475 167.842 204.961 169.637C206.547 171.556 203.24 178.105 201.805 178.48Z" fill="#A4A8D4"/>
<path fill-rule="evenodd" clip-rule="evenodd" d="M159.658 162.811C162.663 164.388 165.042 167.556 165.12 170.354C165.188 172.94 163.633 176.191 157.879 176.347C154.462 176.435 152.02 173.028 150.68 169.288C149.036 164.715 144.837 164.564 145.009 163.436C145.181 162.312 148.562 163.046 151.702 162.536C153.951 162.172 157.315 161.589 159.658 162.811Z" fill="#5E6396"/>
<path fill-rule="evenodd" clip-rule="evenodd" d="M132.786 120.457C132.666 121.268 123.88 129.56 115.857 126.533C99.7053 120.436 78.6603 100.793 67.3397 82.6697C63.1348 75.9331 59.5769 68.8792 55.779 61.9138C54.0887 58.8134 51.9603 55.7703 50.9169 52.3526C45.6269 35.0092 66.3745 58.1112 80.6427 68.177C95.1353 78.3988 111.073 87.6739 116.399 93.162C124.193 101.194 132.9 119.676 132.786 120.457Z" fill="#A4A8D4"/>
</svg>
