<svg width="240" height="430" viewBox="0 0 240 430" fill="none" xmlns="http://www.w3.org/2000/svg">
<ellipse cx="117.065" cy="138.147" rx="118" ry="29" transform="rotate(-7.452 117.065 138.147)" fill="#1C0A2E"/>
<path d="M97.5714 7.01339C98.0265 5.29419 100.331 4.97956 101.23 6.51383L159.59 106.082C160.314 107.317 159.544 108.891 158.124 109.076L70.3696 120.555C68.9595 120.739 67.8129 119.434 68.1768 118.06L97.5714 7.01339Z" fill="#1C0A2E"/>
<path d="M200.54 159.501C204.837 192.358 172.807 223.64 128.997 229.37C85.1874 235.1 46.1887 213.11 41.891 180.252C37.5933 147.395 67.2288 109.367 111.038 103.637C154.848 97.9068 196.242 126.644 200.54 159.501Z" fill="#141111"/>
<path d="M171.373 65.1261C172.767 64.5691 174.318 65.097 175.131 66.3596C184.791 81.3748 186.658 122 187.018 136.425C187.083 139.049 184.616 140.941 182.077 140.275L133.087 127.436C130.731 126.818 129.47 124.285 130.478 122.068C136.245 109.378 154.477 71.876 171.373 65.1261Z" fill="#141111"/>
<path d="M44.4139 80.7238C42.9234 80.5442 41.5602 81.4533 41.1 82.8824C35.6261 99.8771 44.2711 139.616 47.6334 153.648C48.2451 156.201 51.1157 157.394 53.3984 156.098L97.4377 131.09C99.5557 129.887 100.122 127.115 98.5783 125.232C89.7417 114.452 62.4779 82.9009 44.4139 80.7238Z" fill="#141111"/>
<circle cx="89.2434" cy="154.778" r="21" transform="rotate(-3.51659 89.2434 154.778)" fill="#CDB53C"/>
<circle cx="91.708" cy="154.125" r="15.5" transform="rotate(-3.51659 91.708 154.125)" fill="#141111"/>
<circle cx="84.7603" cy="147.038" r="3" transform="rotate(-3.51659 84.7603 147.038)" fill="#D9D9D9"/>
<circle cx="21" cy="21" r="21" transform="matrix(-0.998117 0.0613376 0.0613376 0.998117 170.799 128.726)" fill="#CDB53C"/>
<circle cx="15.5" cy="15.5" r="15.5" transform="matrix(-0.998117 0.0613376 0.0613376 0.998117 163.121 134.208)" fill="#141111"/>
<circle cx="3" cy="3" r="3" transform="matrix(-0.998117 0.0613376 0.0613376 0.998117 157.439 139.566)" fill="#D9D9D9"/>
<path d="M120.12 181.55C120.417 181.798 120.859 181.758 121.107 181.46L127.026 174.336C127.424 173.856 127.045 173.135 126.424 173.191L113.397 174.377C112.776 174.433 112.533 175.211 113.011 175.611L120.12 181.55Z" fill="#222020"/>
<path d="M120.799 187.334C120.974 187.135 121.274 187.108 121.483 187.271L125.274 190.252C125.63 190.532 125.461 191.102 125.011 191.143L118.028 191.779C117.577 191.82 117.308 191.289 117.608 190.95L120.799 187.334Z" fill="#222020"/>
<path d="M229.129 115.925C229.129 115.925 178.701 106.889 114.082 115.341C49.4628 123.793 0.900517 148.299 0.900517 148.299C0.900517 148.299 26.5617 113.174 112.461 102.947C198.36 92.7196 229.129 115.925 229.129 115.925Z" fill="#402858"/>
<path d="M196.793 312C196.793 370.542 158.729 418 119.793 418C80.8573 418 39.2933 374.542 39.2933 316C39.2933 257.458 80.8573 206 119.793 206C158.729 206 196.793 253.458 196.793 312Z" fill="#141111"/>
<circle cx="144.793" cy="347.5" r="70.5" fill="#141111"/>
<circle cx="92.7933" cy="347.5" r="70.5" fill="#141111"/>
<path d="M70.1609 396C83.6918 396 97.1599 405.873 97.1599 412.5C97.1599 413.948 97.4698 415.026 97.4958 415.821C97.5997 416.025 97.6599 416.255 97.6599 416.5C97.6599 417.328 96.9883 418 96.1599 418H47.1599C46.3669 418 45.7189 417.385 45.6648 416.605C45.0615 415.316 45.2924 412.79 45.6609 408C45.6609 401.373 56.6301 396 70.1609 396Z" fill="#141111"/>
<path d="M171.158 396C157.627 396 144.159 405.873 144.159 412.5C144.159 413.948 143.85 415.026 143.824 415.821C143.72 416.025 143.659 416.255 143.659 416.5C143.659 417.328 144.331 418 145.159 418H194.159C194.952 418 195.6 417.385 195.655 416.605C196.258 415.316 196.027 412.79 195.658 408C195.658 401.373 184.689 396 171.158 396Z" fill="#141111"/>
<path d="M78.7175 337.278C81.0789 341.317 85.3093 344.77 90.6707 347.424C95.9713 350.049 102.481 351.946 109.668 352.869V419.649L109.583 419.826L109.553 420.071C109.329 421.928 108.782 423.233 108.028 424.182C107.275 425.13 106.228 425.833 104.821 426.347C101.913 427.409 97.7915 427.562 92.4392 427.562C86.6719 427.562 81.2384 427.389 77.2585 426.029C75.2989 425.359 73.8061 424.437 72.8015 423.206C71.815 421.997 71.1961 420.364 71.196 418.065C71.1962 413.085 73.5511 408.566 77.3796 405.39L78.1052 404.789L77.8777 403.874L63.5222 346.206C63.3684 345.588 60.9627 336.262 59.7703 331.64L78.7175 337.278Z" fill="#141111" stroke="#222020" stroke-width="3"/>
<path d="M84.1582 345L99.8178 351.5L116.158 354M154.158 345L138.499 351.5L122.158 354" stroke="#141111" stroke-width="5" stroke-linejoin="round"/>
<path d="M13.7441 399.433C13.5894 399.468 13.4351 399.502 13.2822 399.538C12.2504 399.36 11.209 399.182 10.1582 399C10.1582 399 10.937 398.135 11.2133 398C11.9811 398.158 12.4126 399.165 13.7441 399.433Z" fill="#402857"/>
<path d="M72.0433 214.208C82.8804 214.208 90.4733 214.178 99.7933 219.708C107.542 224.305 111.391 238.539 112.469 243.208H112.578L119.293 255.208L126.605 243.208H126.618C127.696 238.539 131.545 224.305 139.293 219.708C148.613 214.178 156.206 214.208 167.043 214.208H193.345C194.047 214.208 194.521 214.908 194.26 215.56C193.122 218.403 190.35 225.12 187.793 229.708C184.892 234.913 182.73 239.27 178.091 244.302C178.034 244.363 177.946 244.459 177.946 244.459C183.428 250.208 201.416 290.048 210.293 317.208C220.152 347.368 227.789 397.682 227.793 397.708C227.793 397.708 227.643 397.741 227.354 397.805C227.263 397.786 227.172 397.767 227.08 397.748C227.151 397.734 227.222 397.722 227.293 397.708C227.285 397.704 188.13 296.355 167.043 274C145.955 251.642 119.293 283.208 119.293 283.208C119.293 283.208 99.9793 330.753 78.7933 353.208C58.7849 374.415 15.9164 395.699 11.2133 398C10.2863 397.809 9.79333 397.708 9.79333 397.708C9.79722 397.683 17.24 349.368 27.2933 319.208C36.5309 291.495 57.488 250.565 60.8383 244.086C59.2785 241.944 54.0916 234.728 51.2933 229.708C48.7363 225.12 45.9647 218.403 44.8265 215.56C44.5657 214.908 45.0396 214.208 45.7416 214.208H72.0433Z" fill="#402857"/>
<path d="M168.374 301.741L175.91 309.117C178.423 311.577 182.524 311.274 184.649 308.472L211.192 273.459L233.538 235.972C235.366 232.904 234.039 228.929 230.734 227.576L208.213 218.357C205.086 217.077 201.52 218.697 200.355 221.869C197.319 230.143 191.39 245.155 185.495 253.602C178.808 263.182 166.222 272.832 161.291 276.421C160.012 277.353 159.247 278.834 159.265 280.417C159.356 288.451 162.632 296.121 168.374 301.741Z" fill="#141111"/>
<ellipse cx="209.095" cy="222.473" rx="8.06398" ry="11.0965" transform="rotate(25.1776 209.095 222.473)" fill="#141111"/>
<ellipse cx="226.193" cy="230.152" rx="7.59233" ry="8.76038" transform="rotate(41.7229 226.193 230.152)" fill="#141111"/>
<ellipse cx="219.598" cy="221.575" rx="7.0083" ry="8.76038" transform="rotate(34.591 219.598 221.575)" fill="#141111"/>
<ellipse cx="3.88835" cy="4.84945" rx="3.88835" ry="4.84945" transform="matrix(0.780361 0.625329 -0.538228 0.842799 219.254 216.313)" fill="#3F3F3F"/>
<ellipse cx="3.88761" cy="4.85029" rx="3.88761" ry="4.85029" transform="matrix(0.67929 0.73387 -0.657085 0.753817 228.078 224.401)" fill="#3F3F3F"/>
<ellipse cx="3.89062" cy="4.84665" rx="3.89062" ry="4.84665" transform="matrix(0.576665 0.816981 -0.750543 0.660822 210.291 215.056)" fill="#3F3F3F"/>
<path d="M216.45 228.981C220.549 231.344 219.666 243.685 215.855 243.223C212.044 242.761 210.366 240.211 204.421 236.629C198.476 233.047 212.352 226.617 216.45 228.981Z" fill="#3F3F3F"/>
</svg>
