<svg width="382" height="300" viewBox="0 0 382 300" fill="none" xmlns="http://www.w3.org/2000/svg">
<path d="M370.367 132.788C368.367 136.007 364.857 138.21 360.424 139.116C354.956 124.465 346.471 110.022 335.529 96.6318C336.273 96.5641 337.049 96.5224 337.831 96.5224C343.951 96.5224 350.586 98.5589 356.518 102.246C363.096 106.324 368.107 111.944 370.633 118.038C372.935 123.59 372.841 128.819 370.367 132.788ZM11.6328 132.788C9.15879 128.819 9.06504 123.59 11.3619 118.038C13.888 111.944 18.8984 106.324 25.4765 102.246C31.414 98.5537 38.0546 96.5224 44.164 96.5224C44.8723 96.5224 45.5598 96.5537 46.2369 96.6057C35.2942 109.996 26.8098 124.423 21.3411 139.064C17.0182 138.121 13.5963 135.955 11.6328 132.788ZM379.534 114.361C376.247 106.423 369.888 99.2203 361.612 94.0745C354.164 89.4495 345.716 86.9078 337.831 86.9078C335.701 86.9078 333.648 87.1005 331.69 87.4495C333.013 83.7151 333.716 79.8714 333.716 75.9443V69.4391C300.096 114.361 263.949 127.941 185.059 127.941C106.173 127.941 78.7734 106.441 48.0234 69.4391V75.9443C48.0234 79.8558 48.7213 83.6787 50.039 87.3974C48.164 87.0797 46.2005 86.9078 44.164 86.9078C36.2734 86.9078 27.8307 89.4547 20.388 94.0745C12.1171 99.2203 5.75254 106.423 2.46088 114.366C-1.05475 122.856 -0.700582 131.205 3.45046 137.871C6.66921 143.033 11.8932 146.611 18.3203 148.231C15.6692 157.522 14.2734 166.824 14.2734 175.929C14.2734 214.548 39.388 249.043 78.7734 271.804L66.4036 284.158C62.7734 287.783 62.7734 293.652 66.4036 297.283C70.0338 300.908 75.9192 300.908 79.5442 297.283L96.1796 280.668C123.549 292.908 156.029 299.996 190.867 299.996C224.393 299.996 255.737 293.439 282.435 282.038L297.69 297.283C301.326 300.908 307.211 300.908 310.836 297.283C314.466 293.652 314.466 287.783 310.836 284.158L300.096 273.423C341.128 250.705 367.471 215.481 367.471 175.929C367.471 166.85 366.081 157.564 363.445 148.288C369.982 146.705 375.284 143.106 378.539 137.871C382.706 131.205 383.055 122.856 379.534 114.361Z" fill="url(#paint0_linear_76_814)"/>
<path d="M180.767 159.456C124.127 159.456 89.4756 126.795 89.4756 126.795C89.4756 126.795 126.783 151.784 185.085 151.784C208.502 151.784 235.314 147.753 264.455 136.446C233.21 153.482 204.976 159.456 180.767 159.456Z" fill="#222020"/>
<mask id="mask0_76_814" style="mask-type:luminance" maskUnits="userSpaceOnUse" x="14" y="147" width="270" height="153">
<path d="M14.5068 147.107H283.84V299.94H14.5068V147.107Z" fill="white"/>
</mask>
<g mask="url(#mask0_76_814)">
<path d="M191.788 299.94C156.992 299.925 124.549 292.836 97.2155 280.612L96.9655 280.852C96.7832 280.774 96.6061 280.696 96.4238 280.612L79.7884 297.227C78.0801 298.93 75.8613 299.841 73.6218 299.935C71.3718 299.841 69.1478 298.94 67.4343 297.227C63.7988 293.597 63.7988 287.716 67.4343 284.102L79.804 271.748C40.4186 248.987 15.2988 214.493 15.2988 175.873C15.2988 167.513 16.4811 158.993 18.7207 150.472C18.9186 149.706 19.1322 148.946 19.3509 148.175C39.8561 267.159 154.273 286.253 225.627 286.253C242.486 286.253 256.955 285.19 267.195 284.118C274.674 283.336 279.913 282.555 282.184 282.196C255.778 293.383 224.856 299.857 191.794 299.94M282.913 282.216L282.794 282.097C283.231 282.024 283.466 281.982 283.466 281.982C283.283 282.06 283.096 282.138 282.913 282.216Z" fill="#222020"/>
</g>
<defs>
<linearGradient id="paint0_linear_76_814" x1="196.5" y1="-401" x2="191" y2="300.001" gradientUnits="userSpaceOnUse">
<stop offset="0.143031" stop-color="#8D8672"/>
<stop offset="1" stop-color="#2E2C2D"/>
</linearGradient>
</defs>
</svg>
