<svg width="345" height="626" viewBox="0 0 345 626" fill="none" xmlns="http://www.w3.org/2000/svg">
<ellipse cx="172.156" cy="199.876" rx="172.156" ry="42.3096" fill="#1C0A2E"/>
<path d="M168.667 31.826C169.724 29.6519 172.815 29.6325 173.899 31.793L238.991 161.487C239.965 163.427 238.554 165.714 236.383 165.714H108.234C106.079 165.714 104.667 163.458 105.609 161.52L168.667 31.826Z" fill="url(#paint0_linear_89_42)"/>
<path d="M288.872 246.563C288.872 294.908 236.617 334.1 172.156 334.1C107.696 334.1 55.4404 294.908 55.4404 246.563C55.4404 198.217 105.508 148.813 169.968 148.813C234.429 148.813 288.872 198.217 288.872 246.563Z" fill="#141111"/>
<path d="M264.536 104.518C266.658 103.976 268.802 105.034 269.739 107.014C280.873 130.563 275.886 189.686 273.677 210.622C273.275 214.43 269.349 216.7 265.801 215.256L197.361 187.413C194.069 186.074 192.725 182.171 194.602 179.154C205.346 161.888 238.816 111.086 264.536 104.518Z" fill="#141111"/>
<path d="M77.9229 103.059C75.8006 102.517 73.6566 103.575 72.7204 105.555C61.586 129.104 66.5727 188.227 68.7817 209.163C69.1835 212.971 73.1104 215.241 76.6579 213.797L145.098 185.954C148.39 184.615 149.734 180.712 147.857 177.695C137.113 160.429 103.643 109.627 77.9229 103.059Z" fill="#141111"/>
<circle cx="125.272" cy="223.219" r="30.638" fill="#CDB53C"/>
<circle cx="128.919" cy="222.49" r="22.6137" fill="#141111"/>
<circle cx="119.436" cy="211.548" r="4.37685" fill="#D9D9D9"/>
<circle cx="30.638" cy="30.638" r="30.638" transform="matrix(-1 0 0 1 246.365 192.582)" fill="#CDB53C"/>
<circle cx="22.6137" cy="22.6137" r="22.6137" transform="matrix(-1 0 0 1 234.693 199.876)" fill="#141111"/>
<circle cx="4.37685" cy="4.37685" r="4.37685" transform="matrix(-1 0 0 1 225.939 207.171)" fill="#D9D9D9"/>
<path d="M170.506 264.804C170.905 265.204 171.553 265.204 171.952 264.804L181.495 255.235C182.137 254.591 181.681 253.492 180.772 253.492H161.687C160.778 253.492 160.322 254.591 160.964 255.235L170.506 264.804Z" fill="#222020"/>
<path d="M170.727 273.297C171.009 273.031 171.448 273.031 171.729 273.297L176.844 278.129C177.324 278.582 177.003 279.389 176.343 279.389H166.113C165.454 279.389 165.133 278.582 165.613 278.129L170.727 273.297Z" fill="#222020"/>
<path d="M338.476 188.934C338.476 188.934 267.234 166.32 172.155 166.32C77.076 166.32 2.1875 192.581 2.1875 192.581C2.1875 192.581 45.956 146.624 172.155 148.083C298.354 149.542 338.476 188.934 338.476 188.934Z" fill="#402858"/>
<path d="M282.306 455.193C282.306 540.603 226.773 609.841 169.967 609.841C113.161 609.841 52.5215 546.439 52.5215 461.028C52.5215 375.618 113.161 300.544 169.967 300.544C226.773 300.544 282.306 369.783 282.306 455.193Z" fill="#141111"/>
<circle cx="206.441" cy="506.985" r="102.856" fill="#141111"/>
<circle cx="130.576" cy="506.985" r="102.856" fill="#141111"/>
<path d="M97.5559 577.745C117.297 577.745 136.945 592.148 136.946 601.817C136.946 603.93 137.398 605.504 137.436 606.664C137.587 606.961 137.675 607.296 137.675 607.653C137.675 608.861 136.695 609.841 135.487 609.841H63.9983C62.8412 609.841 61.8954 608.943 61.8166 607.806C60.9369 605.924 61.2743 602.239 61.8117 595.252C61.8117 585.583 77.8149 577.745 97.5559 577.745Z" fill="#141111"/>
<path d="M244.906 577.745C225.166 577.745 205.517 592.148 205.517 601.817C205.517 603.928 205.065 605.5 205.026 606.66C204.874 606.958 204.786 607.295 204.786 607.653C204.786 608.861 205.766 609.841 206.975 609.841H278.463C279.619 609.841 280.563 608.945 280.644 607.81C281.526 605.93 281.188 602.244 280.65 595.252C280.65 585.583 264.647 577.745 244.906 577.745Z" fill="#141111"/>
<path d="M110.041 492.073C113.486 497.965 119.657 503.003 127.479 506.875C135.212 510.704 144.71 513.473 155.194 514.819V612.248L155.071 612.504L155.028 612.863C154.7 615.573 153.902 617.476 152.802 618.861C151.703 620.244 150.176 621.271 148.124 622.02C143.881 623.569 137.868 623.791 130.059 623.792C121.644 623.791 113.717 623.54 107.911 621.555C105.052 620.578 102.874 619.231 101.408 617.435C99.9691 615.671 99.0665 613.29 99.0664 609.936C99.0666 602.67 102.503 596.077 108.089 591.444L109.147 590.566L108.815 589.231L87.8711 505.096C87.6461 504.192 84.1381 490.591 82.3984 483.848L110.041 492.073Z" fill="#141111" stroke="#222020" stroke-width="4.37685"/>
<path d="M251.332 483.848C249.592 490.591 246.086 504.192 245.86 505.096L224.915 589.231L224.583 590.566L225.642 591.445C231.228 596.078 234.665 602.67 234.665 609.936C234.665 613.291 233.762 615.672 232.323 617.436C230.858 619.232 228.68 620.578 225.821 621.555C220.015 623.54 212.088 623.791 203.674 623.792C195.865 623.791 189.852 623.569 185.608 622.02C183.556 621.271 182.028 620.244 180.929 618.861C179.828 617.476 179.03 615.573 178.702 612.863L178.659 612.505L178.537 612.25V515.407C191.004 514.467 202.336 511.548 211.355 507.215C220.395 502.873 227.345 496.989 230.56 490.028L251.332 483.848Z" fill="#141111" stroke="#222020" stroke-width="4.37685"/>
<path d="M117.978 503.338L140.824 512.821L164.664 516.468M220.104 503.338L197.258 512.821L173.418 516.468" stroke="#141111" stroke-width="7.29475" stroke-linejoin="round"/>
<path d="M15.2465 582.753C15.0207 582.805 14.7955 582.854 14.5725 582.906C13.0672 582.647 11.5478 582.386 10.0147 582.121C10.0147 582.121 11.1509 580.86 11.554 580.662C12.6743 580.893 13.3037 582.362 15.2465 582.753Z" fill="url(#paint1_linear_89_42)"/>
<path d="M100.302 312.519C116.113 312.519 127.19 312.476 140.788 320.543C152.093 327.251 157.709 348.017 159.281 354.829H159.441L169.238 372.336L179.905 354.829H179.923C181.496 348.017 187.112 327.251 198.417 320.543C212.014 312.476 223.092 312.519 238.902 312.519H277.275C278.299 312.519 278.991 313.54 278.61 314.491C276.95 318.64 272.906 328.44 269.176 335.133C264.943 342.727 261.788 349.083 255.021 356.424C254.938 356.514 254.808 356.654 254.808 356.654C262.807 365.041 289.05 423.166 302.002 462.791C316.385 506.793 327.528 580.199 327.534 580.236C327.534 580.236 327.315 580.284 326.892 580.377C326.76 580.35 326.627 580.322 326.494 580.295C326.597 580.275 326.701 580.256 326.804 580.236C326.791 580.231 259.089 550.117 228.325 517.502C197.558 484.883 169.238 413.187 169.238 413.187C169.238 413.187 141.059 482.552 110.15 515.313C80.9586 546.253 18.4157 577.306 11.554 580.662C10.2016 580.384 9.48242 580.236 9.48242 580.236C9.48809 580.2 20.3467 509.711 35.0141 465.709C48.4911 425.278 79.0666 365.562 83.9544 356.109C81.6788 352.984 74.1114 342.457 70.0289 335.133C66.2983 328.44 62.2546 318.64 60.5941 314.491C60.2136 313.54 60.905 312.519 61.9291 312.519H100.302Z" fill="url(#paint2_linear_89_42)"/>
<path d="M15.2465 582.753C15.0207 582.805 14.7955 582.854 14.5725 582.906C13.0672 582.647 11.5478 582.386 10.0147 582.121C10.0147 582.121 11.1509 580.86 11.554 580.662C12.6743 580.893 13.3037 582.362 15.2465 582.753Z" fill="url(#paint3_linear_89_42)"/>
<path d="M100.302 312.519C116.113 312.519 127.19 312.476 140.788 320.543C152.093 327.251 157.709 348.017 159.281 354.829H159.441L169.238 372.336L179.905 354.829H179.923C181.496 348.017 187.112 327.251 198.417 320.543C212.014 312.476 223.092 312.519 238.902 312.519H277.275C278.299 312.519 278.991 313.54 278.61 314.491C276.95 318.64 272.906 328.44 269.176 335.133C264.943 342.727 261.788 349.083 255.021 356.424C254.938 356.514 254.808 356.654 254.808 356.654C262.807 365.041 289.05 423.166 302.002 462.791C316.385 506.793 327.528 580.199 327.534 580.236C327.534 580.236 327.315 580.284 326.892 580.377C326.76 580.35 326.627 580.322 326.494 580.295C326.597 580.275 326.701 580.256 326.804 580.236C326.791 580.231 269.666 432.368 238.902 399.753C208.136 367.134 169.238 413.187 169.238 413.187C169.238 413.187 141.059 482.552 110.15 515.313C80.9586 546.253 18.4157 577.306 11.554 580.662C10.2016 580.384 9.48242 580.236 9.48242 580.236C9.48809 580.2 20.3467 509.711 35.0141 465.709C48.4911 425.278 79.0666 365.562 83.9544 356.109C81.6788 352.984 74.1114 342.457 70.0289 335.133C66.2983 328.44 62.2546 318.64 60.5941 314.491C60.2136 313.54 60.905 312.519 61.9291 312.519H100.302Z" fill="url(#paint4_linear_89_42)"/>
<g filter="url(#filter0_d_89_42)">
<path d="M171.5 332L176.389 351.348L194.564 343.107L182.485 358.993L200.26 368.064L180.31 368.525L184.3 388.079L171.5 372.768L158.7 388.079L162.69 368.525L142.74 368.064L160.515 358.993L148.436 343.107L166.611 351.348L171.5 332Z" fill="#FFF7A9"/>
</g>
<g filter="url(#filter1_d_89_42)">
<path d="M172.636 82.0283C170.388 85.4601 169.079 89.5628 169.079 93.9717C169.079 106.026 178.851 115.798 190.905 115.798C192.612 115.798 194.272 115.601 195.866 115.23C191.968 121.182 185.242 125.114 177.597 125.114C165.542 125.114 155.771 115.342 155.771 103.288C155.771 92.9403 162.972 84.2745 172.636 82.0283Z" fill="#FFF7A9"/>
</g>
<defs>
<filter id="filter0_d_89_42" x="132.739" y="322" width="77.5215" height="76.0786" filterUnits="userSpaceOnUse" color-interpolation-filters="sRGB">
<feFlood flood-opacity="0" result="BackgroundImageFix"/>
<feColorMatrix in="SourceAlpha" type="matrix" values="0 0 0 0 0 0 0 0 0 0 0 0 0 0 0 0 0 0 127 0" result="hardAlpha"/>
<feOffset/>
<feGaussianBlur stdDeviation="5"/>
<feComposite in2="hardAlpha" operator="out"/>
<feColorMatrix type="matrix" values="0 0 0 0 1 0 0 0 0 0.980392 0 0 0 0 0.8 0 0 0 0.5 0"/>
<feBlend mode="normal" in2="BackgroundImageFix" result="effect1_dropShadow_89_42"/>
<feBlend mode="normal" in="SourceGraphic" in2="effect1_dropShadow_89_42" result="shape"/>
</filter>
<filter id="filter1_d_89_42" x="135.771" y="62.0283" width="80.0957" height="83.0859" filterUnits="userSpaceOnUse" color-interpolation-filters="sRGB">
<feFlood flood-opacity="0" result="BackgroundImageFix"/>
<feColorMatrix in="SourceAlpha" type="matrix" values="0 0 0 0 0 0 0 0 0 0 0 0 0 0 0 0 0 0 127 0" result="hardAlpha"/>
<feOffset/>
<feGaussianBlur stdDeviation="10"/>
<feComposite in2="hardAlpha" operator="out"/>
<feColorMatrix type="matrix" values="0 0 0 0 1 0 0 0 0 0.980392 0 0 0 0 0.8 0 0 0 0.6 0"/>
<feBlend mode="normal" in2="BackgroundImageFix" result="effect1_dropShadow_89_42"/>
<feBlend mode="normal" in="SourceGraphic" in2="effect1_dropShadow_89_42" result="shape"/>
</filter>
<linearGradient id="paint0_linear_89_42" x1="172.341" y1="165.714" x2="172.341" y2="26.5142" gradientUnits="userSpaceOnUse">
<stop stop-color="#1C0A2E"/>
<stop offset="1" stop-color="#8259AA"/>
</linearGradient>
<linearGradient id="paint1_linear_89_42" x1="168.508" y1="582.906" x2="168.508" y2="312.519" gradientUnits="userSpaceOnUse">
<stop stop-color="#1E0931"/>
<stop offset="1" stop-color="#3F2756"/>
</linearGradient>
<linearGradient id="paint2_linear_89_42" x1="168.508" y1="582.906" x2="168.508" y2="312.519" gradientUnits="userSpaceOnUse">
<stop stop-color="#1E0931"/>
<stop offset="1" stop-color="#3F2756"/>
</linearGradient>
<linearGradient id="paint3_linear_89_42" x1="168.508" y1="312.519" x2="168.508" y2="582.906" gradientUnits="userSpaceOnUse">
<stop stop-color="#402857"/>
<stop offset="1" stop-color="#1C082F"/>
</linearGradient>
<linearGradient id="paint4_linear_89_42" x1="168.508" y1="312.519" x2="168.508" y2="582.906" gradientUnits="userSpaceOnUse">
<stop stop-color="#402857"/>
<stop offset="1" stop-color="#1C082F"/>
</linearGradient>
</defs>
</svg>
