<svg width="236" height="430" viewBox="0 0 236 430" fill="none" xmlns="http://www.w3.org/2000/svg">
<ellipse cx="118" cy="137" rx="118" ry="29" fill="#1C0A2E"/>
<path d="M115.679 4.44577C116.353 2.80012 118.679 2.78702 119.371 4.42497L164.325 110.721C164.882 112.04 163.914 113.5 162.483 113.5H73.9807C72.5587 113.5 71.5909 112.058 72.13 110.742L115.679 4.44577Z" fill="#1C0A2E"/>
<path d="M198 169C198 202.137 162.183 229 118 229C73.8172 229 38 202.137 38 169C38 135.863 72.3172 102 116.5 102C160.683 102 198 135.863 198 169Z" fill="#141111"/>
<path d="M181.32 71.6393C182.774 71.2678 184.244 71.9925 184.886 73.3498C192.517 89.4911 189.099 130.015 187.585 144.365C187.31 146.976 184.618 148.531 182.187 147.542L135.276 128.457C133.02 127.539 132.099 124.864 133.385 122.796C140.749 110.962 163.691 76.1408 181.32 71.6393Z" fill="#141111"/>
<path d="M53.4101 70.6393C51.9554 70.2678 50.4859 70.9925 49.8442 72.3498C42.2124 88.4911 45.6304 129.015 47.1445 143.365C47.4199 145.976 50.1115 147.531 52.543 146.542L99.4537 127.457C101.71 126.539 102.631 123.864 101.344 121.796C93.9806 109.962 71.0392 75.1408 53.4101 70.6393Z" fill="#141111"/>
<circle cx="85.8649" cy="153" r="21" fill="#CDB53C"/>
<circle cx="88.3649" cy="152.5" r="15.5" fill="#141111"/>
<circle cx="81.8649" cy="145" r="3" fill="#D9D9D9"/>
<circle cx="21" cy="21" r="21" transform="matrix(-1 0 0 1 168.865 132)" fill="#CDB53C"/>
<circle cx="15.5" cy="15.5" r="15.5" transform="matrix(-1 0 0 1 160.865 137)" fill="#141111"/>
<circle cx="3" cy="3" r="3" transform="matrix(-1 0 0 1 154.865 142)" fill="#D9D9D9"/>
<path d="M116.869 181.503C117.143 181.777 117.587 181.777 117.861 181.503L124.401 174.944C124.841 174.503 124.529 173.75 123.905 173.75H110.824C110.201 173.75 109.889 174.503 110.329 174.944L116.869 181.503Z" fill="#222020"/>
<path d="M117.021 187.324C117.214 187.142 117.516 187.142 117.708 187.324L121.214 190.637C121.543 190.947 121.323 191.5 120.871 191.5H113.859C113.407 191.5 113.187 190.947 113.516 190.637L117.021 187.324Z" fill="#222020"/>
<path d="M232 129.5C232 129.5 183.17 114 118 114C52.8304 114 1.5 132 1.5 132C1.5 132 31.5 100.5 118 101.5C204.5 102.5 232 129.5 232 129.5Z" fill="#402858"/>
<path d="M193.5 312C193.5 370.542 155.436 418 116.5 418C77.5639 418 36 374.542 36 316C36 257.458 77.5639 206 116.5 206C155.436 206 193.5 253.458 193.5 312Z" fill="#141111"/>
<circle cx="141.5" cy="347.5" r="70.5" fill="#141111"/>
<circle cx="89.5" cy="347.5" r="70.5" fill="#141111"/>
<path fill-rule="evenodd" clip-rule="evenodd" d="M66.8678 396C80.3988 396 93.8668 405.873 93.8668 412.5C93.8668 413.948 94.1756 415.025 94.2018 415.82C94.306 416.025 94.3668 416.255 94.3668 416.5C94.3668 417.328 93.6951 418 92.8668 418H43.8668C43.0742 418 42.4263 417.385 42.3717 416.606C41.7679 415.317 41.9992 412.791 42.3678 408C42.3678 401.373 53.3368 396 66.8678 396Z" fill="#141111"/>
<path fill-rule="evenodd" clip-rule="evenodd" d="M167.865 396C154.334 396 140.866 405.873 140.866 412.5C140.866 413.948 140.556 415.026 140.53 415.821C140.426 416.025 140.366 416.255 140.366 416.5C140.366 417.328 141.038 418 141.866 418H190.866C191.659 418 192.307 417.385 192.361 416.605C192.965 415.316 192.734 412.79 192.365 408C192.365 401.373 181.396 396 167.865 396Z" fill="#141111"/>
<path d="M75.4242 337.278C77.7855 341.317 82.016 344.77 87.3773 347.424C92.6779 350.049 99.1879 351.946 106.374 352.869V419.649L106.289 419.826L106.26 420.071C106.035 421.928 105.489 423.233 104.735 424.182C103.981 425.13 102.934 425.833 101.528 426.347C98.6196 427.409 94.4982 427.562 89.1459 427.562C83.3785 427.562 77.9451 427.389 73.9652 426.029C72.0055 425.359 70.5128 424.437 69.5082 423.206C68.5217 421.997 67.9028 420.364 67.9027 418.065C67.9028 413.085 70.2578 408.566 74.0863 405.39L74.8119 404.789L74.5844 403.874L60.2289 346.206C60.0751 345.588 57.6693 336.262 56.4769 331.64L75.4242 337.278Z" fill="#141111" stroke="#222020" stroke-width="3"/>
<path d="M168.519 346.206L154.162 403.874L153.935 404.789L154.66 405.39C158.49 408.566 160.846 413.085 160.846 418.065C160.846 420.364 160.227 421.997 159.24 423.206C158.236 424.437 156.744 425.359 154.784 426.029C150.805 427.389 145.371 427.562 139.604 427.562L137.654 427.553C133.24 427.509 129.766 427.276 127.221 426.347C125.814 425.833 124.766 425.131 124.013 424.182C123.259 423.233 122.712 421.928 122.487 420.071L122.457 419.826L122.374 419.652V353.272C130.919 352.628 138.686 350.627 144.868 347.658C151.064 344.681 155.828 340.648 158.031 335.876L172.271 331.64C171.078 336.262 168.672 345.588 168.519 346.206Z" fill="#141111" stroke="#222020" stroke-width="3"/>
<path d="M80.8649 345L96.5244 351.5L112.865 354M150.865 345L135.205 351.5L118.865 354" stroke="#141111" stroke-width="5" stroke-linejoin="round"/>
<path d="M10.4508 399.433C10.2961 399.468 10.1417 399.502 9.98889 399.538C8.95711 399.36 7.91564 399.182 6.86487 399C6.86487 399 7.64364 398.135 7.91992 398C8.68776 398.158 9.11922 399.165 10.4508 399.433Z" fill="#402857"/>
<path d="M68.75 214.208C79.587 214.208 87.1799 214.178 96.5 219.708C104.249 224.305 108.098 238.539 109.176 243.208H109.285L116 255.208L123.312 243.208H123.324C124.402 238.539 128.251 224.305 136 219.708C145.32 214.178 152.913 214.208 163.75 214.208H190.052C190.754 214.208 191.228 214.908 190.967 215.56C189.829 218.403 187.057 225.12 184.5 229.708C181.599 234.913 179.437 239.27 174.798 244.302C174.741 244.363 174.652 244.459 174.652 244.459C180.135 250.208 198.122 290.048 207 317.208C216.858 347.368 224.496 397.682 224.5 397.708C224.5 397.708 224.35 397.741 224.061 397.805C223.97 397.786 223.879 397.767 223.787 397.748C223.858 397.734 223.929 397.722 224 397.708C223.991 397.704 177.586 377.063 156.5 354.708C135.412 332.35 116 283.208 116 283.208C116 283.208 96.6859 330.753 75.5 353.208C55.4915 374.415 12.6231 395.699 7.91992 398C6.99293 397.809 6.5 397.708 6.5 397.708C6.50389 397.683 13.9466 349.368 24 319.208C33.2375 291.495 54.1947 250.565 57.5449 244.086C55.9851 241.944 50.7983 234.728 48 229.708C45.443 225.12 42.6714 218.403 41.5332 215.56C41.2724 214.908 41.7463 214.208 42.4482 214.208H68.75Z" fill="#402857"/>
<path d="M10.4508 399.433C10.2961 399.468 10.1417 399.502 9.98889 399.538C8.95711 399.36 7.91564 399.182 6.86487 399C6.86487 399 7.64364 398.135 7.91992 398C8.68776 398.158 9.11922 399.165 10.4508 399.433Z" fill="#402857"/>
<path d="M68.75 214.208C79.587 214.208 87.1799 214.178 96.5 219.708C104.249 224.305 108.098 238.539 109.176 243.208H109.285L116 255.208L123.312 243.208H123.324C124.402 238.539 128.251 224.305 136 219.708C145.32 214.178 152.913 214.208 163.75 214.208H190.052C190.754 214.208 191.228 214.908 190.967 215.56C189.829 218.403 187.057 225.12 184.5 229.708C181.599 234.913 179.437 239.27 174.798 244.302C174.741 244.363 174.652 244.459 174.652 244.459C180.135 250.208 198.122 290.048 207 317.208C216.858 347.368 224.496 397.682 224.5 397.708C224.5 397.708 224.35 397.741 224.061 397.805C223.97 397.786 223.879 397.767 223.787 397.748C223.858 397.734 223.929 397.722 224 397.708C223.991 397.704 184.836 296.355 163.75 274C142.662 251.642 116 283.208 116 283.208C116 283.208 96.6859 330.753 75.5 353.208C55.4915 374.415 12.6231 395.699 7.91992 398C6.99293 397.809 6.5 397.708 6.5 397.708C6.50389 397.683 13.9466 349.368 24 319.208C33.2375 291.495 54.1947 250.565 57.5449 244.086C55.9851 241.944 50.7983 234.728 48 229.708C45.443 225.12 42.6714 218.403 41.5332 215.56C41.2724 214.908 41.7463 214.208 42.4482 214.208H68.75Z" fill="#402857"/>
</svg>
