<svg xmlns="http://www.w3.org/2000/svg" xmlns:xlink="http://www.w3.org/1999/xlink" width="874" zoomAndPan="magnify" viewBox="0 0 655.5 301.499996" height="402" preserveAspectRatio="xMidYMid meet" version="1.0"><defs><clipPath id="b48dc294e2"><path d="M 245.496094 149 L 394 149 L 394 270.578125 L 245.496094 270.578125 Z M 245.496094 149 " clip-rule="nonzero"/></clipPath><clipPath id="9f0d6e87a7"><path d="M 320 149.890625 L 393.21875 149.890625 L 393.21875 203 L 320 203 Z M 320 149.890625 " clip-rule="nonzero"/></clipPath><clipPath id="c1b5249f28"><path d="M 253.664062 243.199219 C 253.480469 243.050781 253.296875 242.898438 253.109375 242.742188 C 235.5 227.886719 251.066406 184.410156 273.042969 166.398438 C 288.757812 153.523438 311.359375 148.175781 332.75 150.46875 L 385.371094 166.746094 C 390.792969 184.054688 399.535156 212.191406 386.105469 228.359375 C 379.5625 236.238281 367.242188 242.757812 355.707031 246.589844 C 356.105469 248.203125 356.535156 249.742188 356.941406 251.128906 C 358.324219 255.820312 363.085938 256.179688 361.300781 265.628906 C 360.699219 268.8125 357.226562 269.832031 352.039062 270.464844 C 343.71875 271.476562 337.246094 270.96875 334.460938 265.957031 C 332.144531 261.792969 330.667969 256.265625 329.648438 250.355469 C 321.148438 250.1875 312.5625 249.226562 304.199219 249.21875 C 302.039062 249.21875 299.851562 249.304688 297.652344 249.433594 C 296.871094 250.457031 296.296875 251.058594 296.296875 251.058594 C 296.296875 251.058594 314.960938 253.5 318.5 264.171875 C 321.597656 273.511719 295.800781 270.582031 284.257812 269.933594 C 258.695312 268.492188 255.957031 263.242188 253.933594 253.257812 C 253.410156 250.679688 253.488281 247.015625 253.664062 243.199219 Z M 253.664062 243.199219 " clip-rule="evenodd"/></clipPath><clipPath id="7aa38ab900"><path d="M 245.496094 149.890625 L 336 149.890625 L 336 241 L 245.496094 241 Z M 245.496094 149.890625 " clip-rule="nonzero"/></clipPath><clipPath id="31f1701fef"><path d="M 253.664062 243.199219 C 253.480469 243.050781 253.296875 242.898438 253.109375 242.742188 C 235.5 227.886719 251.066406 184.410156 273.042969 166.398438 C 288.757812 153.523438 311.359375 148.175781 332.75 150.46875 L 385.371094 166.746094 C 390.792969 184.054688 399.535156 212.191406 386.105469 228.359375 C 379.5625 236.238281 367.242188 242.757812 355.707031 246.589844 C 356.105469 248.203125 356.535156 249.742188 356.941406 251.128906 C 358.324219 255.820312 363.085938 256.179688 361.300781 265.628906 C 360.699219 268.8125 357.226562 269.832031 352.039062 270.464844 C 343.71875 271.476562 337.246094 270.96875 334.460938 265.957031 C 332.144531 261.792969 330.667969 256.265625 329.648438 250.355469 C 321.148438 250.1875 312.5625 249.226562 304.199219 249.21875 C 302.039062 249.21875 299.851562 249.304688 297.652344 249.433594 C 296.871094 250.457031 296.296875 251.058594 296.296875 251.058594 C 296.296875 251.058594 314.960938 253.5 318.5 264.171875 C 321.597656 273.511719 295.800781 270.582031 284.257812 269.933594 C 258.695312 268.492188 255.957031 263.242188 253.933594 253.257812 C 253.410156 250.679688 253.488281 247.015625 253.664062 243.199219 Z M 253.664062 243.199219 " clip-rule="evenodd"/></clipPath><clipPath id="cac8c92c19"><path d="M 276 11.511719 L 409.476562 11.511719 L 409.476562 180 L 276 180 Z M 276 11.511719 " clip-rule="nonzero"/></clipPath><clipPath id="1862553732"><path d="M 302 11.511719 L 400 11.511719 L 400 170 L 302 170 Z M 302 11.511719 " clip-rule="nonzero"/></clipPath><clipPath id="b630f26bb7"><path d="M 350.519531 100.269531 C 353.253906 99.121094 356.085938 98.261719 358.964844 97.726562 C 353.457031 74.894531 350.800781 42.5 356.429688 22.632812 C 357.910156 17.398438 357.539062 5.886719 364.4375 14.777344 C 368.261719 19.707031 378.984375 33.75 381.726562 47.269531 C 385.054688 63.691406 382.597656 81.222656 380.429688 97.84375 C 395.246094 105.554688 396.011719 119.511719 400.136719 128.308594 C 403.753906 136.023438 410.535156 138.175781 409.363281 149.527344 C 408.039062 162.402344 401.554688 173.148438 383.988281 177.796875 C 372.285156 180.890625 355.933594 181.5 344.835938 173.777344 C 334.089844 166.296875 327.808594 159.671875 326.304688 145.390625 C 325.074219 133.703125 326.078125 124.121094 331.75 115.898438 C 308.617188 93.277344 294.339844 91.636719 280.289062 57.832031 C 278.507812 53.542969 273.902344 41.472656 278.1875 37.09375 C 279.703125 35.546875 290.59375 44.078125 291.675781 44.679688 C 300.21875 49.4375 303.484375 49.5 311.933594 54.128906 C 329.171875 63.570312 341.136719 81.769531 350.519531 100.269531 Z M 350.519531 100.269531 " clip-rule="evenodd"/></clipPath></defs><path fill="#a4a8d4" d="M 358.429688 221.25 C 359.828125 233.195312 360.113281 253.667969 366.21875 264.648438 C 369.003906 269.65625 375.480469 270.164062 383.800781 269.152344 C 388.988281 268.519531 392.457031 267.5 393.058594 264.316406 C 394.84375 254.867188 390.082031 254.511719 388.703125 249.816406 C 386.679688 242.941406 384.171875 232.441406 387.167969 226.609375 " fill-opacity="1" fill-rule="evenodd"/><path fill="#a4a8d4" d="M 310.339844 202.484375 C 320.304688 211.8125 334.027344 225.496094 333.988281 240.433594 C 333.988281 241.4375 332.273438 246.371094 332.273438 246.371094 C 332.273438 246.371094 342.210938 249.480469 345.75 260.152344 C 348.847656 269.492188 323.050781 266.5625 311.507812 265.914062 C 285.945312 264.472656 283.207031 259.222656 281.183594 249.238281 C 280 243.390625 281.898438 231.960938 281.050781 225.824219 " fill-opacity="1" fill-rule="evenodd"/><g clip-path="url(#b48dc294e2)"><path fill="#cfdcff" d="M 253.664062 243.199219 C 253.480469 243.050781 253.296875 242.898438 253.109375 242.742188 C 235.5 227.886719 251.066406 184.410156 273.042969 166.398438 C 288.757812 153.523438 311.359375 148.175781 332.75 150.46875 L 385.371094 166.746094 C 390.792969 184.054688 399.535156 212.191406 386.105469 228.359375 C 379.5625 236.238281 367.242188 242.757812 355.707031 246.589844 C 356.105469 248.203125 356.535156 249.742188 356.941406 251.128906 C 358.324219 255.820312 363.085938 256.179688 361.300781 265.628906 C 360.699219 268.8125 357.226562 269.832031 352.039062 270.464844 C 343.71875 271.476562 337.246094 270.96875 334.460938 265.957031 C 332.144531 261.792969 330.667969 256.265625 329.648438 250.355469 C 321.148438 250.1875 312.5625 249.226562 304.199219 249.21875 C 302.039062 249.21875 299.851562 249.304688 297.652344 249.433594 C 296.871094 250.457031 296.296875 251.058594 296.296875 251.058594 C 296.296875 251.058594 314.960938 253.5 318.5 264.171875 C 321.597656 273.511719 295.800781 270.582031 284.257812 269.933594 C 258.695312 268.492188 255.957031 263.242188 253.933594 253.257812 C 253.410156 250.679688 253.488281 247.015625 253.664062 243.199219 Z M 253.664062 243.199219 " fill-opacity="1" fill-rule="evenodd"/></g><g clip-path="url(#9f0d6e87a7)"><g clip-path="url(#c1b5249f28)"><path fill="#a4a8d4" d="M 321.433594 143.863281 C 316.710938 150.144531 333.417969 180.871094 359.347656 183.132812 C 390.757812 185.875 387.894531 211.234375 393.03125 199.578125 C 396.21875 192.34375 390.433594 168.128906 384.363281 160.757812 C 371.226562 144.8125 326.152344 137.582031 321.433594 143.863281 Z M 321.433594 143.863281 " fill-opacity="1" fill-rule="evenodd"/></g></g><g clip-path="url(#7aa38ab900)"><g clip-path="url(#31f1701fef)"><path fill="#cfdcff" d="M 257.824219 169.582031 C 251.019531 176.40625 246.269531 185.273438 243.570312 194.734375 C 240.449219 205.65625 237.191406 238.566406 257.082031 239.824219 C 276.609375 241.058594 299.675781 237.597656 308.851562 211.8125 C 320.710938 178.503906 324.71875 173.738281 331.929688 163.5625 C 350.261719 137.695312 303.332031 123.929688 257.824219 169.582031 Z M 257.824219 169.582031 " fill-opacity="1" fill-rule="evenodd"/></g></g><g clip-path="url(#cac8c92c19)"><path fill="#cfdcff" d="M 350.519531 100.269531 C 353.253906 99.121094 356.085938 98.261719 358.964844 97.726562 C 353.457031 74.894531 350.800781 42.5 356.429688 22.632812 C 357.910156 17.398438 357.539062 5.886719 364.4375 14.777344 C 368.261719 19.707031 378.984375 33.75 381.726562 47.269531 C 385.054688 63.691406 382.597656 81.222656 380.429688 97.84375 C 395.246094 105.554688 396.011719 119.511719 400.136719 128.308594 C 403.753906 136.023438 410.535156 138.175781 409.363281 149.527344 C 408.039062 162.402344 401.554688 173.148438 383.988281 177.796875 C 372.285156 180.890625 355.933594 181.5 344.835938 173.777344 C 334.089844 166.296875 327.808594 159.671875 326.304688 145.390625 C 325.074219 133.703125 326.078125 124.121094 331.75 115.898438 C 308.617188 93.277344 294.339844 91.636719 280.289062 57.832031 C 278.507812 53.542969 273.902344 41.472656 278.1875 37.09375 C 279.703125 35.546875 290.59375 44.078125 291.675781 44.679688 C 300.21875 49.4375 303.484375 49.5 311.933594 54.128906 C 329.171875 63.570312 341.136719 81.769531 350.519531 100.269531 Z M 350.519531 100.269531 " fill-opacity="1" fill-rule="evenodd"/></g><g clip-path="url(#1862553732)"><g clip-path="url(#b630f26bb7)"><path fill="#cfdcff" d="M 356.546875 97.152344 C 351.097656 86.195312 334.042969 67.929688 326.277344 64.261719 C 317.773438 60.242188 304.277344 81.472656 302.769531 97.386719 C 301.632812 109.414062 322.691406 107.847656 322.160156 120.753906 C 321.308594 141.554688 326.214844 171.53125 338.03125 169.445312 C 364.175781 164.832031 367.257812 128.714844 372.457031 108 C 376.015625 93.808594 399.613281 127.386719 399.613281 127.386719 C 399.171875 104.925781 380.992188 100.304688 382.273438 96.429688 C 390.433594 71.726562 383.261719 35.054688 374.476562 23.460938 C 368.472656 15.539062 360.960938 4.355469 355.59375 13.144531 C 341.921875 35.515625 356.546875 97.152344 356.546875 97.152344 Z M 356.546875 97.152344 " fill-opacity="1" fill-rule="evenodd"/></g></g><path fill="#a4a8d4" d="M 396.601562 145.535156 C 394.40625 146.117188 388.304688 143.992188 391.828125 140.765625 C 394.671875 138.164062 397.851562 137.546875 398.964844 138.894531 C 400.152344 140.335938 397.675781 145.253906 396.601562 145.535156 Z M 396.601562 145.535156 " fill-opacity="1" fill-rule="evenodd"/><path fill="#5e6396" d="M 365.042969 133.769531 C 367.292969 134.953125 369.074219 137.332031 369.132812 139.433594 C 369.183594 141.375 368.019531 143.816406 363.710938 143.933594 C 361.152344 144 359.324219 141.441406 358.320312 138.632812 C 357.089844 135.199219 353.945312 135.085938 354.074219 134.238281 C 354.203125 133.394531 356.734375 133.945312 359.085938 133.5625 C 360.769531 133.289062 363.289062 132.851562 365.042969 133.769531 Z M 365.042969 133.769531 " fill-opacity="1" fill-rule="evenodd"/><path fill="#a4a8d4" d="M 344.921875 101.964844 C 344.832031 102.574219 338.253906 108.800781 332.246094 106.527344 C 320.152344 101.949219 304.394531 87.199219 295.917969 73.589844 C 292.769531 68.53125 290.105469 63.234375 287.261719 58.003906 C 285.996094 55.675781 284.402344 53.390625 283.621094 50.824219 C 279.660156 37.800781 295.195312 55.148438 305.878906 62.707031 C 316.730469 70.382812 328.664062 77.347656 332.652344 81.46875 C 338.488281 87.5 345.007812 101.378906 344.921875 101.964844 Z M 344.921875 101.964844 " fill-opacity="1" fill-rule="evenodd"/></svg>