<svg width="265" height="345" viewBox="0 0 265 345" fill="none" xmlns="http://www.w3.org/2000/svg">
<mask id="mask0_66_32" style="mask-type:luminance" maskUnits="userSpaceOnUse" x="0" y="0" width="225" height="188">
<path d="M0 0H224.863V187.905H0V0Z" fill="white"/>
</mask>
<g mask="url(#mask0_66_32)">
<path d="M131.97 159.017C135.669 159.99 139.195 160.91 142.761 161.848C155.329 157.049 168.743 155.474 181.635 151.862C185.908 150.669 190.111 149.21 194.568 148.811C201.156 148.226 207.756 147.995 214.28 149.187C217.725 149.812 221.025 151.017 223.097 154.27C223.995 155.688 224.139 156.933 223.375 158.485C221.922 161.437 219.757 163.747 217.106 165.524C211.953 168.975 207.125 172.859 202.048 176.408C194.412 181.751 185.803 184.594 176.726 186.18C174.069 186.649 171.377 186.886 168.702 187.257C160.146 188.444 152.371 186.203 144.978 182.041C140.33 179.43 136.046 176.269 131.576 173.398C128.676 171.528 126.731 168.65 126.638 164.893C126.58 162.526 127.767 161.009 129.724 159.967C130.413 159.596 131.171 159.353 131.97 159.017ZM12.7883 59.6519C17.8249 53.8396 19.2316 46.9331 18.8901 39.494C18.8495 38.6256 18.6585 37.8094 17.5238 37.1899C15.1329 42.9386 13.4946 48.9593 9.47687 54.0422C7.45645 46.7884 6.7907 39.5866 5.51708 32.5007C4.20873 25.2005 6.09021 18.1146 6.99911 11.0055C4.90922 10.4266 4.5445 11.7407 4.08136 12.777C0.879953 19.8803 0.0289443 27.4004 0.428397 35.0769C0.677332 39.8993 1.22151 44.7043 2.11305 49.4688C5.5576 67.7973 16.036 79.943 33.803 85.7495C40.5184 87.9378 47.4596 89.2056 54.3082 90.844C56.8786 91.4576 59.3911 92.2681 62.0426 93.1712C62.6273 90.6877 60.4911 90.6008 59.5069 89.7209C59.5937 89.1535 59.6748 88.6441 59.7558 88.1346C60.2826 87.9378 61.0873 88.4241 61.29 87.5268C61.4984 86.5947 60.0916 86.6931 60.2595 85.7958C60.4737 85.46 60.7168 85.1648 61.041 85.2632C61.9326 85.7842 62.2452 86.8668 63.2235 86.9363C63.7156 86.4963 63.6346 86.1489 63.4898 85.7437C62.6504 83.4628 60.8037 81.7665 59.9527 79.474C58.077 74.4259 56.2592 69.3661 55.0782 64.1038C54.8756 63.2122 54.7424 62.2107 53.7177 61.7939C52.2704 62.587 52.2531 62.587 52.2068 64.3006C51.9868 71.4155 52.803 78.3046 57.1507 84.8174C49.1501 82.2413 41.4563 80.4177 33.9998 77.772C24.8066 74.5011 17.738 68.7004 12.6609 60.1324C12.7072 59.9472 12.7014 59.7561 12.7883 59.6519ZM57.7528 47.0373C53.3877 43.2049 48.6175 39.934 43.4246 37.3115C42.6894 36.9352 41.902 36.0437 40.7905 36.9584C41.271 38.562 42.3825 39.6735 43.5635 40.7155C47.558 44.2238 51.7147 47.5699 55.5529 51.2402C61.3594 56.7863 66.726 62.6681 69.5569 70.4834C70.8942 74.1769 72.6136 77.8299 75.485 80.6898C80.5332 85.709 86.3802 89.6398 92.7252 92.8354C93.8309 93.3912 95.0235 93.507 96.1176 92.5576C96.5113 92.216 97.096 92.0423 97.6228 91.9265C99.3596 91.5445 100.581 90.4445 101.617 89.1014C104.205 85.7437 105.085 81.8186 105.004 77.7083C104.975 76.2263 105.137 74.4838 103.869 73.2565C102.098 73.4186 102.063 73.407 101.554 75.0106C100.818 77.3494 100.228 79.7288 99.4001 82.0328C98.7633 83.8043 98.057 85.6279 96.1408 86.5484C95.1971 86.5484 94.2477 86.5484 93.3678 86.5484C87.7638 83.1212 82.8836 78.9704 78.6459 74.0669C77.1928 72.3881 75.9308 70.5934 75.2708 68.3993C73.9046 63.8201 73.8235 59.1714 74.4488 54.4938C75.074 49.845 76.5618 45.399 77.7717 40.8892C79.2596 35.3548 79.7285 29.8029 77.9744 24.2338C75.0856 15.0405 69.8348 7.27727 63.3625 0.266577C63.2178 0.110269 62.963 -0.0113039 62.9515 0.00027521C62.0599 0.527089 62.2683 1.05969 62.442 1.59809C62.8704 2.8775 63.4377 4.09322 64.0514 5.29158C66.3613 9.80713 68.8333 14.2358 70.9579 18.8498C74.0377 25.5074 74.8135 32.2633 72.9494 39.4419C71.3805 45.48 69.3427 51.4313 68.8969 58.3088C65.3308 53.7875 61.5621 50.3834 57.7528 47.0373Z" fill="#A4A8D4"/>
</g>
<mask id="mask1_66_32" style="mask-type:luminance" maskUnits="userSpaceOnUse" x="55" y="78" width="210" height="268">
<path d="M55.9119 78.2354H264.108V345H55.9119V78.2354Z" fill="white"/>
</mask>
<g mask="url(#mask1_66_32)">
<path d="M110.984 147.404C120.959 151.381 130.76 155.237 140.353 159.585C141.267 160.001 142.13 160.14 143.103 159.851C156.91 155.688 171.093 153.037 185.074 149.587C190.985 148.122 196.919 146.698 202.986 145.968C210.9 145.013 218.634 145.303 225.957 148.967C233.535 152.759 241.142 156.511 247.916 161.669C253.751 166.109 258.232 171.719 261.827 178.087C264.114 182.133 264.392 186.516 264.177 190.997C263.691 201.307 259.239 210.234 254.214 218.918C252.061 222.634 250.005 226.287 249.178 230.6C247.736 238.167 249.195 245.096 253.12 251.603C253.45 252.148 253.745 252.727 254.156 253.201C259.025 258.811 259.147 265.497 258.544 272.352C257.856 280.254 256.935 288.127 255.847 295.983C254.266 307.365 253.051 318.798 250.631 330.053C250.075 332.652 248.587 334.475 246.341 335.738C242.624 337.822 238.653 338.586 234.415 337.943C232.852 337.712 231.393 337.272 230.733 335.72C230.033 334.059 231.139 332.837 232.094 331.668C233.605 329.821 235.434 328.287 237.2 326.672C237.518 321.021 237.802 315.4 238.167 309.779C238.537 304.077 238.948 298.38 239.359 292.683C239.764 287.172 238.902 282.176 235.469 277.655C231.295 272.155 227.323 266.499 223.283 260.895C220.029 256.385 217.082 251.685 214.408 246.81C214.252 246.526 214.153 246.225 213.511 246.086C212.26 246.677 210.784 247.366 209.255 248.084C208.873 250.15 209.337 252.055 209.846 253.971C211.426 259.923 214.385 265.289 216.926 270.835C217.453 271.987 217.968 273.151 218.46 274.32C220.319 278.708 220.272 283.085 218.431 287.485C215.548 294.362 211.924 300.887 208.63 307.562C204.213 316.523 199.79 325.473 195.373 334.435C194.499 336.212 193.561 337.955 192.507 339.645C190.846 342.308 188.53 343.796 185.364 344.172C182.816 344.479 180.321 344.676 177.791 344.114C176.257 343.773 175.186 343.02 174.845 341.312C175.29 338.655 177.102 336.878 179.21 335.419C180.946 334.215 181.85 332.658 182.446 330.655C185.52 320.333 188.71 310.045 190.707 299.439C191.494 295.242 192.16 291.016 192.832 286.796C193.115 285.024 192.745 283.479 191.697 281.887C187.181 275.05 183.528 267.755 180.333 260.212C176.379 250.868 176.118 241.455 179.296 231.88C179.563 231.075 180.049 230.311 179.91 229.066C166.387 235.944 152.794 242.283 137.817 245.178C136.3 248.79 135.2 252.495 134.019 256.165C132.265 261.578 130.309 266.933 129.683 272.653C129.458 274.708 129.62 276.763 129.249 278.818C128.566 282.576 126.968 286.055 126.071 289.748C125.133 293.615 124.676 297.546 124.328 301.489C123.639 309.246 123.651 317.033 123.61 324.819C123.587 328.866 123.437 332.918 123.269 336.965C123.13 340.38 121.897 341.752 118.603 342.632C116.496 343.188 114.365 343.246 112.223 343.124C108.987 342.951 107.725 340.896 108.97 337.937C109.12 337.573 109.248 337.179 109.485 336.872C112.304 333.289 112.64 329.034 112.773 324.721C113.126 313.507 112.42 302.38 110.539 291.311C109.265 283.843 109.386 276.358 110.683 268.838C111.679 263.066 112.733 257.312 114.134 251.621C114.261 251.1 114.267 250.544 114.354 249.791C111.181 250.22 108.124 250.22 104.929 250.133C104.437 252.976 104.338 255.795 104.188 258.614C103.493 271.634 103.91 284.665 103.661 297.691C103.539 304.105 102.827 310.491 102.017 316.871C101.253 322.909 100.361 328.953 101.143 335.112C101.444 337.468 100.373 339.535 97.9702 340.71C95.1567 342.077 92.3431 343.275 89.1301 343.096C85.4251 342.887 83.9894 340.137 85.9577 336.982C86.7624 335.691 87.9028 334.684 88.997 333.648C90.5832 332.131 91.3069 330.307 91.3011 328.119C91.2779 319.696 91.4169 311.272 91.249 302.855C91.0811 294.594 89.4022 286.541 87.4166 278.54C83.7346 263.72 80.5448 248.802 78.4028 233.674C78.1191 231.637 77.7313 229.616 77.436 227.578C77.1523 225.633 76.1045 224.082 75.0277 222.507C71.3458 217.129 68.0518 211.56 66.425 205.145C64.9546 199.35 64.914 193.538 65.7766 187.679C67.0676 178.903 68.7059 170.19 70.2864 161.466C70.4543 160.534 70.4311 159.579 70.1764 158.635C67.8318 150.125 66.9229 141.389 65.9735 132.648C65.1803 125.324 64.6825 117.972 64.0457 110.637C53.0868 102.017 54.9335 84.9274 62.911 79.4277C65.4409 80.574 67.2355 82.7102 69.2096 84.6264C71.2069 86.5716 72.6889 88.9278 74.3504 91.2376C75.6298 90.7803 76.9034 90.8035 78.1539 90.8903C83.4741 91.2608 88.7596 89.9814 94.0799 90.5198C94.8499 90.595 95.4461 90.1551 96.0772 89.8482C100.633 87.6426 105.178 85.4195 109.728 83.1965C111.314 82.4207 113.005 81.4945 114.666 82.5655C116.438 83.7117 115.818 85.6974 115.685 87.3994C115.471 90.213 114.325 92.7486 113.074 95.2264C111.939 97.4726 110.66 99.6493 109.415 101.907C114.354 108.102 119.477 114.024 126.059 118.499C128.439 120.12 130.517 122.071 132.259 124.375C134.181 126.911 134.222 127.929 132.537 130.563C132.283 130.963 131.97 131.368 131.872 131.814C130.945 136.11 127.727 137.088 123.952 137.632C118.834 138.367 113.844 137.424 108.802 136.966C108.57 136.949 108.344 136.874 108.026 137.285C108.999 140.608 110.006 144.058 110.984 147.404ZM193.752 159.822C192.004 159.816 189.896 160.494 187.94 161.547C186.736 162.19 185.665 163.157 185.937 164.737C186.226 166.445 187.604 166.943 189.092 167.087C191.517 167.325 193.798 166.705 195.929 165.576C197.955 164.5 198.864 163.052 198.459 161.732C198.048 160.395 196.606 159.729 193.752 159.822ZM178.938 159.614C181.114 159.642 183.164 159.133 185.051 158.05C186.278 157.35 187.216 156.383 186.863 154.803C186.498 153.176 185.19 152.869 183.783 152.777C181.687 152.632 179.702 153.153 177.78 153.882C175.597 154.71 174.567 155.961 174.769 157.35C174.989 158.844 176.385 159.602 178.938 159.614ZM168.951 160.175C166.196 157.958 160.308 158.398 157.963 160.957C156.586 162.462 156.991 164.228 159.04 164.789C162.629 165.762 165.895 164.841 168.702 162.965C169.2 161.912 169.304 161.148 168.951 160.175ZM178.833 178.48C180.906 179.395 182.677 179.187 184.437 177.89C185.56 177.062 186.191 176.078 185.479 174.515C183.355 172.761 181.56 174.515 179.742 175.349C178.509 175.91 178.121 177.016 178.833 178.48ZM140.26 165.171C140.648 164.216 140.567 163.359 139.739 162.624C138.494 161.518 135.38 161.379 133.886 162.381C133.336 163.788 133.805 164.812 135.067 165.553C136.868 166.607 138.57 166.491 140.26 165.171ZM148.191 164.285C150.912 165.912 153.789 164.876 154.617 162.086C153.442 160.355 152.302 160.007 150.189 160.737C148.394 161.356 148.052 161.935 148.191 164.285ZM203.217 152.198C202.656 150.247 202.511 149.98 201.197 149.98C199.512 149.98 197.666 149.621 196.398 151.231C196.131 151.954 196.074 152.638 196.49 153.286C199.072 154.849 201.249 154.525 203.217 152.198ZM177.415 167.377C175.725 166.121 174.104 166.132 172.801 167.481C171.713 168.616 171.857 169.745 172.969 170.769C176.749 171.481 177.988 170.526 177.415 167.377ZM157.321 168.627C156.748 169.826 156.858 170.891 158.183 171.348C159.301 171.736 160.534 171.707 161.674 171.308C162.548 170.995 163.15 170.341 163.035 169.328C162.902 168.222 162.178 167.626 161.107 167.608C159.764 167.585 158.421 167.707 157.321 168.627ZM215.745 157.715C214.68 156.331 212.758 156.018 210.633 156.788C210.043 157.234 209.533 157.72 209.626 158.543C211.351 160.997 214.269 160.65 215.745 157.715Z" fill="#CFDCFF"/>
</g>
<path d="M232.279 250.359C228.915 254.834 228.979 259.529 230.913 264.484C231.955 267.147 233.333 269.643 234.589 272.196C235.88 274.83 237.043 277.498 237.495 280.428C237.541 280.706 237.593 280.989 237.64 281.267C237.072 280.034 236.36 278.83 235.469 277.655C231.295 272.155 227.323 266.499 223.283 260.895C220.029 256.385 217.082 251.685 214.408 246.81C214.292 246.613 214.205 246.405 213.939 246.249C213.939 246.017 213.95 245.803 213.95 245.565C227.329 240.095 240.419 234.016 251.285 224.36C250.48 226.079 249.814 227.862 249.369 229.767C245.206 234.3 241.038 238.833 237.235 243.684C235.521 245.861 233.946 248.142 232.279 250.359ZM203.015 182.869C190.435 191.292 180.078 201.805 172.378 214.918C169.374 220.029 166.67 225.321 163.232 230.184C161.257 232.98 158.681 233.947 155.376 233.229C152.747 232.661 150.171 231.897 147.578 231.185C145.951 230.739 144.399 229.871 142.501 229.923C142.344 231.185 142.008 232.302 141.615 233.402C140.451 236.673 139.299 239.95 138.28 243.273C138.06 243.997 137.562 244.749 137.672 245.554C137.724 245.432 137.765 245.305 137.817 245.178C152.718 242.294 166.253 236.002 179.708 229.17C180.634 228.071 181.3 226.808 181.931 225.431C188.519 211.004 194.968 196.491 204.775 183.83C205.191 183.285 205.718 182.672 204.919 182.006C204.08 181.879 203.588 182.487 203.015 182.869ZM113.636 249.867C113.775 249.739 113.908 249.606 114.053 249.479C113.068 248.223 112.339 247.088 111.418 246.139C104.5 238.995 99.8343 230.577 96.8297 221.135C95.1567 215.873 93.2289 210.686 91.3242 205.504C89.8017 201.365 88.227 197.284 85.454 193.706C80.6085 187.459 77.135 180.449 74.6919 172.929C73.2504 168.5 71.7858 164.077 70.3906 159.637C70.3616 159.532 70.3153 159.446 70.2806 159.353C70.3906 160.059 70.4079 160.771 70.2864 161.466C68.7059 170.19 67.0676 178.903 65.7766 187.679C65.3887 190.331 65.1919 192.971 65.2208 195.605C65.2266 195.686 65.2266 195.761 65.2382 195.842C65.3251 196.959 65.3598 198.083 65.4119 199.2C65.5971 201.186 65.9213 203.165 66.425 205.145C67.0386 207.583 67.9012 209.898 68.9317 212.127C69.308 212.81 69.6901 213.488 70.1185 214.153C70.0838 214.24 70.0895 214.321 70.0606 214.408C71.5253 217.204 73.2273 219.879 75.0277 222.507C76.1045 224.082 77.1523 225.633 77.436 227.578C77.7313 229.616 78.1191 231.637 78.4028 233.674C79.277 239.851 80.3653 245.988 81.5463 252.107C82.5826 253.016 83.5552 254 84.4062 255.118C88.1576 260.056 90.4211 265.7 92.2447 271.53C94.9019 280.046 96.6676 288.816 99.4349 297.309C100.413 300.314 101.397 303.312 102.497 306.276C102.654 306.687 102.816 307.139 103.076 307.51C103.383 304.239 103.603 300.968 103.661 297.691C103.91 284.665 103.493 271.634 104.188 258.614C104.338 255.795 104.437 252.976 104.929 250.133C107.881 250.214 110.718 250.203 113.636 249.867ZM96.0771 89.8482C95.7008 90.0335 95.3361 90.2477 94.9367 90.3924C95.0409 90.5198 95.1509 90.6471 95.284 90.7513C95.7182 91.0813 96.1756 91.3997 96.6618 91.6487C101.293 94.028 105.415 97.0326 108.553 101.247C108.97 101.803 109.45 102.249 109.994 102.625C109.803 102.388 109.606 102.15 109.415 101.907C110.66 99.6493 111.939 97.4726 113.074 95.2264C114.325 92.7486 115.471 90.213 115.685 87.3994C115.795 85.9753 116.229 84.3543 115.332 83.1907C114.822 82.7797 114.249 82.4265 113.613 82.1486C112.293 81.8939 110.978 82.5828 109.728 83.1965C105.178 85.4195 100.633 87.6426 96.0771 89.8482ZM108.026 137.285C108.101 137.186 108.171 137.123 108.24 137.071C108.205 137.001 108.165 136.932 108.13 136.862C107.899 136.804 107.592 136.659 107.297 136.671C103.25 136.822 99.2496 136.081 95.1972 136.138C88.9854 136.225 83.6188 134.141 79.3117 129.527C78.7038 128.873 78.2523 127.976 77.2565 127.652C77.3318 128.983 77.3665 128.96 77.986 129.736C80.5101 132.868 83.8041 135.102 87.1908 137.076C93.3968 140.7 99.8285 143.942 106.567 146.495C108.003 147.039 109.467 147.746 111.193 147.537C111.198 147.52 111.198 147.508 111.198 147.491C111.129 147.462 111.054 147.433 110.984 147.404C110.006 144.058 108.999 140.608 108.026 137.285ZM67.606 103.215C68.3644 103.094 69.0996 102.787 70.3385 102.422C68.1154 99.6146 66.0834 97.1542 64.8967 94.0917C63.7157 91.035 63.9878 87.6483 62.7199 84.5627C62.2568 84.748 61.9847 84.7769 61.8458 84.9274C61.6431 85.1532 61.4405 85.4485 61.3884 85.7379C60.6764 89.5472 59.9932 93.3796 60.41 97.2642C60.8674 101.594 63.6983 103.864 67.606 103.215Z" fill="#A4A8D4"/>
<path d="M80.8342 111.581C84.8808 107.297 93.9814 110.134 96.4939 116.322C94.7108 118.904 92.2389 118.968 89.5411 117.978C87.2197 117.127 86.5713 115.674 86.525 111.697C84.7072 110.649 82.7678 112.299 80.8342 111.581ZM128.248 120.357C127.049 120.71 125.938 121.284 125.017 122.192C123.159 124.028 123.315 126.146 125.561 127.524C128.033 129.035 130.737 129.794 133.776 129.423C134.714 126.633 132.109 122.522 128.248 120.357ZM79.2074 228.146C78.7675 229.124 79.4274 229.391 79.7748 229.726C85.6797 235.475 91.5731 241.235 97.5417 246.92C98.9659 248.269 100.575 249.444 102.439 250.214C103.273 250.562 104.02 250.839 105.131 250.029C95.7355 243.412 88.1633 235.023 79.2074 228.146ZM116.438 224.817C115.998 227.486 115.743 230.172 115.563 232.899C115.372 235.73 114.973 238.543 114.683 241.368C114.411 244.095 113.688 246.799 113.89 249.629C114.898 249.473 115.037 248.964 115.164 248.402C116.889 240.679 117.04 232.824 117.538 224.997C117.167 224.939 116.802 224.881 116.438 224.817ZM112.628 130.019C118.701 132.011 124.884 132.926 131.252 131.831C131.837 131.727 132.294 131.444 132.202 130.442C125.822 130.697 119.5 129.88 113.178 129.064C112.848 129.024 112.611 129.307 112.431 129.701C112.541 129.886 112.57 129.996 112.628 130.019ZM116.49 164.552C115.216 158.78 114.168 152.904 111.164 147.671C112.362 154.513 114.018 161.223 116.061 168.222C117.92 166.891 116.704 165.53 116.49 164.552ZM89.8769 104.825C93.1362 105.763 95.4403 108.241 98.2017 110.012C95.996 105.919 92.6036 103.482 88.1286 102.486C84.8287 101.751 81.1005 102.133 79.6532 103.754C83.3235 103.586 86.6407 103.893 89.8769 104.825ZM87.8333 135.525C83.7809 132.827 80.5621 129.591 76.8281 126.986C76.4228 126.702 76.0871 126.899 75.6876 127.403C78.478 132.312 84.5045 136.602 87.8333 135.525ZM203.426 184.594C207.478 180.958 211.762 178.058 215.959 174.561C213.042 173.496 203.35 181.196 203.426 184.594Z" fill="#5E6396"/>
</svg>
