<svg width="383" height="300" viewBox="0 0 383 300" fill="none" xmlns="http://www.w3.org/2000/svg">
<mask id="mask0_57_37" style="mask-type:luminance" maskUnits="userSpaceOnUse" x="0" y="0" width="383" height="300">
<path d="M0 0H382.365V299.5H0V0Z" fill="white"/>
</mask>
<g mask="url(#mask0_57_37)">
<path d="M370.552 132.292C368.552 135.51 365.041 137.714 360.609 138.62C355.14 123.969 346.656 109.526 335.713 96.1355C336.458 96.0678 337.234 96.0261 338.015 96.0261C344.135 96.0261 350.77 98.0625 356.703 101.75C363.281 105.828 368.291 111.448 370.817 117.542C373.119 123.094 373.026 128.323 370.552 132.292ZM11.8173 132.292C9.34336 128.323 9.24961 123.094 11.5465 117.542C14.0725 111.448 19.0829 105.828 25.6611 101.75C31.5986 98.0573 38.2392 96.0261 44.3486 96.0261C45.0569 96.0261 45.7444 96.0573 46.4215 96.1094C35.4788 109.5 26.9944 123.927 21.5257 138.568C17.2027 137.625 13.7809 135.458 11.8173 132.292ZM379.718 113.865C376.432 105.927 370.073 98.724 361.796 93.5782C354.349 88.9532 345.901 86.4115 338.015 86.4115C335.885 86.4115 333.833 86.6042 331.875 86.9532C333.198 83.2188 333.901 79.375 333.901 75.448V68.9428C333.901 31.1719 269.948 0.552124 191.057 0.552124C112.171 0.552124 48.2079 31.1719 48.2079 68.9428V75.448C48.2079 79.3594 48.9059 83.1823 50.2236 86.9011C48.3486 86.5834 46.385 86.4115 44.3486 86.4115C36.4579 86.4115 28.0152 88.9584 20.5725 93.5782C12.3017 98.724 5.93711 105.927 2.64545 113.87C-0.870179 122.359 -0.516012 130.708 3.63503 137.375C6.85378 142.537 12.0777 146.115 18.5048 147.734C15.8538 157.026 14.4579 166.328 14.4579 175.432C14.4579 214.052 39.5725 248.547 78.9579 271.307L66.5882 283.662C62.9579 287.287 62.9579 293.156 66.5882 296.787C70.2184 300.412 76.1038 300.412 79.7288 296.787L96.3642 280.172C123.734 292.412 156.213 299.5 191.052 299.5C224.578 299.5 255.921 292.943 282.619 281.542L297.875 296.787C301.51 300.412 307.395 300.412 311.02 296.787C314.651 293.156 314.651 287.287 311.02 283.662L300.281 272.927C341.312 250.208 367.656 214.984 367.656 175.432C367.656 166.354 366.265 157.068 363.63 147.792C370.166 146.208 375.468 142.609 378.724 137.375C382.89 130.708 383.239 122.359 379.718 113.865Z" fill="#2E2C2D"/>
</g>
<path d="M191.058 129.182C143.396 129.182 101.85 117.437 80.0684 100.052C100.355 114.807 140.912 129.167 191.058 129.172H191.11C194.943 129.172 198.678 129.104 202.334 128.969C198.626 129.115 194.855 129.182 191.058 129.182ZM66.11 82.9062C64.6361 79.4374 63.8652 75.8541 63.8652 72.1978C63.8652 40.7187 120.818 15.2083 191.063 15.2083C261.308 15.2083 318.256 40.7187 318.256 72.1978C318.256 73.5364 318.152 74.8749 317.949 76.1926C317.167 73.2447 314.85 70.0676 311.199 66.8489C294.141 51.1405 246.782 34.203 191.063 34.203C120.813 34.203 65.9694 55.0155 65.9694 81.2343C65.9694 81.7864 66.0163 82.3437 66.1152 82.9062" fill="#1A1818"/>
</svg>
