<svg width="874" height="402" viewBox="0 0 874 402" fill="none" xmlns="http://www.w3.org/2000/svg">
<mask id="mask0_27_537" style="mask-type:luminance" maskUnits="userSpaceOnUse" x="245" y="61" width="383" height="300">
<path d="M245.552 61.3333H627.917V360.833H245.552V61.3333Z" fill="white"/>
</mask>
<g mask="url(#mask0_27_537)">
<path d="M616.104 193.625C614.104 196.844 610.594 199.047 606.162 199.953C600.693 185.302 592.209 170.859 581.266 157.469C582.011 157.401 582.787 157.359 583.568 157.359C589.688 157.359 596.323 159.396 602.255 163.083C608.834 167.161 613.844 172.781 616.37 178.875C618.672 184.427 618.578 189.656 616.104 193.625ZM257.37 193.625C254.896 189.656 254.802 184.427 257.099 178.875C259.625 172.781 264.636 167.161 271.214 163.083C277.151 159.39 283.792 157.359 289.901 157.359C290.61 157.359 291.297 157.39 291.974 157.443C281.032 170.833 272.547 185.26 267.078 199.901C262.755 198.958 259.334 196.792 257.37 193.625ZM625.271 175.198C621.985 167.26 615.625 160.057 607.349 154.911C599.901 150.286 591.453 147.745 583.568 147.745C581.438 147.745 579.386 147.937 577.427 148.286C578.75 144.552 579.453 140.708 579.453 136.781V130.276C579.453 92.505 515.5 61.8853 436.61 61.8853C357.724 61.8853 293.761 92.505 293.761 130.276V136.781C293.761 140.693 294.459 144.515 295.776 148.234C293.901 147.917 291.938 147.745 289.901 147.745C282.011 147.745 273.568 150.292 266.125 154.911C257.854 160.057 251.49 167.26 248.198 175.203C244.683 183.693 245.037 192.042 249.188 198.708C252.407 203.87 257.63 207.448 264.058 209.068C261.407 218.359 260.011 227.661 260.011 236.765C260.011 275.385 285.125 309.88 324.511 332.64L312.141 344.995C308.511 348.62 308.511 354.489 312.141 358.12C315.771 361.745 321.657 361.745 325.282 358.12L341.917 341.505C369.287 353.745 401.766 360.833 436.604 360.833C470.13 360.833 501.474 354.276 528.172 342.875L543.427 358.12C547.063 361.745 552.948 361.745 556.573 358.12C560.203 354.489 560.203 348.62 556.573 344.995L545.834 334.26C586.865 311.542 613.209 276.318 613.209 236.765C613.209 227.687 611.818 218.401 609.183 209.125C615.719 207.542 621.021 203.943 624.276 198.708C628.443 192.042 628.792 183.693 625.271 175.198Z" fill="#2E2C2D"/>
</g>
<path d="M436.609 190.516C388.948 190.516 347.401 178.771 325.62 161.386C345.906 176.141 386.463 190.5 436.609 190.505H436.661C440.495 190.505 444.229 190.438 447.885 190.302C444.177 190.448 440.406 190.516 436.609 190.516ZM311.661 144.24C310.187 140.771 309.417 137.188 309.417 133.531C309.417 102.052 366.37 76.5417 436.614 76.5417C506.859 76.5417 563.807 102.052 563.807 133.531C563.807 134.87 563.703 136.208 563.5 137.526C562.719 134.578 560.401 131.401 556.75 128.182C539.693 112.474 492.333 95.5365 436.614 95.5365C366.364 95.5365 311.521 116.349 311.521 142.568C311.521 143.12 311.568 143.677 311.667 144.24" fill="#1A1818"/>
<path d="M563.526 139.896C563.234 157.724 519.125 190.516 436.609 190.505C364.016 190.49 311.516 160.406 311.516 142.568C311.516 116.349 366.359 95.5364 436.609 95.5364C506.849 95.5364 563.802 122.458 563.526 139.896Z" fill="#D0BDA8"/>
<path d="M558.917 150.995C561.922 146.995 563.474 143.188 563.526 139.896C563.536 139.344 563.484 138.781 563.38 138.208C563.417 137.984 563.458 137.76 563.495 137.526C563.698 138.318 563.802 139.078 563.786 139.828C563.734 143.125 562.104 146.958 558.917 150.995Z" fill="#414142"/>
<path d="M563.38 138.208C562.797 135.057 560.505 131.646 556.745 128.182C560.396 131.401 562.713 134.578 563.495 137.526C563.458 137.76 563.417 137.984 563.38 138.208Z" fill="#2B2A2B"/>
<path d="M443.823 187.687H443.771C375.125 187.677 325.474 159.224 325.474 142.365C325.474 117.562 377.349 97.8801 443.771 97.8801C495.797 97.8801 540.099 113.495 556.745 128.182C560.505 131.646 562.797 135.057 563.38 138.208C563.485 138.781 563.537 139.344 563.526 139.896C563.474 143.187 561.922 146.995 558.917 150.995C545.834 167.625 506.573 187.687 443.823 187.687Z" fill="#EFE3D0"/>
<mask id="mask1_27_537" style="mask-type:luminance" maskUnits="userSpaceOnUse" x="260" y="208" width="270" height="153">
<path d="M260 208H529.333V360.833H260V208Z" fill="white"/>
</mask>
<g mask="url(#mask1_27_537)">
<path d="M437.281 360.833C402.484 360.818 370.042 353.729 342.708 341.505L342.458 341.745C342.276 341.667 342.099 341.588 341.917 341.505L325.281 358.12C323.573 359.823 321.354 360.734 319.114 360.828C316.864 360.734 314.64 359.833 312.927 358.12C309.292 354.49 309.292 348.609 312.927 344.995L325.297 332.641C285.911 309.88 260.792 275.385 260.792 236.766C260.792 228.406 261.974 219.885 264.213 211.365C264.411 210.599 264.625 209.838 264.844 209.068C285.349 328.052 399.765 347.146 471.12 347.146C487.979 347.146 502.448 346.083 512.687 345.01C520.167 344.229 525.406 343.448 527.677 343.088C501.271 354.276 470.349 360.75 437.286 360.833M528.406 343.109L528.286 342.99C528.724 342.917 528.958 342.875 528.958 342.875C528.776 342.953 528.588 343.031 528.406 343.109Z" fill="#2A2828"/>
</g>
<path d="M426.26 220.349C369.62 220.349 334.969 187.688 334.969 187.688C334.969 187.688 372.276 212.677 430.578 212.677C453.995 212.677 480.807 208.646 509.948 197.339C478.703 214.375 450.469 220.349 426.26 220.349Z" fill="#2A2828"/>
</svg>
