<svg width="561" height="345" viewBox="0 0 561 345" fill="none" xmlns="http://www.w3.org/2000/svg">
<path d="M488.086 25.6827C481.628 14.1451 462.941 2.72607 461.439 2.72607C460.055 2.72607 468.127 12.0695 471.474 25.4521C478.281 27.4091 488.086 25.6827 488.086 25.6827Z" fill="#A4A8D4"/>
<path d="M213.528 185.687C214.108 186.03 214.8 186.491 215.373 186.84C259.33 213.487 307.892 222.6 339.849 217.065C350.695 215.101 359.689 211.523 365.804 206.219C390.144 185.338 406.413 138.963 411.948 126.852C417.028 115.776 438.482 91.6662 466.743 76.8999C466.862 76.8999 466.974 76.7813 467.093 76.6693C469.517 75.3976 472.054 74.1325 474.591 73.0914C474.591 73.0914 481.279 61.903 484.626 50.0227C487.512 39.7568 487.743 29.1417 478.861 24.9905C477.708 24.4107 476.317 23.9494 474.822 23.7188C474.472 23.6002 474.13 23.6002 473.781 23.4882C447.253 18.8758 394.414 37.1014 376.992 51.8677C364.308 62.5949 332.232 80.7085 298.318 90.0519C285.054 93.7418 271.441 96.048 258.519 96.048C212.955 96.048 199.111 80.1286 179.495 81.0511C159.774 81.8616 154.12 148.887 213.528 185.687Z" fill="#CFDCFF"/>
<path d="M485.087 24.1805C478.169 23.1394 457.518 21.4131 448.406 36.7526C440.907 49.3313 437.329 61.3236 426.141 70.7856C414.946 80.2477 402.954 84.8601 402.954 84.8601C402.954 84.8601 403.296 77.4802 401.8 73.6717C389.802 86.0132 364.769 104.588 338.004 102.163C311.239 99.857 302.706 87.5155 302.706 87.5155C302.706 87.5155 319.779 77.8229 323.581 67.557C311.47 62.8259 309.045 47.2558 309.045 47.2558C309.045 47.2558 326.697 50.4844 354.036 44.6003C380.801 38.9468 414.254 5.26302 430.173 0.532001C446.093 -4.19902 485.087 24.1805 485.087 24.1805Z" fill="#CFDCFF"/>
<path d="M133.352 186.841L110.514 204.717C106.705 207.722 104.86 212.565 105.67 217.408C106.013 219.483 106.936 221.565 108.319 223.18C116.74 233.788 148.928 274.859 154.121 287.2C141.773 287.549 147.657 295.16 150.081 298.046C147.887 300.121 143.855 303.008 140.738 305.083C138.201 306.816 136.126 308.081 136.126 308.081L155.386 328.732C155.386 328.732 157.231 323.77 159.655 317.313C163.233 307.389 167.846 294.007 168.426 289.625C169.348 282.476 128.627 219.022 128.627 219.022C128.627 219.022 167.615 207.03 179.726 198.839C191.956 190.531 207.875 172.766 214.339 162.961C220.796 153.157 182.731 95.014 182.731 95.014C157.923 94.4342 136.238 114.044 126.776 129.159C117.202 144.037 133.352 186.841 133.352 186.841Z" fill="#A4A8D4"/>
<path d="M136.126 308.081L155.386 328.732C155.386 328.732 157.231 323.77 159.655 317.312L140.738 305.083C138.201 306.816 136.126 308.081 136.126 308.081Z" fill="#5E6396"/>
<mask id="mask0_66_33" style="mask-type:luminance" maskUnits="userSpaceOnUse" x="0" y="33" width="175" height="85">
<path d="M0 33.2207H174.672V117.562H0V33.2207Z" fill="white"/>
</mask>
<g mask="url(#mask0_66_33)">
<path d="M173.038 87.3964C173.038 87.3964 132.317 33.5234 112.82 34.7951C93.3223 36.0602 75.4459 60.6312 67.0184 62.3642C58.4854 64.0971 36.4513 51.749 36.4513 51.749V60.2886C36.4513 60.2886 9.34343 55.2149 0 50.1347C4.26319 65.3622 36.4513 114.274 53.873 115.895C71.2882 117.621 96.7816 98.4728 96.7816 98.4728L95.9777 107.006C95.9777 107.006 114.203 80.7084 117.663 78.5142C121.01 76.4386 167.734 90.3945 167.734 90.3945L173.038 87.3964Z" fill="#CFDCFF"/>
</g>
<path d="M349.193 290.317C349.193 290.317 354.958 291.588 362.457 293.084C375.147 295.739 392.912 299.199 396.378 299.199C400.641 299.199 430.984 290.547 445.17 286.396C449.671 285.124 453.249 281.553 454.52 277.053C455.786 272.552 454.751 267.709 451.746 264.131C440.558 251.21 414.142 220.406 412.066 215.45C409.53 209.105 386.573 170.921 386.573 170.921C386.573 170.921 352.191 204.486 356.461 209.566C360.73 214.64 386.224 232.062 393.841 236.332C401.451 240.595 433.29 269.435 433.29 269.435L397.182 286.047C397.182 286.047 390.836 272.434 389.11 272.434C387.377 272.434 382.303 283.51 382.303 283.51L369.955 270.589L365.231 265.627L349.193 290.317Z" fill="#A4A8D4"/>
<path d="M349.193 290.317C349.193 290.317 354.958 291.588 362.457 293.084C364.769 286.277 368.229 276.473 370.074 270.589L365.343 265.627L349.193 290.317Z" fill="#5E6396"/>
<path d="M153.541 213.026L135.895 235.982C132.89 239.791 132.317 244.983 134.393 249.477C135.315 251.441 136.699 253.174 138.313 254.439C149.159 262.629 190.46 294.468 198.531 305.083C186.651 308.542 194.262 314.426 197.266 316.502C195.645 319.039 192.417 322.847 189.88 325.615C187.804 327.928 186.19 329.654 186.19 329.654L209.95 344.882C209.95 344.882 210.53 339.577 211.222 332.771C212.263 322.274 213.416 308.081 212.955 303.811C212.145 296.55 156.888 245.214 156.888 245.214C156.888 245.214 191.725 223.984 201.418 212.907C211.222 201.837 222.18 180.607 226.101 169.649C229.909 158.573 179.383 80.9395 179.383 80.9395C155.155 86.4744 125.049 120.389 119.508 137.461C114.091 154.54 153.541 213.026 153.541 213.026Z" fill="#CFDCFF"/>
<path d="M186.19 329.773L209.95 345C209.95 345 210.53 339.689 211.222 332.883L189.88 325.733C187.804 328.04 186.19 329.773 186.19 329.773Z" fill="#5E6396"/>
<path d="M274.9 337.963C274.9 337.963 279.17 336.692 284.705 334.965C294.977 331.73 309.737 327.236 310.547 326.887C311.819 326.426 326.585 271.512 329.926 268.975C333.273 266.438 335.006 258.827 335.929 255.361C336.733 251.902 345.845 233.789 361.192 221.447C376.419 209.106 398.565 182.452 408.719 126.853C408.719 126.853 349.311 143.807 341.694 162.5C334.084 181.187 332.812 206.681 330.618 218.1C328.542 229.525 330.849 235.403 322.316 250.749C317.585 252.482 318.046 263.901 318.046 263.901C318.046 263.901 304.551 315.007 304.551 316.272C304.551 317.543 299.471 306.124 296.934 307.739C294.397 309.465 291.399 318.809 291.399 318.809L282.629 313.274L275.249 308.661L274.9 337.963Z" fill="#CFDCFF"/>
<path d="M274.9 337.963C274.9 337.963 279.17 336.691 284.705 334.965C284.243 329.654 283.209 319.968 282.629 313.392L275.249 308.773L274.9 337.963Z" fill="#5E6396"/>
<mask id="mask1_66_33" style="mask-type:luminance" maskUnits="userSpaceOnUse" x="454" y="21" width="107" height="79">
<path d="M454.685 21.4131H560.777V99.0071H454.685V21.4131Z" fill="white"/>
</mask>
<g mask="url(#mask1_66_33)">
<path d="M498.121 28.4501C507.932 54.5234 560.191 85.5518 560.191 85.5518C560.191 85.5518 552.343 99.165 541.036 97.8933C529.736 96.6282 531.35 85.0906 531.35 85.0906C531.35 85.0906 518.659 80.3595 504.816 81.9739C490.972 83.5882 482.432 84.8599 473.089 78.4026C463.745 71.9386 445.17 36.2912 460.629 25.7947C468.819 20.1412 489.7 23.9497 498.121 28.4501Z" fill="#CFDCFF"/>
</g>
<path d="M491.084 45.1734C491.084 46.7943 492.474 48.0595 493.97 48.0595C495.584 48.0595 496.856 46.6757 496.856 45.1734C496.856 43.5591 495.472 42.2939 493.97 42.2939C492.355 42.2939 491.084 43.5591 491.084 45.1734Z" fill="#A4A8D4"/>
<path d="M456.478 33.8732C457.519 34.2158 461.558 32.6015 464.898 31.0991C467.666 29.834 470.091 28.5623 470.091 28.5623C470.091 28.5623 441.369 4.10991 438.482 6.75876C435.596 9.41419 454.521 33.1813 456.478 33.8732Z" fill="#A4A8D4"/>
<path d="M438.482 6.75876C441.25 6.52814 454.632 17.3739 464.898 31.0991C467.666 29.834 470.091 28.5623 470.091 28.5623C470.091 28.5623 441.368 4.10991 438.482 6.75876Z" fill="#CFDCFF"/>
<path d="M546.92 79.2065C547.151 82.3232 550.959 86.2438 550.959 86.2438C550.959 86.2438 550.959 87.5155 547.612 86.8236C544.383 86.1318 546.92 79.2065 546.92 79.2065Z" fill="#A4A8D4"/>
</svg>
