<svg width="525" height="278" viewBox="0 0 525 278" fill="none" xmlns="http://www.w3.org/2000/svg">
<path d="M244.718 273.642C244.718 273.642 265.03 280.915 280.283 273.642L283.517 262.431H244.366L244.718 273.642Z" fill="#1F2557"/>
<path d="M264.281 277.147C253.818 277.144 244.704 273.93 244.617 273.897C244.509 273.86 244.435 273.763 244.429 273.645L244.086 262.437C244.08 262.367 244.107 262.293 244.164 262.24C244.221 262.186 244.284 262.156 244.368 262.156H283.52C283.607 262.156 283.698 262.199 283.741 262.263C283.802 262.33 283.819 262.417 283.795 262.501L280.554 273.716C280.534 273.786 280.481 273.847 280.41 273.883C275.871 276.051 270.45 277.147 264.281 277.147ZM244.992 273.444C246.311 273.89 254.721 276.601 264.281 276.601C270.313 276.601 275.61 275.541 280.045 273.451L283.144 262.703H244.657L244.992 273.444Z" fill="#332765"/>
<path d="M243.032 271.579L244.716 270.593C244.716 270.593 265.028 277.866 280.282 270.593L283.365 271.324L283.516 259.385H244.364L243.032 271.579Z" fill="#443B99"/>
<path d="M264.281 274.098C254.493 274.098 245.891 271.287 244.744 270.895L243.177 271.811C243.087 271.864 242.973 271.864 242.876 271.811C242.788 271.75 242.738 271.656 242.745 271.552L244.087 259.355C244.1 259.214 244.224 259.11 244.365 259.11H283.517C283.594 259.11 283.668 259.14 283.718 259.194C283.775 259.241 283.805 259.311 283.798 259.385L283.651 271.328C283.651 271.411 283.611 271.489 283.544 271.539C283.47 271.586 283.386 271.609 283.302 271.586L280.316 270.881C275.798 273.015 270.407 274.098 264.281 274.098ZM244.717 270.321C244.744 270.321 244.778 270.328 244.811 270.338C244.898 270.371 253.922 273.555 264.281 273.555C270.357 273.555 275.7 272.475 280.152 270.351C280.212 270.321 280.286 270.314 280.35 270.328L283.094 270.979L283.232 259.66H244.62L243.379 271.066L244.566 270.361C244.61 270.335 244.664 270.321 244.717 270.321Z" fill="#433EDF"/>
<path d="M511.747 243.417L524.712 265.182C524.639 265.574 524.39 269.174 524.176 269.509C523.934 269.888 523.632 270.177 523.29 270.408C523.139 270.442 522.978 270.479 522.804 270.499C504.353 264.618 413.373 239.864 280.279 273.766V252.213C311.893 243.437 433.135 213.326 511.747 243.417Z" fill="#1F2557"/>
<path d="M280.282 274.045C280.222 274.045 280.155 274.025 280.108 273.988C280.041 273.937 279.997 273.857 279.997 273.77V252.213C279.997 252.092 280.081 251.985 280.208 251.951C303.902 245.373 365.724 230.079 427.885 230.079C460.921 230.079 489.174 234.477 511.854 243.162C511.915 243.189 511.965 243.229 511.992 243.279L524.957 265.041C524.994 265.101 525.008 265.168 524.994 265.232C524.974 265.336 524.937 265.776 524.887 266.285C524.702 268.372 524.575 269.412 524.417 269.657C524.179 270.036 523.867 270.361 523.461 270.636C523.434 270.656 523.398 270.673 523.357 270.683L523.277 270.7C523.132 270.73 522.992 270.76 522.844 270.774C522.8 270.777 522.76 270.774 522.727 270.761C512.25 267.426 473.511 256.544 414.698 256.544C371.115 256.544 325.918 262.424 280.356 274.035C280.329 274.045 280.309 274.045 280.282 274.045ZM280.567 252.417V273.417C326.056 261.861 371.175 256 414.691 256C473.468 256 512.25 266.859 522.837 270.224C522.941 270.21 523.042 270.187 523.139 270.167L523.173 270.157C523.488 269.932 523.743 269.674 523.934 269.368C524.052 269.12 524.24 267.168 524.323 266.228C524.367 265.739 524.397 265.413 524.417 265.239L511.549 243.635C488.952 235.004 460.804 230.629 427.882 230.629C365.966 230.629 304.385 245.816 280.567 252.417Z" fill="#332765"/>
<path d="M511.747 240.233L524.595 265.232C524.525 265.624 524.394 265.993 524.176 266.332C523.934 266.714 523.632 266.999 523.29 267.231C523.139 267.265 522.978 267.301 522.804 267.318C504.353 261.444 413.373 236.687 280.279 270.589V249.025C311.893 240.257 433.135 210.146 511.747 240.233Z" fill="#443B99"/>
<path d="M280.282 270.868C280.222 270.868 280.155 270.848 280.108 270.811C280.041 270.76 279.997 270.677 279.997 270.593V249.029C279.997 248.912 280.081 248.801 280.208 248.771C303.902 242.196 365.714 226.899 427.885 226.899C460.921 226.899 489.174 231.3 511.854 239.982C511.921 240.009 511.972 240.056 512.005 240.116L524.853 265.115C524.88 265.165 524.887 265.225 524.88 265.282C524.8 265.732 524.645 266.134 524.417 266.48C524.179 266.859 523.867 267.181 523.461 267.456C523.434 267.476 523.398 267.496 523.357 267.503L523.277 267.523C523.132 267.55 522.992 267.58 522.844 267.594C522.804 267.594 522.76 267.594 522.727 267.58C512.25 264.246 473.504 253.37 414.691 253.37C371.115 253.37 325.918 259.251 280.356 270.858C280.329 270.864 280.309 270.868 280.282 270.868ZM280.567 249.237V270.237C326.056 258.684 371.175 252.82 414.685 252.82C473.467 252.82 512.25 263.682 522.837 267.047C522.941 267.034 523.042 267.01 523.139 266.987L523.173 266.98C523.488 266.755 523.743 266.49 523.934 266.188C524.115 265.92 524.233 265.621 524.297 265.276L511.542 240.455C488.946 231.82 460.797 227.446 427.882 227.446C365.959 227.446 304.385 242.635 280.567 249.237Z" fill="#433EDF"/>
<path d="M13.2454 243.417L0.283203 265.182C0.35365 265.574 0.60188 269.174 0.816575 269.509C1.05475 269.888 1.35664 270.177 1.70217 270.408C1.85648 270.442 2.00745 270.479 2.1886 270.499C20.639 264.618 111.619 239.864 244.717 273.766V252.213C213.093 243.437 91.8473 213.326 13.2454 243.417Z" fill="#1F2557"/>
<path d="M244.717 274.044C244.684 274.044 244.664 274.044 244.64 274.038C199.084 262.427 153.884 256.547 110.305 256.547C51.4951 256.547 12.746 267.429 2.27622 270.764C2.23261 270.777 2.19572 270.78 2.16218 270.777C2.00116 270.764 1.86696 270.737 1.72606 270.703L1.64222 270.686C1.59861 270.676 1.56504 270.659 1.5382 270.639C1.1323 270.364 0.820305 270.042 0.582128 269.66C0.421107 269.415 0.300347 268.375 0.105779 266.282C0.0621693 265.779 0.0252727 265.346 0.00514505 265.242C-0.00827339 265.178 0.00512662 265.111 0.0386727 265.051L13.0076 243.289C13.0378 243.239 13.0814 243.199 13.1418 243.172C35.8223 234.487 64.0782 230.089 97.1111 230.089C159.275 230.089 221.094 245.379 244.798 251.961C244.912 251.994 245.002 252.102 245.002 252.223V273.783C245.002 273.867 244.955 273.947 244.892 274.001C244.835 274.024 244.774 274.044 244.717 274.044ZM110.301 256C153.821 256 198.937 261.86 244.429 273.417V252.417C220.608 245.815 159.024 230.629 97.1077 230.629C64.1855 230.629 36.0404 235.007 13.437 243.635L0.575423 265.238C0.59555 265.413 0.625741 265.738 0.669351 266.225C0.749862 267.167 0.937735 269.12 1.06186 269.375C1.24971 269.673 1.50133 269.932 1.82337 270.156L1.8569 270.166C1.94747 270.186 2.05483 270.21 2.16218 270.223C12.7393 266.859 51.5185 256 110.301 256Z" fill="#332765"/>
<path d="M13.2446 240.233L0.393066 265.232C0.463513 265.624 0.601076 265.993 0.815771 266.332C1.05395 266.714 1.35584 266.999 1.70136 267.231C1.85567 267.265 2.00665 267.301 2.18779 267.318C20.6381 261.444 111.619 236.687 244.716 270.589V249.025C213.092 240.257 91.8465 210.146 13.2446 240.233Z" fill="#443B99"/>
<path d="M244.717 270.868C244.683 270.868 244.663 270.864 244.639 270.854C199.084 259.251 153.884 253.367 110.304 253.367C51.4944 253.367 12.7453 264.246 2.27557 267.577C2.23196 267.59 2.19507 267.59 2.16153 267.59C2.0005 267.577 1.8663 267.543 1.72541 267.52L1.64157 267.5C1.59796 267.493 1.56439 267.473 1.53755 267.453C1.13165 267.178 0.819654 266.856 0.581477 266.473C0.356718 266.131 0.202432 265.728 0.115212 265.282C0.105148 265.225 0.115225 265.162 0.138707 265.111L12.9936 240.113C13.0238 240.052 13.0774 240.005 13.1411 239.978C35.8217 231.297 64.0776 226.896 97.1104 226.896C159.281 226.896 221.1 242.192 244.797 248.768C244.911 248.798 245.002 248.908 245.002 249.026V270.589C245.002 270.676 244.955 270.757 244.891 270.807C244.834 270.848 244.774 270.868 244.717 270.868ZM110.301 252.82C153.82 252.82 198.936 258.684 244.428 270.237V249.237C220.607 242.635 159.03 227.446 97.107 227.446C64.1882 227.446 36.0464 231.82 13.4498 240.455L0.692195 265.276C0.759287 265.621 0.883413 265.923 1.0545 266.188C1.24907 266.49 1.50067 266.752 1.82272 266.98L1.85624 266.986C1.94682 267.007 2.05418 267.033 2.16153 267.047C12.7386 263.682 51.5179 252.82 110.301 252.82Z" fill="#433EDF"/>
<path d="M521.881 247.158L521.143 241.012L519.395 236.631L507.44 222.495C507.44 222.495 478.983 196.419 402.739 193.028C347.804 190.582 291.201 204.873 263.861 213.045C236.515 204.869 179.912 190.579 124.987 193.028C48.7404 196.416 20.2732 222.495 20.2732 222.495L8.324 230.16L7.89464 236.913L7.15995 243.062L8.63936 246.879L6.66016 250.274L6.90166 253.032L7.15662 258.966V263.417C7.15662 263.417 47.9956 245.611 129.181 248.154C205.209 250.539 247.041 267.238 247.041 267.238C253.388 263.984 259.061 262.703 263.858 262.468C268.648 262.706 274.328 263.984 280.665 267.238C280.665 267.238 322.507 250.539 398.532 248.154C479.717 245.611 520.57 263.417 520.57 263.417V258.966L520.808 253.032L521.056 250.274L519.077 246.879L521.881 247.158Z" fill="#EDC7A4"/>
<path d="M16.6714 256.52C16.6714 256.52 106.719 220.314 248.82 264.709C248.82 264.709 127.088 228.322 16.6714 256.52Z" fill="#DC975F"/>
<path d="M107.963 239.328C107.963 239.328 190.326 236.873 251.876 263.619C251.876 263.619 204.019 244.789 107.963 239.328Z" fill="#DC975F"/>
<path d="M173.701 240.418C173.701 240.418 222.122 244.967 253.346 260.613C253.346 260.613 217.14 246.97 173.701 240.418Z" fill="#DC975F"/>
<path d="M217.599 245.695C217.599 245.695 242.937 249.15 254.252 258.613C254.252 258.613 236.378 250.609 217.599 245.695Z" fill="#DC975F"/>
<path d="M240.223 249.335C240.223 249.335 254.252 253.153 260.589 259.708C260.589 259.708 246.56 252.613 240.223 249.335Z" fill="#DC975F"/>
<path d="M515.137 256.52C515.137 256.52 425.079 220.314 282.984 264.709C282.984 264.709 404.716 228.322 515.137 256.52Z" fill="#DC975F"/>
<path d="M423.837 239.328C423.837 239.328 341.468 236.873 279.935 263.619C279.935 263.619 327.791 244.789 423.837 239.328Z" fill="#DC975F"/>
<path d="M358.107 240.418C358.107 240.418 309.693 244.967 278.469 260.613C278.469 260.613 314.665 246.97 358.107 240.418Z" fill="#DC975F"/>
<path d="M270.198 257.618C270.198 257.618 321.453 230.328 386.62 229.781C451.783 229.235 495.232 247.792 495.232 247.792C495.232 247.792 431.082 229.235 375.416 233.327C319.763 237.423 270.198 257.618 270.198 257.618Z" fill="#DC975F"/>
<path opacity="0.9" d="M521.881 247.158L521.143 241.012L519.395 236.631L507.44 222.495C507.44 222.495 478.983 196.419 402.739 193.028C347.804 190.582 291.201 204.873 263.861 213.045C236.515 204.869 179.912 190.579 124.987 193.028C48.7404 196.416 20.2732 222.495 20.2732 222.495L8.324 230.16L7.89464 236.913L7.15995 243.062L8.63936 246.879L6.66016 250.274L6.90166 253.032L7.15662 258.966V263.417C7.15662 263.417 47.9956 245.611 129.181 248.154C205.209 250.539 247.041 267.238 247.041 267.238C253.388 263.984 259.061 262.703 263.858 262.468C268.648 262.706 274.328 263.984 280.665 267.238C280.665 267.238 322.507 250.539 398.532 248.154C479.717 245.611 520.57 263.417 520.57 263.417V258.966L520.808 253.032L521.056 250.274L519.077 246.879L521.881 247.158Z" fill="#EDC49C"/>
<path opacity="0.4" d="M263.676 254.092C263.676 254.092 373.862 194.128 518.818 253.522L516.02 244.437C516.02 244.437 465.426 213.441 385.073 215.001C304.723 216.564 262.677 232.944 262.677 232.944C262.677 232.944 111.035 181.065 17.8975 220.469L3.03662 252.411C3.03662 252.411 106.298 208.456 262.479 254.095L263.676 254.092Z" fill="#DC975F"/>
<path d="M3.03671 252.408C3.03671 252.408 40.2527 223.779 144.095 231.68C227.027 237.983 262.177 254.031 262.59 253.635L262.888 250.207L261.442 203.206C261.442 203.206 46.1233 157.918 44.5802 179.898C44.5533 180.297 2.96626 252.371 3.03671 252.408Z" fill="#EDC49C"/>
<path d="M5.75741 247.376C5.75741 247.376 43.0774 219.698 146.926 227.598C229.849 233.908 262.174 254.035 262.586 253.64L262.885 250.211L261.439 203.21C261.439 203.21 46.1201 157.923 44.577 179.902C44.5535 180.298 5.69032 247.343 5.75741 247.376Z" fill="#DC975F"/>
<path d="M81.9743 101.007L4.71094 246.99C4.71094 246.99 78.7539 186.503 262.56 253.609L260.926 136.989C260.926 136.989 201.892 89.018 81.9743 101.007Z" fill="#F6E1CC"/>
<path d="M91.2498 101.786L4.71094 246.991C4.71094 246.991 45.5902 220.325 127.731 224.475C164.702 226.343 205.511 232.781 262.56 253.609L260.926 136.99C260.926 136.99 211.17 89.797 91.2498 101.786Z" fill="#EDC49C"/>
<path d="M91.2494 101.786L9.55127 239.808C9.55127 239.808 51.5375 213.817 133.424 221.07C175.121 224.756 204.709 231.479 262.559 253.609L260.926 136.99C260.926 136.99 211.17 89.797 91.2494 101.786Z" fill="#EDC49C"/>
<path d="M94.0337 94.4766L4.30127 241.238C4.30127 241.238 46.8276 214.209 125.326 218.799C163.078 221.009 206.863 228.114 262.559 253.613L260.617 131.24C260.617 131.24 175.625 56.64 94.0337 94.4766Z" fill="#EDC49C"/>
<path d="M94.0344 94.4766L11.0615 230.295C11.0615 230.295 118.339 178.862 262.563 253.609L260.621 131.236C260.621 131.236 175.625 56.64 94.0344 94.4766Z" fill="#EDC49C"/>
<path d="M98.0426 87.1629L4.71729 231.881C4.71729 231.881 109.562 173.145 262.559 253.612L260.208 111.346C260.208 111.346 166.037 54.7842 98.0426 87.1629Z" fill="#EDC49C"/>
<path d="M98.0435 87.1629L10.5586 222.776C10.5586 222.776 123.133 180.384 262.56 253.612L260.209 111.346C260.209 111.346 166.038 54.7842 98.0435 87.1629Z" fill="#EDC49C"/>
<path d="M98.0437 87.1628L31.3372 169.492L7.33838 223.246C7.33838 223.246 95.9369 189.844 200.607 225.333C220.403 232.042 240.514 242.015 262.56 253.615L260.209 111.35C260.209 111.35 166.038 54.7841 98.0437 87.1628Z" fill="#EDC49C"/>
<path d="M98.4483 86.7812L31.7318 169.113L12.3589 213.022C12.3589 213.022 82.3629 191.78 172.223 211.891C210.71 220.499 225.903 228.45 262.962 253.23L260.603 110.968C260.603 110.968 166.439 54.4059 98.4483 86.7812Z" fill="#EDC49C"/>
<path d="M98.0425 87.1629L28.1324 169.868L10.5308 212.642C10.5308 212.642 94.8791 184.406 191.015 214.252C216.531 222.179 229.402 226.748 262.559 253.609L260.208 111.343C260.208 111.343 166.037 54.7842 98.0425 87.1629Z" fill="#F6E1CC"/>
<path d="M20.1518 199.388C23.2581 194.994 27.3441 189.103 33.4226 188.446C36.1701 188.154 38.8772 188.791 41.5307 189.412C45.0161 190.23 48.5486 190.908 52.1045 191.438C60.4507 192.679 68.8876 193.269 77.2841 194.175C86.9287 195.215 145.198 192.921 188.61 204.316C197.014 206.523 205.87 209.72 213.81 213.115C221.448 216.389 226.621 219.492 233.602 223.907C240.647 228.352 249.04 235.829 254.391 242.089C257.36 245.554 259.953 249.268 262.553 252.988L260.208 111.34C260.208 111.34 166.037 54.7777 98.0425 87.153L28.1324 169.858L10.5308 212.619C14.2577 208.597 17.0253 203.83 20.1518 199.388Z" fill="#EDC49C"/>
<path d="M476.282 179.911L521.623 248.607C521.623 248.607 408.472 198.644 280.403 246.702L262.563 253.612L292.352 221.344L476.282 179.911Z" fill="#EDC49C"/>
<path d="M476.281 179.911L517.932 243.216C517.932 243.216 408.766 193.531 280.398 246.702L262.559 253.612L292.348 221.344L476.281 179.911Z" fill="#EDC49C"/>
<path d="M522.021 244.437C522.021 244.437 401.138 183.904 262.559 253.612L263.917 178.442C263.917 178.442 464.486 166.735 479.736 178.828L522.021 244.437Z" fill="#EDC49C"/>
<path d="M518.844 239.526C518.844 239.526 385.673 175.93 262.559 253.612L263.917 178.442C263.917 178.442 464.486 166.735 479.736 178.828L518.844 239.526Z" fill="#EDC49C"/>
<path d="M524.02 240.65C524.02 240.65 383.828 169.858 262.559 253.613L265.148 151.914C265.148 151.914 458.381 125.789 484.339 173.377L524.02 240.65Z" fill="#EDC49C"/>
<path d="M519.141 232.424C519.141 232.424 374.872 165.704 262.563 253.609L265.153 151.91C265.153 151.91 458.385 125.784 484.343 173.373L519.141 232.424Z" fill="#EDC49C"/>
<path d="M262.56 253.612C262.56 253.612 309.464 206.396 395.849 206.396C485.242 206.396 523.216 232.324 523.216 232.324L456.772 74.2883C456.772 74.2883 299.35 61.0276 260.614 127.731L262.56 253.612Z" fill="#F6E1CC"/>
<path d="M262.56 253.612C262.56 253.612 309.464 206.396 395.849 206.396C485.242 206.396 523.216 232.324 523.216 232.324L456.772 74.2883C456.772 74.2883 299.35 61.0276 260.614 127.731L262.56 253.612Z" fill="#F6E1CC"/>
<path d="M262.56 253.612C262.56 253.612 309.464 206.396 395.849 206.396C485.242 206.396 523.216 232.324 523.216 232.324L456.772 74.2883C456.772 74.2883 299.35 61.0276 260.614 127.731L262.56 253.612Z" fill="#F6E1CC"/>
<path opacity="0.5" d="M289.88 231.167C314.577 215.098 342.926 204.773 372.115 198.771C399.569 193.125 428.325 190.237 456.399 192.475C475.943 194.038 496.383 198.345 513.123 208.295L456.775 74.2883C456.775 74.2883 299.353 61.0276 260.618 127.731L262.553 252.794C270.943 244.783 280.125 237.514 289.88 231.167Z" fill="#EDC49C"/>
<path opacity="0.9" d="M270.235 245.86C270.49 245.591 270.732 245.316 270.98 245.048C281.44 233.82 293.359 223.854 306.365 215.35C319.666 206.651 334.11 198.979 349.142 193.32C366.419 186.815 384.715 183.373 403.085 181.005C416.785 179.237 430.663 178.258 444.501 178.355C464.497 178.489 486.235 180.636 504.857 188.65L456.775 74.2883C456.775 74.2883 299.353 61.0276 260.618 127.731L262.553 252.794C265.039 250.412 267.615 248.111 270.235 245.86Z" fill="#EDC49C"/>
<path opacity="0.5" d="M516.263 186.952L517.041 189.274C517.242 188.727 516.984 187.922 516.263 186.952Z" fill="#EDC49C"/>
<path d="M73.772 16.9377C82.8462 50.7153 148.533 49.5312 197.916 57.5151C240.05 64.3283 260.154 96.6064 263.338 102.178V253.203C233.213 194.209 154.903 192.87 87.8881 189.365C20.7188 185.849 12.8354 164.477 12.8354 164.477L73.772 16.9377Z" fill="#F6E1CC"/>
<path opacity="0.9" d="M249.583 84.4795C251.885 88.8673 253.535 93.5604 254.491 98.277C256.111 106.241 255.846 114.57 255.947 122.645C256.064 132.008 255.967 141.377 255.736 150.74C255.367 166.298 254.35 181.84 254.273 197.399C254.246 202.595 254.176 208.05 252.592 213.072C251.298 217.215 248.225 221.75 242.891 220.626C238.835 219.774 235.031 217.611 231.187 216.161C228.909 215.303 226.594 214.514 224.263 213.766C240.616 222.72 254.199 235.303 263.331 253.203V102.178C261.972 99.7966 257.53 92.5406 249.583 84.4795Z" fill="#EDC49C"/>
<path opacity="0.9" d="M62.9299 181.686C56.7574 179.341 50.1354 176.855 44.7949 173.031C39.2833 169.076 35.8615 163.514 34.7512 157.046C33.4462 149.471 34.9457 141.776 37.3007 134.52C39.7629 126.935 42.9733 119.585 45.7476 112.101C51.5209 96.462 56.9788 80.6449 64.4998 65.6598C66.3684 61.9362 68.3409 58.2529 70.5146 54.6735C72.3228 51.6779 74.0974 48.5011 76.5765 45.9348C80.5013 41.869 85.711 39.9602 91.4977 40.1111C94.527 40.1883 97.5059 40.6378 100.458 41.2517C86.8114 36.1091 76.9052 28.6116 73.7753 16.9409L12.8389 164.477C12.8389 164.477 20.7222 185.849 87.8916 189.364C90.4545 189.499 93.0509 189.629 95.6541 189.757C84.6107 187.499 73.4466 185.681 62.9299 181.686Z" fill="#EDC49C"/>
<path opacity="0.4" d="M103.739 164.628C105.819 158.901 127.017 73.5937 127.017 73.5937C127.017 73.5937 128.768 59.0414 144.585 59.0414C144.585 59.0414 184.105 60.2893 204.307 65.6936C204.307 65.6936 191.13 58.6254 169.171 57.3809C147.215 56.133 111.649 52.8085 96.2715 46.5723C96.2715 46.5723 101.099 51.5606 119.546 55.717C119.546 55.717 125.262 55.717 124.38 63.1978C123.581 70.0211 99.7301 161.068 91.934 173.373C89.7435 176.838 81.9104 180.592 77.7709 180.83C76.4894 180.901 75.1274 180.941 73.7554 180.898C92.4774 184.427 93.7354 186.077 152.522 189.459C152.522 189.459 112.93 179.995 105.933 176.59C105.939 176.594 99.7335 175.644 103.739 164.628Z" fill="#F6E1CC"/>
<path d="M457.052 9.8494C338.285 -36.7092 265.963 96.6063 262.776 102.175V253.199C289.093 221.069 328.154 191.968 393.472 177.348C482.245 157.476 518.897 184.235 517.042 189.274L457.052 9.8494Z" fill="#F6E1CC"/>
<path opacity="0.5" d="M457.052 9.84944C420.624 -4.43449 388.561 -1.78764 361.523 8.9035C370.114 6.57875 378.957 5.00872 387.857 4.48204C399.39 3.80106 411.607 4.737 422.067 9.73201C426.914 12.0433 435.291 14.301 438.659 18.3668C443.01 23.647 468.619 114.322 474.614 131.773C476.103 136.114 477.579 140.454 479.001 144.812C479.917 147.65 481.048 150.418 481.799 153.296C482.956 157.768 483.654 163.907 478.599 166.527C472.279 169.807 464.312 168.408 457.435 168.744C451.484 169.032 445.499 169.666 439.581 170.539C487.589 167.56 511.618 180.72 516.261 186.953L457.052 9.84944Z" fill="#EDC49C"/>
<path opacity="0.5" d="M361.543 185.094C352.851 187.721 344.193 190.284 335.753 193.595C327.36 196.886 319.158 200.666 311.348 205.088C308.487 206.711 305.682 208.472 302.77 210.012C300.097 211.418 297.017 212.884 293.881 212.843C287.551 212.76 285.38 207.198 284.827 202.085C284.491 198.955 284.38 195.802 284.102 192.669C283.699 188.14 283.314 183.618 282.951 179.089C282.23 169.931 281.596 160.763 281.076 151.592C280.566 142.387 280.154 133.175 279.902 123.956C279.771 119.377 279.681 114.798 279.634 110.216C279.593 106.013 279.416 101.772 279.761 97.5757C281.435 77.116 293.398 60.1416 307.276 44.8245C279.738 71.1112 264.209 99.6657 262.77 102.178V253.203C289.087 221.072 328.148 191.971 393.466 177.352C393.533 177.335 393.596 177.322 393.667 177.308C382.751 178.643 372.013 181.931 361.543 185.094Z" fill="#EDC49C"/>
<path opacity="0.8" d="M282.059 232.488C279.781 233.924 276.974 235.759 274.099 235.413C272.223 235.185 271.063 233.283 270.499 231.767C269.6 229.395 269.332 226.822 269.228 224.323C269.131 221.891 269.208 219.462 269.275 217.027C269.372 213.26 269.171 209.469 269.047 205.702C268.775 196.423 268.121 112.984 268.299 108.374C268.476 104.06 268.621 99.6391 269.644 95.4156C270.452 92.1013 271.599 88.9009 272.935 85.7744C266.863 94.7446 263.414 101.051 262.777 102.175V253.2C268.671 246.001 275.206 238.959 282.532 232.196C282.368 232.297 282.213 232.391 282.059 232.488Z" fill="#EDC49C"/>
<path opacity="0.4" d="M394.505 164.36C390.258 165.034 386.102 165.853 381.986 167.08C377.799 168.335 373.848 168.58 369.49 168.687C367.578 168.734 365.595 168.697 363.8 167.969C362.15 167.298 361.969 165.457 361.811 163.967C358.611 133.162 355.172 102.356 350.325 71.7322C349.694 67.7973 349.46 63.7517 348.956 59.7832C348.373 55.2041 347.749 50.6284 347.141 46.0561C346.585 41.9232 345.867 37.7736 345.994 33.5937C346.145 29.0516 350.352 24.6168 353.616 21.6647C357.816 17.864 363.619 15.2272 368.849 13.0165C373.666 10.9836 379.436 9.51096 384.663 9.06816C385.247 9.02119 386.357 7.27684 385.642 7.26677C385.27 7.26342 384.901 7.2567 384.535 7.23657C380.332 8.21947 376.159 9.36669 372.029 10.5978C358.725 14.5563 346.189 20.9334 334.575 28.1961C321.019 36.6799 309.258 47.4684 299.134 59.4611C298.986 60.0649 299.372 60.4944 300.106 59.7698C305.568 54.4393 310.023 48.4513 316.316 43.9662C319.671 41.5744 322.535 38.9007 326.977 38.8001C331.512 38.7028 332.908 44.7512 333.411 48.0454C336.071 65.3351 338.651 82.7455 340.473 100.136C342.656 120.797 344.508 142.189 347.175 163.105C348.181 171.022 348.983 177.537 342.831 183.817C341.294 185.386 339.862 187.047 338.362 188.637C337.987 189.036 337.557 189.61 337.081 190.18C338.158 189.6 339.228 189.016 340.311 188.449C348.651 184.078 356.997 179.754 365.736 176.148C373.915 172.783 382.234 169.69 390.751 167.164C397.538 165.148 404.445 163.424 411.436 162.059C405.77 162.193 400.097 163.467 394.505 164.36Z" fill="#F6E1CC"/>
<path d="M516.263 186.953L457.054 9.85302C450.898 7.4377 444.867 5.51881 438.962 4.03271C441.337 4.72376 451.552 8.09858 455.256 16.1027L508.641 174.802C508.641 174.802 511.707 179.821 503.569 178.647C510.432 181.589 514.592 184.719 516.263 186.953Z" fill="#EDC49C"/>
</svg>
