<svg width="337" height="268" viewBox="0 0 337 268" fill="none" xmlns="http://www.w3.org/2000/svg">
<path d="M1.81204 207.08C3.27404 208.507 28.271 217.599 31.388 217.988C34.505 218.377 35.414 216.819 36.713 215.687C36.898 215.524 37.07 215.312 37.221 215.062C38.122 213.572 38.346 210.769 37.233 209.546L13.468 185.003C13.468 185.003 3.75205 193.927 1.17905 196.497C0.994047 196.685 0.844044 196.838 0.739044 196.951C-0.818956 198.638 0.351042 205.65 1.81204 207.08Z" fill="url(#paint0_linear_76_702)"/>
<path opacity="0.4" d="M1.81171 207.08C3.27371 208.507 28.2707 217.599 31.3877 217.988C34.5047 218.377 35.4137 216.819 36.7127 215.687C36.8977 215.524 37.0697 215.312 37.2207 215.062C30.9217 212.85 2.27568 202.688 0.963684 200.412C0.358684 199.364 0.628688 197.888 1.17969 196.497C0.994687 196.685 0.844685 196.838 0.739685 196.951C-0.819315 198.638 0.350707 205.65 1.81171 207.08Z" fill="url(#paint1_linear_76_702)"/>
<path d="M3.87277 201.878C5.05677 204.644 173.841 263.751 174.434 264.146C174.68 264.309 177.962 262.428 181.712 260.17C186.991 256.998 193.198 253.083 193.198 253.083L14.0578 187.351C14.0578 187.351 7.65875 192.285 3.76675 196.17L3.57077 196.392L3.56876 196.396C2.29176 198.057 3.54377 201.11 3.87277 201.878Z" fill="url(#paint2_linear_76_702)"/>
<path opacity="0.4" d="M3.87277 201.878C5.05677 204.644 173.841 263.751 174.434 264.146C174.68 264.309 177.962 262.428 181.712 260.17C186.991 256.998 193.198 253.083 193.198 253.083L14.0578 187.351C14.0578 187.351 7.65875 192.285 3.76675 196.17L3.57077 196.392L3.56876 196.396C2.29176 198.057 3.54377 201.11 3.87277 201.878Z" fill="url(#paint3_linear_76_702)"/>
<path opacity="0.83" d="M3.87292 201.878C5.05692 204.644 173.841 263.751 174.434 264.146C174.68 264.309 177.962 262.428 181.712 260.17L3.76791 196.17L3.5719 196.392L3.56992 196.396C2.29192 198.057 3.54392 201.11 3.87292 201.878Z" fill="url(#paint4_linear_76_702)"/>
<path d="M6.89287 138.462L7.85088 154.221L8.46385 164.33L9.40785 179.847L9.47786 181.036L9.95387 188.857L10.2929 194.42L183.866 254.686L184.955 255.063L190.633 257.035L193.375 252.071L200.718 238.776L202.089 236.294C202.089 236.294 201.706 234.903 201.071 232.604C198.64 223.815 192.512 201.766 189.958 193.584C189.373 191.709 188.976 190.562 188.855 190.469L182.488 188.648L6.89287 138.462Z" fill="url(#paint5_linear_76_702)"/>
<path opacity="0.4" d="M6.89287 138.462L8.46385 164.33C44.7149 163.681 139.217 196.111 160.766 212.122C182.89 228.56 183.896 250.343 183.866 254.686C183.864 255.19 183.846 255.458 183.846 255.458L184.955 255.063L193.375 252.071L202.089 236.294C202.089 236.294 193.179 203.906 189.957 193.585L182.487 188.649L6.89287 138.462Z" fill="url(#paint6_linear_76_702)"/>
<path opacity="0.4" d="M183.848 211.39C188.798 223.37 187.127 247.371 179.802 248.168C172.477 248.965 41.5608 204.935 25.8098 197.749C19.1748 194.721 13.8698 191.533 9.95479 188.858L10.2938 194.421L183.867 254.687L184.956 255.064L190.634 257.036L193.376 252.072L200.719 238.777L201.072 232.605C198.641 223.816 192.513 201.767 189.959 193.585C189.374 191.71 188.977 190.563 188.856 190.47L182.489 188.649L6.89577 138.462L7.85378 154.221C14.3018 154.717 25.1388 156.342 43.1338 160.447C80.2368 168.915 178.9 199.412 183.848 211.39Z" fill="url(#paint7_linear_76_702)"/>
<path d="M4.93976 144.073L37.2558 154.747L67.1017 164.604L116.031 180.766L156.248 194.049L193.703 206.42L191.435 260.162L204.534 245.549L206.633 243.208L324.169 112.098C324.169 112.098 325.24 106.511 326.544 98.376C327.631 91.603 328.877 83.063 329.806 74.508C331.651 57.477 332.227 40.388 327.725 37.053L249.972 23.514L207.107 16.048L157.065 7.33398L101.442 57.332L83.0678 73.845L4.93976 144.073Z" fill="url(#paint8_linear_76_702)"/>
<path opacity="0.2" d="M129.221 48.7927C142.935 47.8497 127.966 63.3977 118.514 64.3157C105.418 65.5877 116.953 60.2077 121.663 55.6187C124.59 52.7657 124.695 49.1047 129.221 48.7927Z" fill="url(#paint9_linear_76_702)"/>
<path opacity="0.2" d="M224.772 28.0808C229.125 25.6128 247.202 33.2508 253.592 32.0368C256.717 31.4438 253.846 27.4888 249.973 23.5148L207.108 16.0488C202.677 30.1088 220.708 30.3858 224.772 28.0808Z" fill="url(#paint10_linear_76_702)"/>
<path opacity="0.2" d="M274.837 100.86C279.522 105.779 279.206 144.401 274.837 145.621C270.468 146.841 269.011 135.69 269.011 135.69C269.011 135.69 262.977 177.218 257.151 176.386C251.325 175.554 249.523 147.816 247.58 133.6C245.642 119.417 240.72 115.556 243.318 110.288C245.916 105.02 262.144 106.27 262.144 106.27C262.144 106.27 248.204 98.7776 251.325 96.0726C254.447 93.3696 270.676 96.4906 274.837 100.86Z" fill="url(#paint11_linear_76_702)"/>
<path opacity="0.2" d="M116.031 180.766C115.708 178.244 114.94 173.858 116.089 173.268C117.658 172.462 125.616 169.808 122.015 167.346C118.416 164.882 95.1087 164.693 95.1087 164.693C95.1087 164.693 98.3307 158.062 89.9937 157.493C81.6567 156.924 71.6527 157.505 70.4027 158.352C69.6707 158.848 68.1967 162.044 67.1017 164.604L116.031 180.766Z" fill="url(#paint12_linear_76_702)"/>
<path opacity="0.2" d="M83.0697 73.8445C87.7617 73.1755 96.9657 70.9955 102.053 64.0135C104.089 61.2185 102.837 58.8315 101.444 57.3315L83.0697 73.8445Z" fill="url(#paint13_linear_76_702)"/>
<path opacity="0.2" d="M61.0039 106.047C63.1649 107.85 58.2269 117.266 55.5609 116.865C52.8939 116.465 58.1609 103.676 61.0039 106.047Z" fill="url(#paint14_linear_76_702)"/>
<path opacity="0.2" d="M67.6347 120.502C77.4677 122.841 90.3717 138.917 79.3817 143.373C68.3917 147.83 41.7967 139.958 41.9767 133.748C42.1587 127.538 59.4877 118.564 67.6347 120.502Z" fill="url(#paint15_linear_76_702)"/>
<path opacity="0.4" d="M196.891 187.016L204.554 245.526L324.189 112.076C324.189 112.076 327.784 93.317 329.826 74.486L322.981 51.812L310.152 57.877L196.891 187.016Z" fill="url(#paint16_linear_76_702)"/>
<path opacity="0.2" d="M240.287 170.922C245.611 174.166 243.341 192.489 237.97 187.351C232.6 182.213 235.074 167.746 240.287 170.922Z" fill="url(#paint17_linear_76_702)"/>
<path opacity="0.4" d="M203.215 189.329L206.653 243.187L215.785 233.001L303.169 135.524L314.053 123.383L322.84 113.58L324.19 112.075C324.19 112.075 325.259 106.488 326.565 98.3528C325.767 96.0808 324.955 93.7828 324.151 91.4988C318.438 75.3228 312.898 59.9058 312.898 59.9058L308.782 64.7628L203.215 189.329Z" fill="url(#paint18_linear_76_702)"/>
<path opacity="0.4" d="M215.785 233L303.169 135.524L314.053 123.383C299.791 118.75 281.408 116.714 264.891 126.798C242.472 140.485 224.724 198.132 215.785 233Z" fill="url(#paint19_linear_76_702)"/>
<path opacity="0.4" d="M273.369 50.7168C277.317 52.1158 305.848 58.0418 308.782 64.7638C311.401 70.7658 304.385 122.99 303.169 135.525L322.841 113.581L324.151 91.5018L325.75 64.5368L317.528 50.5418L276.595 44.0698C276.595 44.0698 269.421 49.3178 273.369 50.7168Z" fill="url(#paint20_linear_76_702)"/>
<path opacity="0.4" d="M37.2761 154.725L156.268 194.027L153.449 185.756C151.294 184.565 37.9851 147.817 37.9851 147.817L37.2761 154.725Z" fill="url(#paint21_linear_76_702)"/>
<path opacity="0.4" d="M203.215 129.772C203.215 129.772 206.386 133.333 206.047 134.774C205.708 136.215 201.808 138.928 202.571 140.369C203.334 141.81 213.083 150.515 213.677 151.546C214.27 152.577 207.743 171.737 207.234 172.5C206.725 173.263 203.938 176.048 203.938 176.048L198.279 179.288C198.279 179.288 203.659 154.07 202.856 153.126C201.146 151.114 190.191 143.516 190.191 143.516L199.942 134.604L203.215 129.772Z" fill="url(#paint22_linear_76_702)"/>
<path opacity="0.4" d="M162.918 27.045C164.029 27.196 164.779 28.789 163.243 34.102L176.345 42.18C176.345 42.18 161.639 47.98 161.737 47.811C162.99 45.647 163.559 44.428 163.559 44.428C163.559 44.428 155.204 37.376 155.092 34.813C154.999 32.686 160.672 26.74 162.918 27.045Z" fill="url(#paint23_linear_76_702)"/>
<path d="M148.487 62.5897L181.448 124.133L191.291 142.511C191.291 142.511 198.705 147.902 202.31 151.096C203.387 152.052 204.125 152.81 204.223 153.169C204.223 153.169 204.225 153.185 204.231 153.215C204.235 153.225 204.237 153.237 204.237 153.249C204.239 153.263 204.241 153.277 204.243 153.293C204.459 155.64 200.098 176.641 199.912 177.754C199.722 178.891 203.085 176.333 203.938 176.048C204.386 175.899 206.557 170.03 208.396 164.199C210.059 158.927 211.449 153.686 211.043 152.743C210.19 150.753 199.105 141.231 199.958 140.236C200.811 139.242 205.216 133.984 203.529 132.395L200.428 123.302L173.703 44.9097L172.828 42.3427C172.828 42.3427 161.588 35.9267 161.731 34.7897C161.872 33.6527 164.59 26.9027 162.917 27.0437C161.246 27.1867 156.189 33.9367 156.189 35.6427C156.189 37.3467 164.716 44.3107 164.572 44.8787C164.431 45.4477 161.163 48.0057 160.445 49.4297C159.728 50.8517 148.487 62.5897 148.487 62.5897Z" fill="url(#paint24_linear_76_702)"/>
<path opacity="0.4" d="M163.185 41.1695C164.05 42.2785 169.746 47.4706 169.897 47.4706C169.98 47.4706 171.933 46.1335 173.704 44.9095L172.829 42.3425C172.829 42.3425 161.589 35.9266 161.732 34.7896C161.48 35.7746 162.321 40.0605 163.185 41.1695Z" fill="url(#paint25_linear_76_702)"/>
<path opacity="0.4" d="M181.448 124.133L191.291 142.511C191.291 142.511 198.705 147.902 202.31 151.096C202.286 148.735 198.637 144.69 198.28 143.983C197.899 143.227 199.532 140.38 199.959 140.237C200.812 139.243 205.217 133.985 203.53 132.396L200.429 123.303L197.731 121.902L185.936 118.299C185.936 118.299 183.265 121.728 181.448 124.133Z" fill="url(#paint26_linear_76_702)"/>
<path d="M140.665 256.549C142.57 257.979 164.958 267.505 174.247 267.983C175.354 268.039 176.622 267.945 178.009 267.707C181.068 267.187 184.701 265.971 188.457 264.156C197.282 259.896 206.788 252.331 211.115 242.683C217.141 229.249 217.408 191.961 212.405 184.816C209.459 180.606 199.112 177.255 190.051 175.396C183.734 174.102 178.043 173.531 175.913 173.902C170.647 174.819 163.209 178.211 157.852 182.009C156.118 183.239 154.602 184.511 153.449 185.755C150.751 188.662 152.854 193.054 152.941 193.572C153.179 195.001 186.009 201.451 188.162 210.101C189.981 217.406 188.142 246.387 183.845 255.458C181.954 259.454 176.405 261.279 172.931 261.057C159.705 260.204 140.107 252.161 140.107 252.161C140.107 252.161 138.759 255.122 140.665 256.549Z" fill="url(#paint27_linear_76_702)"/>
<path d="M2.46605 145.62C3.33905 146.846 41.1731 158.352 45.0101 158.352C46.9581 158.352 61.8251 146.408 62.6481 143.698C63.6501 140.401 62.6061 138.742 60.5131 137.682C56.3861 135.591 49.8091 134.103 47.1641 132.545C46.4401 132.12 46.0111 131.688 46.0051 131.236C45.9711 128.242 55.298 123.82 55.491 121.822C55.582 120.884 55.8401 118.312 54.1701 117.183C54.1281 117.153 54.083 117.124 54.037 117.098C49.176 114.211 40.6211 111.852 37.3851 112.154C31.0181 112.747 3.33905 134.29 2.46605 136.383C2.36105 136.633 2.27005 136.94 2.19005 137.284C1.60705 139.825 1.70005 144.541 2.46605 145.62Z" fill="url(#paint28_linear_76_702)"/>
<path d="M309.517 60.1548C313.398 66.3628 305.636 132.773 305.636 132.773C305.636 132.773 308.126 134.638 310.765 132.773C313.402 130.908 325.264 118.434 327.102 114.752C328.943 111.072 341.024 45.2088 334.685 37.2328C334.014 36.3878 333.034 35.5858 331.812 34.8258V34.8238C321.503 28.3998 294.083 24.9988 291.522 25.3658C288.659 25.7728 274.55 38.0698 273.731 40.1148C272.915 42.1588 273.731 48.7038 273.731 48.7038C273.731 48.7038 307.473 56.8828 309.517 60.1548Z" fill="url(#paint29_linear_76_702)"/>
<path d="M133.499 28.3108C133.499 28.3108 150.413 33.6158 152.155 33.4798C153.897 33.3468 158.716 26.3098 160.907 25.6408C163.099 24.9718 176.236 28.6688 178.244 27.9978C180.254 27.3288 193.63 13.6748 193.63 13.6748C193.63 13.6748 194.344 8.59576 191.939 6.44476C191.562 6.10376 191.11 5.83776 190.566 5.67476C186.546 4.46876 159.482 -1.69424 155.061 0.448758C150.639 2.59376 133.893 18.6708 132.955 20.5468C132.846 20.7648 132.769 21.0348 132.719 21.3448C132.338 23.7078 133.499 28.3108 133.499 28.3108Z" fill="url(#paint30_linear_76_702)"/>
<path d="M167.333 47.8337C167.5 48.6037 168.807 52.7897 170.775 58.8487C175.989 74.9037 185.832 104.103 191.348 117.726C192.263 119.99 193.06 121.825 193.697 123.097C194.272 124.244 194.715 124.934 194.997 125.071C195.425 125.277 195.888 125.557 196.374 125.892C199.519 128.051 203.53 132.396 203.53 132.396C203.53 132.396 227.906 97.1868 242.416 83.8378C256.804 70.5998 281.087 56.0297 282.244 55.7887C281.343 55.8527 255.574 57.6877 249.38 58.6877C241.88 59.8997 259.618 35.1807 259.824 34.8947C259.822 34.8967 259.82 34.8987 259.816 34.9007C259.522 35.1447 252.608 40.8448 246.551 44.4518C244.184 45.8628 241.946 46.9537 240.287 47.2747C239.892 47.3517 238.874 47.4357 238.874 47.4357C232.995 47.7727 219.234 45.4717 210.274 42.4937C207.629 41.6167 205.401 40.6768 203.917 39.7298C197.026 35.3268 203.774 21.2618 203.915 20.9688C203.828 21.0398 201.548 22.9747 198.139 25.6747C195.246 27.9667 191.536 30.8137 187.667 33.5397C181.447 37.9227 173.054 41.6867 169.281 44.7477C167.893 45.8717 167.131 46.9017 167.333 47.8337Z" fill="url(#paint31_linear_76_702)"/>
<path opacity="0.4" d="M191.348 117.726C192.263 119.99 193.06 121.825 193.697 123.097C194.272 124.244 194.715 124.934 194.997 125.071C195.425 125.277 195.888 125.557 196.374 125.892C197.011 124.668 198.114 123.295 199.922 121.819C211.463 112.401 233.218 87.8176 237.97 72.9016C240.113 66.1736 234.165 57.5605 234.165 57.5605L199.904 91.0965L191.348 117.726Z" fill="url(#paint32_linear_76_702)"/>
<path opacity="0.4" d="M167.333 47.8335C167.5 48.6035 168.807 52.7895 170.775 58.8485C172.362 56.0495 174.285 51.4675 172.809 47.5035C171.827 44.8665 170.494 44.3885 169.281 44.7475C167.893 45.8715 167.131 46.9015 167.333 47.8335Z" fill="url(#paint33_linear_76_702)"/>
<path opacity="0.4" d="M196.892 40.1018C198.225 44.1948 210.29 42.9248 210.29 42.9248L210.274 42.4938C207.629 41.6168 205.401 40.6769 203.917 39.7299C196.953 35.2799 203.917 20.9648 203.917 20.9648C203.917 20.9648 201.614 22.9228 198.139 25.6748C199.099 25.2128 199.764 24.9958 199.849 25.2168C200.201 26.1328 195.558 36.0108 196.892 40.1018Z" fill="url(#paint34_linear_76_702)"/>
<path opacity="0.4" d="M240.287 47.2728C240.287 47.2688 240.285 47.2648 240.287 47.2588C240.271 47.2708 240.271 47.2768 240.287 47.2728Z" fill="url(#paint35_linear_76_702)"/>
<path opacity="0.4" d="M193.697 123.097C194.272 124.244 194.715 124.934 194.997 125.071C198.189 126.609 203.53 132.396 203.53 132.396C203.53 132.396 227.906 97.1865 242.416 83.8375C256.804 70.5995 281.087 56.0295 282.244 55.7885C281.343 55.8525 255.574 57.6875 249.38 58.6875C241.88 59.8995 259.618 35.1805 259.824 34.8945C259.822 34.8965 259.82 34.8985 259.816 34.9005C259.522 35.1445 252.608 40.8445 246.551 44.4515C248.329 43.8125 249.827 43.4775 249.964 44.0705C250.323 45.6275 241.687 58.8065 243.288 59.9075C244.891 61.0085 273.737 56.4195 273.368 58.0065C272.999 59.5915 256.771 68.6845 247.694 72.8235C238.617 76.9605 233.544 90.7115 227.403 99.0425C221.262 107.374 204.709 127.268 204.709 127.268C204.709 127.268 203.29 124.631 202.088 123.286C200.525 121.538 196.166 120.481 195.765 120.481L193.697 123.097Z" fill="url(#paint36_linear_76_702)"/>
<path d="M194.997 125.071C194.991 125.678 235.067 86.8237 236.686 71.6457C238.305 56.4677 228.793 43.1107 221.913 40.2777C215.032 37.4447 189.164 35.2007 174.401 42.6827C170.084 44.8707 166.29 48.4407 163.001 52.7197C154.045 64.3637 148.821 81.2527 146.958 89.7757C144.415 101.433 194.997 125.071 194.997 125.071Z" fill="url(#paint37_linear_76_702)"/>
<path opacity="0.8" d="M194.997 125.071C194.997 125.071 194.997 106.708 186.186 89.7977C181.532 80.8647 173.337 75.1197 173.337 75.1197L167.301 66.1337C167.301 66.1337 170.821 62.7427 169.962 61.7597C168.343 59.9077 165.274 57.9557 164.094 56.8527C163.241 56.0547 162.742 54.2517 163.003 52.7197C154.047 64.3637 148.823 81.2527 146.96 89.7757C144.415 101.433 194.997 125.071 194.997 125.071Z" fill="url(#paint38_linear_76_702)"/>
<path d="M194.997 125.071C194.997 125.071 194.997 106.708 186.186 89.7977C181.532 80.8647 173.337 75.1197 173.337 75.1197L167.301 66.1337C167.301 66.1337 170.821 62.7427 169.962 61.7597C168.343 59.9077 165.274 57.9557 164.094 56.8527C163.241 56.0547 162.742 54.2517 163.003 52.7197C154.047 64.3637 148.823 81.2527 146.96 89.7757C144.415 101.433 194.997 125.071 194.997 125.071Z" fill="url(#paint39_linear_76_702)"/>
<path d="M96.9148 120.502C96.9128 120.506 96.9108 120.506 96.9108 120.508C96.8428 120.597 96.7538 120.683 96.6408 120.77C96.6328 120.776 96.6308 120.778 96.6308 120.778C95.5538 121.601 93.9858 124.05 92.4568 126.798C89.9688 131.27 87.5838 136.53 87.5838 136.831C87.5838 137.315 98.3948 135.647 109.071 140.061C110.509 140.656 111.337 142.38 111.785 144.569C111.785 144.573 111.787 144.577 111.789 144.583C112.96 150.339 111.495 159.285 111.495 159.285C111.495 159.285 120.542 145.877 129.752 151.531C138.96 157.186 152.692 163.163 168.082 159.124C183.472 155.086 199.057 139.738 198.251 136.184C197.777 134.097 194.644 132.093 192.14 130.797H192.138C191.465 130.446 190.836 130.15 190.317 129.914C189.48 129.535 188.928 129.321 188.928 129.321L182.625 125.301L172.078 118.573L160.84 75.581L158.185 65.423C158.185 65.423 162.062 50.56 160.447 49.43C158.832 48.299 124.258 75.278 111.818 88.688C111.395 89.144 110.989 89.589 110.604 90.025C99.6418 102.368 103.17 106.205 96.1478 108.235C92.8638 109.185 89.7768 111.189 87.3798 113.098C84.4708 115.419 82.5768 117.604 82.5768 117.604C89.0638 116.215 98.4648 118.496 96.9148 120.502Z" fill="url(#paint40_linear_76_702)"/>
<path opacity="0.4" d="M125.801 126.798C134.551 132.919 149.15 140.596 169.123 138.462C182.69 137.012 188.372 132.264 190.315 129.913C189.478 129.534 188.926 129.32 188.926 129.32L182.623 125.3C164.896 118.409 125.256 103.592 118.756 106.271C110.335 109.743 117.051 120.677 125.801 126.798Z" fill="url(#paint41_linear_76_702)"/>
<path opacity="0.2" d="M118.756 104.923L156.548 83.644L160.838 75.581L158.183 65.423C158.183 65.423 162.06 50.56 160.445 49.43C158.83 48.299 124.256 75.278 111.816 88.688C111.393 89.144 110.987 89.589 110.602 90.025C114.407 88.886 118.191 88.104 119.675 88.894C123.095 90.716 117.891 103.477 118.756 104.923Z" fill="url(#paint42_linear_76_702)"/>
<path d="M116.275 113.536C116.882 116.572 123.763 126.597 140.356 133.726C156.951 140.855 180.831 139.44 188.926 129.321C188.926 129.321 190.144 124.145 189.706 116.867C189.706 116.867 189.706 116.867 189.706 116.865C189.706 116.861 189.704 116.853 189.704 116.845C189.343 110.859 187.861 103.451 183.664 96.3337C182.444 94.2647 181.142 92.3177 179.801 90.4927C179.801 90.4907 179.801 90.4907 179.801 90.4907C170.922 78.3997 160.343 71.7747 160.343 71.7747C160.343 71.7747 165.373 67.3957 163.186 64.5627C161.029 61.7687 156.668 59.9577 156.549 59.9097C156.547 59.9077 156.547 59.9077 156.547 59.9077C151.488 60.1117 134.286 67.8017 125.179 86.6207C116.073 105.441 115.668 110.499 116.275 113.536Z" fill="url(#paint43_linear_76_702)"/>
<path opacity="0.4" d="M2.46572 145.62C3.33872 146.846 41.1727 158.352 45.0097 158.352C46.9577 158.352 61.8247 146.408 62.6477 143.698C63.6497 140.401 62.5917 138.768 60.5127 137.682C56.4477 141.557 48.6087 148.763 45.7317 149.513C42.4227 150.378 12.0167 140.521 2.18972 137.285C2.12272 137.575 2.06472 137.896 2.01672 138.235C1.63672 140.857 1.78572 144.664 2.46572 145.62Z" fill="url(#paint44_linear_76_702)"/>
<path opacity="0.4" d="M140.665 256.549C142.57 257.979 164.958 267.505 174.247 267.983C175.354 268.039 176.622 267.945 178.009 267.707C178.2 267.675 178.394 267.638 178.59 267.602C178.786 267.564 178.983 267.523 179.183 267.479C179.282 267.457 179.383 267.435 179.484 267.412C179.724 267.358 179.966 267.299 180.212 267.237C180.353 267.203 180.494 267.164 180.637 267.126C180.78 267.088 180.923 267.049 181.066 267.009C181.211 266.967 181.356 266.926 181.502 266.882C181.772 266.803 182.042 266.721 182.316 266.632C182.36 266.618 182.403 266.604 182.447 266.59C182.572 266.55 182.697 266.509 182.822 266.467C182.878 266.449 182.935 266.429 182.991 266.411C183.183 266.345 183.376 266.278 183.57 266.209C184.038 266.044 184.509 265.866 184.985 265.679C185.183 265.602 185.38 265.522 185.578 265.441C185.78 265.36 185.979 265.276 186.181 265.189C186.302 265.139 186.423 265.086 186.544 265.034C186.78 264.931 187.018 264.826 187.256 264.717C187.421 264.642 187.589 264.568 187.754 264.489C187.988 264.38 188.224 264.269 188.458 264.156C190 263.41 191.565 262.565 193.117 261.624C200.448 257.186 207.545 250.644 211.116 242.684C213.1 238.258 214.461 231.246 215.213 223.575C216.745 207.962 215.761 189.62 212.408 184.821C212.497 185.073 215.432 190.735 208.813 196.961C202.655 202.753 191.949 199.294 191.623 199.112C191.619 199.11 191.617 199.108 191.617 199.108C180.427 194.112 153.45 185.757 153.45 185.757C153.081 186.154 152.803 186.58 152.595 187.017C151.288 189.791 152.867 193.126 152.942 193.574C153.18 195.003 186.01 201.453 188.163 210.103C189.982 217.408 188.143 246.389 183.846 255.46C181.955 259.456 175.803 259.4 172.329 259.178C159.103 258.325 140.156 251.968 140.156 251.968C140.156 251.968 138.759 255.122 140.665 256.549Z" fill="url(#paint45_linear_76_702)"/>
<path opacity="0.4" d="M140.665 256.549C142.57 257.979 164.958 267.505 174.247 267.983C175.354 268.039 176.622 267.945 178.009 267.707C178.2 267.675 178.394 267.638 178.59 267.602C178.786 267.564 178.983 267.523 179.183 267.479C179.282 267.457 179.383 267.435 179.484 267.412C179.724 267.358 179.966 267.299 180.212 267.237C180.353 267.203 180.494 267.164 180.637 267.126C180.78 267.088 180.923 267.049 181.066 267.009C181.211 266.967 181.356 266.926 181.502 266.882C181.772 266.803 182.042 266.721 182.316 266.632C182.36 266.618 182.403 266.604 182.447 266.59C182.572 266.55 182.697 266.509 182.822 266.467C182.878 266.449 182.935 266.429 182.991 266.411C183.183 266.345 183.376 266.278 183.57 266.209C192.603 257.299 193.264 248.513 195.048 227.407C196.832 206.299 196.555 202.292 187.467 198.571C179.802 195.433 160.012 188.534 152.595 187.016C151.288 189.79 152.867 193.125 152.942 193.573C153.18 195.002 186.01 201.452 188.163 210.102C189.982 217.407 188.143 246.388 183.846 255.459C181.955 259.455 176.407 261.28 172.933 261.058C159.707 260.205 140.156 251.966 140.156 251.966C140.156 251.966 138.759 255.122 140.665 256.549Z" fill="url(#paint46_linear_76_702)"/>
<path opacity="0.4" d="M2.46571 145.62C3.33871 146.846 41.1727 158.352 45.0097 158.352C45.0097 158.352 46.0477 153.051 44.5617 151.731C43.6317 150.904 12.1857 141.321 2.0157 138.234C1.6367 140.857 1.78571 144.664 2.46571 145.62Z" fill="url(#paint47_linear_76_702)"/>
<path opacity="0.8" d="M318.309 79.8008C318.749 79.5648 323.892 53.0678 321.346 50.9198C316.364 46.7178 289.777 44.0698 289.777 44.0698C289.777 44.0698 315.607 49.4958 317.541 53.3648C319.476 57.2328 318.309 79.8008 318.309 79.8008Z" fill="url(#paint48_linear_76_702)"/>
<path opacity="0.4" d="M309.517 60.1547C313.398 66.3627 305.636 132.773 305.636 132.773C305.636 132.773 308.126 134.638 310.765 132.773C310.844 132.717 310.93 132.652 311.025 132.577C311.749 132.01 312.926 130.922 314.324 129.539C318.863 125.051 325.738 117.484 327.103 114.752C328.087 112.786 331.994 93.0597 334.452 73.8997C336.595 57.2077 337.638 40.9467 334.686 37.2327C334.015 36.3877 333.035 35.5857 331.813 34.8257C335.773 42.1987 323.125 52.9917 313.504 50.0177C303.883 47.0437 273.732 40.1137 273.732 40.1137C273.595 40.4567 273.504 40.9287 273.446 41.4747C273.168 44.1747 273.732 48.7027 273.732 48.7027C273.732 48.7027 307.473 56.8827 309.517 60.1547Z" fill="url(#paint49_linear_76_702)"/>
<path opacity="0.4" d="M309.517 60.1546C313.398 66.3626 305.636 132.773 305.636 132.773C305.636 132.773 308.126 134.638 310.765 132.773C310.844 132.717 310.93 132.652 311.025 132.577C314.96 115.763 317.728 75.8226 317.531 67.5576C317.35 59.9466 318.578 53.5366 312.463 51.8106C307.306 50.3546 281.776 43.5626 273.445 41.4736C273.167 44.1736 273.731 48.7016 273.731 48.7016C273.731 48.7016 307.473 56.8826 309.517 60.1546Z" fill="url(#paint50_linear_76_702)"/>
<path opacity="0.4" d="M133.499 28.3108C133.499 28.3108 150.413 33.6158 152.155 33.4798C153.897 33.3468 158.716 26.3098 160.907 25.6408C163.016 24.9978 175.25 28.3928 177.966 28.0558C178.075 28.0418 178.168 28.0238 178.244 27.9978C180.254 27.3288 193.63 13.6748 193.63 13.6748C193.63 13.6748 194.344 8.59582 191.939 6.44482C192.001 7.05182 191.884 7.76182 191.435 8.55582C189.85 11.3478 178.886 21.1208 177.39 21.7198C175.892 22.3188 161.224 18.6738 160.027 18.9738C158.829 19.2718 152.051 26.0248 150.853 26.1248C149.905 26.2038 137.728 22.7718 132.719 21.3448C132.683 21.5628 132.663 21.7988 132.65 22.0488C132.541 24.5158 133.499 28.3108 133.499 28.3108Z" fill="url(#paint51_linear_76_702)"/>
<path opacity="0.4" d="M160.907 25.6409C163.016 24.9979 175.25 28.3929 177.966 28.0559C177.895 26.5219 177.657 23.1649 176.915 22.6889C176.227 22.2469 160.127 19.0629 160.195 19.6989C160.33 20.9639 160.907 25.6409 160.907 25.6409Z" fill="url(#paint52_linear_76_702)"/>
<path opacity="0.4" d="M133.499 28.3109C133.499 28.3109 150.413 33.6159 152.155 33.4799C152.155 33.4799 151.697 27.8449 150.627 27.0419C149.667 26.3219 136.647 22.9169 132.651 22.0479C132.541 24.5159 133.499 28.3109 133.499 28.3109Z" fill="url(#paint53_linear_76_702)"/>
<path opacity="0.4" d="M47.1626 132.545C46.4386 132.12 46.0096 131.688 46.0036 131.236C45.9696 128.242 55.2966 123.82 55.4896 121.822C55.5806 120.884 55.8386 118.312 54.1686 117.183C54.2476 117.617 54.1546 118.1 53.7276 118.602C52.2816 120.306 43.0376 125.987 42.1586 127.538C41.3196 129.02 43.4726 130.861 47.1626 132.545Z" fill="url(#paint54_linear_76_702)"/>
<path opacity="0.4" d="M111.494 159.286C111.494 159.286 120.541 145.878 129.751 151.532C138.959 157.187 152.691 163.164 168.081 159.125C183.471 155.087 199.056 139.739 198.25 136.185C197.776 134.098 194.643 132.094 192.139 130.798H192.137C192.137 130.798 196.311 133.49 194.46 136.939C192.609 140.389 176.478 155.93 159.158 154.211C141.837 152.491 134.703 145.675 125.199 144.069C120.659 143.302 114.717 151.539 113.904 151.688C113.054 151.844 111.914 144.956 111.789 144.585C112.96 150.34 111.494 159.286 111.494 159.286Z" fill="url(#paint55_linear_76_702)"/>
<path opacity="0.4" d="M87.584 136.831C87.584 137.315 98.395 135.647 109.071 140.061C110.509 140.656 111.337 142.38 111.785 144.569C111.785 144.573 111.787 144.577 111.789 144.583C111.789 144.583 112.312 135.626 107.957 133.433C105.843 132.368 93.008 133.256 92.137 130.796C91.806 129.862 92.04 128.334 92.457 126.798C89.969 131.27 87.584 136.531 87.584 136.831Z" fill="url(#paint56_linear_76_702)"/>
<path opacity="0.4" d="M82.5757 117.605C89.0637 116.216 98.4657 118.496 96.9147 120.502C98.9727 118.702 100.096 117.153 98.8967 116.204C97.4487 115.057 87.5217 116.204 86.9727 114.807C86.7957 114.357 87.0067 113.734 87.3777 113.099C84.4687 115.419 82.5757 117.605 82.5757 117.605Z" fill="url(#paint57_linear_76_702)"/>
<path opacity="0.8" d="M159.324 64.8967C159.274 66.5277 160.342 71.7737 160.342 71.7737C160.342 71.7737 165.372 67.3947 163.185 64.5617C161.028 61.7677 156.667 59.9567 156.548 59.9087C156.633 60.0097 159.375 63.2937 159.324 64.8967Z" fill="url(#paint58_linear_76_702)"/>
<path opacity="0.2" d="M228.591 53.2929C234.178 64.0479 230.905 78.6929 221.827 84.6809C212.75 90.6699 195.016 82.9999 199.433 62.9849C203.85 42.9699 221.471 39.5879 228.591 53.2929Z" fill="url(#paint59_linear_76_702)"/>
<path opacity="0.2" d="M141.178 83.6446C146.99 87.8046 158.087 109.408 165.028 120.779C171.969 132.15 141.89 135.532 128.897 119.335C115.904 103.138 129.609 75.3636 141.178 83.6446Z" fill="url(#paint60_linear_76_702)"/>
<path opacity="0.2" d="M205.983 40.5779C209.883 42.6609 203.724 51.8189 195.553 50.8479C187.058 49.8389 194.384 34.3819 205.983 40.5779Z" fill="url(#paint61_linear_76_702)"/>
<path opacity="0.2" d="M182.804 116.8C188.856 121.503 177.82 131.659 174.261 130.407C170.701 129.156 172.541 108.825 182.804 116.8Z" fill="url(#paint62_linear_76_702)"/>
<path opacity="0.4" d="M187.507 113.098C190.889 118.815 189.978 137.267 160.893 135.24C131.807 133.213 119.831 118.955 120.401 109.26C120.971 99.5647 129.146 78.8276 135.229 79.4696C141.312 80.1116 143.037 105.648 152.155 110.211C161.273 114.773 183.705 106.671 187.507 113.098Z" fill="url(#paint63_linear_76_702)"/>
<path opacity="0.4" d="M225.507 44.6418C231.951 47.9688 236.877 61.8038 232.504 75.1038C228.131 88.4038 204.545 115.459 199.526 116.8C194.506 118.141 197.129 98.6618 189.802 88.8948C182.475 79.1268 216.061 78.6028 220.434 69.8558C224.807 61.1098 218.685 41.1188 225.507 44.6418Z" fill="url(#paint64_linear_76_702)"/>
<path opacity="0.8" d="M170.319 83.6448C174.916 90.3248 181.099 100.87 178.59 104.922C176.081 108.974 156.859 113.29 151.218 107.425C145.577 101.56 139.948 76.6878 144.841 74.2758C149.733 71.8638 165.593 76.7778 170.319 83.6448Z" fill="url(#paint65_linear_76_702)"/>
<path opacity="0.8" d="M215.038 50.9198C219.372 56.0958 197.399 83.1498 189.801 79.4548C182.203 75.7598 168.101 58.8078 171.812 52.7188C175.524 46.6298 202.786 36.2838 215.038 50.9198Z" fill="url(#paint66_linear_76_702)"/>
<path opacity="0.8" d="M161.07 89.6388C166.976 93.0778 160.651 101.188 156.031 98.3918C151.411 95.5958 151.885 84.2898 161.07 89.6388Z" fill="url(#paint67_linear_76_702)"/>
<path opacity="0.8" d="M203.215 61.0706C206.275 65.0056 196.78 68.8506 193.729 66.2976C190.678 63.7446 195.936 51.7096 203.215 61.0706Z" fill="url(#paint68_linear_76_702)"/>
<path opacity="0.8" d="M170.319 62.3398C170.319 62.3398 169.555 65.3628 169.555 66.5748C169.555 67.7858 173.351 71.9048 173.836 73.1978C174.321 74.4898 179.802 80.9308 179.802 80.9308C179.802 80.9308 174.079 76.9938 172.706 76.1858C171.333 75.3778 169.718 70.9358 168.829 69.6438C167.941 68.3518 167.301 66.1328 167.301 66.1328L170.319 62.3398Z" fill="url(#paint69_linear_76_702)"/>
<path opacity="0.8" d="M185.069 87.8159C185.069 87.8159 187.267 93.5279 187.331 94.4209C187.395 95.3139 189.756 99.0789 190.075 100.036C190.394 100.993 192.846 108.386 192.846 108.386C192.846 108.386 191.925 101.439 191.032 99.6529C190.139 97.8669 189.054 95.5689 188.416 93.9099C187.777 92.2519 186.658 90.2189 185.069 87.8159Z" fill="url(#paint70_linear_76_702)"/>
<path opacity="0.8" d="M179.801 90.4927C179.864 90.6597 183.602 100.687 185.638 102.544C187.662 104.387 189.624 116.186 189.705 116.845C189.344 110.859 187.862 103.451 183.665 96.3337C182.444 94.2647 181.142 92.3167 179.801 90.4927Z" fill="url(#paint71_linear_76_702)"/>
<path opacity="0.8" d="M160.142 69.207C159.823 68.273 159.35 66.562 159.324 64.897C159.305 63.689 157.842 61.626 157.842 61.626C157.842 61.626 158.485 65.174 158.627 67.121C158.768 69.068 159.217 71.819 159.273 72.492C159.329 73.166 169.123 78.686 169.123 78.686C169.123 78.686 164.487 74.297 160.342 71.773C160.342 71.773 163.778 68.57 163.834 66.156C161.948 69.246 160.324 69.738 160.142 69.207Z" fill="url(#paint72_linear_76_702)"/>
<path opacity="0.4" d="M200.972 166.027C200.972 166.027 203.426 154.497 202.857 153.125C202.288 151.753 194.741 146.738 194.741 146.738C194.741 146.738 199.016 151.785 199.629 154.529C200.242 157.274 200.972 166.027 200.972 166.027Z" fill="url(#paint73_linear_76_702)"/>
<path opacity="0.4" d="M155.594 36.1479C155.647 36.2369 159.384 41.937 160.388 43.452C161.393 44.966 160.866 48.7929 160.866 48.7929C160.866 48.7929 163.617 45.2449 163.559 44.4279C163.502 43.6119 155.594 36.1479 155.594 36.1479Z" fill="url(#paint74_linear_76_702)"/>
<path opacity="0.4" d="M205.885 133.709C205.885 133.709 207.301 135.706 205.885 138.176C204.469 140.646 215.226 149.223 216.211 150.348C217.195 151.473 211.36 160.593 211.464 160.264C211.567 159.935 214.379 153.025 213.678 151.546C212.977 150.067 202.713 142.132 202.572 140.369C202.43 138.607 206.106 136.053 205.885 133.709Z" fill="url(#paint75_linear_76_702)"/>
<path opacity="0.4" d="M203.939 176.048C204.387 175.899 206.558 170.03 208.397 164.199C207.679 164.328 207.032 164.104 206.647 163.221C205.478 160.539 204.405 154.259 204.244 153.293C204.46 155.64 200.099 176.641 199.913 177.754C199.723 178.891 203.086 176.332 203.939 176.048Z" fill="url(#paint76_linear_76_702)"/>
<path opacity="0.8" d="M187.521 136.372C189.282 141.302 171.103 150.778 160.142 150.377C147.506 149.915 131.962 141.758 127.653 140.989C123.344 140.219 116.531 144.529 116.09 142.836C115.649 141.143 115.187 127.635 124.883 129.772C134.579 131.909 146.506 139.038 155.664 140.232C174.44 142.682 186.752 134.218 187.521 136.372Z" fill="url(#paint77_linear_76_702)"/>
<path opacity="0.8" d="M118.727 125.077C118.34 121.77 110.416 115.921 104.491 118.298C98.566 120.674 94.708 124.919 95.021 126.798C95.334 128.677 119.716 133.525 118.727 125.077Z" fill="url(#paint78_linear_76_702)"/>
<path opacity="0.8" d="M224.773 98.9677C225.182 100.532 208.366 122.632 206.23 123.255C204.094 123.878 201.569 122.363 202.581 120.496C203.592 118.629 224.357 97.3777 224.773 98.9677Z" fill="url(#paint79_linear_76_702)"/>
<path opacity="0.8" d="M268.581 59.9065C269.183 58.0945 243.562 61.9705 241.941 63.3595C240.319 64.7495 238.764 75.6375 240.275 75.3285C241.786 75.0195 267.872 62.0415 268.581 59.9065Z" fill="url(#paint80_linear_76_702)"/>
<path opacity="0.8" d="M248.352 45.3965C249.105 47.2735 240.879 59.5515 239.661 59.9065C238.443 60.2615 233.864 53.7105 234.805 51.8115C235.745 49.9125 247.717 43.8105 248.352 45.3965Z" fill="url(#paint81_linear_76_702)"/>
<path opacity="0.8" d="M164.128 144.583C166.811 145.818 154.787 148.61 151.334 147.817C147.881 147.024 138.439 142.556 138.845 141.337C139.251 140.118 148.153 143.672 151.622 144.079C155.091 144.485 163.462 144.277 164.128 144.583Z" fill="url(#paint82_linear_76_702)"/>
<path opacity="0.8" d="M129.766 137.702C130.719 139.421 125.155 137.886 123.625 136.356C122.096 134.827 128.687 135.756 129.766 137.702Z" fill="url(#paint83_linear_76_702)"/>
<path opacity="0.8" d="M108.563 120.502C110.355 120.041 114.772 125.303 112.797 125.071C110.821 124.838 106.399 121.058 108.563 120.502Z" fill="url(#paint84_linear_76_702)"/>
<path opacity="0.8" d="M215.599 109.038C215.869 110.563 209.581 118.788 207.703 119.14C204.681 119.706 215.282 107.244 215.599 109.038Z" fill="url(#paint85_linear_76_702)"/>
<path opacity="0.8" d="M254.921 65.054C254.753 67.067 244.523 71.841 244.145 70.802C243.767 69.764 244.334 67.838 245.372 67.385C246.411 66.931 255.015 63.921 254.921 65.054Z" fill="url(#paint86_linear_76_702)"/>
<path opacity="0.8" d="M243.668 50.9199C243.903 52.3989 241.62 55.4939 240.719 54.7569C239.819 54.0199 243.423 49.3769 243.668 50.9199Z" fill="url(#paint87_linear_76_702)"/>
<path opacity="0.8" d="M330.6 38.2898C332.767 39.6288 320.806 49.4368 316.1 49.2288C311.394 49.0208 277.561 40.0918 277.561 37.6118C277.561 35.1308 325.947 35.4138 330.6 38.2898Z" fill="url(#paint88_linear_76_702)"/>
<path opacity="0.8" d="M210.205 183.961C212.794 186.04 208.382 197.098 202.089 198.583C195.795 200.068 169.423 190.948 165.882 188.254C162.34 185.56 202.094 177.45 210.205 183.961Z" fill="url(#paint89_linear_76_702)"/>
<path opacity="0.8" d="M56.1278 136.894C57.6008 138.107 48.7678 147.944 45.3628 147.817C41.9578 147.69 9.18384 139.121 8.79884 137.284C8.41284 135.448 22.4868 126.579 25.3788 126.001C28.2698 125.423 54.4888 135.545 56.1278 136.894Z" fill="url(#paint90_linear_76_702)"/>
<path opacity="0.8" d="M185.052 11.8479C186.069 13.0349 178.619 20.2589 176.346 19.9639C174.073 19.6679 160.101 17.3399 158.936 17.5509C157.772 17.7629 151.844 23.8989 150.362 23.8479C148.88 23.7959 136.178 22.3769 136.602 19.9639C137.025 17.5509 152.253 7.08791 155.595 6.44491C158.937 5.80191 183.146 9.62591 185.052 11.8479Z" fill="url(#paint91_linear_76_702)"/>
<path opacity="0.8" d="M197.906 198.746C202.567 207.391 194.069 243.725 194.069 243.725C194.069 243.725 198.96 208.547 194.741 202.834C190.521 197.121 163.659 189.016 163.659 189.016C163.659 189.016 194.177 191.828 197.906 198.746Z" fill="url(#paint92_linear_76_702)"/>
<path opacity="0.8" d="M54.8291 142.912C54.4621 143.234 48.1761 147.722 44.1771 147.171C38.8701 146.441 17.2591 141.754 17.2591 141.754C17.2591 141.754 40.8351 150.498 44.8431 150.504C47.9381 150.51 54.8291 142.912 54.8291 142.912Z" fill="url(#paint93_linear_76_702)"/>
<path opacity="0.8" d="M183.943 16.3577C183.585 16.2147 178.307 20.2537 176.346 19.9627C174.384 19.6727 160.926 17.1787 158.936 17.5497C156.947 17.9217 150.852 26.1237 150.852 26.1237C150.852 26.1237 158.779 18.9417 160.026 18.9727C161.273 19.0037 174.25 22.2447 176.812 22.0477C179.373 21.8507 183.943 16.3577 183.943 16.3577Z" fill="url(#paint94_linear_76_702)"/>
<path opacity="0.4" d="M148.487 210.147C147.294 208.865 103.923 189.167 95.0208 187.351C86.1178 185.535 37.9848 173.792 37.9848 173.792L148.487 210.147Z" fill="url(#paint95_linear_76_702)"/>
<path opacity="0.4" d="M88.7026 207.273C88.7026 207.273 88.4186 207.206 87.8916 207.083C88.3876 207.229 88.6666 207.293 88.7026 207.273Z" fill="url(#paint96_linear_76_702)"/>
<path opacity="0.4" d="M9.40787 179.847L9.47787 181.036C16.9259 184.579 26.9439 189.339 32.5409 191.97C41.4489 196.16 81.6129 205.618 87.8799 207.081C80.8379 205.019 30.6099 187.333 9.40787 179.847Z" fill="url(#paint97_linear_76_702)"/>
<path opacity="0.4" d="M314.324 129.538C318.863 125.05 325.738 117.483 327.103 114.751C328.087 112.785 331.994 93.0588 334.452 73.8988C333.22 66.9108 331.666 61.5578 329.827 61.9348C325.839 62.7518 317.518 110.362 314.324 129.538Z" fill="url(#paint98_linear_76_702)"/>
<path opacity="0.4" d="M193.116 261.624C200.447 257.186 207.544 250.644 211.115 242.684C213.099 238.258 214.46 231.246 215.212 223.575C214.422 214.756 213.143 207.709 211.115 207.278C207.116 206.424 197.862 242.115 193.116 261.624Z" fill="url(#paint99_linear_76_702)"/>
<path opacity="0.3" d="M295.455 65.8415C297.031 71.7655 223.822 153.302 220.964 150.39C218.106 147.478 215.947 125.454 228.649 108.862C241.352 92.2685 293.66 59.0945 295.455 65.8415Z" fill="url(#paint100_linear_76_702)"/>
<path opacity="0.3" d="M132.642 34.791C136.933 34.465 125.412 67.586 118.756 75.336C112.1 83.085 61.8268 109.46 58.1818 104.923C54.5368 100.385 128.616 35.097 132.642 34.791Z" fill="url(#paint101_linear_76_702)"/>
<path opacity="0.3" d="M151.772 181.49C151.614 179.245 129.913 155.979 126.011 156.383C122.11 156.788 108.689 163.03 108.689 163.03C108.689 163.03 112.463 146.299 104.49 144.521C96.5167 142.743 58.8588 150.987 58.1818 151.547C57.5048 152.106 151.94 183.877 151.772 181.49Z" fill="url(#paint102_linear_76_702)"/>
<path opacity="0.8" d="M131.761 102.05C131.633 101.621 142.306 98.0499 155.754 94.0159C151.87 80.9279 149.119 70.4689 149.54 70.3439C149.961 70.2179 153.4 80.4709 157.336 93.5429C170.792 89.5349 181.674 86.6639 181.803 87.0929C181.931 87.5219 171.259 91.0929 157.812 95.1269V95.1279C161.942 108.947 164.936 120.255 164.498 120.386C164.06 120.517 160.357 109.421 156.227 95.6019C142.771 99.6079 131.89 102.48 131.761 102.05Z" fill="url(#paint103_radial_76_702)"/>
<path opacity="0.8" d="M183.601 60.7427C183.622 60.4317 191.437 60.7136 201.171 61.3706C201.838 51.9086 202.601 44.4327 202.905 44.4537C203.21 44.4747 202.945 51.9847 202.315 61.4487C212.047 62.1257 219.827 62.9127 219.806 63.2227C219.785 63.5327 211.971 63.2516 202.238 62.5946C201.553 72.5926 200.741 80.6797 200.424 80.6577C200.107 80.6357 200.406 72.5137 201.091 62.5157C191.359 61.8407 183.579 61.0537 183.601 60.7427Z" fill="url(#paint104_radial_76_702)"/>
<defs>
<linearGradient id="paint0_linear_76_702" x1="6.59624" y1="185.417" x2="25.323" y2="218.63" gradientUnits="userSpaceOnUse">
<stop offset="1e-08" stop-color="#EAC542"/>
<stop offset="0.2205" stop-color="#EABC43"/>
<stop offset="0.5869" stop-color="#E9A247"/>
<stop offset="1" stop-color="#E77E4D"/>
</linearGradient>
<linearGradient id="paint1_linear_76_702" x1="18.2799" y1="209.311" x2="15.9959" y2="224.231" gradientUnits="userSpaceOnUse">
<stop offset="1e-08" stop-color="#8727E2"/>
<stop offset="0.1849" stop-color="#892AE2"/>
<stop offset="0.3249" stop-color="#8E34E4"/>
<stop offset="0.4501" stop-color="#9744E6"/>
<stop offset="0.5667" stop-color="#A45BE9"/>
<stop offset="0.6773" stop-color="#B479ED"/>
<stop offset="0.7834" stop-color="#C99DF2"/>
<stop offset="0.886" stop-color="#E1C8F8"/>
<stop offset="0.9833" stop-color="#FCF9FE"/>
<stop offset="0.9944" stop-color="white"/>
</linearGradient>
<linearGradient id="paint2_linear_76_702" x1="55.4068" y1="150.988" x2="126.036" y2="276.255" gradientUnits="userSpaceOnUse">
<stop offset="1e-08" stop-color="#2749A1"/>
<stop offset="0.2705" stop-color="#2F40A0"/>
<stop offset="0.7187" stop-color="#46269D"/>
<stop offset="1" stop-color="#57139B"/>
</linearGradient>
<linearGradient id="paint3_linear_76_702" x1="98.5657" y1="224.184" x2="71.8916" y2="289.387" gradientUnits="userSpaceOnUse">
<stop offset="1e-08" stop-color="#8727E2"/>
<stop offset="0.3831" stop-color="#8829E2"/>
<stop offset="0.5211" stop-color="#8C30E3"/>
<stop offset="0.6195" stop-color="#923BE5"/>
<stop offset="0.6991" stop-color="#9C4CE7"/>
<stop offset="0.7672" stop-color="#A862EA"/>
<stop offset="0.8275" stop-color="#B77EEE"/>
<stop offset="0.8822" stop-color="#C99EF2"/>
<stop offset="0.9324" stop-color="#DEC4F7"/>
<stop offset="0.977" stop-color="#F5EDFD"/>
<stop offset="0.9944" stop-color="white"/>
</linearGradient>
<linearGradient id="paint4_linear_76_702" x1="92.5278" y1="223.484" x2="90.4691" y2="293.688" gradientUnits="userSpaceOnUse">
<stop offset="1e-08" stop-color="#8727E2"/>
<stop offset="0.3831" stop-color="#8829E2"/>
<stop offset="0.5211" stop-color="#8C30E3"/>
<stop offset="0.6195" stop-color="#923BE5"/>
<stop offset="0.6991" stop-color="#9C4CE7"/>
<stop offset="0.7672" stop-color="#A862EA"/>
<stop offset="0.8275" stop-color="#B77EEE"/>
<stop offset="0.8822" stop-color="#C99EF2"/>
<stop offset="0.9324" stop-color="#DEC4F7"/>
<stop offset="0.977" stop-color="#F5EDFD"/>
<stop offset="0.9944" stop-color="white"/>
</linearGradient>
<linearGradient id="paint5_linear_76_702" x1="218.232" y1="228.63" x2="-10.8845" y2="169.406" gradientUnits="userSpaceOnUse">
<stop stop-color="#EBB1FC"/>
<stop offset="0.3098" stop-color="#F2C7EB"/>
<stop offset="0.7402" stop-color="#F9E1D8"/>
<stop offset="1" stop-color="#FCEAD1"/>
</linearGradient>
<linearGradient id="paint6_linear_76_702" x1="129.409" y1="111.294" x2="80.4447" y2="260.799" gradientUnits="userSpaceOnUse">
<stop offset="1e-08" stop-color="#8727E2"/>
<stop offset="0.1849" stop-color="#892AE2"/>
<stop offset="0.3249" stop-color="#8E34E4"/>
<stop offset="0.4501" stop-color="#9744E6"/>
<stop offset="0.5667" stop-color="#A45BE9"/>
<stop offset="0.6773" stop-color="#B479ED"/>
<stop offset="0.7834" stop-color="#C99DF2"/>
<stop offset="0.886" stop-color="#E1C8F8"/>
<stop offset="0.9833" stop-color="#FCF9FE"/>
<stop offset="0.9944" stop-color="white"/>
</linearGradient>
<linearGradient id="paint7_linear_76_702" x1="100.909" y1="207.534" x2="88.6617" y2="287.534" gradientUnits="userSpaceOnUse">
<stop offset="1e-08" stop-color="#8727E2"/>
<stop offset="0.1849" stop-color="#892AE2"/>
<stop offset="0.3249" stop-color="#8E34E4"/>
<stop offset="0.4501" stop-color="#9744E6"/>
<stop offset="0.5667" stop-color="#A45BE9"/>
<stop offset="0.6773" stop-color="#B479ED"/>
<stop offset="0.7834" stop-color="#C99DF2"/>
<stop offset="0.886" stop-color="#E1C8F8"/>
<stop offset="0.9833" stop-color="#FCF9FE"/>
<stop offset="0.9944" stop-color="white"/>
</linearGradient>
<linearGradient id="paint8_linear_76_702" x1="119.572" y1="7.26168" x2="234.385" y2="210.893" gradientUnits="userSpaceOnUse">
<stop offset="1e-08" stop-color="#2749A1"/>
<stop offset="0.2705" stop-color="#2F40A0"/>
<stop offset="0.7187" stop-color="#46269D"/>
<stop offset="1" stop-color="#57139B"/>
</linearGradient>
<linearGradient id="paint9_linear_76_702" x1="120.654" y1="52.0026" x2="125.534" y2="60.6586" gradientUnits="userSpaceOnUse">
<stop offset="1e-08" stop-color="#2749A1"/>
<stop offset="0.2705" stop-color="#2F40A0"/>
<stop offset="0.7187" stop-color="#46269D"/>
<stop offset="1" stop-color="#57139B"/>
</linearGradient>
<linearGradient id="paint10_linear_76_702" x1="219.244" y1="5.90533" x2="237.108" y2="37.5891" gradientUnits="userSpaceOnUse">
<stop offset="1e-08" stop-color="#2749A1"/>
<stop offset="0.2705" stop-color="#2F40A0"/>
<stop offset="0.7187" stop-color="#46269D"/>
<stop offset="1" stop-color="#57139B"/>
</linearGradient>
<linearGradient id="paint11_linear_76_702" x1="241.017" y1="95.2924" x2="276.43" y2="158.1" gradientUnits="userSpaceOnUse">
<stop offset="1e-08" stop-color="#2749A1"/>
<stop offset="0.2705" stop-color="#2F40A0"/>
<stop offset="0.7187" stop-color="#46269D"/>
<stop offset="1" stop-color="#57139B"/>
</linearGradient>
<linearGradient id="paint12_linear_76_702" x1="83.9894" y1="146.936" x2="104.296" y2="182.951" gradientUnits="userSpaceOnUse">
<stop offset="1e-08" stop-color="#2749A1"/>
<stop offset="0.2705" stop-color="#2F40A0"/>
<stop offset="0.7187" stop-color="#46269D"/>
<stop offset="1" stop-color="#57139B"/>
</linearGradient>
<linearGradient id="paint13_linear_76_702" x1="90.7308" y1="62.6639" x2="94.5603" y2="69.4559" gradientUnits="userSpaceOnUse">
<stop offset="1e-08" stop-color="#2749A1"/>
<stop offset="0.2705" stop-color="#2F40A0"/>
<stop offset="0.7187" stop-color="#46269D"/>
<stop offset="1" stop-color="#57139B"/>
</linearGradient>
<linearGradient id="paint14_linear_76_702" x1="55.8361" y1="107.32" x2="59.6427" y2="114.071" gradientUnits="userSpaceOnUse">
<stop offset="1e-08" stop-color="#2749A1"/>
<stop offset="0.2705" stop-color="#2F40A0"/>
<stop offset="0.7187" stop-color="#46269D"/>
<stop offset="1" stop-color="#57139B"/>
</linearGradient>
<linearGradient id="paint15_linear_76_702" x1="54.3717" y1="119.875" x2="69.1203" y2="146.033" gradientUnits="userSpaceOnUse">
<stop offset="1e-08" stop-color="#2749A1"/>
<stop offset="0.2705" stop-color="#2F40A0"/>
<stop offset="0.7187" stop-color="#46269D"/>
<stop offset="1" stop-color="#57139B"/>
</linearGradient>
<linearGradient id="paint16_linear_76_702" x1="263.456" y1="127.436" x2="257.01" y2="347.239" gradientUnits="userSpaceOnUse">
<stop offset="1e-08" stop-color="#8727E2"/>
<stop offset="0.1849" stop-color="#892AE2"/>
<stop offset="0.3249" stop-color="#8E34E4"/>
<stop offset="0.4501" stop-color="#9744E6"/>
<stop offset="0.5667" stop-color="#A45BE9"/>
<stop offset="0.6773" stop-color="#B479ED"/>
<stop offset="0.7834" stop-color="#C99DF2"/>
<stop offset="0.886" stop-color="#E1C8F8"/>
<stop offset="0.9833" stop-color="#FCF9FE"/>
<stop offset="0.9944" stop-color="white"/>
</linearGradient>
<linearGradient id="paint17_linear_76_702" x1="234.68" y1="171.034" x2="242.64" y2="185.153" gradientUnits="userSpaceOnUse">
<stop offset="1e-08" stop-color="#2749A1"/>
<stop offset="0.2705" stop-color="#2F40A0"/>
<stop offset="0.7187" stop-color="#46269D"/>
<stop offset="1" stop-color="#57139B"/>
</linearGradient>
<linearGradient id="paint18_linear_76_702" x1="265.247" y1="131.645" x2="259.154" y2="339.417" gradientUnits="userSpaceOnUse">
<stop offset="1e-08" stop-color="#8727E2"/>
<stop offset="0.1849" stop-color="#892AE2"/>
<stop offset="0.3249" stop-color="#8E34E4"/>
<stop offset="0.4501" stop-color="#9744E6"/>
<stop offset="0.5667" stop-color="#A45BE9"/>
<stop offset="0.6773" stop-color="#B479ED"/>
<stop offset="0.7834" stop-color="#C99DF2"/>
<stop offset="0.886" stop-color="#E1C8F8"/>
<stop offset="0.9833" stop-color="#FCF9FE"/>
<stop offset="0.9944" stop-color="white"/>
</linearGradient>
<linearGradient id="paint19_linear_76_702" x1="258.609" y1="106.144" x2="271.557" y2="253.994" gradientUnits="userSpaceOnUse">
<stop offset="1e-08" stop-color="#8727E2"/>
<stop offset="0.1849" stop-color="#892AE2"/>
<stop offset="0.3249" stop-color="#8E34E4"/>
<stop offset="0.4501" stop-color="#9744E6"/>
<stop offset="0.5667" stop-color="#A45BE9"/>
<stop offset="0.6773" stop-color="#B479ED"/>
<stop offset="0.7834" stop-color="#C99DF2"/>
<stop offset="0.886" stop-color="#E1C8F8"/>
<stop offset="0.9833" stop-color="#FCF9FE"/>
<stop offset="0.9944" stop-color="white"/>
</linearGradient>
<linearGradient id="paint20_linear_76_702" x1="314.468" y1="79.6978" x2="242.922" y2="109.086" gradientUnits="userSpaceOnUse">
<stop offset="1e-08" stop-color="#8727E2"/>
<stop offset="0.1849" stop-color="#892AE2"/>
<stop offset="0.3249" stop-color="#8E34E4"/>
<stop offset="0.4501" stop-color="#9744E6"/>
<stop offset="0.5667" stop-color="#A45BE9"/>
<stop offset="0.6773" stop-color="#B479ED"/>
<stop offset="0.7834" stop-color="#C99DF2"/>
<stop offset="0.886" stop-color="#E1C8F8"/>
<stop offset="0.9833" stop-color="#FCF9FE"/>
<stop offset="0.9944" stop-color="white"/>
</linearGradient>
<linearGradient id="paint21_linear_76_702" x1="97.0081" y1="166.318" x2="95.611" y2="213.961" gradientUnits="userSpaceOnUse">
<stop offset="1e-08" stop-color="#8727E2"/>
<stop offset="0.3831" stop-color="#8829E2"/>
<stop offset="0.5211" stop-color="#8C30E3"/>
<stop offset="0.6195" stop-color="#923BE5"/>
<stop offset="0.6991" stop-color="#9C4CE7"/>
<stop offset="0.7672" stop-color="#A862EA"/>
<stop offset="0.8275" stop-color="#B77EEE"/>
<stop offset="0.8822" stop-color="#C99EF2"/>
<stop offset="0.9324" stop-color="#DEC4F7"/>
<stop offset="0.977" stop-color="#F5EDFD"/>
<stop offset="0.9944" stop-color="white"/>
</linearGradient>
<linearGradient id="paint22_linear_76_702" x1="201.908" y1="149.219" x2="200.285" y2="204.576" gradientUnits="userSpaceOnUse">
<stop offset="1e-08" stop-color="#8727E2"/>
<stop offset="0.1849" stop-color="#892AE2"/>
<stop offset="0.3249" stop-color="#8E34E4"/>
<stop offset="0.4501" stop-color="#9744E6"/>
<stop offset="0.5667" stop-color="#A45BE9"/>
<stop offset="0.6773" stop-color="#B479ED"/>
<stop offset="0.7834" stop-color="#C99DF2"/>
<stop offset="0.886" stop-color="#E1C8F8"/>
<stop offset="0.9833" stop-color="#FCF9FE"/>
<stop offset="0.9944" stop-color="white"/>
</linearGradient>
<linearGradient id="paint23_linear_76_702" x1="165.811" y1="35.2891" x2="165.131" y2="58.4877" gradientUnits="userSpaceOnUse">
<stop offset="1e-08" stop-color="#8727E2"/>
<stop offset="0.1849" stop-color="#892AE2"/>
<stop offset="0.3249" stop-color="#8E34E4"/>
<stop offset="0.4501" stop-color="#9744E6"/>
<stop offset="0.5667" stop-color="#A45BE9"/>
<stop offset="0.6773" stop-color="#B479ED"/>
<stop offset="0.7834" stop-color="#C99DF2"/>
<stop offset="0.886" stop-color="#E1C8F8"/>
<stop offset="0.9833" stop-color="#FCF9FE"/>
<stop offset="0.9944" stop-color="white"/>
</linearGradient>
<linearGradient id="paint24_linear_76_702" x1="139.377" y1="26.7857" x2="212.039" y2="155.658" gradientUnits="userSpaceOnUse">
<stop offset="1e-08" stop-color="#1D3677"/>
<stop offset="0.3385" stop-color="#252D76"/>
<stop offset="0.8995" stop-color="#3B1372"/>
<stop offset="1" stop-color="#400E71"/>
</linearGradient>
<linearGradient id="paint25_linear_76_702" x1="161.86" y1="47.6835" x2="170.458" y2="36.1863" gradientUnits="userSpaceOnUse">
<stop offset="1e-08" stop-color="#8727E2"/>
<stop offset="0.1849" stop-color="#892AE2"/>
<stop offset="0.3249" stop-color="#8E34E4"/>
<stop offset="0.4501" stop-color="#9744E6"/>
<stop offset="0.5667" stop-color="#A45BE9"/>
<stop offset="0.6773" stop-color="#B479ED"/>
<stop offset="0.7834" stop-color="#C99DF2"/>
<stop offset="0.886" stop-color="#E1C8F8"/>
<stop offset="0.9833" stop-color="#FCF9FE"/>
<stop offset="0.9944" stop-color="white"/>
</linearGradient>
<linearGradient id="paint26_linear_76_702" x1="178.424" y1="155.607" x2="209.379" y2="114.212" gradientUnits="userSpaceOnUse">
<stop offset="1e-08" stop-color="#8727E2"/>
<stop offset="0.1849" stop-color="#892AE2"/>
<stop offset="0.3249" stop-color="#8E34E4"/>
<stop offset="0.4501" stop-color="#9744E6"/>
<stop offset="0.5667" stop-color="#A45BE9"/>
<stop offset="0.6773" stop-color="#B479ED"/>
<stop offset="0.7834" stop-color="#C99DF2"/>
<stop offset="0.886" stop-color="#E1C8F8"/>
<stop offset="0.9833" stop-color="#FCF9FE"/>
<stop offset="0.9944" stop-color="white"/>
</linearGradient>
<linearGradient id="paint27_linear_76_702" x1="151.951" y1="177.266" x2="194.054" y2="251.941" gradientUnits="userSpaceOnUse">
<stop offset="1e-08" stop-color="#EAC542"/>
<stop offset="0.2205" stop-color="#EABC43"/>
<stop offset="0.5869" stop-color="#E9A247"/>
<stop offset="1" stop-color="#E77E4D"/>
</linearGradient>
<linearGradient id="paint28_linear_76_702" x1="1.36866" y1="123.976" x2="79.3154" y2="145.643" gradientUnits="userSpaceOnUse">
<stop offset="1e-08" stop-color="#EAC542"/>
<stop offset="0.2205" stop-color="#EABC43"/>
<stop offset="0.5869" stop-color="#E9A247"/>
<stop offset="1" stop-color="#E77E4D"/>
</linearGradient>
<linearGradient id="paint29_linear_76_702" x1="283.718" y1="20.3223" x2="333.698" y2="108.967" gradientUnits="userSpaceOnUse">
<stop offset="1e-08" stop-color="#EAC542"/>
<stop offset="0.2205" stop-color="#EABC43"/>
<stop offset="0.5869" stop-color="#E9A247"/>
<stop offset="1" stop-color="#E77E4D"/>
</linearGradient>
<linearGradient id="paint30_linear_76_702" x1="152.36" y1="-1.21044" x2="169.51" y2="29.2062" gradientUnits="userSpaceOnUse">
<stop offset="1e-08" stop-color="#EAC542"/>
<stop offset="0.2205" stop-color="#EABC43"/>
<stop offset="0.5869" stop-color="#E9A247"/>
<stop offset="1" stop-color="#E77E4D"/>
</linearGradient>
<linearGradient id="paint31_linear_76_702" x1="200.449" y1="22.9217" x2="248.027" y2="107.306" gradientUnits="userSpaceOnUse">
<stop offset="1e-08" stop-color="#EAC542"/>
<stop offset="0.2205" stop-color="#EABC43"/>
<stop offset="0.5869" stop-color="#E9A247"/>
<stop offset="1" stop-color="#E77E4D"/>
</linearGradient>
<linearGradient id="paint32_linear_76_702" x1="202.939" y1="108.637" x2="151.366" y2="190.337" gradientUnits="userSpaceOnUse">
<stop offset="1e-08" stop-color="#8727E2"/>
<stop offset="0.1849" stop-color="#892AE2"/>
<stop offset="0.3249" stop-color="#8E34E4"/>
<stop offset="0.4501" stop-color="#9744E6"/>
<stop offset="0.5667" stop-color="#A45BE9"/>
<stop offset="0.6773" stop-color="#B479ED"/>
<stop offset="0.7834" stop-color="#C99DF2"/>
<stop offset="0.886" stop-color="#E1C8F8"/>
<stop offset="0.9833" stop-color="#FCF9FE"/>
<stop offset="0.9944" stop-color="white"/>
</linearGradient>
<linearGradient id="paint33_linear_76_702" x1="177.07" y1="41.4662" x2="160.581" y2="64.9264" gradientUnits="userSpaceOnUse">
<stop offset="1e-08" stop-color="#8727E2"/>
<stop offset="0.1849" stop-color="#892AE2"/>
<stop offset="0.3249" stop-color="#8E34E4"/>
<stop offset="0.4501" stop-color="#9744E6"/>
<stop offset="0.5667" stop-color="#A45BE9"/>
<stop offset="0.6773" stop-color="#B479ED"/>
<stop offset="0.7834" stop-color="#C99DF2"/>
<stop offset="0.886" stop-color="#E1C8F8"/>
<stop offset="0.9833" stop-color="#FCF9FE"/>
<stop offset="0.9944" stop-color="white"/>
</linearGradient>
<linearGradient id="paint34_linear_76_702" x1="204.198" y1="34.4078" x2="201.196" y2="54.0154" gradientUnits="userSpaceOnUse">
<stop offset="1e-08" stop-color="#8727E2"/>
<stop offset="0.1849" stop-color="#892AE2"/>
<stop offset="0.3249" stop-color="#8E34E4"/>
<stop offset="0.4501" stop-color="#9744E6"/>
<stop offset="0.5667" stop-color="#A45BE9"/>
<stop offset="0.6773" stop-color="#B479ED"/>
<stop offset="0.7834" stop-color="#C99DF2"/>
<stop offset="0.886" stop-color="#E1C8F8"/>
<stop offset="0.9833" stop-color="#FCF9FE"/>
<stop offset="0.9944" stop-color="white"/>
</linearGradient>
<linearGradient id="paint35_linear_76_702" x1="240.281" y1="47.2682" x2="240.279" y2="47.2831" gradientUnits="userSpaceOnUse">
<stop offset="1e-08" stop-color="#8727E2"/>
<stop offset="0.1849" stop-color="#892AE2"/>
<stop offset="0.3249" stop-color="#8E34E4"/>
<stop offset="0.4501" stop-color="#9744E6"/>
<stop offset="0.5667" stop-color="#A45BE9"/>
<stop offset="0.6773" stop-color="#B479ED"/>
<stop offset="0.7834" stop-color="#C99DF2"/>
<stop offset="0.886" stop-color="#E1C8F8"/>
<stop offset="0.9833" stop-color="#FCF9FE"/>
<stop offset="0.9944" stop-color="white"/>
</linearGradient>
<linearGradient id="paint36_linear_76_702" x1="237.034" y1="95.5596" x2="222.663" y2="189.427" gradientUnits="userSpaceOnUse">
<stop offset="1e-08" stop-color="#8727E2"/>
<stop offset="0.1849" stop-color="#892AE2"/>
<stop offset="0.3249" stop-color="#8E34E4"/>
<stop offset="0.4501" stop-color="#9744E6"/>
<stop offset="0.5667" stop-color="#A45BE9"/>
<stop offset="0.6773" stop-color="#B479ED"/>
<stop offset="0.7834" stop-color="#C99DF2"/>
<stop offset="0.886" stop-color="#E1C8F8"/>
<stop offset="0.9833" stop-color="#FCF9FE"/>
<stop offset="0.9944" stop-color="white"/>
</linearGradient>
<linearGradient id="paint37_linear_76_702" x1="173.548" y1="43.1357" x2="213.783" y2="114.495" gradientUnits="userSpaceOnUse">
<stop offset="1e-08" stop-color="#00D9A8"/>
<stop offset="0.2075" stop-color="#03D0AE"/>
<stop offset="0.5525" stop-color="#0CB6BD"/>
<stop offset="0.9901" stop-color="#1A8DD5"/>
<stop offset="1" stop-color="#1A8CD6"/>
</linearGradient>
<linearGradient id="paint38_linear_76_702" x1="172.906" y1="51.3345" x2="168.188" y2="186.33" gradientUnits="userSpaceOnUse">
<stop offset="1e-08" stop-color="#FFF7A9"/>
<stop offset="0.19" stop-color="#FFF8B2"/>
<stop offset="0.5059" stop-color="#FFFACC"/>
<stop offset="0.9064" stop-color="#FFFEF5"/>
<stop offset="0.9944" stop-color="white"/>
</linearGradient>
<linearGradient id="paint39_linear_76_702" x1="170.673" y1="120.878" x2="171.941" y2="56.939" gradientUnits="userSpaceOnUse">
<stop offset="1e-08" stop-color="#00F5FF"/>
<stop offset="0.2782" stop-color="#00B4BC"/>
<stop offset="0.9212" stop-color="#001415"/>
<stop offset="1"/>
</linearGradient>
<linearGradient id="paint40_linear_76_702" x1="113.979" y1="75.287" x2="163.579" y2="163.257" gradientUnits="userSpaceOnUse">
<stop offset="1e-08" stop-color="#EAC542"/>
<stop offset="0.2205" stop-color="#EABC43"/>
<stop offset="0.5869" stop-color="#E9A247"/>
<stop offset="1" stop-color="#E77E4D"/>
</linearGradient>
<linearGradient id="paint41_linear_76_702" x1="145.772" y1="130.74" x2="124.685" y2="164.146" gradientUnits="userSpaceOnUse">
<stop offset="1e-08" stop-color="#8727E2"/>
<stop offset="0.1849" stop-color="#892AE2"/>
<stop offset="0.3249" stop-color="#8E34E4"/>
<stop offset="0.4501" stop-color="#9744E6"/>
<stop offset="0.5667" stop-color="#A45BE9"/>
<stop offset="0.6773" stop-color="#B479ED"/>
<stop offset="0.7834" stop-color="#C99DF2"/>
<stop offset="0.886" stop-color="#E1C8F8"/>
<stop offset="0.9833" stop-color="#FCF9FE"/>
<stop offset="0.9944" stop-color="white"/>
</linearGradient>
<linearGradient id="paint42_linear_76_702" x1="181.865" y1="18.1282" x2="82.6977" y2="159.223" gradientUnits="userSpaceOnUse">
<stop offset="1e-08" stop-color="#8727E2"/>
<stop offset="0.1849" stop-color="#892AE2"/>
<stop offset="0.3249" stop-color="#8E34E4"/>
<stop offset="0.4501" stop-color="#9744E6"/>
<stop offset="0.5667" stop-color="#A45BE9"/>
<stop offset="0.6773" stop-color="#B479ED"/>
<stop offset="0.7834" stop-color="#C99DF2"/>
<stop offset="0.886" stop-color="#E1C8F8"/>
<stop offset="0.9833" stop-color="#FCF9FE"/>
<stop offset="0.9944" stop-color="white"/>
</linearGradient>
<linearGradient id="paint43_linear_76_702" x1="128.322" y1="66.8152" x2="166.687" y2="134.86" gradientUnits="userSpaceOnUse">
<stop offset="1e-08" stop-color="#00D9A8"/>
<stop offset="0.2075" stop-color="#03D0AE"/>
<stop offset="0.5525" stop-color="#0CB6BD"/>
<stop offset="0.9901" stop-color="#1A8DD5"/>
<stop offset="1" stop-color="#1A8CD6"/>
</linearGradient>
<linearGradient id="paint44_linear_76_702" x1="31.4314" y1="147.186" x2="28.3052" y2="167.606" gradientUnits="userSpaceOnUse">
<stop offset="1e-08" stop-color="#8727E2"/>
<stop offset="0.1849" stop-color="#892AE2"/>
<stop offset="0.3249" stop-color="#8E34E4"/>
<stop offset="0.4501" stop-color="#9744E6"/>
<stop offset="0.5667" stop-color="#A45BE9"/>
<stop offset="0.6773" stop-color="#B479ED"/>
<stop offset="0.7834" stop-color="#C99DF2"/>
<stop offset="0.886" stop-color="#E1C8F8"/>
<stop offset="0.9833" stop-color="#FCF9FE"/>
<stop offset="0.9944" stop-color="white"/>
</linearGradient>
<linearGradient id="paint45_linear_76_702" x1="186.392" y1="180.838" x2="173.064" y2="267.901" gradientUnits="userSpaceOnUse">
<stop offset="1e-08" stop-color="#8727E2"/>
<stop offset="0.1849" stop-color="#892AE2"/>
<stop offset="0.3249" stop-color="#8E34E4"/>
<stop offset="0.4501" stop-color="#9744E6"/>
<stop offset="0.5667" stop-color="#A45BE9"/>
<stop offset="0.6773" stop-color="#B479ED"/>
<stop offset="0.7834" stop-color="#C99DF2"/>
<stop offset="0.886" stop-color="#E1C8F8"/>
<stop offset="0.9833" stop-color="#FCF9FE"/>
<stop offset="0.9944" stop-color="white"/>
</linearGradient>
<linearGradient id="paint46_linear_76_702" x1="205.787" y1="242.687" x2="107.479" y2="208.134" gradientUnits="userSpaceOnUse">
<stop offset="1e-08" stop-color="#8727E2"/>
<stop offset="0.1849" stop-color="#892AE2"/>
<stop offset="0.3249" stop-color="#8E34E4"/>
<stop offset="0.4501" stop-color="#9744E6"/>
<stop offset="0.5667" stop-color="#A45BE9"/>
<stop offset="0.6773" stop-color="#B479ED"/>
<stop offset="0.7834" stop-color="#C99DF2"/>
<stop offset="0.886" stop-color="#E1C8F8"/>
<stop offset="0.9833" stop-color="#FCF9FE"/>
<stop offset="0.9944" stop-color="white"/>
</linearGradient>
<linearGradient id="paint47_linear_76_702" x1="53.1937" y1="159.182" x2="-25.8718" y2="131.392" gradientUnits="userSpaceOnUse">
<stop offset="1e-08" stop-color="#8727E2"/>
<stop offset="0.1849" stop-color="#892AE2"/>
<stop offset="0.3249" stop-color="#8E34E4"/>
<stop offset="0.4501" stop-color="#9744E6"/>
<stop offset="0.5667" stop-color="#A45BE9"/>
<stop offset="0.6773" stop-color="#B479ED"/>
<stop offset="0.7834" stop-color="#C99DF2"/>
<stop offset="0.886" stop-color="#E1C8F8"/>
<stop offset="0.9833" stop-color="#FCF9FE"/>
<stop offset="0.9944" stop-color="white"/>
</linearGradient>
<linearGradient id="paint48_linear_76_702" x1="306.212" y1="49.3289" x2="343.264" y2="171.272" gradientUnits="userSpaceOnUse">
<stop offset="1e-08" stop-color="#FFF7A9"/>
<stop offset="0.19" stop-color="#FFF8B2"/>
<stop offset="0.5059" stop-color="#FFFACC"/>
<stop offset="0.9064" stop-color="#FFFEF5"/>
<stop offset="0.9944" stop-color="white"/>
</linearGradient>
<linearGradient id="paint49_linear_76_702" x1="326.2" y1="72.564" x2="231.529" y2="111.451" gradientUnits="userSpaceOnUse">
<stop offset="1e-08" stop-color="#8727E2"/>
<stop offset="0.1849" stop-color="#892AE2"/>
<stop offset="0.3249" stop-color="#8E34E4"/>
<stop offset="0.4501" stop-color="#9744E6"/>
<stop offset="0.5667" stop-color="#A45BE9"/>
<stop offset="0.6773" stop-color="#B479ED"/>
<stop offset="0.7834" stop-color="#C99DF2"/>
<stop offset="0.886" stop-color="#E1C8F8"/>
<stop offset="0.9833" stop-color="#FCF9FE"/>
<stop offset="0.9944" stop-color="white"/>
</linearGradient>
<linearGradient id="paint50_linear_76_702" x1="286.491" y1="77.9644" x2="375.574" y2="133.818" gradientUnits="userSpaceOnUse">
<stop offset="1e-08" stop-color="#8727E2"/>
<stop offset="0.1849" stop-color="#892AE2"/>
<stop offset="0.3249" stop-color="#8E34E4"/>
<stop offset="0.4501" stop-color="#9744E6"/>
<stop offset="0.5667" stop-color="#A45BE9"/>
<stop offset="0.6773" stop-color="#B479ED"/>
<stop offset="0.7834" stop-color="#C99DF2"/>
<stop offset="0.886" stop-color="#E1C8F8"/>
<stop offset="0.9833" stop-color="#FCF9FE"/>
<stop offset="0.9944" stop-color="white"/>
</linearGradient>
<linearGradient id="paint51_linear_76_702" x1="158.246" y1="14.5738" x2="211.022" y2="47.6632" gradientUnits="userSpaceOnUse">
<stop offset="1e-08" stop-color="#8727E2"/>
<stop offset="0.1849" stop-color="#892AE2"/>
<stop offset="0.3249" stop-color="#8E34E4"/>
<stop offset="0.4501" stop-color="#9744E6"/>
<stop offset="0.5667" stop-color="#A45BE9"/>
<stop offset="0.6773" stop-color="#B479ED"/>
<stop offset="0.7834" stop-color="#C99DF2"/>
<stop offset="0.886" stop-color="#E1C8F8"/>
<stop offset="0.9833" stop-color="#FCF9FE"/>
<stop offset="0.9944" stop-color="white"/>
</linearGradient>
<linearGradient id="paint52_linear_76_702" x1="166.907" y1="22.9087" x2="188.561" y2="36.4856" gradientUnits="userSpaceOnUse">
<stop offset="1e-08" stop-color="#8727E2"/>
<stop offset="0.1849" stop-color="#892AE2"/>
<stop offset="0.3249" stop-color="#8E34E4"/>
<stop offset="0.4501" stop-color="#9744E6"/>
<stop offset="0.5667" stop-color="#A45BE9"/>
<stop offset="0.6773" stop-color="#B479ED"/>
<stop offset="0.7834" stop-color="#C99DF2"/>
<stop offset="0.886" stop-color="#E1C8F8"/>
<stop offset="0.9833" stop-color="#FCF9FE"/>
<stop offset="0.9944" stop-color="white"/>
</linearGradient>
<linearGradient id="paint53_linear_76_702" x1="140.036" y1="26.4053" x2="165.127" y2="42.1365" gradientUnits="userSpaceOnUse">
<stop offset="1e-08" stop-color="#8727E2"/>
<stop offset="0.1849" stop-color="#892AE2"/>
<stop offset="0.3249" stop-color="#8E34E4"/>
<stop offset="0.4501" stop-color="#9744E6"/>
<stop offset="0.5667" stop-color="#A45BE9"/>
<stop offset="0.6773" stop-color="#B479ED"/>
<stop offset="0.7834" stop-color="#C99DF2"/>
<stop offset="0.886" stop-color="#E1C8F8"/>
<stop offset="0.9833" stop-color="#FCF9FE"/>
<stop offset="0.9944" stop-color="white"/>
</linearGradient>
<linearGradient id="paint54_linear_76_702" x1="48.5364" y1="126.256" x2="46.3109" y2="140.792" gradientUnits="userSpaceOnUse">
<stop offset="1e-08" stop-color="#8727E2"/>
<stop offset="0.1849" stop-color="#892AE2"/>
<stop offset="0.3249" stop-color="#8E34E4"/>
<stop offset="0.4501" stop-color="#9744E6"/>
<stop offset="0.5667" stop-color="#A45BE9"/>
<stop offset="0.6773" stop-color="#B479ED"/>
<stop offset="0.7834" stop-color="#C99DF2"/>
<stop offset="0.886" stop-color="#E1C8F8"/>
<stop offset="0.9833" stop-color="#FCF9FE"/>
<stop offset="0.9944" stop-color="white"/>
</linearGradient>
<linearGradient id="paint55_linear_76_702" x1="153.656" y1="149.592" x2="148.127" y2="185.712" gradientUnits="userSpaceOnUse">
<stop offset="1e-08" stop-color="#8727E2"/>
<stop offset="0.1849" stop-color="#892AE2"/>
<stop offset="0.3249" stop-color="#8E34E4"/>
<stop offset="0.4501" stop-color="#9744E6"/>
<stop offset="0.5667" stop-color="#A45BE9"/>
<stop offset="0.6773" stop-color="#B479ED"/>
<stop offset="0.7834" stop-color="#C99DF2"/>
<stop offset="0.886" stop-color="#E1C8F8"/>
<stop offset="0.9833" stop-color="#FCF9FE"/>
<stop offset="0.9944" stop-color="white"/>
</linearGradient>
<linearGradient id="paint56_linear_76_702" x1="100.178" y1="126.652" x2="99.045" y2="159.077" gradientUnits="userSpaceOnUse">
<stop offset="1e-08" stop-color="#8727E2"/>
<stop offset="0.1849" stop-color="#892AE2"/>
<stop offset="0.3249" stop-color="#8E34E4"/>
<stop offset="0.4501" stop-color="#9744E6"/>
<stop offset="0.5667" stop-color="#A45BE9"/>
<stop offset="0.6773" stop-color="#B479ED"/>
<stop offset="0.7834" stop-color="#C99DF2"/>
<stop offset="0.886" stop-color="#E1C8F8"/>
<stop offset="0.9833" stop-color="#FCF9FE"/>
<stop offset="0.9944" stop-color="white"/>
</linearGradient>
<linearGradient id="paint57_linear_76_702" x1="97.5958" y1="108.249" x2="82.5393" y2="129.671" gradientUnits="userSpaceOnUse">
<stop offset="1e-08" stop-color="#8727E2"/>
<stop offset="0.1849" stop-color="#892AE2"/>
<stop offset="0.3249" stop-color="#8E34E4"/>
<stop offset="0.4501" stop-color="#9744E6"/>
<stop offset="0.5667" stop-color="#A45BE9"/>
<stop offset="0.6773" stop-color="#B479ED"/>
<stop offset="0.7834" stop-color="#C99DF2"/>
<stop offset="0.886" stop-color="#E1C8F8"/>
<stop offset="0.9833" stop-color="#FCF9FE"/>
<stop offset="0.9944" stop-color="white"/>
</linearGradient>
<linearGradient id="paint58_linear_76_702" x1="160.259" y1="59.7532" x2="159.481" y2="81.9882" gradientUnits="userSpaceOnUse">
<stop offset="1e-08" stop-color="#FFF7A9"/>
<stop offset="0.19" stop-color="#FFF8B2"/>
<stop offset="0.5059" stop-color="#FFFACC"/>
<stop offset="0.9064" stop-color="#FFFEF5"/>
<stop offset="0.9944" stop-color="white"/>
</linearGradient>
<linearGradient id="paint59_linear_76_702" x1="205.466" y1="49.2802" x2="224.571" y2="83.1648" gradientUnits="userSpaceOnUse">
<stop offset="1e-08" stop-color="#00D9A8"/>
<stop offset="0.2075" stop-color="#03D0AE"/>
<stop offset="0.5525" stop-color="#0CB6BD"/>
<stop offset="0.9901" stop-color="#1A8DD5"/>
<stop offset="1" stop-color="#1A8CD6"/>
</linearGradient>
<linearGradient id="paint60_linear_76_702" x1="127.69" y1="86.1785" x2="154.271" y2="133.321" gradientUnits="userSpaceOnUse">
<stop offset="1e-08" stop-color="#00D9A8"/>
<stop offset="0.2075" stop-color="#03D0AE"/>
<stop offset="0.5525" stop-color="#0CB6BD"/>
<stop offset="0.9901" stop-color="#1A8DD5"/>
<stop offset="1" stop-color="#1A8CD6"/>
</linearGradient>
<linearGradient id="paint61_linear_76_702" x1="196.688" y1="40.0076" x2="202.045" y2="49.5088" gradientUnits="userSpaceOnUse">
<stop offset="1e-08" stop-color="#00D9A8"/>
<stop offset="0.2075" stop-color="#03D0AE"/>
<stop offset="0.5525" stop-color="#0CB6BD"/>
<stop offset="0.9901" stop-color="#1A8DD5"/>
<stop offset="1" stop-color="#1A8CD6"/>
</linearGradient>
<linearGradient id="paint62_linear_76_702" x1="174.58" y1="116.544" x2="180.924" y2="127.795" gradientUnits="userSpaceOnUse">
<stop offset="1e-08" stop-color="#00D9A8"/>
<stop offset="0.2075" stop-color="#03D0AE"/>
<stop offset="0.5525" stop-color="#0CB6BD"/>
<stop offset="0.9901" stop-color="#1A8DD5"/>
<stop offset="1" stop-color="#1A8CD6"/>
</linearGradient>
<linearGradient id="paint63_linear_76_702" x1="115.616" y1="161.992" x2="181.012" y2="74.5451" gradientUnits="userSpaceOnUse">
<stop offset="1e-08" stop-color="#8727E2"/>
<stop offset="0.1849" stop-color="#892AE2"/>
<stop offset="0.3249" stop-color="#8E34E4"/>
<stop offset="0.4501" stop-color="#9744E6"/>
<stop offset="0.5667" stop-color="#A45BE9"/>
<stop offset="0.6773" stop-color="#B479ED"/>
<stop offset="0.7834" stop-color="#C99DF2"/>
<stop offset="0.886" stop-color="#E1C8F8"/>
<stop offset="0.9833" stop-color="#FCF9FE"/>
<stop offset="0.9944" stop-color="white"/>
</linearGradient>
<linearGradient id="paint64_linear_76_702" x1="152.042" y1="160.508" x2="260.57" y2="15.3835" gradientUnits="userSpaceOnUse">
<stop offset="1e-08" stop-color="#8727E2"/>
<stop offset="0.1849" stop-color="#892AE2"/>
<stop offset="0.3249" stop-color="#8E34E4"/>
<stop offset="0.4501" stop-color="#9744E6"/>
<stop offset="0.5667" stop-color="#A45BE9"/>
<stop offset="0.6773" stop-color="#B479ED"/>
<stop offset="0.7834" stop-color="#C99DF2"/>
<stop offset="0.886" stop-color="#E1C8F8"/>
<stop offset="0.9833" stop-color="#FCF9FE"/>
<stop offset="0.9944" stop-color="white"/>
</linearGradient>
<linearGradient id="paint65_linear_76_702" x1="199.009" y1="22.5535" x2="138.655" y2="130.447" gradientUnits="userSpaceOnUse">
<stop offset="1e-08" stop-color="#FFF7A9"/>
<stop offset="0.19" stop-color="#FFF8B2"/>
<stop offset="0.5059" stop-color="#FFFACC"/>
<stop offset="0.9064" stop-color="#FFFEF5"/>
<stop offset="0.9944" stop-color="white"/>
</linearGradient>
<linearGradient id="paint66_linear_76_702" x1="239.473" y1="-27.8072" x2="166.639" y2="102.396" gradientUnits="userSpaceOnUse">
<stop offset="1e-08" stop-color="#FFF7A9"/>
<stop offset="0.19" stop-color="#FFF8B2"/>
<stop offset="0.5059" stop-color="#FFFACC"/>
<stop offset="0.9064" stop-color="#FFFEF5"/>
<stop offset="0.9944" stop-color="white"/>
</linearGradient>
<linearGradient id="paint67_linear_76_702" x1="157.468" y1="90.4934" x2="167.07" y2="122.095" gradientUnits="userSpaceOnUse">
<stop offset="1e-08" stop-color="#FFF7A9"/>
<stop offset="0.19" stop-color="#FFF8B2"/>
<stop offset="0.5059" stop-color="#FFFACC"/>
<stop offset="0.9064" stop-color="#FFFEF5"/>
<stop offset="0.9944" stop-color="white"/>
</linearGradient>
<linearGradient id="paint68_linear_76_702" x1="197.227" y1="59.8279" x2="205.349" y2="86.5603" gradientUnits="userSpaceOnUse">
<stop offset="1e-08" stop-color="#FFF7A9"/>
<stop offset="0.19" stop-color="#FFF8B2"/>
<stop offset="0.5059" stop-color="#FFFACC"/>
<stop offset="0.9064" stop-color="#FFFEF5"/>
<stop offset="0.9944" stop-color="white"/>
</linearGradient>
<linearGradient id="paint69_linear_76_702" x1="171.543" y1="66.9263" x2="189.461" y2="125.895" gradientUnits="userSpaceOnUse">
<stop offset="1e-08" stop-color="#FFF7A9"/>
<stop offset="0.19" stop-color="#FFF8B2"/>
<stop offset="0.5059" stop-color="#FFFACC"/>
<stop offset="0.9064" stop-color="#FFFEF5"/>
<stop offset="0.9944" stop-color="white"/>
</linearGradient>
<linearGradient id="paint70_linear_76_702" x1="187.654" y1="92.3262" x2="206.792" y2="155.311" gradientUnits="userSpaceOnUse">
<stop offset="1e-08" stop-color="#FFF7A9"/>
<stop offset="0.19" stop-color="#FFF8B2"/>
<stop offset="0.5059" stop-color="#FFFACC"/>
<stop offset="0.9064" stop-color="#FFFEF5"/>
<stop offset="0.9944" stop-color="white"/>
</linearGradient>
<linearGradient id="paint71_linear_76_702" x1="183.21" y1="96.2368" x2="207.711" y2="176.875" gradientUnits="userSpaceOnUse">
<stop offset="1e-08" stop-color="#FFF7A9"/>
<stop offset="0.19" stop-color="#FFF8B2"/>
<stop offset="0.5059" stop-color="#FFFACC"/>
<stop offset="0.9064" stop-color="#FFFEF5"/>
<stop offset="0.9944" stop-color="white"/>
</linearGradient>
<linearGradient id="paint72_linear_76_702" x1="161.093" y1="65.3701" x2="178.19" y2="121.639" gradientUnits="userSpaceOnUse">
<stop offset="1e-08" stop-color="#FFF7A9"/>
<stop offset="0.19" stop-color="#FFF8B2"/>
<stop offset="0.5059" stop-color="#FFFACC"/>
<stop offset="0.9064" stop-color="#FFFEF5"/>
<stop offset="0.9944" stop-color="white"/>
</linearGradient>
<linearGradient id="paint73_linear_76_702" x1="198.929" y1="150.357" x2="216.605" y2="208.532" gradientUnits="userSpaceOnUse">
<stop offset="1e-08" stop-color="#FFF7A9"/>
<stop offset="0.19" stop-color="#FFF8B2"/>
<stop offset="0.5059" stop-color="#FFFACC"/>
<stop offset="0.9064" stop-color="#FFFEF5"/>
<stop offset="0.9944" stop-color="white"/>
</linearGradient>
<linearGradient id="paint74_linear_76_702" x1="159.006" y1="38.4016" x2="170.895" y2="77.5304" gradientUnits="userSpaceOnUse">
<stop offset="1e-08" stop-color="#FFF7A9"/>
<stop offset="0.19" stop-color="#FFF8B2"/>
<stop offset="0.5059" stop-color="#FFFACC"/>
<stop offset="0.9064" stop-color="#FFFEF5"/>
<stop offset="0.9944" stop-color="white"/>
</linearGradient>
<linearGradient id="paint75_linear_76_702" x1="207.678" y1="139.69" x2="231.26" y2="217.301" gradientUnits="userSpaceOnUse">
<stop offset="1e-08" stop-color="#FFF7A9"/>
<stop offset="0.19" stop-color="#FFF8B2"/>
<stop offset="0.5059" stop-color="#FFFACC"/>
<stop offset="0.9064" stop-color="#FFFEF5"/>
<stop offset="0.9944" stop-color="white"/>
</linearGradient>
<linearGradient id="paint76_linear_76_702" x1="184.882" y1="190.38" x2="217.619" y2="146.604" gradientUnits="userSpaceOnUse">
<stop offset="1e-08" stop-color="#8727E2"/>
<stop offset="0.1849" stop-color="#892AE2"/>
<stop offset="0.3249" stop-color="#8E34E4"/>
<stop offset="0.4501" stop-color="#9744E6"/>
<stop offset="0.5667" stop-color="#A45BE9"/>
<stop offset="0.6773" stop-color="#B479ED"/>
<stop offset="0.7834" stop-color="#C99DF2"/>
<stop offset="0.886" stop-color="#E1C8F8"/>
<stop offset="0.9833" stop-color="#FCF9FE"/>
<stop offset="0.9944" stop-color="white"/>
</linearGradient>
<linearGradient id="paint77_linear_76_702" x1="201.553" y1="47.7961" x2="124.435" y2="185.659" gradientUnits="userSpaceOnUse">
<stop offset="1e-08" stop-color="#FFF7A9"/>
<stop offset="0.19" stop-color="#FFF8B2"/>
<stop offset="0.5059" stop-color="#FFFACC"/>
<stop offset="0.9064" stop-color="#FFFEF5"/>
<stop offset="0.9944" stop-color="white"/>
</linearGradient>
<linearGradient id="paint78_linear_76_702" x1="127.046" y1="90.1489" x2="97.5085" y2="142.952" gradientUnits="userSpaceOnUse">
<stop offset="1e-08" stop-color="#FFF7A9"/>
<stop offset="0.19" stop-color="#FFF8B2"/>
<stop offset="0.5059" stop-color="#FFFACC"/>
<stop offset="0.9064" stop-color="#FFFEF5"/>
<stop offset="0.9944" stop-color="white"/>
</linearGradient>
<linearGradient id="paint79_linear_76_702" x1="252.576" y1="40.3966" x2="193.244" y2="146.464" gradientUnits="userSpaceOnUse">
<stop offset="1e-08" stop-color="#FFF7A9"/>
<stop offset="0.19" stop-color="#FFF8B2"/>
<stop offset="0.5059" stop-color="#FFFACC"/>
<stop offset="0.9064" stop-color="#FFFEF5"/>
<stop offset="0.9944" stop-color="white"/>
</linearGradient>
<linearGradient id="paint80_linear_76_702" x1="286.877" y1="5.02895" x2="234.87" y2="97.9997" gradientUnits="userSpaceOnUse">
<stop offset="1e-08" stop-color="#FFF7A9"/>
<stop offset="0.19" stop-color="#FFF8B2"/>
<stop offset="0.5059" stop-color="#FFFACC"/>
<stop offset="0.9064" stop-color="#FFFEF5"/>
<stop offset="0.9944" stop-color="white"/>
</linearGradient>
<linearGradient id="paint81_linear_76_702" x1="262.159" y1="12.5993" x2="229.773" y2="70.4947" gradientUnits="userSpaceOnUse">
<stop offset="1e-08" stop-color="#FFF7A9"/>
<stop offset="0.19" stop-color="#FFF8B2"/>
<stop offset="0.5059" stop-color="#FFFACC"/>
<stop offset="0.9064" stop-color="#FFFEF5"/>
<stop offset="0.9944" stop-color="white"/>
</linearGradient>
<linearGradient id="paint82_linear_76_702" x1="150.819" y1="140.398" x2="161.035" y2="174.021" gradientUnits="userSpaceOnUse">
<stop offset="1e-08" stop-color="#FFF7A9"/>
<stop offset="0.19" stop-color="#FFF8B2"/>
<stop offset="0.5059" stop-color="#FFFACC"/>
<stop offset="0.9064" stop-color="#FFFEF5"/>
<stop offset="0.9944" stop-color="white"/>
</linearGradient>
<linearGradient id="paint83_linear_76_702" x1="126.311" y1="135.919" x2="130.073" y2="148.3" gradientUnits="userSpaceOnUse">
<stop offset="1e-08" stop-color="#FFF7A9"/>
<stop offset="0.19" stop-color="#FFF8B2"/>
<stop offset="0.5059" stop-color="#FFFACC"/>
<stop offset="0.9064" stop-color="#FFFEF5"/>
<stop offset="0.9944" stop-color="white"/>
</linearGradient>
<linearGradient id="paint84_linear_76_702" x1="110.166" y1="121.382" x2="115.114" y2="137.666" gradientUnits="userSpaceOnUse">
<stop offset="1e-08" stop-color="#FFF7A9"/>
<stop offset="0.19" stop-color="#FFF8B2"/>
<stop offset="0.5059" stop-color="#FFFACC"/>
<stop offset="0.9064" stop-color="#FFFEF5"/>
<stop offset="0.9944" stop-color="white"/>
</linearGradient>
<linearGradient id="paint85_linear_76_702" x1="210.809" y1="112.077" x2="217.454" y2="133.946" gradientUnits="userSpaceOnUse">
<stop offset="1e-08" stop-color="#FFF7A9"/>
<stop offset="0.19" stop-color="#FFF8B2"/>
<stop offset="0.5059" stop-color="#FFFACC"/>
<stop offset="0.9064" stop-color="#FFFEF5"/>
<stop offset="0.9944" stop-color="white"/>
</linearGradient>
<linearGradient id="paint86_linear_76_702" x1="249.216" y1="66.8664" x2="252.226" y2="76.7718" gradientUnits="userSpaceOnUse">
<stop offset="1e-08" stop-color="#FFF7A9"/>
<stop offset="0.19" stop-color="#FFF8B2"/>
<stop offset="0.5059" stop-color="#FFFACC"/>
<stop offset="0.9064" stop-color="#FFFEF5"/>
<stop offset="0.9944" stop-color="white"/>
</linearGradient>
<linearGradient id="paint87_linear_76_702" x1="241.875" y1="51.8792" x2="244.877" y2="61.7614" gradientUnits="userSpaceOnUse">
<stop offset="1e-08" stop-color="#FFF7A9"/>
<stop offset="0.19" stop-color="#FFF8B2"/>
<stop offset="0.5059" stop-color="#FFFACC"/>
<stop offset="0.9064" stop-color="#FFFEF5"/>
<stop offset="0.9944" stop-color="white"/>
</linearGradient>
<linearGradient id="paint88_linear_76_702" x1="280.671" y1="68.0886" x2="315.737" y2="23.9645" gradientUnits="userSpaceOnUse">
<stop offset="1e-08" stop-color="#FFF7A9"/>
<stop offset="0.19" stop-color="#FFF8B2"/>
<stop offset="0.5059" stop-color="#FFFACC"/>
<stop offset="0.9064" stop-color="#FFFEF5"/>
<stop offset="0.9944" stop-color="white"/>
</linearGradient>
<linearGradient id="paint89_linear_76_702" x1="167.186" y1="215.602" x2="200.407" y2="173.799" gradientUnits="userSpaceOnUse">
<stop offset="1e-08" stop-color="#FFF7A9"/>
<stop offset="0.19" stop-color="#FFF8B2"/>
<stop offset="0.5059" stop-color="#FFFACC"/>
<stop offset="0.9064" stop-color="#FFFEF5"/>
<stop offset="0.9944" stop-color="white"/>
</linearGradient>
<linearGradient id="paint90_linear_76_702" x1="11.1219" y1="164.592" x2="43.1497" y2="124.29" gradientUnits="userSpaceOnUse">
<stop offset="1e-08" stop-color="#FFF7A9"/>
<stop offset="0.19" stop-color="#FFF8B2"/>
<stop offset="0.5059" stop-color="#FFFACC"/>
<stop offset="0.9064" stop-color="#FFFEF5"/>
<stop offset="0.9944" stop-color="white"/>
</linearGradient>
<linearGradient id="paint91_linear_76_702" x1="134.109" y1="49.9295" x2="173.77" y2="0.0229137" gradientUnits="userSpaceOnUse">
<stop offset="1e-08" stop-color="#FFF7A9"/>
<stop offset="0.19" stop-color="#FFF8B2"/>
<stop offset="0.5059" stop-color="#FFFACC"/>
<stop offset="0.9064" stop-color="#FFFEF5"/>
<stop offset="0.9944" stop-color="white"/>
</linearGradient>
<linearGradient id="paint92_linear_76_702" x1="182.158" y1="198.162" x2="235.523" y2="373.795" gradientUnits="userSpaceOnUse">
<stop offset="1e-08" stop-color="#FFF7A9"/>
<stop offset="0.19" stop-color="#FFF8B2"/>
<stop offset="0.5059" stop-color="#FFFACC"/>
<stop offset="0.9064" stop-color="#FFFEF5"/>
<stop offset="0.9944" stop-color="white"/>
</linearGradient>
<linearGradient id="paint93_linear_76_702" x1="35.4029" y1="140.223" x2="49.7904" y2="187.574" gradientUnits="userSpaceOnUse">
<stop offset="1e-08" stop-color="#FFF7A9"/>
<stop offset="0.19" stop-color="#FFF8B2"/>
<stop offset="0.5059" stop-color="#FFFACC"/>
<stop offset="0.9064" stop-color="#FFFEF5"/>
<stop offset="0.9944" stop-color="white"/>
</linearGradient>
<linearGradient id="paint94_linear_76_702" x1="166.296" y1="17.6158" x2="174.633" y2="45.0557" gradientUnits="userSpaceOnUse">
<stop offset="1e-08" stop-color="#FFF7A9"/>
<stop offset="0.19" stop-color="#FFF8B2"/>
<stop offset="0.5059" stop-color="#FFFACC"/>
<stop offset="0.9064" stop-color="#FFFEF5"/>
<stop offset="0.9944" stop-color="white"/>
</linearGradient>
<linearGradient id="paint95_linear_76_702" x1="94.9929" y1="171.326" x2="90.8802" y2="219.651" gradientUnits="userSpaceOnUse">
<stop offset="1e-08" stop-color="#8727E2"/>
<stop offset="0.1849" stop-color="#892AE2"/>
<stop offset="0.3249" stop-color="#8E34E4"/>
<stop offset="0.4501" stop-color="#9744E6"/>
<stop offset="0.5667" stop-color="#A45BE9"/>
<stop offset="0.6773" stop-color="#B479ED"/>
<stop offset="0.7834" stop-color="#C99DF2"/>
<stop offset="0.886" stop-color="#E1C8F8"/>
<stop offset="0.9833" stop-color="#FCF9FE"/>
<stop offset="0.9944" stop-color="white"/>
</linearGradient>
<linearGradient id="paint96_linear_76_702" x1="88.3053" y1="207.084" x2="88.2859" y2="207.312" gradientUnits="userSpaceOnUse">
<stop offset="1e-08" stop-color="#8727E2"/>
<stop offset="0.1849" stop-color="#892AE2"/>
<stop offset="0.3249" stop-color="#8E34E4"/>
<stop offset="0.4501" stop-color="#9744E6"/>
<stop offset="0.5667" stop-color="#A45BE9"/>
<stop offset="0.6773" stop-color="#B479ED"/>
<stop offset="0.7834" stop-color="#C99DF2"/>
<stop offset="0.886" stop-color="#E1C8F8"/>
<stop offset="0.9833" stop-color="#FCF9FE"/>
<stop offset="0.9944" stop-color="white"/>
</linearGradient>
<linearGradient id="paint97_linear_76_702" x1="49.9839" y1="177.719" x2="46.847" y2="214.577" gradientUnits="userSpaceOnUse">
<stop offset="1e-08" stop-color="#8727E2"/>
<stop offset="0.1849" stop-color="#892AE2"/>
<stop offset="0.3249" stop-color="#8E34E4"/>
<stop offset="0.4501" stop-color="#9744E6"/>
<stop offset="0.5667" stop-color="#A45BE9"/>
<stop offset="0.6773" stop-color="#B479ED"/>
<stop offset="0.7834" stop-color="#C99DF2"/>
<stop offset="0.886" stop-color="#E1C8F8"/>
<stop offset="0.9833" stop-color="#FCF9FE"/>
<stop offset="0.9944" stop-color="white"/>
</linearGradient>
<linearGradient id="paint98_linear_76_702" x1="276.881" y1="153.289" x2="344.441" y2="68.2756" gradientUnits="userSpaceOnUse">
<stop offset="1e-08" stop-color="#8727E2"/>
<stop offset="0.1849" stop-color="#892AE2"/>
<stop offset="0.3249" stop-color="#8E34E4"/>
<stop offset="0.4501" stop-color="#9744E6"/>
<stop offset="0.5667" stop-color="#A45BE9"/>
<stop offset="0.6773" stop-color="#B479ED"/>
<stop offset="0.7834" stop-color="#C99DF2"/>
<stop offset="0.886" stop-color="#E1C8F8"/>
<stop offset="0.9833" stop-color="#FCF9FE"/>
<stop offset="0.9944" stop-color="white"/>
</linearGradient>
<linearGradient id="paint99_linear_76_702" x1="164.166" y1="284.423" x2="222.003" y2="211.646" gradientUnits="userSpaceOnUse">
<stop offset="1e-08" stop-color="#8727E2"/>
<stop offset="0.1849" stop-color="#892AE2"/>
<stop offset="0.3249" stop-color="#8E34E4"/>
<stop offset="0.4501" stop-color="#9744E6"/>
<stop offset="0.5667" stop-color="#A45BE9"/>
<stop offset="0.6773" stop-color="#B479ED"/>
<stop offset="0.7834" stop-color="#C99DF2"/>
<stop offset="0.886" stop-color="#E1C8F8"/>
<stop offset="0.9833" stop-color="#FCF9FE"/>
<stop offset="0.9944" stop-color="white"/>
</linearGradient>
<linearGradient id="paint100_linear_76_702" x1="390.513" y1="-142.24" x2="181.574" y2="231.274" gradientUnits="userSpaceOnUse">
<stop offset="1e-08" stop-color="#FFF7A9"/>
<stop offset="0.19" stop-color="#FFF8B2"/>
<stop offset="0.5059" stop-color="#FFFACC"/>
<stop offset="0.9064" stop-color="#FFFEF5"/>
<stop offset="0.9944" stop-color="white"/>
</linearGradient>
<linearGradient id="paint101_linear_76_702" x1="220.882" y1="-146.784" x2="36.0363" y2="183.66" gradientUnits="userSpaceOnUse">
<stop offset="1e-08" stop-color="#FFF7A9"/>
<stop offset="0.19" stop-color="#FFF8B2"/>
<stop offset="0.5059" stop-color="#FFFACC"/>
<stop offset="0.9064" stop-color="#FFFEF5"/>
<stop offset="0.9944" stop-color="white"/>
</linearGradient>
<linearGradient id="paint102_linear_76_702" x1="83.5733" y1="192.763" x2="155.314" y2="104.85" gradientUnits="userSpaceOnUse">
<stop offset="1e-08" stop-color="#FFF7A9"/>
<stop offset="0.19" stop-color="#FFF8B2"/>
<stop offset="0.5059" stop-color="#FFFACC"/>
<stop offset="0.9064" stop-color="#FFFEF5"/>
<stop offset="0.9944" stop-color="white"/>
</linearGradient>
<radialGradient id="paint103_radial_76_702" cx="0" cy="0" r="1" gradientUnits="userSpaceOnUse" gradientTransform="translate(157.019 95.3645) rotate(163.357) scale(26.1146 26.1146)">
<stop offset="1e-08" stop-color="#FFF7A9"/>
<stop offset="0.19" stop-color="#FFF8B2"/>
<stop offset="0.5059" stop-color="#FFFACC"/>
<stop offset="0.9064" stop-color="#FFFEF5"/>
<stop offset="0.9944" stop-color="white"/>
</radialGradient>
<radialGradient id="paint104_radial_76_702" cx="0" cy="0" r="1" gradientUnits="userSpaceOnUse" gradientTransform="translate(201.664 62.5567) rotate(-176.078) scale(18.1452 18.1452)">
<stop offset="1e-08" stop-color="#FFF7A9"/>
<stop offset="0.19" stop-color="#FFF8B2"/>
<stop offset="0.5059" stop-color="#FFFACC"/>
<stop offset="0.9064" stop-color="#FFFEF5"/>
<stop offset="0.9944" stop-color="white"/>
</radialGradient>
</defs>
</svg>
