<svg width="286" height="345" viewBox="0 0 286 345" fill="none" xmlns="http://www.w3.org/2000/svg">
<mask id="mask0_66_30" style="mask-type:luminance" maskUnits="userSpaceOnUse" x="0" y="0" width="87" height="133">
<path d="M0.636414 0H86.1114V132.606H0.636414V0Z" fill="white"/>
</mask>
<g mask="url(#mask0_66_30)">
<path d="M32.8982 31.8713C32.6895 31.8187 32.5278 31.8239 32.413 31.8765C32.3035 31.9292 32.2565 32.0713 32.2722 32.3028C32.3817 34.729 32.4182 37.4393 32.3765 40.4338C32.3452 42.8441 32.6999 46.0491 33.4512 50.0594C34.3276 54.7432 35.5902 60.027 37.2544 65.916C38.8925 71.7419 40.8697 75.7627 44.2347 83.0884C44.339 83.32 45.372 85.7461 47.3231 90.3668C52.7853 103.271 61.8316 112.997 74.4566 119.533C74.5975 119.612 74.6444 119.791 74.5662 119.933C74.5036 120.049 74.368 120.107 74.2427 120.075C68.0241 118.175 62.6663 115.233 58.1692 111.255C58.1066 111.192 58.0023 111.197 57.9397 111.265C57.898 111.313 57.8823 111.386 57.9084 111.449C62.3585 122.08 73.7941 128.506 84.6506 130.548C85.0158 130.616 85.2245 130.758 85.2871 130.969C85.3288 131.111 85.2558 131.258 85.1201 131.3C85.1097 131.3 85.1045 131.306 85.0941 131.306C76.34 133.174 68.0658 132.064 60.2769 127.98C60.1569 127.917 60.0056 127.959 59.943 128.08C59.9326 128.101 59.9274 128.122 59.9221 128.143L59.87 128.359L58.6544 127.117C58.4562 126.917 58.1849 126.811 57.9084 126.832C52.7384 127.232 47.4014 127.317 41.9079 127.101C35.9032 125.333 30.1541 122.601 24.6606 118.891C19.8244 115.628 15.4683 111.544 11.5816 106.639C4.40306 97.5715 1.30939 86.4197 1.38243 75.0259C1.38764 74.8943 1.50242 74.7943 1.62762 74.8048C1.71631 74.8101 1.78935 74.8575 1.82587 74.9364C6.70896 86.4303 16.7516 95.0664 28.2238 99.5187C28.2968 99.5503 28.3803 99.5187 28.4168 99.4398C28.4272 99.4082 28.4325 99.3661 28.4168 99.3345C28.3594 99.1714 28.2603 99.0345 28.109 98.924C17.3777 90.5299 9.31745 78.3993 7.25674 65.0214C5.96293 56.5483 6.60462 48.2121 9.18703 40.018C9.20789 39.9601 9.26006 39.8812 9.35397 39.7917C9.40092 39.7391 9.48439 39.7444 9.53135 39.797C9.55221 39.8128 9.56265 39.8391 9.56787 39.8601C11.6234 54.2906 18.5202 65.4687 30.2688 73.3944C30.3627 73.4681 30.4984 73.4523 30.5714 73.3576C30.634 73.2786 30.634 73.1681 30.5714 73.0892C25.0519 64.8582 21.4208 55.8431 19.6784 46.0439C16.6786 29.1662 21.5147 13.9937 30.9783 0.0842565C31.0149 0.0316283 31.0827 0.0211031 31.1349 0.0579427C31.1714 0.0842562 31.1922 0.131621 31.1818 0.173723C29.3872 10.8676 29.9558 21.43 32.8982 31.8713Z" fill="#A4A8D4"/>
</g>
<mask id="mask1_66_30" style="mask-type:luminance" maskUnits="userSpaceOnUse" x="199" y="0" width="87" height="133">
<path d="M199.633 0H285.108V132.606H199.633V0Z" fill="white"/>
</mask>
<g mask="url(#mask1_66_30)">
<path d="M245.459 126.943C242.83 127.254 240.513 127.348 238.52 127.227C233.976 126.948 230.57 126.791 228.305 126.754C228.123 126.754 227.945 126.838 227.831 126.98C227.179 127.785 226.667 128.285 226.297 128.48C223.97 129.19 221.716 129.885 219.541 130.559C216.885 131.38 214.71 131.869 213.009 132.027C208.674 132.427 204.406 132.727 200.029 131.532C199.763 131.459 199.607 131.18 199.68 130.911C199.732 130.717 199.894 130.569 200.087 130.543C206.076 129.643 211.684 127.669 216.917 124.622C221.539 121.922 225.066 118.281 227.492 113.686C227.69 113.302 227.831 112.971 227.909 112.681C227.951 112.534 227.862 112.386 227.721 112.35C227.638 112.328 227.549 112.344 227.486 112.397C223.579 115.555 219.191 117.844 214.334 119.26C213.667 119.454 212.821 119.581 211.794 119.638C211.71 119.638 211.632 119.57 211.627 119.486C211.622 119.428 211.653 119.37 211.71 119.344L214.465 117.928C214.554 117.886 214.642 117.833 214.726 117.775C219.697 114.36 222.885 112.065 224.299 110.902C227.231 108.487 230.241 104.887 233.345 100.908C234.717 99.1295 235.823 96.7191 234.874 94.4667C234.738 94.1509 234.879 93.7878 235.187 93.6457C238.192 92.2563 240.059 87.8145 241.306 84.8411C244.092 78.1942 247.321 71.3632 249.267 64.5479C252.032 54.8802 254.114 45.802 254.02 35.2923C254.01 34.4292 254.109 33.3924 254.312 32.1872C254.349 31.9978 254.26 31.8031 254.098 31.6925C253.936 31.5873 253.754 31.5189 253.545 31.482C255.736 23.8089 256.628 15.9674 256.211 7.95751C256.034 4.58409 255.731 2.04218 255.293 0.331784C255.262 0.210741 255.324 0.0896972 255.444 0.0528576C255.538 0.0265441 255.637 0.0633827 255.689 0.142324C257.86 3.20525 259.978 7.04179 262.049 11.6625C268.252 25.5088 269.003 39.8077 264.313 54.5645C262.179 61.2745 259.133 67.5319 255.168 73.3367C255.126 73.3999 255.142 73.4841 255.204 73.5262C255.235 73.5472 255.277 73.5525 255.319 73.5367C255.549 73.463 255.742 73.3683 255.908 73.2578C267.735 65.4426 274.684 53.9277 276.839 39.6656C276.844 39.5972 276.907 39.5498 276.975 39.5551C277.022 39.5656 277.063 39.5972 277.079 39.6446C281.712 54.9697 280.053 69.416 272.112 82.9833C268.226 89.6302 263.301 94.5982 257.515 99.4189C257.437 99.4873 257.427 99.6137 257.494 99.6926C257.547 99.7557 257.635 99.7768 257.708 99.7505C267.881 95.7561 277.402 88.2671 282.614 78.4574C282.765 78.1732 283.376 76.9575 284.451 74.8103C284.477 74.7577 284.544 74.7313 284.602 74.7629C284.633 74.7787 284.659 74.8155 284.659 74.8576C284.758 83.9306 282.849 92.2405 278.936 99.8031C272.332 112.565 259.185 122.191 245.459 126.943Z" fill="#A4A8D4"/>
</g>
<path d="M226.297 128.48C221.972 133.706 216.995 137.726 211.376 140.537C209.049 141.694 207.756 142.331 207.49 142.447C204.005 143.936 201.276 145.036 199.304 145.752C198.172 146.157 196.565 147.141 195.657 147.815C191.682 150.804 187.222 153.162 182.271 154.893C181.848 155.046 181.441 155.235 181.055 155.472C169.322 162.693 160.662 171.939 155.08 183.212C151.496 190.449 149.524 199 149.153 208.868C149.08 210.821 149.393 212.963 149.477 215.299C149.524 216.499 149.727 218.094 150.092 220.094C150.713 223.499 151.569 227.309 152.654 231.514C154 236.719 154.793 240.529 155.043 242.955C155.523 247.613 155.664 251.602 155.471 254.912C155.017 262.475 152.769 269.279 148.715 275.331C142.606 284.457 132.902 290.167 122.656 293.504C122.411 293.583 122.129 293.562 121.822 293.446C121.728 293.409 121.691 293.262 121.707 292.999C133.424 284.473 138.751 271.832 139.147 257.364C139.69 249.633 138.568 241.829 135.772 233.94C135.683 233.698 135.558 233.514 135.401 233.393C135.25 233.277 135.031 233.308 134.916 233.461C134.906 233.477 134.895 233.493 134.89 233.514C133.179 236.887 131.165 239.776 128.844 242.192C121.175 248.734 113.219 255.249 112.963 266.274C112.953 266.374 112.869 266.448 112.77 266.443C112.702 266.437 112.645 266.401 112.619 266.337C109.082 257.143 111.226 247.823 117.481 240.403C117.549 240.324 117.538 240.197 117.46 240.129C117.403 240.076 117.319 240.066 117.246 240.103C107.616 244.792 94.8394 244.339 87.6452 235.513C87.6243 235.482 87.6295 235.44 87.6608 235.419C87.6869 235.403 87.713 235.403 87.7391 235.413C92.8987 238.887 100.124 238.487 105.701 236.308C118.827 231.187 131.405 218.167 130.21 202.89C129.887 198.811 126.407 194.501 124.002 191.322C121.018 187.401 118.603 183.023 116.766 178.186C116.396 176.797 115.994 175.276 115.556 173.618C114.069 168.04 113.469 162.472 113.756 156.914C113.772 156.651 113.574 156.425 113.307 156.409C104.173 155.83 96.7905 152.346 89.852 146.441C89.3929 146.047 88.8503 145.762 88.2608 145.615C77.3625 142.805 67.2259 136.937 59.87 128.359L59.9222 128.143C59.9535 128.011 60.0787 127.927 60.2143 127.959C60.2352 127.964 60.2613 127.969 60.2769 127.98C68.0711 132.064 76.3452 133.174 85.0993 131.311C85.2349 131.279 85.3236 131.143 85.2975 131C85.2923 130.99 85.2923 130.979 85.2871 130.974C85.2297 130.764 85.0158 130.622 84.6558 130.548C73.7941 128.511 62.3585 122.08 57.9136 111.455C57.8771 111.365 57.9136 111.265 57.9971 111.228C58.0545 111.202 58.1275 111.212 58.1745 111.26C62.6715 115.238 68.0241 118.18 74.2428 120.08C74.3993 120.122 74.5558 120.028 74.5975 119.87C74.6288 119.738 74.5766 119.601 74.4567 119.538C61.8316 113.002 52.7905 103.276 47.3284 90.372C45.372 85.7513 44.3443 83.3252 44.2399 83.0936C40.8697 75.7678 38.8925 71.7471 37.2544 65.9212C35.5954 60.0322 34.3277 54.7484 33.4564 50.0646C32.7052 46.0543 32.3452 42.8493 32.3765 40.439C32.4182 37.4445 32.3869 34.7342 32.2722 32.308C32.2617 32.0765 32.3087 31.9344 32.4182 31.8817C32.5278 31.8238 32.6895 31.8238 32.8982 31.8765C34.8128 38.0655 37.3483 43.9598 40.4941 49.5593C42.9722 53.9537 46.3737 58.2745 49.3317 62.1057C49.4099 62.211 49.5612 62.232 49.6656 62.1478C49.7282 62.0952 49.7647 62.0215 49.7647 61.9426C49.483 56.7167 50.0621 51.5908 51.5072 46.5648C51.5385 46.4596 51.648 46.3964 51.7524 46.428C51.8254 46.449 51.8776 46.5069 51.888 46.5806C54.3035 57.8008 59.4944 67.3053 67.4711 75.0889C67.5702 75.1889 67.6902 75.2521 67.8207 75.2889C67.8937 75.3047 67.9667 75.2574 67.9824 75.1889C67.9876 75.1574 67.9824 75.1258 67.972 75.0995C65.2748 69.7209 63.7045 63.974 63.261 57.8587C63.2558 57.7955 63.3028 57.7377 63.3706 57.7324C63.4227 57.7271 63.4697 57.7587 63.4906 57.8008C64.7792 60.5269 66.4277 63.2793 68.4467 66.0581C73.5019 73.0207 79.7049 79.4149 86.5861 84.6356C89.2833 86.6775 91.224 88.2616 92.4239 89.3826C96.2741 92.9928 99.1382 97.0188 101.83 102.045C103.427 105.023 105.195 108.229 107.146 111.665C110.355 117.301 114.669 121.633 120.1 124.659C120.225 124.722 120.382 124.685 120.455 124.564C122.662 121.049 125.228 117.301 128.16 113.323C131.963 108.155 135.088 101.519 135.511 94.8506C135.855 89.4457 132 88.8405 127.774 89.9615C124.31 90.8719 121.415 92.7086 119.093 95.4611C119.031 95.5453 118.911 95.5611 118.827 95.4979C118.78 95.4558 118.749 95.3979 118.754 95.34C118.676 89.3089 121.618 84.2725 126.564 80.9201C126.726 80.8096 126.846 80.6412 126.913 80.4517C127.138 79.7517 127.226 78.8097 127.43 78.1887C130.143 69.9683 139.695 69.3157 146.675 67.458C152.56 65.8844 158.893 62.3162 160.766 56.2746C160.803 56.1536 160.928 56.0904 161.043 56.1325C161.132 56.1588 161.189 56.2378 161.199 56.3272C161.471 61.6005 159.566 65.7265 155.492 68.7052C155.424 68.7421 155.403 68.821 155.44 68.8894C155.471 68.9421 155.534 68.9684 155.596 68.9526C162.373 67.5843 167.825 63.4109 169.557 56.3483C169.578 56.2693 169.656 56.222 169.74 56.2378C169.786 56.2536 169.823 56.2851 169.839 56.3272C170.047 56.8061 170.131 57.5377 170.089 58.5323C169.74 67.9 163.724 73.3628 155.122 75.5415C155.007 75.5679 154.934 75.6836 154.955 75.7994C154.975 75.8942 155.054 75.9626 155.148 75.9731C159.399 76.6572 163.448 76.1626 167.288 74.5048C168.133 74.1364 168.905 73.4101 169.593 72.9733C169.687 72.9102 169.818 72.9365 169.886 73.0312C169.933 73.1049 169.933 73.1944 169.886 73.268C166.495 78.7466 159.879 81.3358 153.619 80.6412C153.515 80.6306 153.421 80.7043 153.405 80.8096C153.4 80.8622 153.416 80.9148 153.447 80.9517C156.071 84.4619 156.655 87.6511 158.528 93.6612C159.206 95.8295 160.401 98.3082 162.107 101.103C162.785 102.218 163.531 102.839 164.538 103.855C164.622 103.929 164.632 104.06 164.559 104.15C164.496 104.218 164.397 104.239 164.314 104.197C161.502 103.103 159.227 101.392 157.485 99.0713C157.438 99.0082 157.349 98.9976 157.287 99.045C157.25 99.0766 157.234 99.1187 157.234 99.166C157.793 106.671 160.192 115.117 166.322 119.859C166.401 119.901 166.427 119.996 166.39 120.075C166.349 120.149 166.255 120.18 166.176 120.138C164.063 119.459 162.159 118.344 160.469 116.802C160.401 116.744 160.307 116.754 160.255 116.823C160.224 116.859 160.213 116.907 160.224 116.954C160.234 116.986 160.245 117.038 160.25 117.107C160.25 117.212 160.255 117.265 160.26 117.265C161.674 119.922 163.213 122.406 164.883 124.722C165.029 124.927 165.305 124.996 165.529 124.88C169.74 122.738 173.266 119.875 176.125 116.296C177.862 114.118 179.688 111.249 181.598 107.697C185.531 100.371 189.168 93.0034 195.72 87.8248C199.575 84.7777 202.403 82.4884 204.208 80.9622C211.981 74.389 218.273 66.7317 223.094 57.9903C223.109 57.9482 223.151 57.9271 223.187 57.9429C223.229 57.9534 223.25 57.9955 223.24 58.0376C222.572 64.3108 220.939 70.0314 218.33 75.2047C218.299 75.2679 218.32 75.3416 218.377 75.3731C218.424 75.3995 218.482 75.3942 218.518 75.3521C226.745 67.8263 232.187 57.5061 234.503 46.4701C234.524 46.4122 234.587 46.3701 234.649 46.3912C234.686 46.4017 234.712 46.4227 234.727 46.4596C236.35 51.5908 236.96 56.8009 236.553 62.0899C236.543 62.1689 236.606 62.2426 236.689 62.2478C236.736 62.2531 236.783 62.232 236.814 62.1952C244.588 53.1012 250.164 42.8704 253.55 31.4976C253.754 31.5344 253.942 31.6028 254.103 31.7133C254.265 31.8186 254.348 32.0133 254.312 32.208C254.109 33.4079 254.015 34.4447 254.02 35.3131C254.114 45.8175 252.032 54.8958 249.267 64.5634C247.321 71.3787 244.092 78.2098 241.306 84.8619C240.059 87.8301 238.197 92.2771 235.187 93.6612C234.879 93.8033 234.738 94.1664 234.874 94.4875C235.823 96.7399 234.722 99.1503 233.345 100.924C230.246 104.902 227.231 108.502 224.299 110.918C222.89 112.086 219.697 114.375 214.726 117.796C214.647 117.854 214.559 117.901 214.465 117.949L211.715 119.359C211.637 119.396 211.606 119.486 211.642 119.564C211.674 119.622 211.731 119.654 211.794 119.654C212.821 119.596 213.667 119.47 214.339 119.275C219.197 117.859 223.579 115.57 227.486 112.418C227.601 112.323 227.773 112.344 227.862 112.46C227.919 112.528 227.935 112.612 227.914 112.697C227.836 112.986 227.695 113.323 227.491 113.702C225.071 118.296 221.544 121.943 216.922 124.638C211.689 127.69 206.081 129.664 200.092 130.558C199.821 130.6 199.628 130.858 199.669 131.132C199.701 131.332 199.842 131.495 200.035 131.548C204.412 132.742 208.679 132.442 213.014 132.042C214.715 131.885 216.891 131.4 219.546 130.579C221.716 129.885 223.97 129.19 226.297 128.48Z" fill="#CFDCFF"/>
<mask id="mask2_66_30" style="mask-type:luminance" maskUnits="userSpaceOnUse" x="0" y="101" width="117" height="90">
<path d="M0 101.619H116.829V190.538H0V101.619Z" fill="white"/>
</mask>
<g mask="url(#mask2_66_30)">
<path d="M41.908 127.095C47.4067 127.316 52.7385 127.227 57.9085 126.832C58.185 126.806 58.4615 126.911 58.6545 127.111L59.8701 128.353C67.226 136.931 77.3626 142.799 88.2608 145.61C88.8504 145.762 89.3929 146.047 89.852 146.441C96.7906 152.341 104.173 155.825 113.308 156.409C113.568 156.419 113.772 156.646 113.756 156.909C113.469 162.472 114.069 168.04 115.556 173.618C115.994 175.271 116.396 176.792 116.766 178.186C115.102 181.639 112.791 184.275 109.828 186.096C105.404 188.822 100.437 190.18 94.9229 190.175C94.8551 190.175 94.7925 190.117 94.7925 190.048C94.7925 190.001 94.8134 189.964 94.8499 189.938C95.2203 189.68 95.8776 189.317 96.8219 188.838C102.06 186.196 106.938 180.654 107.751 174.571C107.762 174.476 107.689 174.392 107.6 174.387C107.543 174.381 107.491 174.402 107.454 174.444C105.159 177.455 102.227 179.944 98.6635 181.918C89.8833 186.791 80.5397 187.785 70.6275 184.907C70.5283 184.88 70.4762 184.77 70.5023 184.67C70.5231 184.602 70.5805 184.549 70.6536 184.533C78.6877 183.149 85.5376 179.286 89.5025 171.918C89.5442 171.839 89.5181 171.739 89.4347 171.692C89.3825 171.666 89.3147 171.671 89.2625 171.708C79.272 179.07 65.1757 182.675 53.2132 178.402C53.0723 178.349 52.9993 178.191 53.0567 178.049C53.088 177.96 53.1662 177.897 53.2601 177.876C61.503 176.544 68.3476 172.56 73.7942 165.924C73.8568 165.85 73.8568 165.735 73.7785 165.666C73.7264 165.614 73.6481 165.603 73.5803 165.635C73.429 165.698 72.8812 165.945 71.9369 166.382C58.5762 172.56 45.1477 172.618 31.6619 166.545C31.521 166.471 31.4636 166.292 31.5367 166.15C31.594 166.04 31.714 165.971 31.8392 165.992C41.6054 167.955 50.3491 165.624 58.0859 158.993C58.1902 158.909 58.2006 158.751 58.1172 158.646C58.065 158.582 57.9815 158.551 57.898 158.556C41.8193 160.288 25.1302 154.735 15.5623 141.452C15.4997 141.368 15.5101 141.242 15.5988 141.173C15.6666 141.121 15.7605 141.115 15.8335 141.168C25.7041 147.541 36.4458 149.573 48.0484 147.257C48.3718 147.194 48.5962 147.073 48.7162 146.889C48.7735 146.804 48.7579 146.689 48.6744 146.631C48.6483 146.615 48.617 146.599 48.5857 146.599C43.134 146.078 37.7814 144.684 32.5122 142.415C15.8544 135.242 5.17526 122.885 0.479982 105.355C0.240001 104.471 0.0991418 103.671 0.0521893 102.95C0.0469727 102.818 0.151313 102.708 0.286953 102.703C0.375643 102.697 0.459114 102.745 0.500849 102.829C2.94239 107.607 6.27083 111.791 10.4757 115.381C19.115 122.748 29.2673 126.801 40.9168 127.543C41.7619 127.595 42.0906 127.443 41.908 127.095Z" fill="#A4A8D4"/>
</g>
<mask id="mask3_66_30" style="mask-type:luminance" maskUnits="userSpaceOnUse" x="91" y="101" width="195" height="244">
<path d="M91.4537 101.619H286V345H91.4537V101.619Z" fill="white"/>
</mask>
<g mask="url(#mask3_66_30)">
<path d="M121.712 292.993C121.691 293.257 121.728 293.409 121.822 293.441C122.135 293.562 122.411 293.583 122.662 293.499C132.903 290.167 142.606 284.457 148.715 275.332C152.769 269.28 155.023 262.47 155.471 254.912C155.664 251.597 155.523 247.613 155.043 242.95C154.798 240.529 154 236.719 152.654 231.514C151.569 227.304 150.713 223.499 150.092 220.089C149.727 218.094 149.524 216.499 149.482 215.299C149.393 212.963 149.086 210.816 149.153 208.863C149.524 199.001 151.501 190.449 155.08 183.212C160.667 171.94 169.322 162.688 181.055 155.467C181.441 155.236 181.848 155.041 182.271 154.894C187.222 153.162 191.687 150.799 195.663 147.815C196.565 147.142 198.172 146.157 199.304 145.752C201.281 145.036 204.01 143.937 207.49 142.447C207.756 142.331 209.055 141.695 211.376 140.537C217 137.726 221.972 133.706 226.297 128.475C226.672 128.28 227.179 127.78 227.831 126.975C227.945 126.833 228.123 126.748 228.311 126.754C230.575 126.785 233.976 126.943 238.52 127.222C240.518 127.343 242.829 127.248 245.464 126.943C245.151 127.311 245.506 127.464 246.523 127.385C253.931 126.833 260.75 124.864 266.984 121.491C274.716 117.296 281.821 110.802 285.447 102.803C285.468 102.745 285.525 102.713 285.588 102.729C285.635 102.745 285.671 102.798 285.661 102.85C285.661 103.366 285.572 104.013 285.4 104.803C283.501 113.586 279.239 122.549 272.973 129.148C265.998 136.479 257.505 141.674 247.488 144.726C244.17 145.736 241.03 146.305 238.056 146.426C237.905 146.426 237.785 146.547 237.779 146.699C237.779 146.831 237.873 146.947 237.999 146.973C249.33 149.752 260.734 147.22 270.594 141.21C270.662 141.168 270.756 141.189 270.798 141.263C270.829 141.316 270.829 141.384 270.792 141.431C260.865 154.862 244.473 160.304 228.342 158.509C228.212 158.488 228.092 158.577 228.071 158.709C228.055 158.799 228.092 158.883 228.159 158.935C233.147 163.072 238.88 165.609 245.36 166.551C247.233 166.819 250.373 166.624 254.787 165.951C254.849 165.94 254.917 165.982 254.928 166.051C254.933 166.087 254.922 166.124 254.902 166.151C254.651 166.477 254.208 166.777 253.561 167.056C247.999 169.445 241.53 171.14 235.197 171.113C227.606 171.071 220.235 169.271 213.087 165.703C212.994 165.661 212.884 165.703 212.842 165.798C212.816 165.861 212.821 165.93 212.863 165.987C218.231 172.687 225.16 176.723 233.658 178.097C233.747 178.113 233.809 178.202 233.788 178.292C233.778 178.35 233.736 178.397 233.684 178.413C221.075 182.47 208.371 179.85 197.645 171.75C197.635 171.745 197.63 171.745 197.619 171.745C197.53 171.719 197.478 171.708 197.473 171.708C197.348 171.634 197.186 171.676 197.113 171.803C197.066 171.882 197.066 171.982 197.113 172.066C201.37 179.223 207.625 183.391 215.873 184.575C215.978 184.591 216.056 184.691 216.035 184.802C216.025 184.875 215.972 184.939 215.899 184.965C212.795 185.807 209.743 186.312 206.749 186.47C196.649 187.007 185.761 182.934 179.615 174.455C179.521 174.329 179.344 174.308 179.219 174.403C179.141 174.46 179.099 174.555 179.104 174.65C179.188 175.634 179.381 176.513 179.688 177.292C182.057 183.244 186.194 187.402 192.094 189.77C192.193 189.801 192.251 189.917 192.209 190.017C192.183 190.091 192.11 190.143 192.032 190.143C183.961 190.275 175.077 186.996 171.013 179.502C170.893 179.281 170.627 179.202 170.413 179.323C170.319 179.371 170.246 179.46 170.209 179.56C168.341 184.597 165.206 188.528 161.679 193.259C159.008 196.843 157.521 200.69 157.214 204.8C157.005 207.611 157.548 210.631 158.836 213.868C160.052 216.905 161.539 219.615 163.297 221.994C167.752 228.025 173.308 232.361 179.97 235.014C182.187 235.898 185.683 237.124 190.456 238.687C192.381 239.319 194.411 240.361 196.555 241.824C202.69 245.997 205.825 253.812 203.848 261.306C203.843 261.354 203.806 261.385 203.76 261.38C203.718 261.375 203.681 261.338 203.686 261.291C203.426 254.228 200.082 249.202 193.649 246.213C190.608 244.802 186.945 244.192 182.803 243.929C179.109 243.687 175.51 242.718 172.186 241.571C172.124 241.55 172.056 241.555 171.978 241.576C171.826 241.624 171.743 241.782 171.785 241.934C171.8 241.982 171.821 242.018 171.852 242.05C174.581 244.834 176.897 247.586 178.796 250.307C183.909 257.623 187.399 264.575 188.302 273.306C188.829 278.405 188.39 283.136 186.987 287.504C184.905 293.972 180.93 299.356 175.071 303.656C174.967 303.73 174.821 303.703 174.748 303.593C174.685 303.503 174.696 303.387 174.764 303.308C181.942 295.341 182.761 283.047 179.13 273.379C176.35 265.99 171.738 259.975 165.816 255.191C165.707 255.107 165.55 255.123 165.462 255.228C165.436 255.265 165.42 255.307 165.415 255.349C165.3 256.117 166.213 258.749 166.938 261.68C167.303 263.148 167.554 265.085 167.679 267.495C168.013 273.742 168.248 276.995 167.069 281.831C167.048 281.926 166.949 281.979 166.855 281.957C166.797 281.942 166.745 281.894 166.729 281.836C165.29 276.526 162.905 271.758 159.572 267.527C159.467 267.39 159.274 267.369 159.139 267.474C159.066 267.527 159.019 267.616 159.019 267.711C158.873 272.206 159.806 275.742 160.876 280.852C163.349 292.588 164.043 304.345 157.97 314.987C156.207 318.071 153.703 320.776 150.447 323.091C143.175 328.28 134.979 329.291 126.47 327.596C126.397 327.58 126.355 327.501 126.376 327.433C126.392 327.38 126.433 327.338 126.486 327.333C132.417 326.849 137.692 324.691 142.309 320.86C144.015 319.444 145.392 317.949 146.451 316.381C148.376 313.508 149.795 310.487 150.703 307.308C152.555 300.809 151.705 293.241 149.733 286.81C149.675 286.636 149.487 286.536 149.315 286.594C149.216 286.631 149.138 286.704 149.106 286.804C146.743 293.988 140.978 300.009 134.603 303.551C126.376 308.103 116.276 309.003 108.059 314.102C102.733 317.413 98.9765 321.97 96.7906 327.775C96.728 327.943 96.6967 328.117 96.6863 328.296C96.6602 328.896 96.4411 329.549 96.0342 330.264C95.9559 330.401 95.8985 330.554 95.8777 330.717C95.1264 335.448 95.5542 340.021 97.1662 344.432C97.1923 344.532 97.1402 344.632 97.0463 344.663C96.9732 344.684 96.8897 344.658 96.848 344.595C95.4186 342.337 94.3021 339.969 93.4987 337.49C92.7214 335.074 92.2832 332.485 92.1892 329.722C91.8449 319.628 95.5855 311.139 103.416 304.256C106.296 301.73 109.504 299.777 113.318 297.73C116.166 296.199 118.963 294.625 121.712 292.993Z" fill="#A4A8D4"/>
</g>
<path d="M139.152 257.365C137.28 260.591 135.167 263.454 132.809 265.948C127.174 271.921 119.26 275.474 111.377 277.605C103.896 279.631 99.0652 280.436 94.2499 284.736C91.3284 287.352 89.4503 290.488 88.6104 294.141C88.3704 295.198 88.1565 296.093 87.9739 296.825C87.9635 296.84 87.9426 296.851 87.9269 296.84C87.9165 296.835 87.9113 296.825 87.9113 296.819C87.0296 286.357 92.6274 277.905 102.378 274.532C107.292 272.837 112.593 271.616 116.824 269.311C122.427 266.264 126.199 261.58 128.139 255.259C129.376 251.254 129.611 246.897 128.844 242.192C131.165 239.776 133.179 236.887 134.89 233.514C134.974 233.34 135.182 233.272 135.349 233.361C135.37 233.372 135.386 233.382 135.401 233.393C135.558 233.514 135.683 233.698 135.772 233.94C138.568 241.824 139.695 249.634 139.152 257.365Z" fill="#A4A8D4"/>
</svg>
